<svg width="29" height="28" viewBox="0 0 29 28" fill="none" xmlns="http://www.w3.org/2000/svg">
<path d="M14.731 27.9394C7.13255 27.9273 0.967899 21.7505 0.979998 14.1642C0.992098 6.54758 7.16885 0.40108 14.7854 0.41923C22.3899 0.443428 28.5122 6.60203 28.5001 14.2186C28.482 21.805 22.3113 27.9515 14.731 27.9394ZM19.4014 19.5968C19.2925 19.2096 19.2138 18.8648 19.0928 18.5381C18.9597 18.163 19.0565 17.8908 19.359 17.6367C20.6113 16.5901 21.8515 15.5254 23.0977 14.4667C23.1764 14.4001 23.255 14.3275 23.3579 14.2307C23.0735 14.0916 22.8315 13.9706 22.5835 13.8496C22.2205 13.6741 22.1903 13.6136 22.2931 13.2144C22.4323 12.6699 22.5835 12.1254 22.7226 11.5749C22.8073 11.2361 22.892 10.9034 22.9888 10.5343C22.8739 10.5525 22.8073 10.5525 22.7408 10.5706C22.1177 10.7037 21.5006 10.8368 20.8775 10.976C20.2907 11.103 20.2423 11.0788 20.0789 10.4859C20.0063 10.2198 19.9337 9.95962 19.843 9.63294C19.2078 10.3771 18.627 11.0607 18.0402 11.7382C17.8889 11.9137 17.7377 12.1859 17.4594 12.0589C17.169 11.9258 17.2719 11.6172 17.3142 11.3813C17.5381 10.0988 17.774 8.82228 18.0039 7.54579C18.0402 7.3522 18.0644 7.15861 18.1007 6.89847C17.6711 7.12836 17.3021 7.3401 16.927 7.52764C16.5701 7.70913 16.3705 7.64258 16.189 7.28565C15.7534 6.44474 15.3239 5.59778 14.8883 4.75687C14.8399 4.66613 14.7854 4.57538 14.7128 4.44834C14.2228 5.39814 13.763 6.2935 13.3033 7.18886C13.0552 7.67283 12.8979 7.72728 12.42 7.47319C12.0752 7.2917 11.7364 7.10416 11.3613 6.90452C11.3613 7.00131 11.3552 7.04971 11.3613 7.09811C11.5428 8.10841 11.7243 9.11871 11.9058 10.1351C11.9905 10.619 12.0994 11.103 12.1538 11.593C12.172 11.7443 12.0449 11.9076 11.9844 12.071C11.8332 12.0105 11.6819 11.9621 11.5367 11.8955C11.4883 11.8713 11.4581 11.8048 11.4157 11.7624C10.8834 11.1393 10.357 10.5222 9.82467 9.89912C9.76417 9.82653 9.69157 9.75998 9.59478 9.65109C9.48588 10.0443 9.38909 10.3771 9.29835 10.7158C9.22575 10.982 9.06241 11.0788 8.80227 11.0244C8.63288 10.9881 8.46954 10.9518 8.30015 10.9155C7.70728 10.7884 7.10835 10.6553 6.46708 10.5162C6.49733 10.6614 6.51548 10.7582 6.53968 10.855C6.75142 11.6656 6.95711 12.4763 7.17489 13.2809C7.24749 13.5531 7.18095 13.7225 6.91476 13.8314C6.64252 13.9464 6.38843 14.0916 6.08595 14.2368C6.24929 14.3759 6.36424 14.4788 6.47313 14.5755C7.69517 15.6161 8.91721 16.6506 10.1393 17.6851C10.3933 17.9029 10.478 18.1388 10.3752 18.4595C10.2602 18.8164 10.1695 19.1854 10.0546 19.5847C10.2845 19.5605 10.4659 19.5484 10.6414 19.5242C11.7727 19.3911 12.904 19.252 14.0353 19.1189C14.4103 19.0765 14.5132 19.1794 14.495 19.5484C14.4406 20.8975 14.3861 22.2466 14.3378 23.5957C14.3317 23.6925 14.3378 23.7893 14.3378 23.8861C14.5858 23.8861 14.7915 23.8861 15.0335 23.8861C15.0335 23.7711 15.0335 23.6743 15.0335 23.5775C15.0032 22.3373 14.979 21.0971 14.9488 19.8569C14.9306 19.0705 14.9548 19.0523 15.7292 19.1491C16.9512 19.3064 18.137 19.4456 19.4014 19.5968Z" fill="#F35C5C"/>
<path d="M19.4014 19.5965C18.137 19.4453 16.9452 19.3061 15.7595 19.1549C14.9851 19.0581 14.9609 19.0763 14.979 19.8627C15.0093 21.1029 15.0395 22.3431 15.0637 23.5833C15.0637 23.6801 15.0637 23.7769 15.0637 23.8918C14.8217 23.8918 14.6161 23.8918 14.368 23.8918C14.368 23.795 14.362 23.6982 14.368 23.6014C14.4225 22.2523 14.4769 20.9033 14.5253 19.5542C14.5374 19.1791 14.4406 19.0763 14.0655 19.1246C12.9342 19.2517 11.8029 19.3969 10.6716 19.53C10.4962 19.5542 10.3147 19.5663 10.0848 19.5905C10.1998 19.1912 10.2905 18.8222 10.4055 18.4652C10.5083 18.1446 10.4236 17.9026 10.1695 17.6909C8.94143 16.6564 7.72544 15.6158 6.50339 14.5813C6.38845 14.4845 6.2735 14.3877 6.11621 14.2425C6.4187 14.0913 6.67279 13.9461 6.94503 13.8372C7.21121 13.7283 7.27776 13.5589 7.20516 13.2867C6.98737 12.4821 6.78168 11.6714 6.56994 10.8607C6.54574 10.7639 6.52759 10.6732 6.49735 10.522C7.13861 10.6611 7.73754 10.7881 8.33041 10.9212C8.4998 10.9575 8.66314 10.9938 8.83253 11.0301C9.09267 11.0846 9.26207 10.9878 9.32861 10.7216C9.41936 10.3828 9.51615 10.044 9.62504 9.65685C9.72184 9.7597 9.79444 9.83229 9.85493 9.90489C10.3873 10.528 10.9136 11.1451 11.446 11.7682C11.4823 11.8166 11.5186 11.8771 11.567 11.9013C11.7122 11.9678 11.8634 12.0223 12.0147 12.0767C12.0752 11.9194 12.2022 11.7501 12.1841 11.5988C12.1296 11.1088 12.0207 10.6248 11.936 10.1408C11.7545 9.13053 11.5731 8.12023 11.3916 7.10387C11.3855 7.05548 11.3916 7.00708 11.3916 6.91028C11.7606 7.10992 12.1054 7.29747 12.4503 7.47896C12.9221 7.72699 13.0855 7.67255 13.3335 7.19462C13.7933 6.29926 14.2531 5.40391 14.7431 4.4541C14.8157 4.58115 14.8762 4.67189 14.9185 4.76264C15.3541 5.60355 15.7836 6.45051 16.2192 7.29142C16.4007 7.64835 16.6004 7.71489 16.9573 7.5334C17.3324 7.34586 17.6954 7.13412 18.1309 6.90423C18.0886 7.16437 18.0644 7.35796 18.0341 7.55155C17.8043 8.82804 17.5683 10.1106 17.3445 11.3871C17.3021 11.6291 17.1993 11.9315 17.4897 12.0646C17.768 12.1917 17.9192 11.9255 18.0704 11.744C18.6573 11.0664 19.238 10.3828 19.8733 9.6387C19.964 9.95934 20.0366 10.2255 20.1092 10.4917C20.2725 11.0785 20.3209 11.1088 20.9078 10.9817C21.5248 10.8426 22.1479 10.7095 22.7711 10.5764C22.8376 10.5643 22.9042 10.5583 23.0191 10.5401C22.9223 10.9091 22.8437 11.2479 22.7529 11.5807C22.6077 12.1251 22.4625 12.6696 22.3234 13.2201C22.2205 13.6194 22.2508 13.6799 22.6138 13.8554C22.8558 13.9763 23.0977 14.0973 23.3881 14.2365C23.2792 14.3333 23.2066 14.4059 23.128 14.4724C21.8818 15.5311 20.6416 16.5959 19.3893 17.6425C19.0807 17.8966 18.99 18.1688 19.1231 18.5439C19.2138 18.8645 19.2925 19.2093 19.4014 19.5965Z" fill="white"/>
</svg>
