<svg width="17" height="20" viewBox="0 0 17 20" fill="none" xmlns="http://www.w3.org/2000/svg">
<path d="M8.5 3.5625C9.3198 3.5625 9.98438 2.89792 9.98438 2.07812C9.98438 1.25833 9.3198 0.59375 8.5 0.59375C7.6802 0.59375 7.01562 1.25833 7.01562 2.07812C7.01562 2.89792 7.6802 3.5625 8.5 3.5625Z" stroke="#F35C5C" stroke-width="1.1875" stroke-linejoin="round"/>
<path d="M6.5789 10.1843C6.68651 9.51412 6.73476 8.86619 6.56034 8.41828C6.4119 8.03308 6.08905 7.81748 5.6994 7.67052L2.26567 6.55947C1.82036 6.41103 1.40437 6.1624 1.37505 5.67107C1.33794 5.04021 1.89458 4.63201 2.45122 4.78045C2.45122 4.78045 5.71685 5.93603 8.50005 5.93603C11.2833 5.93603 14.5118 4.78564 14.5118 4.78564C15.1797 4.6001 15.625 5.11963 15.625 5.66847C15.625 6.1958 15.2168 6.38135 14.7344 6.55687L11.4688 7.74103C11.1719 7.85236 10.6895 8.07502 10.504 8.41568C10.2813 8.81461 10.3184 9.51152 10.426 10.1817L10.645 11.2813L12.0332 17.3635C12.1371 17.8515 11.7994 18.3076 11.3133 18.3929C10.8272 18.4783 10.4297 18.1465 10.2858 17.6745L8.89192 13.3724C8.82488 13.1661 8.76551 12.9574 8.7138 12.7463L8.50005 11.875L8.30337 12.6784C8.24103 12.9345 8.16928 13.1878 8.08813 13.4384L6.7188 17.6708C6.57036 18.1476 6.18071 18.4779 5.69458 18.3929C5.20845 18.3079 4.86333 17.8144 4.97243 17.3635L6.35995 11.2839L6.5789 10.1843Z" stroke="#F35C5C" stroke-width="1.1875" stroke-linejoin="round"/>
</svg>
