<svg width="17" height="17" viewBox="0 0 17 17" fill="none" xmlns="http://www.w3.org/2000/svg">
<path d="M9.48441 16.7356L8.49987 16.1685L10.7684 12.1985H14.1712C14.3202 12.1988 14.4678 12.1696 14.6055 12.1127C14.7432 12.0557 14.8683 11.9722 14.9737 11.8668C15.0791 11.7615 15.1626 11.6363 15.2195 11.4986C15.2765 11.3609 15.3057 11.2133 15.3054 11.0643V3.12448C15.3057 2.97546 15.2765 2.82786 15.2195 2.69015C15.1626 2.55243 15.0791 2.4273 14.9737 2.32193C14.8683 2.21656 14.7432 2.13302 14.6055 2.0761C14.4678 2.01918 14.3202 1.98999 14.1712 1.99022H2.82858C2.67956 1.98999 2.53197 2.01918 2.39425 2.0761C2.25653 2.13302 2.13141 2.21656 2.02604 2.32193C1.92066 2.4273 1.83712 2.55243 1.7802 2.69015C1.72328 2.82786 1.69409 2.97546 1.69432 3.12448V11.0643C1.69409 11.2133 1.72328 11.3609 1.7802 11.4986C1.83712 11.6363 1.92066 11.7615 2.02604 11.8668C2.13141 11.9722 2.25653 12.0557 2.39425 12.1127C2.53197 12.1696 2.67956 12.1988 2.82858 12.1985H7.93274V13.3328H2.82858C2.22693 13.3328 1.64992 13.0938 1.22449 12.6684C0.799063 12.2429 0.560059 11.6659 0.560059 11.0643V3.12448C0.559984 2.82655 0.61861 2.53153 0.732588 2.25626C0.846565 1.981 1.01366 1.73089 1.22433 1.52022C1.43499 1.30956 1.6851 1.14246 1.96036 1.02849C2.23563 0.914509 2.53065 0.855883 2.82858 0.855957H14.1712C14.4691 0.855883 14.7641 0.914509 15.0394 1.02849C15.3146 1.14246 15.5648 1.30956 15.7754 1.52022C15.9861 1.73089 16.1532 1.981 16.2672 2.25626C16.3811 2.53153 16.4398 2.82655 16.4397 3.12448V11.0643C16.4397 11.6659 16.2007 12.2429 15.7753 12.6684C15.3498 13.0938 14.7728 13.3328 14.1712 13.3328H11.4291L9.48441 16.7356Z" fill="#F35C5C"/>
</svg>
