<svg width="15" height="15" viewBox="0 0 15 15" fill="none" xmlns="http://www.w3.org/2000/svg">
<path d="M9.53208 7.88792L14.5439 2.88704C14.7634 2.66754 14.8867 2.36982 14.8867 2.05939C14.8867 1.74896 14.7634 1.45125 14.5439 1.23174C14.3244 1.01223 14.0268 0.888916 13.7164 0.888916C13.406 0.888916 13.1083 1.01223 12.8888 1.23174L7.88867 6.24428L2.8885 1.23174C2.66903 1.01223 2.37136 0.888916 2.06097 0.888916C1.75059 0.888916 1.45291 1.01223 1.23344 1.23174C1.01396 1.45125 0.890661 1.74896 0.890661 2.05939C0.890661 2.36982 1.01396 2.66754 1.23344 2.88704L6.24526 7.88792L1.23344 12.8888C1.12419 12.9972 1.03748 13.1261 0.97831 13.2681C0.919137 13.4102 0.888672 13.5626 0.888672 13.7165C0.888672 13.8703 0.919137 14.0227 0.97831 14.1648C1.03748 14.3068 1.12419 14.4357 1.23344 14.5441C1.34179 14.6534 1.4707 14.7401 1.61273 14.7993C1.75476 14.8584 1.90711 14.8889 2.06097 14.8889C2.21484 14.8889 2.36718 14.8584 2.50921 14.7993C2.65124 14.7401 2.78015 14.6534 2.8885 14.5441L7.88867 9.53157L12.8888 14.5441C12.9972 14.6534 13.1261 14.7401 13.2681 14.7993C13.4102 14.8584 13.5625 14.8889 13.7164 14.8889C13.8702 14.8889 14.0226 14.8584 14.1646 14.7993C14.3066 14.7401 14.4356 14.6534 14.5439 14.5441C14.6532 14.4357 14.7399 14.3068 14.799 14.1648C14.8582 14.0227 14.8887 13.8703 14.8887 13.7165C14.8887 13.5626 14.8582 13.4102 14.799 13.2681C14.7399 13.1261 14.6532 12.9972 14.5439 12.8888L9.53208 7.88792Z" fill="#333333"/>
</svg>
