<svg width="19" height="15" viewBox="0 0 19 15" fill="none" xmlns="http://www.w3.org/2000/svg">
<path d="M17.8125 0.371094H1.1875C0.872555 0.371094 0.57051 0.49401 0.347811 0.712802C0.125111 0.931595 0 1.22834 0 1.53776V13.2044C0 13.5138 0.125111 13.8106 0.347811 14.0294C0.57051 14.2482 0.872555 14.3711 1.1875 14.3711H17.8125C18.1274 14.3711 18.4295 14.2482 18.6522 14.0294C18.8749 13.8106 19 13.5138 19 13.2044V1.53776C19 1.22834 18.8749 0.931595 18.6522 0.712802C18.4295 0.49401 18.1274 0.371094 17.8125 0.371094ZM16.8981 13.2044H2.17312L6.32937 8.98109L5.47438 8.17026L1.1875 12.5278V2.42443L8.56781 9.64026C8.79031 9.85755 9.09128 9.97952 9.405 9.97952C9.71872 9.97952 10.0197 9.85755 10.2422 9.64026L17.8125 2.24359V12.4519L13.4425 8.15859L12.6053 8.98109L16.8981 13.2044ZM1.96531 1.53776H16.8506L9.405 8.81193L1.96531 1.53776Z" fill="#6E6F6F"/>
</svg>
