<svg width="19" height="14" viewBox="0 0 19 14" fill="none" xmlns="http://www.w3.org/2000/svg">
<path d="M17.8125 0H1.1875C0.872555 0 0.57051 0.122916 0.347811 0.341709C0.125111 0.560501 0 0.857247 0 1.16667V12.8333C0 13.1428 0.125111 13.4395 0.347811 13.6583C0.57051 13.8771 0.872555 14 1.1875 14H17.8125C18.1274 14 18.4295 13.8771 18.6522 13.6583C18.8749 13.4395 19 13.1428 19 12.8333V1.16667C19 0.857247 18.8749 0.560501 18.6522 0.341709C18.4295 0.122916 18.1274 0 17.8125 0ZM16.8981 12.8333H2.17312L6.32937 8.61L5.47438 7.79917L1.1875 12.1567V2.05333L8.56781 9.26917C8.79031 9.48646 9.09128 9.60843 9.405 9.60843C9.71872 9.60843 10.0197 9.48646 10.2422 9.26917L17.8125 1.8725V12.0808L13.4425 7.7875L12.6053 8.61L16.8981 12.8333ZM1.96531 1.16667H16.8506L9.405 8.44083L1.96531 1.16667Z" fill="#6243CE"/>
</svg>
