<svg width="15" height="11" viewBox="0 0 15 11" fill="none" xmlns="http://www.w3.org/2000/svg">
<path d="M13.9955 0H0.933036C0.685579 0 0.448258 0.0965771 0.27328 0.268485C0.0983016 0.440394 0 0.673552 0 0.916667V10.0833C0 10.3264 0.0983016 10.5596 0.27328 10.7315C0.448258 10.9034 0.685579 11 0.933036 11H13.9955C14.243 11 14.4803 10.9034 14.6553 10.7315C14.8303 10.5596 14.9286 10.3264 14.9286 10.0833V0.916667C14.9286 0.673552 14.8303 0.440394 14.6553 0.268485C14.4803 0.0965771 14.243 0 13.9955 0ZM13.2771 10.0833H1.70746L4.97308 6.765L4.30129 6.12792L0.933036 9.55167V1.61333L6.73185 7.28292C6.90667 7.45365 7.14315 7.54948 7.38964 7.54948C7.63614 7.54948 7.87262 7.45365 8.04743 7.28292L13.9955 1.47125V9.49208L10.562 6.11875L9.90417 6.765L13.2771 10.0833ZM1.54417 0.916667H13.2398L7.38964 6.63208L1.54417 0.916667Z" fill="#ffffff"/>
</svg>
