<svg width="45" height="46" viewBox="0 0 45 46" fill="none" xmlns="http://www.w3.org/2000/svg">
<circle cx="22.5" cy="22.8711" r="22.5" fill="#F35C5C"/>
<path d="M14.6581 23.2946C14.2442 22.8807 14.2442 22.2097 14.6581 21.7958L22.0765 14.3773C22.4904 13.9634 23.1614 13.9634 23.5753 14.3773L30.9938 21.7958C31.4076 22.2097 31.4076 22.8807 30.9938 23.2946C30.5799 23.7084 29.9089 23.7084 29.495 23.2946L23.8857 17.6852L23.8857 29.9637C23.8857 30.549 23.4112 31.0234 22.8259 31.0234C22.2406 31.0234 21.7661 30.549 21.7661 29.9637L21.7661 17.6852L16.1568 23.2946C15.7429 23.7084 15.0719 23.7084 14.6581 23.2946Z" fill="white"/>
</svg>
