<svg width="16" height="16" viewBox="0 0 16 16" fill="none" xmlns="http://www.w3.org/2000/svg">
<path fill-rule="evenodd" clip-rule="evenodd" d="M8.16005 15.6399C12.2911 15.6399 15.6401 12.291 15.6401 8.15993C15.6401 4.02884 12.2911 0.679932 8.16005 0.679932C4.02896 0.679932 0.680054 4.02884 0.680054 8.15993C0.680054 12.291 4.02896 15.6399 8.16005 15.6399ZM6.61354 2.23701C4.19484 2.86679 2.3583 4.93893 2.07741 7.47993H4.79412C4.94658 5.60097 5.57544 3.79734 6.61354 2.23701ZM9.70657 2.23701C10.7447 3.79734 11.3735 5.60097 11.526 7.47993H14.2427C13.9618 4.93893 12.1253 2.86679 9.70657 2.23701ZM10.1609 7.47993C9.99008 5.63497 9.29543 3.87725 8.16005 2.41447C7.02467 3.87725 6.33003 5.63497 6.15922 7.47993H10.1609ZM6.15922 8.83993H10.1609C9.99008 10.6849 9.29543 12.4426 8.16005 13.9054C7.02467 12.4426 6.33003 10.6849 6.15922 8.83993ZM4.79412 8.83993H2.07741C2.3583 11.3809 4.19484 13.4531 6.61354 14.0828C5.57544 12.5225 4.94658 10.7189 4.79412 8.83993ZM9.70657 14.0828C10.7447 12.5225 11.3735 10.7189 11.526 8.83993H14.2427C13.9618 11.3809 12.1253 13.4531 9.70657 14.0828Z" fill="#6E6F6F"/>
</svg>
