<svg width="16" height="16" viewBox="0 0 16 16" fill="none" xmlns="http://www.w3.org/2000/svg">
<path fill-rule="evenodd" clip-rule="evenodd" d="M8.16018 15.6399C12.2913 15.6399 15.6402 12.291 15.6402 8.15993C15.6402 4.02884 12.2913 0.679932 8.16018 0.679932C4.02909 0.679932 0.680176 4.02884 0.680176 8.15993C0.680176 12.291 4.02909 15.6399 8.16018 15.6399ZM6.61366 2.23701C4.19497 2.86679 2.35842 4.93893 2.07753 7.47993H4.79424C4.9467 5.60097 5.57557 3.79734 6.61366 2.23701ZM9.70669 2.23701C10.7448 3.79734 11.3737 5.60097 11.5261 7.47993H14.2428C13.9619 4.93893 12.1254 2.86679 9.70669 2.23701ZM10.161 7.47993C9.9902 5.63497 9.29556 3.87725 8.16018 2.41447C7.0248 3.87725 6.33015 5.63497 6.15934 7.47993H10.161ZM6.15934 8.83993H10.161C9.9902 10.6849 9.29556 12.4426 8.16017 13.9054C7.02479 12.4426 6.33015 10.6849 6.15934 8.83993ZM4.79424 8.83993H2.07753C2.35842 11.3809 4.19497 13.4531 6.61366 14.0828C5.57557 12.5225 4.9467 10.7189 4.79424 8.83993ZM9.70669 14.0828C10.7448 12.5225 11.3737 10.7189 11.5261 8.83993H14.2428C13.9619 11.3809 12.1254 13.4531 9.70669 14.0828Z" fill="#CED0D0"/>
</svg>
