<svg width="29" height="29" viewBox="0 0 29 29" fill="none" xmlns="http://www.w3.org/2000/svg">
<path d="M14.4583 0.500015C6.72625 0.500015 0.458328 6.76793 0.458328 14.5C0.458328 22.2321 6.72625 28.5 14.4583 28.5C22.1904 28.5 28.4583 22.2321 28.4583 14.5C28.4583 6.76793 22.1904 0.500015 14.4583 0.500015ZM11.0312 20.3027H8.19624V11.1794H11.0312V20.3027ZM9.59624 10.0594C8.70083 10.0594 8.12187 9.42502 8.12187 8.64043C8.12187 7.83981 8.71833 7.22439 9.6327 7.22439C10.5471 7.22439 11.1071 7.83981 11.1246 8.64043C11.1246 9.42502 10.5471 10.0594 9.59624 10.0594ZM21.3854 20.3027H18.5504V15.2467C18.5504 14.0698 18.1392 13.2706 17.114 13.2706C16.3308 13.2706 15.8656 13.8117 15.66 14.3323C15.5842 14.5175 15.5652 14.78 15.5652 15.0411V20.3013H12.7287V14.0888C12.7287 12.9498 12.6923 11.9975 12.6544 11.1779H15.1175L15.2473 12.4452H15.3042C15.6775 11.8502 16.5919 10.9723 18.1217 10.9723C19.9869 10.9723 21.3854 12.2221 21.3854 14.9083V20.3027Z" fill="white"/>
</svg>
