<svg width="25" height="25" viewBox="0 0 25 25" fill="none" xmlns="http://www.w3.org/2000/svg">
<path d="M12.2945 0.166016C5.55397 0.166016 0.0898438 5.63014 0.0898438 12.3707C0.0898438 19.1112 5.55397 24.5753 12.2945 24.5753C19.035 24.5753 24.4991 19.1112 24.4991 12.3707C24.4991 5.63014 19.035 0.166016 12.2945 0.166016ZM9.3069 17.4292H6.83546V9.47588H9.3069V17.4292ZM8.05592 8.4995C7.27533 8.4995 6.77062 7.94648 6.77062 7.26251C6.77062 6.56456 7.29059 6.02806 8.0877 6.02806C8.88482 6.02806 9.37301 6.56456 9.38826 7.26251C9.38826 7.94648 8.88482 8.4995 8.05592 8.4995ZM18.3333 17.4292H15.8618V13.0216C15.8618 11.9956 15.5033 11.2989 14.6096 11.2989C13.9269 11.2989 13.5213 11.7706 13.3421 12.2245C13.276 12.3859 13.2594 12.6148 13.2594 12.8423V17.428H10.7867V12.0122C10.7867 11.0193 10.7549 10.1891 10.7219 9.4746H12.8691L12.9823 10.5794H13.0319C13.3573 10.0607 14.1544 9.29535 15.488 9.29535C17.1141 9.29535 18.3333 10.3849 18.3333 12.7266V17.4292Z" fill="#6E6F6F"/>
</svg>
