<svg width="18" height="19" viewBox="0 0 18 19" fill="none" xmlns="http://www.w3.org/2000/svg">
<g clip-path="url(#clip0_162_3791)">
<path d="M8.92725 4.85693C8.48224 4.85693 8.04722 4.98889 7.67721 5.23613C7.3072 5.48336 7.01882 5.83476 6.84852 6.2459C6.67822 6.65703 6.63366 7.10943 6.72048 7.54589C6.8073 7.98234 7.02159 8.38326 7.33626 8.69792C7.65092 9.01259 8.05184 9.22688 8.48829 9.3137C8.92475 9.40052 9.37715 9.35596 9.78829 9.18566C10.1994 9.01536 10.5508 8.72698 10.7981 8.35697C11.0453 7.98696 11.1772 7.55194 11.1772 7.10693C11.1766 6.5104 10.9393 5.9385 10.5175 5.51669C10.0957 5.09488 9.52378 4.85761 8.92725 4.85693ZM8.92725 8.23193C8.70474 8.23193 8.48724 8.16595 8.30223 8.04234C8.11723 7.91872 7.97303 7.74302 7.88788 7.53745C7.80273 7.33189 7.78045 7.10569 7.82386 6.88746C7.86727 6.66923 7.97442 6.46877 8.13175 6.31144C8.28909 6.1541 8.48954 6.04696 8.70777 6.00355C8.926 5.96014 9.1522 5.98242 9.35777 6.06757C9.56333 6.15272 9.73903 6.29691 9.86265 6.48192C9.98627 6.66692 10.0522 6.88443 10.0522 7.10693C10.0519 7.4052 9.93327 7.69114 9.72236 7.90205C9.51146 8.11295 9.22551 8.23159 8.92725 8.23193Z" fill="#6E6F6F"/>
<path d="M13.2505 2.7796C12.1815 1.71086 10.7545 1.07599 9.24489 0.99751C7.73532 0.919031 6.25019 1.40251 5.07612 2.35464C3.90206 3.30676 3.12229 4.66003 2.88733 6.15327C2.65236 7.64651 2.97885 9.17386 3.80377 10.4405L8.05441 16.966C8.149 17.1112 8.27834 17.2305 8.43069 17.3131C8.58305 17.3957 8.7536 17.4389 8.9269 17.4389C9.1002 17.4389 9.27075 17.3957 9.42311 17.3131C9.57546 17.2305 9.7048 17.1112 9.79939 16.966L14.0502 10.4405C14.8156 9.26551 15.1539 7.86308 15.0083 6.46831C14.8627 5.07354 14.2421 3.77121 13.2505 2.7796ZM13.1076 9.82646L8.92692 16.2442L4.74624 9.82646C3.46655 7.86196 3.74102 5.23298 5.39885 3.57508C5.86216 3.11175 6.41219 2.74423 7.01753 2.49348C7.62288 2.24273 8.27169 2.11367 8.92692 2.11367C9.58214 2.11367 10.231 2.24273 10.8363 2.49348C11.4416 2.74423 11.9917 3.11175 12.455 3.57508C14.1128 5.23298 14.3872 7.86196 13.1076 9.82646Z" fill="#6E6F6F"/>
</g>
<defs>
<clipPath id="clip0_162_3791">
<rect width="18" height="18" fill="white" transform="translate(0 0.371094)"/>
</clipPath>
</defs>
</svg>
