<svg width="18" height="18" viewBox="0 0 18 18" fill="none" xmlns="http://www.w3.org/2000/svg">
<path d="M8.927 4.48566C8.48199 4.48566 8.04698 4.61762 7.67697 4.86485C7.30696 5.11208 7.01857 5.46349 6.84827 5.87462C6.67798 6.28575 6.63342 6.73815 6.72024 7.17461C6.80705 7.61107 7.02134 8.01198 7.33601 8.32665C7.65068 8.64131 8.05159 8.85561 8.48805 8.94242C8.92451 9.02924 9.37691 8.98468 9.78804 8.81438C10.1992 8.64409 10.5506 8.3557 10.7978 7.98569C11.045 7.61568 11.177 7.18066 11.177 6.73566C11.1763 6.13913 10.9391 5.56723 10.5172 5.14542C10.0954 4.72361 9.52353 4.48634 8.927 4.48566ZM8.927 7.86066C8.7045 7.86066 8.48699 7.79468 8.30199 7.67106C8.11698 7.54744 7.97279 7.37174 7.88764 7.16618C7.80249 6.96061 7.78021 6.73441 7.82362 6.51618C7.86703 6.29795 7.97417 6.0975 8.13151 5.94016C8.28884 5.78283 8.4893 5.67568 8.70753 5.63227C8.92576 5.58886 9.15195 5.61114 9.35752 5.69629C9.56309 5.78144 9.73879 5.92563 9.86241 6.11064C9.98602 6.29565 10.052 6.51315 10.052 6.73566C10.0517 7.03392 9.93302 7.31987 9.72212 7.53077C9.51121 7.74168 9.22527 7.86031 8.927 7.86066Z" fill="#6243CE"/>
<path d="M13.2506 2.40875C12.1816 1.34001 10.7546 0.705138 9.24502 0.62666C7.73544 0.548182 6.25031 1.03166 5.07624 1.98379C3.90218 2.93591 3.12242 4.28919 2.88745 5.78242C2.65248 7.27566 2.97897 8.80301 3.80389 10.0697L8.05453 16.5951C8.14912 16.7403 8.27846 16.8596 8.43081 16.9422C8.58317 17.0248 8.75373 17.0681 8.92702 17.0681C9.10032 17.0681 9.27087 17.0248 9.42323 16.9422C9.57558 16.8596 9.70492 16.7403 9.79951 16.5951L14.0503 10.0697C14.8157 8.89466 15.154 7.49223 15.0084 6.09746C14.8628 4.70269 14.2422 3.40036 13.2506 2.40875ZM13.1077 9.45561L8.92704 15.8734L4.74636 9.45561C3.46668 7.49111 3.74114 4.86213 5.39897 3.20423C5.86228 2.74091 6.41231 2.37338 7.01766 2.12263C7.623 1.87188 8.27181 1.74282 8.92704 1.74282C9.58227 1.74282 10.2311 1.87188 10.8364 2.12263C11.4418 2.37338 11.9918 2.74091 12.4551 3.20423C14.1129 4.86213 14.3874 7.49111 13.1077 9.45561Z" fill="#6243CE"/>
</svg>
