<svg width="19" height="18" viewBox="0 0 19 18" fill="none" xmlns="http://www.w3.org/2000/svg">
<path d="M9.16111 4.93889C8.79599 4.57377 8.20401 4.57377 7.83889 4.93889C7.47377 5.30401 7.47377 5.89599 7.83889 6.26111L7.89699 6.31922C8.53775 6.95997 8.08394 8.05556 7.17778 8.05556H0.944445C0.422843 8.05556 0 8.4784 0 9C0 9.5216 0.422842 9.94444 0.944445 9.94444H7.17778C8.08394 9.94444 8.53775 11.04 7.89699 11.6808L7.83889 11.7389C7.47377 12.104 7.47377 12.696 7.83889 13.0611C8.20401 13.4262 8.79599 13.4262 9.16111 13.0611L12.3636 9.85863C12.8378 9.38442 12.8378 8.61558 12.3636 8.14137L9.16111 4.93889ZM17 14.3968C17 15.0675 16.4563 15.6111 15.7857 15.6111H10.3889C9.86729 15.6111 9.44444 16.034 9.44444 16.5556C9.44444 17.0772 9.86729 17.5 10.3889 17.5H17C18.0389 17.5 18.8889 16.65 18.8889 15.6111V2.38889C18.8889 1.35 18.0389 0.5 17 0.5H10.3889C9.86729 0.5 9.44444 0.922842 9.44444 1.44444C9.44444 1.96605 9.86729 2.38889 10.3889 2.38889H15.7857C16.4563 2.38889 17 2.93254 17 3.60317V14.3968Z" fill="#CED0D0"/>
</svg>
