<svg width="22" height="19" viewBox="0 0 22 19" fill="none" xmlns="http://www.w3.org/2000/svg">
<path d="M7.57957 13.09L10.1696 10.5H0V8.5H10.1696L7.57957 5.91L8.99957 4.5L13.9996 9.5L8.99957 14.5L7.57957 13.09Z" fill="white"/>
<path d="M6 18.5C5.46957 18.5 4.96086 18.2893 4.58579 17.9142C4.21071 17.5391 4 17.0304 4 16.5L4 11.83L6 13.83L6 16.5L20 16.5L20 2.5L6 2.5L6 5.17L4 7.17L4 2.5C4 1.96957 4.21072 1.46086 4.58579 1.08579C4.96086 0.710713 5.46957 0.499999 6 0.499999L20 0.5C21.11 0.5 22 1.4 22 2.5L22 16.5C22 17.61 21.11 18.5 20 18.5L6 18.5Z" fill="white"/>
</svg>
