<svg width="21" height="19" viewBox="0 0 21 19" fill="none" xmlns="http://www.w3.org/2000/svg">
<path d="M10.1254 5.0641C9.72188 4.66054 9.06759 4.66054 8.66404 5.0641C8.26048 5.46766 8.26048 6.12195 8.66404 6.5255L8.72826 6.58972C9.43646 7.29792 8.93488 8.50884 7.93333 8.50884H1.04386C0.467352 8.50884 0 8.97619 0 9.5527C0 10.1292 0.467352 10.5966 1.04386 10.5966H7.93333C8.93488 10.5966 9.43646 11.8075 8.72826 12.5157L8.66404 12.5799C8.26048 12.9834 8.26048 13.6377 8.66404 14.0413C9.06759 14.4448 9.72188 14.4448 10.1254 14.0413L13.665 10.5017C14.1891 9.97758 14.1891 9.12781 13.665 8.60368L10.1254 5.0641ZM18.7895 15.5176C18.7895 16.2588 18.1886 16.8597 17.4474 16.8597H11.4825C10.9059 16.8597 10.4386 17.3271 10.4386 17.9036C10.4386 18.4801 10.9059 18.9474 11.4825 18.9474H18.7895C19.9377 18.9474 20.8772 18.008 20.8772 16.8597V2.24568C20.8772 1.09743 19.9377 0.157959 18.7895 0.157959H11.4825C10.9059 0.157959 10.4386 0.625311 10.4386 1.20182C10.4386 1.77833 10.9059 2.24568 11.4825 2.24568H17.4474C18.1886 2.24568 18.7895 2.84656 18.7895 3.58778V15.5176Z" fill="#333333"/>
</svg>
