<svg width="81" height="32" viewBox="0 0 81 32" fill="none" xmlns="http://www.w3.org/2000/svg">
<path d="M19.1929 4.84775C19.1929 3.62242 18.9101 2.66808 18.3446 1.98472C17.8026 1.30137 17.0132 0.959687 15.9764 0.959687C15.9293 0.959687 15.9057 0.888995 15.9057 0.747612C15.9057 0.606228 15.9293 0.535536 15.9764 0.535536L17.6023 0.570882C18.4978 0.618009 19.2047 0.641573 19.7231 0.641573C20.1472 0.641573 20.7835 0.618009 21.6318 0.570882L23.187 0.535536C23.2341 0.535536 23.2577 0.606228 23.2577 0.747612C23.2577 0.888995 23.2341 0.959687 23.187 0.959687C22.268 0.959687 21.5493 1.30137 21.0309 1.98472C20.536 2.66808 20.2886 3.62242 20.2886 4.84775V14.7446C20.2886 16.4412 19.9234 17.9258 19.1929 19.1982C18.486 20.4471 17.4727 21.4132 16.1531 22.0966C14.8571 22.78 13.349 23.1216 11.6288 23.1216C9.90867 23.1216 8.37701 22.7917 7.03386 22.132C5.69071 21.4486 4.64211 20.4825 3.88806 19.2336C3.15758 17.9611 2.79234 16.4766 2.79234 14.78V3.39856C2.79234 2.69164 2.72164 2.17323 2.58026 1.84334C2.43888 1.51344 2.17967 1.28958 1.80265 1.17176C1.44919 1.03038 0.883651 0.959687 0.106038 0.959687C0.035346 0.959687 0 0.888995 0 0.747612C0 0.606228 0.035346 0.535536 0.106038 0.535536L1.94403 0.570882C2.98085 0.618009 3.81737 0.641573 4.4536 0.641573C5.16052 0.641573 6.03239 0.618009 7.0692 0.570882L8.83651 0.535536C8.9072 0.535536 8.94254 0.606228 8.94254 0.747612C8.94254 0.888995 8.9072 0.959687 8.83651 0.959687C8.05889 0.959687 7.48157 1.03038 7.10455 1.17176C6.72753 1.31315 6.46832 1.56057 6.32694 1.91403C6.20912 2.24393 6.15021 2.76233 6.15021 3.46925V13.5429C6.15021 16.347 6.72753 18.4442 7.88216 19.8345C9.06036 21.2012 10.6981 21.8845 12.7953 21.8845C14.7982 21.8845 16.3652 21.2719 17.4963 20.0465C18.6274 18.7976 19.1929 17.0421 19.1929 14.78V4.84775Z" fill="#333333"/>
<path d="M31.4994 19.7638C31.4994 20.4943 31.5583 21.0244 31.6761 21.3543C31.7939 21.6842 32.0296 21.9081 32.383 22.0259C32.7601 22.1437 33.3492 22.2026 34.1503 22.2026C34.221 22.2026 34.2564 22.2733 34.2564 22.4147C34.2564 22.5561 34.221 22.6268 34.1503 22.6268C33.3963 22.6268 32.7954 22.615 32.3477 22.5915L29.7321 22.5561L27.1872 22.5915C26.7394 22.615 26.1268 22.6268 25.3492 22.6268C25.2785 22.6268 25.2431 22.5561 25.2431 22.4147C25.2431 22.2733 25.2785 22.2026 25.3492 22.2026C26.1503 22.2026 26.7277 22.1437 27.0811 22.0259C27.4581 21.9081 27.7174 21.6842 27.8587 21.3543C28.0001 21.0009 28.0708 20.4707 28.0708 19.7638V3.39856C28.0708 2.69164 28.0001 2.17323 27.8587 1.84334C27.7174 1.51344 27.4581 1.28958 27.0811 1.17176C26.7277 1.03038 26.1503 0.959687 25.3492 0.959687C25.2785 0.959687 25.2431 0.888995 25.2431 0.747612C25.2431 0.606228 25.2785 0.535536 25.3492 0.535536L27.1872 0.570882C28.224 0.618009 29.0723 0.641573 29.7321 0.641573C30.4626 0.641573 31.3462 0.618009 32.383 0.570882L34.1503 0.535536C34.221 0.535536 34.2564 0.606228 34.2564 0.747612C34.2564 0.888995 34.221 0.959687 34.1503 0.959687C33.3727 0.959687 32.7954 1.03038 32.4184 1.17176C32.0649 1.31315 31.8175 1.56057 31.6761 1.91403C31.5583 2.24393 31.4994 2.76233 31.4994 3.46925V19.7638Z" fill="#333333"/>
<path d="M41.5683 4.28221C41.5683 5.15408 41.7804 5.93169 42.2045 6.61505C42.6522 7.27484 43.1942 7.85216 43.8304 8.34701C44.4902 8.84185 45.3739 9.43095 46.4814 10.1143C47.6832 10.8684 48.6257 11.5164 49.3091 12.0583C50.016 12.6003 50.6051 13.2719 51.0764 14.0731C51.5712 14.8507 51.8186 15.7697 51.8186 16.8301C51.8186 18.0318 51.5005 19.104 50.8643 20.0465C50.2516 20.9891 49.368 21.7314 48.2134 22.2733C47.0823 22.7917 45.7863 23.051 44.3253 23.051C43.3356 23.051 42.3106 22.9213 41.2502 22.6621C40.2134 22.4029 39.424 22.0848 38.882 21.7078C38.6699 21.5664 38.5521 21.3426 38.5285 21.0362L38.3165 15.6636V15.6283C38.3165 15.534 38.3754 15.4869 38.4932 15.4869C38.611 15.4633 38.6817 15.4987 38.7053 15.5929C39.4829 17.5488 40.3665 19.1511 41.3562 20.4C42.3695 21.6489 43.6537 22.2733 45.2089 22.2733C46.2222 22.2733 47.0705 22.0024 47.7539 21.4604C48.4372 20.8948 48.7789 19.9641 48.7789 18.668C48.7789 17.6312 48.5432 16.724 48.072 15.9464C47.6242 15.1688 47.0587 14.5208 46.3754 14.0024C45.7156 13.484 44.8083 12.8477 43.6537 12.0937C42.5226 11.3632 41.639 10.7505 41.0028 10.2557C40.3665 9.73728 39.8246 9.11284 39.3768 8.38235C38.9291 7.6283 38.7053 6.75643 38.7053 5.76675C38.7053 4.54142 39.0469 3.5046 39.7303 2.6563C40.4137 1.80799 41.2973 1.18355 42.3813 0.782957C43.4888 0.358805 44.6434 0.146729 45.8452 0.146729C46.6463 0.146729 47.4475 0.229203 48.2487 0.394152C49.0499 0.535535 49.7215 0.724047 50.2634 0.959687C50.6169 1.10107 50.7936 1.32493 50.7936 1.63126L50.8997 6.43832C50.8997 6.50901 50.829 6.55614 50.6876 6.5797C50.5698 6.60327 50.4991 6.5797 50.4755 6.50901C50.0042 5.07161 49.368 3.77559 48.5668 2.62095C47.7892 1.44275 46.611 0.853648 45.0322 0.853648C43.9718 0.853648 43.1235 1.15998 42.4873 1.77265C41.8746 2.38531 41.5683 3.22183 41.5683 4.28221Z" fill="#333333"/>
<path d="M68.6805 23.2682C62.256 23.258 57.0438 18.0356 57.0541 11.6213C57.0643 5.18154 62.2867 -0.0153111 68.7265 3.38952e-05C75.1561 0.0204939 80.3325 5.22757 80.3223 11.6674C80.3069 18.0816 75.0896 23.2785 68.6805 23.2682ZM72.6293 16.2146C72.5372 15.8873 72.4707 15.5957 72.3684 15.3195C72.2559 15.0024 72.3377 14.7722 72.5935 14.5574C73.6523 13.6725 74.7009 12.7722 75.7546 11.8771C75.8211 11.8208 75.8875 11.7594 75.9745 11.6776C75.7341 11.56 75.5295 11.4577 75.3198 11.3554C75.0129 11.207 74.9873 11.1559 75.0743 10.8183C75.1919 10.3579 75.3198 9.89758 75.4374 9.43211C75.509 9.14567 75.5806 8.86435 75.6625 8.55233C75.5653 8.56768 75.509 8.56768 75.4528 8.58302C74.9259 8.69555 74.4042 8.80808 73.8773 8.92573C73.3812 9.03314 73.3403 9.01268 73.2022 8.51141C73.1408 8.28635 73.0794 8.06641 73.0027 7.7902C72.4656 8.41934 71.9746 8.99734 71.4784 9.57022C71.3505 9.71855 71.2227 9.94873 70.9874 9.84132C70.7418 9.72879 70.8288 9.46792 70.8646 9.26843C71.0539 8.18405 71.2533 7.10478 71.4477 6.02552C71.4784 5.86184 71.4989 5.69816 71.5296 5.47821C71.1664 5.67258 70.8544 5.85161 70.5372 6.01017C70.2355 6.16362 70.0667 6.10736 69.9132 5.80557C69.5449 5.09458 69.1818 4.37848 68.8135 3.6675C68.7726 3.59077 68.7265 3.51405 68.6652 3.40663C68.2508 4.20969 67.8621 4.96671 67.4734 5.72373C67.2636 6.13293 67.1306 6.17897 66.7266 5.96414C66.435 5.81069 66.1486 5.65212 65.8314 5.48333C65.8314 5.56517 65.8263 5.60609 65.8314 5.64701C65.9849 6.50121 66.1383 7.35542 66.2918 8.21474C66.3634 8.62394 66.4555 9.03314 66.5015 9.44746C66.5168 9.57533 66.4094 9.71344 66.3583 9.85155C66.2304 9.8004 66.1025 9.75947 65.9798 9.70321C65.9389 9.68275 65.9133 9.62648 65.8775 9.59068C65.4273 9.06383 64.9823 8.5421 64.5322 8.01526C64.4811 7.95388 64.4197 7.89761 64.3378 7.80554C64.2458 8.13802 64.1639 8.41934 64.0872 8.70578C64.0258 8.93084 63.8877 9.01268 63.6678 8.96665C63.5246 8.93596 63.3865 8.90527 63.2432 8.87458C62.742 8.76716 62.2356 8.65463 61.6934 8.53699C61.719 8.65975 61.7343 8.74159 61.7548 8.82343C61.9338 9.50884 62.1077 10.1943 62.2918 10.8745C62.3532 11.1047 62.297 11.2479 62.0719 11.34C61.8417 11.4372 61.6269 11.56 61.3711 11.6827C61.5092 11.8004 61.6064 11.8873 61.6985 11.9692C62.7317 12.8489 63.765 13.7236 64.7982 14.5983C65.013 14.7824 65.0846 14.9819 64.9977 15.253C64.9005 15.5548 64.8238 15.8668 64.7266 16.2044C64.921 16.1839 65.0744 16.1737 65.2227 16.1532C66.1793 16.0407 67.1358 15.9231 68.0923 15.8105C68.4094 15.7747 68.4964 15.8617 68.481 16.1737C68.435 17.3143 68.3889 18.455 68.348 19.5956C68.3429 19.6775 68.348 19.7593 68.348 19.8412C68.5577 19.8412 68.7316 19.8412 68.9362 19.8412C68.9362 19.744 68.9362 19.6621 68.9362 19.5803C68.9107 18.5317 68.8902 17.4831 68.8646 16.4346C68.8493 15.7696 68.8697 15.7543 69.5245 15.8361C70.5577 15.9691 71.5602 16.0867 72.6293 16.2146Z" fill="#F35C5C"/>
<path d="M72.6293 16.2147C71.5603 16.0869 70.5526 15.9692 69.5501 15.8413C68.8954 15.7595 68.8749 15.7748 68.8902 16.4398C68.9158 17.4884 68.9414 18.537 68.9618 19.5855C68.9618 19.6674 68.9618 19.7492 68.9618 19.8464C68.7572 19.8464 68.5833 19.8464 68.3736 19.8464C68.3736 19.7646 68.3685 19.6827 68.3736 19.6009C68.4197 18.4602 68.4657 17.3196 68.5066 16.1789C68.5168 15.8618 68.435 15.7748 68.1179 15.8158C67.1614 15.9232 66.2049 16.0459 65.2483 16.1585C65.1 16.1789 64.9466 16.1892 64.7522 16.2096C64.8494 15.872 64.9261 15.56 65.0233 15.2582C65.1102 14.9871 65.0386 14.7825 64.8238 14.6035C63.7855 13.7288 62.7573 12.8491 61.7241 11.9744C61.6269 11.8926 61.5297 11.8107 61.3967 11.688C61.6525 11.5601 61.8673 11.4373 62.0975 11.3452C62.3226 11.2532 62.3788 11.11 62.3174 10.8798C62.1333 10.1995 61.9594 9.51407 61.7804 8.82866C61.7599 8.74682 61.7446 8.6701 61.719 8.54222C62.2612 8.65987 62.7676 8.76728 63.2688 8.87981C63.4121 8.9105 63.5502 8.94119 63.6934 8.97188C63.9133 9.01792 64.0566 8.93608 64.1128 8.71102C64.1895 8.42458 64.2714 8.13814 64.3635 7.81077C64.4453 7.89773 64.5067 7.95911 64.5578 8.02049C65.0079 8.54734 65.453 9.06907 65.9031 9.59591C65.9338 9.63683 65.9645 9.68798 66.0054 9.70844C66.1281 9.76471 66.256 9.81074 66.3839 9.85678C66.435 9.72379 66.5424 9.58057 66.5271 9.45269C66.4811 9.03838 66.389 8.62918 66.3174 8.21998C66.1639 7.36577 66.0105 6.51156 65.857 5.65224C65.8519 5.61132 65.857 5.5704 65.857 5.48856C66.1691 5.65736 66.4606 5.81592 66.7522 5.96937C67.1511 6.17909 67.2892 6.13305 67.499 5.72896C67.8877 4.97194 68.2764 4.21492 68.6908 3.41187C68.7521 3.51928 68.8033 3.59601 68.8391 3.67273C69.2074 4.38372 69.5705 5.09982 69.9388 5.81081C70.0923 6.11259 70.2611 6.16886 70.5628 6.01541C70.88 5.85684 71.1869 5.67782 71.5552 5.48344C71.5194 5.70339 71.4989 5.86707 71.4733 6.03075C71.2789 7.11002 71.0795 8.1944 70.8902 9.27367C70.8544 9.47827 70.7674 9.73402 71.013 9.84655C71.2483 9.95396 71.3761 9.7289 71.504 9.57545C72.0002 9.00257 72.4912 8.42458 73.0283 7.79543C73.105 8.06653 73.1664 8.29159 73.2278 8.51665C73.3659 9.0128 73.4068 9.03838 73.9029 8.93096C74.4247 8.81332 74.9515 8.70079 75.4784 8.58826C75.5346 8.57803 75.5909 8.57291 75.6881 8.55757C75.6062 8.86958 75.5398 9.15602 75.463 9.43735C75.3403 9.8977 75.2175 10.3581 75.0999 10.8235C75.0129 11.1611 75.0385 11.2123 75.3454 11.3606C75.55 11.4629 75.7546 11.5652 76.0001 11.6828C75.908 11.7647 75.8467 11.8261 75.7802 11.8823C74.7265 12.7775 73.6779 13.6777 72.6191 14.5626C72.3582 14.7774 72.2815 15.0076 72.394 15.3247C72.4707 15.5958 72.5372 15.8874 72.6293 16.2147Z" fill="white"/>
<path d="M3.67606 26.03C3.67606 25.8068 3.62456 25.633 3.52155 25.5086C3.42284 25.3841 3.27905 25.3219 3.09021 25.3219C3.08162 25.3219 3.07733 25.309 3.07733 25.2832C3.07733 25.2575 3.08162 25.2446 3.09021 25.2446L3.38635 25.251C3.54945 25.2596 3.67821 25.2639 3.77263 25.2639C3.84988 25.2639 3.96577 25.2596 4.12028 25.251L4.40355 25.2446C4.41213 25.2446 4.41642 25.2575 4.41642 25.2832C4.41642 25.309 4.41213 25.3219 4.40355 25.3219C4.23616 25.3219 4.10526 25.3841 4.01083 25.5086C3.9207 25.633 3.87564 25.8068 3.87564 26.03V27.8327C3.87564 28.1417 3.80911 28.4121 3.67606 28.6438C3.5473 28.8713 3.36275 29.0473 3.1224 29.1717C2.88634 29.2962 2.61166 29.3584 2.29834 29.3584C1.98503 29.3584 1.70605 29.2984 1.46141 29.1782C1.21677 29.0537 1.02578 28.8777 0.888435 28.6503C0.755384 28.4185 0.688859 28.1481 0.688859 27.8391V25.7661C0.688859 25.6373 0.675983 25.5429 0.650231 25.4828C0.62448 25.4227 0.577268 25.3819 0.508597 25.3605C0.444217 25.3347 0.341211 25.3219 0.199576 25.3219C0.1867 25.3219 0.180262 25.309 0.180262 25.2832C0.180262 25.2575 0.1867 25.2446 0.199576 25.2446L0.534349 25.251C0.723195 25.2596 0.875559 25.2639 0.991442 25.2639C1.1202 25.2639 1.279 25.2596 1.46785 25.251L1.78975 25.2446C1.80262 25.2446 1.80906 25.2575 1.80906 25.2832C1.80906 25.309 1.80262 25.3219 1.78975 25.3219C1.64811 25.3219 1.54296 25.3347 1.47429 25.3605C1.40562 25.3862 1.3584 25.4313 1.33265 25.4957C1.31119 25.5558 1.30046 25.6502 1.30046 25.7789V27.6138C1.30046 28.1245 1.40562 28.5065 1.61592 28.7597C1.83052 29.0086 2.12881 29.1331 2.51079 29.1331C2.87561 29.1331 3.16103 29.0215 3.36704 28.7983C3.57305 28.5709 3.67606 28.2511 3.67606 27.8391V26.03ZM7.57021 29.1911C7.58308 29.1911 7.58952 29.2039 7.58952 29.2297C7.58952 29.2554 7.58308 29.2683 7.57021 29.2683C7.46291 29.2683 7.37921 29.2662 7.31913 29.2619L6.94573 29.2554L6.57876 29.2619C6.51438 29.2662 6.42855 29.2683 6.32125 29.2683C6.30837 29.2683 6.30193 29.2554 6.30193 29.2297C6.30193 29.2039 6.30837 29.1911 6.32125 29.1911C6.46717 29.1911 6.56374 29.161 6.61095 29.1009C6.65817 29.0408 6.68177 28.9228 6.68177 28.7468V27.7811C6.68177 27.5408 6.63671 27.3648 6.54657 27.2532C6.46074 27.1374 6.32339 27.0794 6.13455 27.0794C6.02296 27.0794 5.90922 27.1052 5.79334 27.1567C5.67745 27.2082 5.5723 27.2768 5.47788 27.3627V28.7468C5.47788 28.9228 5.50148 29.0408 5.54869 29.1009C5.59591 29.161 5.69248 29.1911 5.8384 29.1911C5.85128 29.1911 5.85772 29.2039 5.85772 29.2297C5.85772 29.2554 5.85128 29.2683 5.8384 29.2683C5.7311 29.2683 5.64741 29.2662 5.58732 29.2619L5.21392 29.2554L4.84052 29.2619C4.78043 29.2662 4.69674 29.2683 4.58944 29.2683C4.57657 29.2683 4.57013 29.2554 4.57013 29.2297C4.57013 29.2039 4.57657 29.1911 4.58944 29.1911C4.73537 29.1911 4.83194 29.161 4.87915 29.1009C4.92636 29.0408 4.94997 28.9228 4.94997 28.7468V27.5172C4.94997 27.3798 4.9328 27.279 4.89846 27.2146C4.86842 27.1502 4.81692 27.118 4.74395 27.118C4.67957 27.118 4.57227 27.1502 4.42206 27.2146H4.41562C4.39845 27.2146 4.38557 27.2039 4.37699 27.1824C4.36841 27.161 4.37055 27.1481 4.38343 27.1438L5.2268 26.7318C5.25255 26.7232 5.26757 26.7189 5.27186 26.7189C5.31478 26.7189 5.3577 26.7682 5.40062 26.867C5.44783 26.9614 5.47359 27.0859 5.47788 27.2404C5.77831 26.8841 6.1045 26.706 6.45644 26.706C6.6925 26.706 6.87706 26.779 7.01011 26.9249C7.14316 27.0665 7.20968 27.2597 7.20968 27.5043V28.7468C7.20968 28.9228 7.23329 29.0408 7.2805 29.1009C7.32771 29.161 7.42428 29.1911 7.57021 29.1911ZM8.5709 26.0429C8.45931 26.0429 8.37133 26.0129 8.30695 25.9528C8.24686 25.8927 8.21682 25.8068 8.21682 25.6953C8.21682 25.588 8.24686 25.5064 8.30695 25.4506C8.37133 25.3905 8.45931 25.3605 8.5709 25.3605C8.6782 25.3605 8.76189 25.3905 8.82198 25.4506C8.88207 25.5064 8.91211 25.588 8.91211 25.6953C8.91211 25.8068 8.88207 25.8927 8.82198 25.9528C8.76619 26.0129 8.68249 26.0429 8.5709 26.0429ZM7.97861 29.2683C7.96574 29.2683 7.9593 29.2554 7.9593 29.2297C7.9593 29.2039 7.96574 29.1911 7.97861 29.1911C8.12454 29.1911 8.22111 29.161 8.26832 29.1009C8.31553 29.0408 8.33914 28.9228 8.33914 28.7468V27.5751C8.33914 27.4292 8.32412 27.3241 8.29407 27.2597C8.26403 27.191 8.21252 27.1567 8.13956 27.1567C8.07518 27.1567 7.99149 27.1824 7.88848 27.2339H7.88204C7.86488 27.2339 7.852 27.2232 7.84342 27.2017C7.83483 27.1803 7.83698 27.1653 7.84985 27.1567L8.77692 26.7253L8.79623 26.7189C8.8134 26.7189 8.83057 26.7296 8.84773 26.7511C8.86919 26.7682 8.87992 26.7833 8.87992 26.7961V26.9313C8.87134 27.1116 8.86705 27.3241 8.86705 27.5687V28.7468C8.86705 28.9228 8.89065 29.0408 8.93786 29.1009C8.98937 29.161 9.08808 29.1911 9.23401 29.1911C9.24689 29.1911 9.25332 29.2039 9.25332 29.2297C9.25332 29.2554 9.24689 29.2683 9.23401 29.2683C9.12671 29.2683 9.04087 29.2662 8.97649 29.2619L8.60309 29.2554L8.22969 29.2619C8.1696 29.2662 8.08591 29.2683 7.97861 29.2683ZM12.2767 26.7833C12.2853 26.7833 12.2896 26.7961 12.2896 26.8219C12.2896 26.8476 12.2853 26.8605 12.2767 26.8605C12.1566 26.8605 12.0514 26.9034 11.9613 26.9893C11.8754 27.0751 11.7917 27.2125 11.7102 27.4013L10.9119 29.2683C10.9033 29.2898 10.8819 29.3005 10.8475 29.3005C10.8089 29.3005 10.7831 29.2898 10.7703 29.2683L9.81745 27.3176C9.72732 27.1288 9.65006 27.0064 9.58568 26.9507C9.5213 26.8906 9.4419 26.8605 9.34748 26.8605C9.3346 26.8605 9.32817 26.8476 9.32817 26.8219C9.32817 26.7961 9.3346 26.7833 9.34748 26.7833C9.42473 26.7833 9.48697 26.7854 9.53418 26.7897L9.90758 26.7961L10.384 26.7897C10.4527 26.7854 10.5471 26.7833 10.6673 26.7833C10.6801 26.7833 10.6866 26.7961 10.6866 26.8219C10.6866 26.8476 10.6801 26.8605 10.6673 26.8605C10.414 26.8605 10.2874 26.9099 10.2874 27.0086C10.2874 27.0343 10.2981 27.0687 10.3196 27.1116L11.06 28.573L11.5493 27.3884C11.5793 27.3155 11.5943 27.2447 11.5943 27.176C11.5943 27.073 11.5557 26.9957 11.4784 26.9442C11.4055 26.8884 11.296 26.8605 11.1501 26.8605C11.1415 26.8605 11.1372 26.8476 11.1372 26.8219C11.1372 26.7961 11.1415 26.7833 11.1501 26.7833C11.266 26.7833 11.354 26.7854 11.4141 26.7897L11.8003 26.7961L12.0514 26.7897C12.0986 26.7854 12.1737 26.7833 12.2767 26.7833ZM14.6683 28.8627C14.6769 28.8627 14.6854 28.8713 14.694 28.8885C14.7069 28.9056 14.7091 28.9185 14.7005 28.9271C14.5417 29.073 14.3829 29.1803 14.2241 29.249C14.0653 29.3134 13.8936 29.3456 13.709 29.3456C13.4472 29.3456 13.2197 29.2876 13.0266 29.1717C12.8378 29.0559 12.6918 28.9035 12.5888 28.7146C12.4901 28.5258 12.4408 28.3219 12.4408 28.103C12.4408 27.8498 12.503 27.6181 12.6275 27.4077C12.7519 27.1974 12.9215 27.0322 13.1361 26.912C13.3549 26.7876 13.5974 26.7253 13.8635 26.7253C14.1211 26.7253 14.3206 26.7876 14.4623 26.912C14.6039 27.0365 14.6747 27.221 14.6747 27.4657C14.6747 27.5902 14.649 27.6524 14.5975 27.6524L13.0266 27.6588C13.0223 27.6975 13.0202 27.7554 13.0202 27.8327C13.0202 28.2103 13.106 28.5108 13.2777 28.734C13.4537 28.9529 13.7026 29.0623 14.0245 29.0623C14.1447 29.0623 14.2455 29.0494 14.3271 29.0237C14.4086 28.9936 14.5181 28.9421 14.6554 28.8692L14.6683 28.8627ZM13.6318 26.8541C13.473 26.8541 13.3421 26.9163 13.2391 27.0408C13.1403 27.161 13.0738 27.3283 13.0395 27.5429L14.0696 27.5236C14.061 27.0773 13.915 26.8541 13.6318 26.8541ZM16.7737 26.7189C16.8725 26.7189 16.9669 26.7511 17.057 26.8155C17.1471 26.8798 17.1922 26.9571 17.1922 27.0472C17.1922 27.1288 17.1665 27.1953 17.1149 27.2468C17.0677 27.2983 17.0012 27.3241 16.9154 27.3241C16.8596 27.3241 16.8124 27.3133 16.7737 27.2919C16.7394 27.2661 16.7029 27.2318 16.6643 27.1889C16.6257 27.1502 16.5913 27.1223 16.5613 27.1052C16.5312 27.0837 16.4948 27.073 16.4518 27.073C16.4046 27.073 16.3531 27.0923 16.2973 27.1309C16.2458 27.1653 16.1643 27.2404 16.0527 27.3562V28.7468C16.0527 28.867 16.0699 28.9593 16.1042 29.0237C16.1385 29.0838 16.1965 29.1267 16.278 29.1524C16.3596 29.1782 16.4797 29.1911 16.6385 29.1911C16.6557 29.1911 16.6643 29.2039 16.6643 29.2297C16.6643 29.2554 16.6557 29.2683 16.6385 29.2683C16.4969 29.2683 16.3832 29.2662 16.2973 29.2619L15.7887 29.2554L15.4153 29.2619C15.3552 29.2662 15.2716 29.2683 15.1643 29.2683C15.1514 29.2683 15.1449 29.2554 15.1449 29.2297C15.1449 29.2039 15.1514 29.1911 15.1643 29.1911C15.3102 29.1911 15.4067 29.161 15.454 29.1009C15.5012 29.0408 15.5248 28.9228 15.5248 28.7468V27.5172C15.5248 27.3798 15.5076 27.279 15.4733 27.2146C15.4432 27.1502 15.3917 27.118 15.3188 27.118C15.2544 27.118 15.1471 27.1502 14.9969 27.2146H14.9904C14.9733 27.2146 14.9604 27.2039 14.9518 27.1824C14.9432 27.161 14.9454 27.1481 14.9582 27.1438L15.8016 26.7318C15.8274 26.7232 15.8424 26.7189 15.8467 26.7189C15.8896 26.7189 15.9325 26.7661 15.9754 26.8605C16.0184 26.9507 16.0441 27.0708 16.0527 27.221C16.2201 27.0322 16.3596 26.9013 16.4712 26.8283C16.5827 26.7554 16.6836 26.7189 16.7737 26.7189ZM18.0293 27.118C18.0293 27.2511 18.0743 27.3627 18.1645 27.4528C18.2589 27.5429 18.3941 27.6374 18.5701 27.7361C18.7246 27.8219 18.8426 27.8927 18.9242 27.9485C19.01 28.0043 19.083 28.0794 19.143 28.1739C19.2074 28.2683 19.2396 28.382 19.2396 28.5151C19.2396 28.661 19.2031 28.7962 19.1302 28.9207C19.0572 29.0451 18.9478 29.146 18.8018 29.2232C18.6602 29.3005 18.4907 29.3391 18.2932 29.3391C18.0572 29.3391 17.8404 29.279 17.643 29.1589C17.6173 29.1331 17.6044 29.1074 17.6044 29.0816L17.5915 28.4893C17.5915 28.4764 17.6022 28.47 17.6237 28.47C17.6494 28.4657 17.6645 28.4679 17.6688 28.4764C17.7417 28.691 17.8512 28.867 17.9971 29.0044C18.1473 29.1417 18.3061 29.2104 18.4735 29.2104C18.5808 29.2104 18.6645 29.1825 18.7246 29.1267C18.7847 29.0709 18.8147 28.9872 18.8147 28.8756C18.8147 28.7125 18.7675 28.5837 18.6731 28.4893C18.5787 28.3906 18.4413 28.294 18.261 28.1996C18.1151 28.1224 18.0014 28.058 17.9198 28.0065C17.8383 27.9507 17.7675 27.8777 17.7074 27.7876C17.6516 27.6932 17.6237 27.5773 17.6237 27.4399C17.6237 27.1953 17.7117 27.0129 17.8876 26.8927C18.0679 26.7725 18.2847 26.7125 18.5379 26.7125C18.7053 26.7125 18.8769 26.7446 19.0529 26.809C19.0915 26.8262 19.1109 26.8498 19.1109 26.8798C19.1109 26.9786 19.1087 27.0558 19.1044 27.1116L19.098 27.4206C19.098 27.4335 19.0851 27.4399 19.0594 27.4399C19.0336 27.4399 19.0207 27.4335 19.0207 27.4206C19.0207 27.3348 18.9864 27.2468 18.9177 27.1567C18.849 27.0622 18.7611 26.985 18.6538 26.9249C18.5465 26.8648 18.437 26.8348 18.3254 26.8348C18.128 26.8348 18.0293 26.9292 18.0293 27.118ZM22.1683 28.9207C22.1855 28.9207 22.1962 28.9314 22.2005 28.9529C22.2048 28.97 22.1984 28.9829 22.1812 28.9915L21.5181 29.3069C21.5009 29.3155 21.4816 29.3198 21.4602 29.3198C21.3958 29.3198 21.3335 29.2833 21.2735 29.2104C21.2177 29.1331 21.1812 29.0323 21.164 28.9078L20.8679 29.1138C20.7649 29.1868 20.6704 29.2383 20.5846 29.2683C20.503 29.2984 20.4108 29.3134 20.3078 29.3134C20.1318 29.3134 19.9966 29.2726 19.9022 29.1911C19.812 29.1052 19.767 28.9936 19.767 28.8563C19.767 28.7404 19.797 28.646 19.8571 28.573C19.9215 28.5001 20.0009 28.4421 20.0953 28.3992C20.194 28.352 20.3378 28.294 20.5266 28.2254L21.1511 27.9936V27.6073C21.1511 27.3412 21.1232 27.1481 21.0674 27.0279C21.0159 26.9034 20.9322 26.8412 20.8164 26.8412C20.6747 26.8412 20.5717 26.8949 20.5073 27.0022C20.4472 27.1052 20.4108 27.221 20.3979 27.3498C20.3721 27.5687 20.2627 27.6781 20.0696 27.6781C19.9751 27.6781 19.9043 27.6567 19.8571 27.6138C19.8142 27.5708 19.7927 27.5172 19.7927 27.4528C19.7927 27.3326 19.8635 27.2168 20.0052 27.1052C20.1511 26.9893 20.3249 26.897 20.5266 26.8283C20.7327 26.7554 20.9129 26.7189 21.0674 26.7189C21.252 26.7189 21.3979 26.7768 21.5052 26.8927C21.6168 27.0086 21.6726 27.1824 21.6726 27.4142V28.573C21.6726 28.7061 21.6941 28.8069 21.737 28.8756C21.7799 28.9443 21.8421 28.9786 21.9237 28.9786C21.9881 28.9786 22.0653 28.9593 22.1554 28.9207H22.1683ZM21.1511 28.8048V28.7404V28.103L20.7649 28.264C20.6533 28.3069 20.561 28.3584 20.488 28.4185C20.4194 28.4743 20.385 28.5558 20.385 28.6631C20.385 28.7662 20.4172 28.8498 20.4816 28.9142C20.5503 28.9743 20.6318 29.0044 20.7262 29.0044C20.8035 29.0044 20.885 28.9786 20.9709 28.9271L21.1511 28.8048ZM22.4189 29.2683C22.406 29.2683 22.3996 29.2554 22.3996 29.2297C22.3996 29.2039 22.406 29.1911 22.4189 29.1911C22.5605 29.1911 22.6571 29.161 22.7086 29.1009C22.7601 29.0365 22.7859 28.9185 22.7859 28.7468V25.4571C22.7859 25.3068 22.7708 25.1995 22.7408 25.1352C22.715 25.0665 22.6657 25.0321 22.5927 25.0321C22.5283 25.0321 22.4425 25.0579 22.3352 25.1094H22.3288C22.3116 25.1094 22.2987 25.0987 22.2901 25.0772C22.2816 25.0558 22.2816 25.0407 22.2901 25.0321L23.1979 24.6072L23.2236 24.6008C23.2408 24.6008 23.2601 24.6094 23.2816 24.6266C23.3073 24.6437 23.3202 24.6587 23.3202 24.6716V28.7468C23.3202 28.9228 23.3438 29.0408 23.391 29.1009C23.4382 29.161 23.5348 29.1911 23.6807 29.1911C23.6936 29.1911 23.7 29.2039 23.7 29.2297C23.7 29.2554 23.6936 29.2683 23.6807 29.2683C23.5777 29.2683 23.494 29.2662 23.4297 29.2619L23.0498 29.2554L22.6764 29.2619C22.612 29.2662 22.5262 29.2683 22.4189 29.2683ZM26.7968 28.7468C26.7968 28.8799 26.8076 28.9765 26.829 29.0365C26.8505 29.0966 26.8934 29.1374 26.9578 29.1589C27.0265 29.1803 27.1338 29.1911 27.2797 29.1911C27.2926 29.1911 27.299 29.2039 27.299 29.2297C27.299 29.2554 27.2926 29.2683 27.2797 29.2683C27.1423 29.2683 27.0329 29.2662 26.9514 29.2619L26.4749 29.2554L26.0114 29.2619C25.9299 29.2662 25.8183 29.2683 25.6766 29.2683C25.6638 29.2683 25.6573 29.2554 25.6573 29.2297C25.6573 29.2039 25.6638 29.1911 25.6766 29.1911C25.8226 29.1911 25.9277 29.1803 25.9921 29.1589C26.0608 29.1374 26.108 29.0966 26.1337 29.0365C26.1595 28.9722 26.1724 28.8756 26.1724 28.7468V25.7661C26.1724 25.6373 26.1595 25.5429 26.1337 25.4828C26.108 25.4227 26.0608 25.3819 25.9921 25.3605C25.9277 25.3347 25.8226 25.3219 25.6766 25.3219C25.6638 25.3219 25.6573 25.309 25.6573 25.2832C25.6573 25.2575 25.6638 25.2446 25.6766 25.2446L26.0114 25.251C26.2003 25.2596 26.3548 25.2639 26.4749 25.2639C26.608 25.2639 26.7689 25.2596 26.9578 25.251L27.2797 25.2446C27.2926 25.2446 27.299 25.2575 27.299 25.2832C27.299 25.309 27.2926 25.3219 27.2797 25.3219C27.1381 25.3219 27.0329 25.3347 26.9642 25.3605C26.8999 25.3862 26.8548 25.4313 26.829 25.4957C26.8076 25.5558 26.7968 25.6502 26.7968 25.7789V28.7468ZM32.4227 29.1911C32.4399 29.1911 32.4485 29.2039 32.4485 29.2297C32.4485 29.2554 32.4399 29.2683 32.4227 29.2683C32.3154 29.2683 32.2296 29.2662 32.1652 29.2619L31.7983 29.2554L31.4313 29.2619C31.3669 29.2662 31.2811 29.2683 31.1738 29.2683C31.1609 29.2683 31.1545 29.2554 31.1545 29.2297C31.1545 29.2039 31.1609 29.1911 31.1738 29.1911C31.3154 29.1911 31.412 29.161 31.4635 29.1009C31.515 29.0365 31.5407 28.9185 31.5407 28.7468V27.7876C31.5407 27.5472 31.4978 27.3691 31.412 27.2532C31.3304 27.1374 31.2038 27.0794 31.0322 27.0794C30.9163 27.0794 30.8004 27.1073 30.6845 27.1631C30.5686 27.2189 30.4678 27.294 30.3819 27.3884V27.4528V28.7468C30.3819 28.9228 30.4055 29.0408 30.4527 29.1009C30.5042 29.161 30.603 29.1911 30.7489 29.1911C30.7618 29.1911 30.7682 29.2039 30.7682 29.2297C30.7682 29.2554 30.7618 29.2683 30.7489 29.2683C30.6416 29.2683 30.5557 29.2662 30.4914 29.2619L30.118 29.2554L29.751 29.2619C29.6866 29.2662 29.6008 29.2683 29.4935 29.2683C29.4806 29.2683 29.4742 29.2554 29.4742 29.2297C29.4742 29.2039 29.4806 29.1911 29.4935 29.1911C29.6394 29.1911 29.736 29.161 29.7832 29.1009C29.8347 29.0408 29.8604 28.9228 29.8604 28.7468V27.7876C29.8604 27.5472 29.8175 27.3691 29.7317 27.2532C29.6501 27.1374 29.5235 27.0794 29.3518 27.0794C29.2446 27.0794 29.1351 27.1052 29.0235 27.1567C28.9119 27.2082 28.8132 27.2768 28.7274 27.3627V28.7468C28.7274 28.9228 28.751 29.0408 28.7982 29.1009C28.8454 29.161 28.942 29.1911 29.0879 29.1911C29.1008 29.1911 29.1072 29.2039 29.1072 29.2297C29.1072 29.2554 29.1008 29.2683 29.0879 29.2683C28.9806 29.2683 28.8969 29.2662 28.8368 29.2619L28.4634 29.2554L28.09 29.2619C28.0299 29.2662 27.9462 29.2683 27.8389 29.2683C27.8261 29.2683 27.8196 29.2554 27.8196 29.2297C27.8196 29.2039 27.8261 29.1911 27.8389 29.1911C27.9849 29.1911 28.0814 29.161 28.1286 29.1009C28.1759 29.0408 28.1995 28.9228 28.1995 28.7468V27.5172C28.1995 27.3798 28.1823 27.279 28.148 27.2146C28.1179 27.1502 28.0664 27.118 27.9934 27.118C27.9291 27.118 27.8218 27.1502 27.6715 27.2146H27.6651C27.6479 27.2146 27.6351 27.2039 27.6265 27.1824C27.6179 27.161 27.62 27.1481 27.6329 27.1438L28.4763 26.7318C28.502 26.7232 28.5171 26.7189 28.5214 26.7189C28.5643 26.7189 28.6072 26.7682 28.6501 26.867C28.6973 26.9614 28.7231 27.0859 28.7274 27.2404C29.0149 26.8884 29.3282 26.7125 29.6673 26.7125C29.8647 26.7125 30.0235 26.7618 30.1437 26.8605C30.2639 26.9549 30.339 27.0944 30.369 27.279C30.6738 26.9013 31 26.7125 31.3476 26.7125C31.5751 26.7125 31.7489 26.779 31.8691 26.912C31.9935 27.0408 32.0558 27.2382 32.0558 27.5043V28.7468C32.0558 28.9228 32.0794 29.0408 32.1266 29.1009C32.1781 29.161 32.2768 29.1911 32.4227 29.1911ZM37.3958 29.1911C37.413 29.1911 37.4216 29.2039 37.4216 29.2297C37.4216 29.2554 37.413 29.2683 37.3958 29.2683C37.2885 29.2683 37.2027 29.2662 37.1383 29.2619L36.7713 29.2554L36.4044 29.2619C36.34 29.2662 36.2541 29.2683 36.1468 29.2683C36.134 29.2683 36.1275 29.2554 36.1275 29.2297C36.1275 29.2039 36.134 29.1911 36.1468 29.1911C36.2885 29.1911 36.385 29.161 36.4365 29.1009C36.4881 29.0365 36.5138 28.9185 36.5138 28.7468V27.7876C36.5138 27.5472 36.4709 27.3691 36.385 27.2532C36.3035 27.1374 36.1769 27.0794 36.0052 27.0794C35.8893 27.0794 35.7734 27.1073 35.6576 27.1631C35.5417 27.2189 35.4408 27.294 35.355 27.3884V27.4528V28.7468C35.355 28.9228 35.3786 29.0408 35.4258 29.1009C35.4773 29.161 35.576 29.1911 35.7219 29.1911C35.7348 29.1911 35.7413 29.2039 35.7413 29.2297C35.7413 29.2554 35.7348 29.2683 35.7219 29.2683C35.6146 29.2683 35.5288 29.2662 35.4644 29.2619L35.091 29.2554L34.7241 29.2619C34.6597 29.2662 34.5738 29.2683 34.4665 29.2683C34.4537 29.2683 34.4472 29.2554 34.4472 29.2297C34.4472 29.2039 34.4537 29.1911 34.4665 29.1911C34.6125 29.1911 34.709 29.161 34.7562 29.1009C34.8077 29.0408 34.8335 28.9228 34.8335 28.7468V27.7876C34.8335 27.5472 34.7906 27.3691 34.7047 27.2532C34.6232 27.1374 34.4966 27.0794 34.3249 27.0794C34.2176 27.0794 34.1082 27.1052 33.9966 27.1567C33.885 27.2082 33.7863 27.2768 33.7004 27.3627V28.7468C33.7004 28.9228 33.724 29.0408 33.7712 29.1009C33.8185 29.161 33.915 29.1911 34.0609 29.1911C34.0738 29.1911 34.0803 29.2039 34.0803 29.2297C34.0803 29.2554 34.0738 29.2683 34.0609 29.2683C33.9537 29.2683 33.87 29.2662 33.8099 29.2619L33.4365 29.2554L33.0631 29.2619C33.003 29.2662 32.9193 29.2683 32.812 29.2683C32.7991 29.2683 32.7927 29.2554 32.7927 29.2297C32.7927 29.2039 32.7991 29.1911 32.812 29.1911C32.9579 29.1911 33.0545 29.161 33.1017 29.1009C33.1489 29.0408 33.1725 28.9228 33.1725 28.7468V27.5172C33.1725 27.3798 33.1553 27.279 33.121 27.2146C33.091 27.1502 33.0395 27.118 32.9665 27.118C32.9021 27.118 32.7948 27.1502 32.6446 27.2146H32.6382C32.621 27.2146 32.6081 27.2039 32.5995 27.1824C32.591 27.161 32.5931 27.1481 32.606 27.1438L33.4493 26.7318C33.4751 26.7232 33.4901 26.7189 33.4944 26.7189C33.5373 26.7189 33.5803 26.7682 33.6232 26.867C33.6704 26.9614 33.6961 27.0859 33.7004 27.2404C33.988 26.8884 34.3013 26.7125 34.6404 26.7125C34.8378 26.7125 34.9966 26.7618 35.1168 26.8605C35.2369 26.9549 35.3121 27.0944 35.3421 27.279C35.6468 26.9013 35.973 26.7125 36.3207 26.7125C36.5481 26.7125 36.722 26.779 36.8421 26.912C36.9666 27.0408 37.0288 27.2382 37.0288 27.5043V28.7468C37.0288 28.9228 37.0524 29.0408 37.0997 29.1009C37.1512 29.161 37.2499 29.1911 37.3958 29.1911ZM38.3966 26.0429C38.2851 26.0429 38.1971 26.0129 38.1327 25.9528C38.0726 25.8927 38.0426 25.8068 38.0426 25.6953C38.0426 25.588 38.0726 25.5064 38.1327 25.4506C38.1971 25.3905 38.2851 25.3605 38.3966 25.3605C38.5039 25.3605 38.5876 25.3905 38.6477 25.4506C38.7078 25.5064 38.7379 25.588 38.7379 25.6953C38.7379 25.8068 38.7078 25.8927 38.6477 25.9528C38.5919 26.0129 38.5082 26.0429 38.3966 26.0429ZM37.8044 29.2683C37.7915 29.2683 37.785 29.2554 37.785 29.2297C37.785 29.2039 37.7915 29.1911 37.8044 29.1911C37.9503 29.1911 38.0469 29.161 38.0941 29.1009C38.1413 29.0408 38.1649 28.9228 38.1649 28.7468V27.5751C38.1649 27.4292 38.1499 27.3241 38.1198 27.2597C38.0898 27.191 38.0383 27.1567 37.9653 27.1567C37.9009 27.1567 37.8172 27.1824 37.7142 27.2339H37.7078C37.6906 27.2339 37.6777 27.2232 37.6692 27.2017C37.6606 27.1803 37.6627 27.1653 37.6756 27.1567L38.6027 26.7253L38.622 26.7189C38.6391 26.7189 38.6563 26.7296 38.6735 26.7511C38.6949 26.7682 38.7057 26.7833 38.7057 26.7961V26.9313C38.6971 27.1116 38.6928 27.3241 38.6928 27.5687V28.7468C38.6928 28.9228 38.7164 29.0408 38.7636 29.1009C38.8151 29.161 38.9138 29.1911 39.0598 29.1911C39.0726 29.1911 39.0791 29.2039 39.0791 29.2297C39.0791 29.2554 39.0726 29.2683 39.0598 29.2683C38.9525 29.2683 38.8666 29.2662 38.8022 29.2619L38.4288 29.2554L38.0554 29.2619C37.9953 29.2662 37.9117 29.2683 37.8044 29.2683ZM40.8471 29.043C41.0917 29.0473 41.2913 29.0602 41.4458 29.0816C41.6003 29.1031 41.7334 29.1632 41.845 29.2619C41.9608 29.3606 42.0188 29.5151 42.0188 29.7254C42.0188 29.9615 41.9437 30.1825 41.7935 30.3885C41.6432 30.5988 41.4437 30.7662 41.1947 30.8907C40.9458 31.0151 40.6797 31.0774 40.3964 31.0774C40.1003 31.0774 39.8599 31.0108 39.6754 30.8778C39.4951 30.7447 39.405 30.5709 39.405 30.3563C39.405 30.0516 39.6239 29.7533 40.0617 29.4614C39.7441 29.4014 39.5852 29.249 39.5852 29.0044C39.5852 28.8713 39.6217 28.749 39.6947 28.6374C39.7719 28.5258 39.8878 28.4164 40.0423 28.3091C39.8835 28.2361 39.7591 28.1309 39.6689 27.9936C39.5831 27.8563 39.5402 27.7103 39.5402 27.5558C39.5402 27.3884 39.5917 27.2425 39.6947 27.118C39.7977 26.9936 39.9308 26.8992 40.0938 26.8348C40.2612 26.7704 40.4393 26.7382 40.6282 26.7382C40.9029 26.7382 41.1304 26.8069 41.3106 26.9442C41.4265 26.8713 41.5402 26.8176 41.6518 26.7833C41.7634 26.7446 41.8836 26.7253 42.0124 26.7253C42.0424 26.7253 42.0574 26.7811 42.0574 26.8927C42.0574 26.9528 42.0488 27.015 42.0317 27.0794C42.0188 27.1438 42.0038 27.1695 41.9866 27.1567C41.8063 27.088 41.6518 27.0537 41.5231 27.0537C41.4844 27.0537 41.4565 27.0558 41.4394 27.0601C41.5638 27.1974 41.6261 27.3605 41.6261 27.5494C41.6261 27.7125 41.5746 27.8605 41.4716 27.9936C41.3686 28.1267 41.2334 28.2297 41.066 28.3026C40.8986 28.3756 40.7205 28.4121 40.5316 28.4121C40.39 28.4121 40.2612 28.3928 40.1453 28.3541C40.0509 28.4443 40.0037 28.5516 40.0037 28.676C40.0037 28.8305 40.0659 28.9292 40.1904 28.9722C40.3192 29.0151 40.5381 29.0387 40.8471 29.043ZM40.4351 26.8541C40.2033 26.8541 40.0874 27.0279 40.0874 27.3756C40.0874 27.5558 40.1153 27.7168 40.1711 27.8584C40.2312 28 40.3063 28.1095 40.3964 28.1867C40.4909 28.264 40.5874 28.3026 40.6861 28.3026C40.7977 28.3026 40.89 28.2554 40.963 28.161C41.0359 28.0623 41.0724 27.9142 41.0724 27.7168C41.0724 27.5365 41.0402 27.382 40.9758 27.2532C40.9158 27.1202 40.8364 27.0215 40.7376 26.9571C40.6432 26.8884 40.5424 26.8541 40.4351 26.8541ZM40.7441 30.8778C40.9887 30.8778 41.184 30.8048 41.3299 30.6589C41.4801 30.5173 41.5553 30.3241 41.5553 30.0795C41.5553 29.8992 41.5145 29.7683 41.4329 29.6868C41.3557 29.6052 41.2505 29.5537 41.1175 29.5323C40.9887 29.5108 40.8042 29.5001 40.5638 29.5001C40.4436 29.5001 40.3278 29.4936 40.2162 29.4808C40.0144 29.6267 39.9136 29.8198 39.9136 30.0602C39.9136 30.3177 39.9908 30.5173 40.1453 30.6589C40.3042 30.8048 40.5037 30.8778 40.7441 30.8778ZM43.9966 26.7189C44.0954 26.7189 44.1898 26.7511 44.2799 26.8155C44.37 26.8798 44.4151 26.9571 44.4151 27.0472C44.4151 27.1288 44.3894 27.1953 44.3379 27.2468C44.2906 27.2983 44.2241 27.3241 44.1383 27.3241C44.0825 27.3241 44.0353 27.3133 43.9966 27.2919C43.9623 27.2661 43.9258 27.2318 43.8872 27.1889C43.8486 27.1502 43.8142 27.1223 43.7842 27.1052C43.7541 27.0837 43.7177 27.073 43.6747 27.073C43.6275 27.073 43.576 27.0923 43.5202 27.1309C43.4687 27.1653 43.3872 27.2404 43.2756 27.3562V28.7468C43.2756 28.867 43.2928 28.9593 43.3271 29.0237C43.3614 29.0838 43.4194 29.1267 43.5009 29.1524C43.5825 29.1782 43.7026 29.1911 43.8614 29.1911C43.8786 29.1911 43.8872 29.2039 43.8872 29.2297C43.8872 29.2554 43.8786 29.2683 43.8614 29.2683C43.7198 29.2683 43.6061 29.2662 43.5202 29.2619L43.0116 29.2554L42.6382 29.2619C42.5782 29.2662 42.4945 29.2683 42.3872 29.2683C42.3743 29.2683 42.3678 29.2554 42.3678 29.2297C42.3678 29.2039 42.3743 29.1911 42.3872 29.1911C42.5331 29.1911 42.6297 29.161 42.6769 29.1009C42.7241 29.0408 42.7477 28.9228 42.7477 28.7468V27.5172C42.7477 27.3798 42.7305 27.279 42.6962 27.2146C42.6661 27.1502 42.6146 27.118 42.5417 27.118C42.4773 27.118 42.37 27.1502 42.2198 27.2146H42.2133C42.1962 27.2146 42.1833 27.2039 42.1747 27.1824C42.1661 27.161 42.1683 27.1481 42.1811 27.1438L43.0245 26.7318C43.0503 26.7232 43.0653 26.7189 43.0696 26.7189C43.1125 26.7189 43.1554 26.7661 43.1983 26.8605C43.2413 26.9507 43.267 27.0708 43.2756 27.221C43.443 27.0322 43.5825 26.9013 43.6941 26.8283C43.8057 26.7554 43.9065 26.7189 43.9966 26.7189ZM47.1405 28.9207C47.1576 28.9207 47.1684 28.9314 47.1727 28.9529C47.1769 28.97 47.1705 28.9829 47.1533 28.9915L46.4902 29.3069C46.4731 29.3155 46.4538 29.3198 46.4323 29.3198C46.3679 29.3198 46.3057 29.2833 46.2456 29.2104C46.1898 29.1331 46.1533 29.0323 46.1361 28.9078L45.84 29.1138C45.737 29.1868 45.6426 29.2383 45.5567 29.2683C45.4752 29.2984 45.3829 29.3134 45.2799 29.3134C45.1039 29.3134 44.9687 29.2726 44.8743 29.1911C44.7842 29.1052 44.7391 28.9936 44.7391 28.8563C44.7391 28.7404 44.7692 28.646 44.8292 28.573C44.8936 28.5001 44.973 28.4421 45.0675 28.3992C45.1662 28.352 45.3099 28.294 45.4988 28.2254L46.1233 27.9936V27.6073C46.1233 27.3412 46.0954 27.1481 46.0396 27.0279C45.9881 26.9034 45.9044 26.8412 45.7885 26.8412C45.6469 26.8412 45.5439 26.8949 45.4795 27.0022C45.4194 27.1052 45.3829 27.221 45.37 27.3498C45.3443 27.5687 45.2348 27.6781 45.0417 27.6781C44.9473 27.6781 44.8765 27.6567 44.8292 27.6138C44.7863 27.5708 44.7649 27.5172 44.7649 27.4528C44.7649 27.3326 44.8357 27.2168 44.9773 27.1052C45.1232 26.9893 45.2971 26.897 45.4988 26.8283C45.7048 26.7554 45.8851 26.7189 46.0396 26.7189C46.2241 26.7189 46.3701 26.7768 46.4774 26.8927C46.5889 27.0086 46.6447 27.1824 46.6447 27.4142V28.573C46.6447 28.7061 46.6662 28.8069 46.7091 28.8756C46.752 28.9443 46.8143 28.9786 46.8958 28.9786C46.9602 28.9786 47.0375 28.9593 47.1276 28.9207H47.1405ZM46.1233 28.8048V28.7404V28.103L45.737 28.264C45.6254 28.3069 45.5331 28.3584 45.4602 28.4185C45.3915 28.4743 45.3572 28.5558 45.3572 28.6631C45.3572 28.7662 45.3893 28.8498 45.4537 28.9142C45.5224 28.9743 45.6039 29.0044 45.6984 29.0044C45.7756 29.0044 45.8572 28.9786 45.943 28.9271L46.1233 28.8048ZM49.213 28.8563C49.2259 28.8563 49.2366 28.8649 49.2452 28.882C49.258 28.8992 49.258 28.9121 49.2452 28.9207C49.0864 29.0709 48.9361 29.1803 48.7945 29.249C48.6529 29.3134 48.5027 29.3456 48.3439 29.3456C48.1593 29.3456 48.0026 29.3026 47.8739 29.2168C47.7494 29.1267 47.6872 28.9786 47.6872 28.7726V27.3176C47.6872 27.176 47.6636 27.0816 47.6164 27.0343C47.5735 26.9871 47.4876 26.9635 47.3589 26.9635C47.3546 26.9635 47.3481 26.9592 47.3395 26.9507C47.3352 26.9378 47.3331 26.9249 47.3331 26.912C47.3331 26.8992 47.3352 26.8884 47.3395 26.8798C47.3481 26.867 47.3546 26.8605 47.3589 26.8605C47.7623 26.8434 48.0155 26.6695 48.1185 26.3391C48.1271 26.3219 48.1443 26.3133 48.17 26.3133C48.2001 26.3133 48.2151 26.3219 48.2151 26.3391V26.8476C48.4168 26.8434 48.7022 26.8219 49.0713 26.7833C49.0799 26.7833 49.0885 26.8004 49.0971 26.8348C49.11 26.8648 49.1164 26.8992 49.1164 26.9378C49.1164 26.9764 49.1078 27.015 49.0907 27.0537C49.0778 27.0923 49.0628 27.1095 49.0456 27.1052C48.8052 27.0494 48.5284 27.015 48.2151 27.0022V28.5601C48.2151 28.7275 48.2559 28.852 48.3374 28.9335C48.4233 29.0108 48.5413 29.0494 48.6915 29.0494C48.8718 29.0494 49.0413 28.9872 49.2001 28.8627L49.213 28.8563ZM50.1974 26.0429C50.0858 26.0429 49.9979 26.0129 49.9335 25.9528C49.8734 25.8927 49.8433 25.8068 49.8433 25.6953C49.8433 25.588 49.8734 25.5064 49.9335 25.4506C49.9979 25.3905 50.0858 25.3605 50.1974 25.3605C50.3047 25.3605 50.3884 25.3905 50.4485 25.4506C50.5086 25.5064 50.5386 25.588 50.5386 25.6953C50.5386 25.8068 50.5086 25.8927 50.4485 25.9528C50.3927 26.0129 50.309 26.0429 50.1974 26.0429ZM49.6051 29.2683C49.5923 29.2683 49.5858 29.2554 49.5858 29.2297C49.5858 29.2039 49.5923 29.1911 49.6051 29.1911C49.7511 29.1911 49.8476 29.161 49.8948 29.1009C49.9421 29.0408 49.9657 28.9228 49.9657 28.7468V27.5751C49.9657 27.4292 49.9506 27.3241 49.9206 27.2597C49.8906 27.191 49.839 27.1567 49.7661 27.1567C49.7017 27.1567 49.618 27.1824 49.515 27.2339H49.5086C49.4914 27.2339 49.4785 27.2232 49.4699 27.2017C49.4614 27.1803 49.4635 27.1653 49.4764 27.1567L50.4034 26.7253L50.4228 26.7189C50.4399 26.7189 50.4571 26.7296 50.4743 26.7511C50.4957 26.7682 50.5064 26.7833 50.5064 26.7961V26.9313C50.4979 27.1116 50.4936 27.3241 50.4936 27.5687V28.7468C50.4936 28.9228 50.5172 29.0408 50.5644 29.1009C50.6159 29.161 50.7146 29.1911 50.8605 29.1911C50.8734 29.1911 50.8798 29.2039 50.8798 29.2297C50.8798 29.2554 50.8734 29.2683 50.8605 29.2683C50.7532 29.2683 50.6674 29.2662 50.603 29.2619L50.2296 29.2554L49.8562 29.2619C49.7961 29.2662 49.7124 29.2683 49.6051 29.2683ZM52.5449 29.352C52.2873 29.352 52.0599 29.2919 51.8624 29.1717C51.665 29.0473 51.5126 28.882 51.4053 28.676C51.298 28.4657 51.2444 28.2382 51.2444 27.9936C51.2444 27.7146 51.3131 27.4786 51.4504 27.2854C51.592 27.088 51.7702 26.9421 51.9848 26.8476C52.2037 26.7489 52.4268 26.6996 52.6543 26.6996C52.9161 26.6996 53.1436 26.7618 53.3367 26.8863C53.5342 27.0107 53.6844 27.176 53.7874 27.382C53.8904 27.5837 53.9419 27.8005 53.9419 28.0322C53.9419 28.2897 53.8775 28.5194 53.7488 28.7211C53.6243 28.9228 53.4548 29.0795 53.2402 29.1911C53.0256 29.2984 52.7938 29.352 52.5449 29.352ZM52.738 29.2232C52.9268 29.2232 53.0706 29.1396 53.1693 28.9722C53.2723 28.8048 53.3239 28.5601 53.3239 28.2382C53.3239 27.9507 53.2831 27.6996 53.2015 27.485C53.1243 27.2704 53.017 27.1073 52.8796 26.9957C52.7466 26.8841 52.6007 26.8283 52.4419 26.8283C52.2487 26.8283 52.1028 26.9077 52.0041 27.0665C51.9054 27.2253 51.856 27.4593 51.856 27.7683C51.856 28.0472 51.8925 28.2983 51.9654 28.5215C52.0427 28.7404 52.1479 28.9121 52.2809 29.0365C52.4183 29.161 52.5706 29.2232 52.738 29.2232ZM57.4076 29.1911C57.4205 29.1911 57.4269 29.2039 57.4269 29.2297C57.4269 29.2554 57.4205 29.2683 57.4076 29.2683C57.3003 29.2683 57.2166 29.2662 57.1565 29.2619L56.7831 29.2554L56.4162 29.2619C56.3518 29.2662 56.266 29.2683 56.1587 29.2683C56.1458 29.2683 56.1393 29.2554 56.1393 29.2297C56.1393 29.2039 56.1458 29.1911 56.1587 29.1911C56.3046 29.1911 56.4012 29.161 56.4484 29.1009C56.4956 29.0408 56.5192 28.9228 56.5192 28.7468V27.7811C56.5192 27.5408 56.4741 27.3648 56.384 27.2532C56.2981 27.1374 56.1608 27.0794 55.972 27.0794C55.8604 27.0794 55.7466 27.1052 55.6307 27.1567C55.5149 27.2082 55.4097 27.2768 55.3153 27.3627V28.7468C55.3153 28.9228 55.3389 29.0408 55.3861 29.1009C55.4333 29.161 55.5299 29.1911 55.6758 29.1911C55.6887 29.1911 55.6951 29.2039 55.6951 29.2297C55.6951 29.2554 55.6887 29.2683 55.6758 29.2683C55.5685 29.2683 55.4848 29.2662 55.4247 29.2619L55.0513 29.2554L54.6779 29.2619C54.6178 29.2662 54.5341 29.2683 54.4269 29.2683C54.414 29.2683 54.4075 29.2554 54.4075 29.2297C54.4075 29.2039 54.414 29.1911 54.4269 29.1911C54.5728 29.1911 54.6693 29.161 54.7166 29.1009C54.7638 29.0408 54.7874 28.9228 54.7874 28.7468V27.5172C54.7874 27.3798 54.7702 27.279 54.7359 27.2146C54.7058 27.1502 54.6543 27.118 54.5814 27.118C54.517 27.118 54.4097 27.1502 54.2595 27.2146H54.253C54.2359 27.2146 54.223 27.2039 54.2144 27.1824C54.2058 27.161 54.208 27.1481 54.2208 27.1438L55.0642 26.7318C55.09 26.7232 55.105 26.7189 55.1093 26.7189C55.1522 26.7189 55.1951 26.7682 55.238 26.867C55.2852 26.9614 55.311 27.0859 55.3153 27.2404C55.6157 26.8841 55.9419 26.706 56.2939 26.706C56.5299 26.706 56.7145 26.779 56.8475 26.9249C56.9806 27.0665 57.0471 27.2597 57.0471 27.5043V28.7468C57.0471 28.9228 57.0707 29.0408 57.1179 29.1009C57.1651 29.161 57.2617 29.1911 57.4076 29.1911ZM60.0975 25.927C60.0975 26.0858 60.1361 26.2275 60.2133 26.3519C60.2949 26.4721 60.3936 26.5773 60.5095 26.6674C60.6297 26.7575 60.7906 26.8648 60.9923 26.9893C61.2112 27.1266 61.3829 27.2447 61.5074 27.3434C61.6361 27.4421 61.7434 27.5644 61.8293 27.7103C61.9194 27.852 61.9645 28.0194 61.9645 28.2125C61.9645 28.4314 61.9065 28.6267 61.7906 28.7983C61.679 28.97 61.5181 29.1052 61.3078 29.2039C61.1018 29.2984 60.8657 29.3456 60.5996 29.3456C60.4194 29.3456 60.2327 29.322 60.0395 29.2747C59.8507 29.2275 59.7069 29.1696 59.6082 29.1009C59.5696 29.0752 59.5481 29.0344 59.5438 28.9786L59.5052 28V27.9936C59.5052 27.9764 59.5159 27.9678 59.5374 27.9678C59.5588 27.9636 59.5717 27.97 59.576 27.9872C59.7176 28.3434 59.8786 28.6352 60.0588 28.8627C60.2434 29.0902 60.4773 29.2039 60.7606 29.2039C60.9451 29.2039 61.0996 29.1546 61.2241 29.0559C61.3486 28.9529 61.4108 28.7833 61.4108 28.5473C61.4108 28.3584 61.3679 28.1932 61.282 28.0515C61.2005 27.9099 61.0975 27.7919 60.973 27.6975C60.8528 27.603 60.6876 27.4871 60.4773 27.3498C60.2713 27.2168 60.1103 27.1052 59.9945 27.015C59.8786 26.9206 59.7799 26.8069 59.6983 26.6738C59.6168 26.5365 59.576 26.3777 59.576 26.1974C59.576 25.9742 59.6382 25.7854 59.7627 25.6309C59.8872 25.4764 60.0481 25.3626 60.2455 25.2897C60.4473 25.2124 60.6576 25.1738 60.8765 25.1738C61.0224 25.1738 61.1683 25.1888 61.3142 25.2188C61.4602 25.2446 61.5825 25.2789 61.6812 25.3219C61.7456 25.3476 61.7778 25.3884 61.7778 25.4442L61.7971 26.3197C61.7971 26.3326 61.7842 26.3412 61.7584 26.3455C61.737 26.3498 61.7241 26.3455 61.7198 26.3326C61.634 26.0708 61.5181 25.8347 61.3722 25.6244C61.2305 25.4098 61.0159 25.3025 60.7284 25.3025C60.5352 25.3025 60.3807 25.3583 60.2648 25.4699C60.1533 25.5815 60.0975 25.7339 60.0975 25.927ZM64.7446 28.8627C64.7532 28.8627 64.7618 28.8713 64.7703 28.8885C64.7832 28.9056 64.7854 28.9185 64.7768 28.9271C64.618 29.073 64.4592 29.1803 64.3004 29.249C64.1416 29.3134 63.9699 29.3456 63.7853 29.3456C63.5235 29.3456 63.2961 29.2876 63.1029 29.1717C62.9141 29.0559 62.7682 28.9035 62.6651 28.7146C62.5664 28.5258 62.5171 28.3219 62.5171 28.103C62.5171 27.8498 62.5793 27.6181 62.7038 27.4077C62.8282 27.1974 62.9978 27.0322 63.2124 26.912C63.4313 26.7876 63.6738 26.7253 63.9399 26.7253C64.1974 26.7253 64.3969 26.7876 64.5386 26.912C64.6802 27.0365 64.751 27.221 64.751 27.4657C64.751 27.5902 64.7253 27.6524 64.6738 27.6524L63.1029 27.6588C63.0986 27.6975 63.0965 27.7554 63.0965 27.8327C63.0965 28.2103 63.1823 28.5108 63.354 28.734C63.53 28.9529 63.7789 29.0623 64.1008 29.0623C64.221 29.0623 64.3218 29.0494 64.4034 29.0237C64.4849 28.9936 64.5944 28.9421 64.7317 28.8692L64.7446 28.8627ZM63.7081 26.8541C63.5493 26.8541 63.4184 26.9163 63.3154 27.0408C63.2167 27.161 63.1501 27.3283 63.1158 27.5429L64.1459 27.5236C64.1373 27.0773 63.9914 26.8541 63.7081 26.8541ZM66.8501 26.7189C66.9488 26.7189 67.0432 26.7511 67.1333 26.8155C67.2235 26.8798 67.2685 26.9571 67.2685 27.0472C67.2685 27.1288 67.2428 27.1953 67.1913 27.2468C67.1441 27.2983 67.0775 27.3241 66.9917 27.3241C66.9359 27.3241 66.8887 27.3133 66.8501 27.2919C66.8157 27.2661 66.7792 27.2318 66.7406 27.1889C66.702 27.1502 66.6676 27.1223 66.6376 27.1052C66.6076 27.0837 66.5711 27.073 66.5282 27.073C66.4809 27.073 66.4294 27.0923 66.3736 27.1309C66.3221 27.1653 66.2406 27.2404 66.129 27.3562V28.7468C66.129 28.867 66.1462 28.9593 66.1805 29.0237C66.2148 29.0838 66.2728 29.1267 66.3543 29.1524C66.4359 29.1782 66.5561 29.1911 66.7149 29.1911C66.732 29.1911 66.7406 29.2039 66.7406 29.2297C66.7406 29.2554 66.732 29.2683 66.7149 29.2683C66.5732 29.2683 66.4595 29.2662 66.3736 29.2619L65.8651 29.2554L65.4917 29.2619C65.4316 29.2662 65.3479 29.2683 65.2406 29.2683C65.2277 29.2683 65.2213 29.2554 65.2213 29.2297C65.2213 29.2039 65.2277 29.1911 65.2406 29.1911C65.3865 29.1911 65.4831 29.161 65.5303 29.1009C65.5775 29.0408 65.6011 28.9228 65.6011 28.7468V27.5172C65.6011 27.3798 65.5839 27.279 65.5496 27.2146C65.5195 27.1502 65.468 27.118 65.3951 27.118C65.3307 27.118 65.2234 27.1502 65.0732 27.2146H65.0667C65.0496 27.2146 65.0367 27.2039 65.0281 27.1824C65.0195 27.161 65.0217 27.1481 65.0346 27.1438L65.8779 26.7318C65.9037 26.7232 65.9187 26.7189 65.923 26.7189C65.9659 26.7189 66.0088 26.7661 66.0518 26.8605C66.0947 26.9507 66.1204 27.0708 66.129 27.221C66.2964 27.0322 66.4359 26.9013 66.5475 26.8283C66.6591 26.7554 66.7599 26.7189 66.8501 26.7189ZM70.2559 26.7833C70.2645 26.7833 70.2687 26.7961 70.2687 26.8219C70.2687 26.8476 70.2645 26.8605 70.2559 26.8605C70.1357 26.8605 70.0305 26.9034 69.9404 26.9893C69.8546 27.0751 69.7709 27.2125 69.6893 27.4013L68.891 29.2683C68.8824 29.2898 68.861 29.3005 68.8266 29.3005C68.788 29.3005 68.7623 29.2898 68.7494 29.2683L67.7966 27.3176C67.7064 27.1288 67.6292 27.0064 67.5648 26.9507C67.5004 26.8906 67.421 26.8605 67.3266 26.8605C67.3137 26.8605 67.3073 26.8476 67.3073 26.8219C67.3073 26.7961 67.3137 26.7833 67.3266 26.7833C67.4039 26.7833 67.4661 26.7854 67.5133 26.7897L67.8867 26.7961L68.3631 26.7897C68.4318 26.7854 68.5262 26.7833 68.6464 26.7833C68.6593 26.7833 68.6657 26.7961 68.6657 26.8219C68.6657 26.8476 68.6593 26.8605 68.6464 26.8605C68.3932 26.8605 68.2665 26.9099 68.2665 27.0086C68.2665 27.0343 68.2773 27.0687 68.2987 27.1116L69.0391 28.573L69.5284 27.3884C69.5584 27.3155 69.5734 27.2447 69.5734 27.176C69.5734 27.073 69.5348 26.9957 69.4576 26.9442C69.3846 26.8884 69.2752 26.8605 69.1292 26.8605C69.1206 26.8605 69.1164 26.8476 69.1164 26.8219C69.1164 26.7961 69.1206 26.7833 69.1292 26.7833C69.2451 26.7833 69.3331 26.7854 69.3932 26.7897L69.7795 26.7961L70.0305 26.7897C70.0778 26.7854 70.1529 26.7833 70.2559 26.7833ZM71.083 26.0429C70.9714 26.0429 70.8834 26.0129 70.819 25.9528C70.759 25.8927 70.7289 25.8068 70.7289 25.6953C70.7289 25.588 70.759 25.5064 70.819 25.4506C70.8834 25.3905 70.9714 25.3605 71.083 25.3605C71.1903 25.3605 71.274 25.3905 71.3341 25.4506C71.3942 25.5064 71.4242 25.588 71.4242 25.6953C71.4242 25.8068 71.3942 25.8927 71.3341 25.9528C71.2783 26.0129 71.1946 26.0429 71.083 26.0429ZM70.4907 29.2683C70.4778 29.2683 70.4714 29.2554 70.4714 29.2297C70.4714 29.2039 70.4778 29.1911 70.4907 29.1911C70.6366 29.1911 70.7332 29.161 70.7804 29.1009C70.8276 29.0408 70.8512 28.9228 70.8512 28.7468V27.5751C70.8512 27.4292 70.8362 27.3241 70.8062 27.2597C70.7761 27.191 70.7246 27.1567 70.6517 27.1567C70.5873 27.1567 70.5036 27.1824 70.4006 27.2339H70.3941C70.377 27.2339 70.3641 27.2232 70.3555 27.2017C70.3469 27.1803 70.3491 27.1653 70.3619 27.1567L71.289 26.7253L71.3083 26.7189C71.3255 26.7189 71.3427 26.7296 71.3598 26.7511C71.3813 26.7682 71.392 26.7833 71.392 26.7961V26.9313C71.3834 27.1116 71.3791 27.3241 71.3791 27.5687V28.7468C71.3791 28.9228 71.4027 29.0408 71.45 29.1009C71.5015 29.161 71.6002 29.1911 71.7461 29.1911C71.759 29.1911 71.7654 29.2039 71.7654 29.2297C71.7654 29.2554 71.759 29.2683 71.7461 29.2683C71.6388 29.2683 71.553 29.2662 71.4886 29.2619L71.1152 29.2554L70.7418 29.2619C70.6817 29.2662 70.598 29.2683 70.4907 29.2683ZM73.4175 29.3456C73.1386 29.3456 72.9004 29.2855 72.7029 29.1653C72.5098 29.0408 72.366 28.882 72.2716 28.6889C72.1772 28.4915 72.13 28.2855 72.13 28.0709C72.13 27.8005 72.2029 27.5644 72.3489 27.3627C72.4948 27.1567 72.6815 27 72.909 26.8927C73.1407 26.7811 73.3746 26.7253 73.6107 26.7253C73.8124 26.7253 73.9948 26.7661 74.1579 26.8476C74.321 26.9292 74.4026 27.0386 74.4026 27.176C74.4026 27.2489 74.3747 27.3133 74.3189 27.3691C74.2631 27.4206 74.1858 27.4464 74.0871 27.4464C73.924 27.4464 73.806 27.3498 73.733 27.1567C73.6901 27.0494 73.645 26.9743 73.5978 26.9313C73.5506 26.8841 73.4755 26.8605 73.3725 26.8605C73.1708 26.8605 73.0098 26.9528 72.8896 27.1374C72.7738 27.3176 72.7158 27.5601 72.7158 27.8648C72.7158 28.2211 72.7974 28.5108 72.9605 28.734C73.1278 28.9529 73.3875 29.0623 73.7394 29.0623C73.8596 29.0623 73.9669 29.0473 74.0613 29.0172C74.1558 28.9872 74.2588 28.94 74.3704 28.8756H74.3768C74.3897 28.8756 74.4004 28.882 74.409 28.8949C74.4219 28.9078 74.424 28.9185 74.4154 28.9271C74.2566 29.0687 74.1 29.1739 73.9455 29.2426C73.791 29.3112 73.615 29.3456 73.4175 29.3456ZM77.0232 28.8627C77.0318 28.8627 77.0404 28.8713 77.049 28.8885C77.0618 28.9056 77.064 28.9185 77.0554 28.9271C76.8966 29.073 76.7378 29.1803 76.579 29.249C76.4202 29.3134 76.2485 29.3456 76.0639 29.3456C75.8021 29.3456 75.5747 29.2876 75.3815 29.1717C75.1927 29.0559 75.0468 28.9035 74.9437 28.7146C74.845 28.5258 74.7957 28.3219 74.7957 28.103C74.7957 27.8498 74.8579 27.6181 74.9824 27.4077C75.1068 27.1974 75.2764 27.0322 75.491 26.912C75.7099 26.7876 75.9524 26.7253 76.2185 26.7253C76.476 26.7253 76.6756 26.7876 76.8172 26.912C76.9588 27.0365 77.0296 27.221 77.0296 27.4657C77.0296 27.5902 77.0039 27.6524 76.9524 27.6524L75.3815 27.6588C75.3772 27.6975 75.3751 27.7554 75.3751 27.8327C75.3751 28.2103 75.4609 28.5108 75.6326 28.734C75.8086 28.9529 76.0575 29.0623 76.3794 29.0623C76.4996 29.0623 76.6004 29.0494 76.682 29.0237C76.7635 28.9936 76.873 28.9421 77.0103 28.8692L77.0232 28.8627ZM75.9867 26.8541C75.8279 26.8541 75.697 26.9163 75.594 27.0408C75.4953 27.161 75.4287 27.3283 75.3944 27.5429L76.4245 27.5236C76.4159 27.0773 76.27 26.8541 75.9867 26.8541ZM77.9763 27.118C77.9763 27.2511 78.0213 27.3627 78.1115 27.4528C78.2059 27.5429 78.3411 27.6374 78.517 27.7361C78.6716 27.8219 78.7896 27.8927 78.8711 27.9485C78.957 28.0043 79.0299 28.0794 79.09 28.1739C79.1544 28.2683 79.1866 28.382 79.1866 28.5151C79.1866 28.661 79.1501 28.7962 79.0771 28.9207C79.0042 29.0451 78.8947 29.146 78.7488 29.2232C78.6072 29.3005 78.4376 29.3391 78.2402 29.3391C78.0042 29.3391 77.7874 29.279 77.59 29.1589C77.5642 29.1331 77.5514 29.1074 77.5514 29.0816L77.5385 28.4893C77.5385 28.4764 77.5492 28.47 77.5707 28.47C77.5964 28.4657 77.6114 28.4679 77.6157 28.4764C77.6887 28.691 77.7981 28.867 77.9441 29.0044C78.0943 29.1417 78.2531 29.2104 78.4205 29.2104C78.5278 29.2104 78.6115 29.1825 78.6716 29.1267C78.7316 29.0709 78.7617 28.9872 78.7617 28.8756C78.7617 28.7125 78.7145 28.5837 78.6201 28.4893C78.5256 28.3906 78.3883 28.294 78.208 28.1996C78.0621 28.1224 77.9484 28.058 77.8668 28.0065C77.7853 27.9507 77.7145 27.8777 77.6544 27.7876C77.5986 27.6932 77.5707 27.5773 77.5707 27.4399C77.5707 27.1953 77.6587 27.0129 77.8346 26.8927C78.0149 26.7725 78.2316 26.7125 78.4849 26.7125C78.6522 26.7125 78.8239 26.7446 78.9999 26.809C79.0385 26.8262 79.0578 26.8498 79.0578 26.8798C79.0578 26.9786 79.0557 27.0558 79.0514 27.1116L79.045 27.4206C79.045 27.4335 79.0321 27.4399 79.0063 27.4399C78.9806 27.4399 78.9677 27.4335 78.9677 27.4206C78.9677 27.3348 78.9334 27.2468 78.8647 27.1567C78.796 27.0622 78.708 26.985 78.6007 26.9249C78.4934 26.8648 78.384 26.8348 78.2724 26.8348C78.075 26.8348 77.9763 26.9292 77.9763 27.118Z" fill="#333333"/>
</svg>
