<svg width="96" height="38" viewBox="0 0 96 38" fill="none" xmlns="http://www.w3.org/2000/svg">
<path d="M23.2001 6.1526C23.2001 4.70336 22.8657 3.57462 22.1968 2.76639C21.5558 1.95816 20.6222 1.55405 19.3959 1.55405C19.3401 1.55405 19.3123 1.47044 19.3123 1.30322C19.3123 1.136 19.3401 1.05239 19.3959 1.05239L21.3189 1.09419C22.378 1.14993 23.2141 1.1778 23.8272 1.1778C24.3289 1.1778 25.0814 1.14993 26.0847 1.09419L27.9241 1.05239C27.9798 1.05239 28.0077 1.136 28.0077 1.30322C28.0077 1.47044 27.9798 1.55405 27.9241 1.55405C26.8372 1.55405 25.9871 1.95816 25.374 2.76639C24.7887 3.57462 24.4961 4.70336 24.4961 6.1526V17.858C24.4961 19.8646 24.0641 21.6205 23.2001 23.1254C22.364 24.6026 21.1656 25.7452 19.6049 26.5535C18.072 27.3617 16.2884 27.7658 14.2539 27.7658C12.2193 27.7658 10.4078 27.3756 8.8192 26.5953C7.23061 25.787 5.99039 24.6444 5.09855 23.1672C4.23458 21.6623 3.8026 19.9065 3.8026 17.8998V4.43859C3.8026 3.60249 3.71899 2.98935 3.55177 2.59917C3.38455 2.20899 3.07798 1.94422 2.63206 1.80487C2.21401 1.63765 1.54513 1.55405 0.625415 1.55405C0.541805 1.55405 0.5 1.47044 0.5 1.30322C0.5 1.136 0.541805 1.05239 0.625415 1.05239L2.79928 1.09419C4.02556 1.14993 5.01494 1.1778 5.76743 1.1778C6.60353 1.1778 7.63473 1.14993 8.86101 1.09419L10.9513 1.05239C11.0349 1.05239 11.0767 1.136 11.0767 1.30322C11.0767 1.47044 11.0349 1.55405 10.9513 1.55405C10.0315 1.55405 9.34873 1.63765 8.90281 1.80487C8.45689 1.9721 8.15032 2.26473 7.9831 2.68278C7.84375 3.07296 7.77408 3.6861 7.77408 4.5222V16.4366C7.77408 19.7532 8.45689 22.2336 9.82252 23.8779C11.216 25.4944 13.153 26.3026 15.6334 26.3026C18.0024 26.3026 19.8557 25.578 21.1935 24.1288C22.5312 22.6516 23.2001 20.5753 23.2001 17.8998V6.1526Z" fill="white"/>
<path d="M37.7555 23.7943C37.7555 24.6583 37.8251 25.2854 37.9645 25.6755C38.1038 26.0657 38.3825 26.3305 38.8006 26.4698C39.2465 26.6092 39.9433 26.6789 40.8908 26.6789C40.9745 26.6789 41.0163 26.7625 41.0163 26.9297C41.0163 27.0969 40.9745 27.1805 40.8908 27.1805C39.999 27.1805 39.2883 27.1666 38.7588 27.1387L35.6652 27.0969L32.6553 27.1387C32.1257 27.1666 31.4011 27.1805 30.4814 27.1805C30.3978 27.1805 30.356 27.0969 30.356 26.9297C30.356 26.7625 30.3978 26.6789 30.4814 26.6789C31.429 26.6789 32.1118 26.6092 32.5298 26.4698C32.9758 26.3305 33.2823 26.0657 33.4495 25.6755C33.6168 25.2575 33.7004 24.6304 33.7004 23.7943V4.43859C33.7004 3.60249 33.6168 2.98935 33.4495 2.59917C33.2823 2.20899 32.9758 1.94422 32.5298 1.80487C32.1118 1.63765 31.429 1.55405 30.4814 1.55405C30.3978 1.55405 30.356 1.47044 30.356 1.30322C30.356 1.136 30.3978 1.05239 30.4814 1.05239L32.6553 1.09419C33.8815 1.14993 34.8849 1.1778 35.6652 1.1778C36.5292 1.1778 37.5743 1.14993 38.8006 1.09419L40.8908 1.05239C40.9745 1.05239 41.0163 1.136 41.0163 1.30322C41.0163 1.47044 40.9745 1.55405 40.8908 1.55405C39.9711 1.55405 39.2883 1.63765 38.8424 1.80487C38.4243 1.9721 38.1317 2.26473 37.9645 2.68278C37.8251 3.07296 37.7555 3.6861 37.7555 4.5222V23.7943Z" fill="white"/>
<path d="M49.6643 5.48372C49.6643 6.51491 49.9152 7.43462 50.4168 8.24285C50.9464 9.02321 51.5874 9.70603 52.3399 10.2913C53.1202 10.8766 54.1654 11.5733 55.4752 12.3815C56.8966 13.2734 58.0114 14.0398 58.8196 14.6808C59.6557 15.3218 60.3525 16.1161 60.9099 17.0637C61.4952 17.9834 61.7878 19.0704 61.7878 20.3245C61.7878 21.7459 61.4116 23.014 60.6591 24.1288C59.9344 25.2436 58.8893 26.1215 57.5237 26.7625C56.1859 27.3756 54.6531 27.6822 52.9251 27.6822C51.7546 27.6822 50.5423 27.5289 49.2881 27.2223C48.0618 26.9158 47.1282 26.5395 46.4872 26.0936C46.2363 25.9264 46.097 25.6616 46.0691 25.2993L45.8183 18.9449V18.9031C45.8183 18.7917 45.888 18.7359 46.0273 18.7359C46.1667 18.708 46.2503 18.7498 46.2781 18.8613C47.1978 21.1745 48.243 23.0697 49.4135 24.5468C50.6119 26.0239 52.1308 26.7625 53.9703 26.7625C55.1687 26.7625 56.172 26.442 56.9802 25.801C57.7885 25.1321 58.1926 24.0312 58.1926 22.4984C58.1926 21.2721 57.9139 20.1991 57.3565 19.2794C56.8269 18.3597 56.1581 17.5932 55.3498 16.9801C54.5695 16.367 53.4965 15.6145 52.1308 14.7226C50.7931 13.8587 49.748 13.134 48.9955 12.5488C48.243 11.9356 47.602 11.1971 47.0724 10.3331C46.5429 9.44126 46.2781 8.41007 46.2781 7.23953C46.2781 5.79029 46.6823 4.56401 47.4905 3.56069C48.2987 2.55737 49.3438 1.81881 50.6259 1.34502C51.9358 0.84336 53.3014 0.592529 54.7228 0.592529C55.6703 0.592529 56.6179 0.690075 57.5655 0.885166C58.5131 1.05239 59.3074 1.27535 59.9484 1.55405C60.3664 1.72126 60.5755 1.98603 60.5755 2.34834L60.7009 8.03382C60.7009 8.11743 60.6173 8.17317 60.45 8.20104C60.3107 8.22892 60.2271 8.20104 60.1992 8.11743C59.6418 6.41736 58.8893 4.88451 57.9417 3.51888C57.022 2.12538 55.6285 1.42863 53.7612 1.42863C52.5071 1.42863 51.5038 1.79094 50.7513 2.51556C50.0267 3.24018 49.6643 4.22957 49.6643 5.48372Z" fill="white"/>
<path d="M81.731 27.9394C74.1325 27.9273 67.9679 21.7505 67.98 14.1642C67.9921 6.54759 74.1688 0.40108 81.7854 0.41923C89.3899 0.443428 95.5122 6.60203 95.5001 14.2186C95.482 21.805 89.3113 27.9515 81.731 27.9394ZM86.4014 19.5968C86.2925 19.2096 86.2138 18.8648 86.0928 18.5381C85.9597 18.163 86.0565 17.8908 86.359 17.6367C87.6113 16.5901 88.8515 15.5254 90.0977 14.4667C90.1764 14.4001 90.255 14.3275 90.3579 14.2307C90.0735 14.0916 89.8315 13.9706 89.5835 13.8496C89.2205 13.6741 89.1903 13.6136 89.2931 13.2144C89.4323 12.6699 89.5835 12.1254 89.7226 11.5749C89.8073 11.2361 89.892 10.9034 89.9888 10.5343C89.8739 10.5525 89.8073 10.5525 89.7408 10.5706C89.1177 10.7037 88.5006 10.8368 87.8775 10.976C87.2907 11.103 87.2423 11.0788 87.0789 10.4859C87.0063 10.2198 86.9337 9.95962 86.843 9.63294C86.2078 10.3771 85.627 11.0607 85.0402 11.7382C84.8889 11.9137 84.7377 12.1859 84.4594 12.0589C84.169 11.9258 84.2719 11.6172 84.3142 11.3813C84.5381 10.0988 84.774 8.82228 85.0039 7.54579C85.0402 7.3522 85.0644 7.15861 85.1007 6.89847C84.6711 7.12836 84.3021 7.3401 83.927 7.52764C83.5701 7.70913 83.3705 7.64258 83.189 7.28565C82.7534 6.44474 82.3239 5.59778 81.8883 4.75687C81.8399 4.66613 81.7854 4.57538 81.7128 4.44834C81.2228 5.39814 80.763 6.2935 80.3033 7.18886C80.0552 7.67283 79.8979 7.72728 79.42 7.47319C79.0752 7.2917 78.7364 7.10416 78.3613 6.90452C78.3613 7.00131 78.3552 7.04971 78.3613 7.09811C78.5428 8.10841 78.7243 9.11871 78.9058 10.1351C78.9905 10.619 79.0994 11.103 79.1538 11.593C79.172 11.7443 79.0449 11.9076 78.9844 12.071C78.8332 12.0105 78.6819 11.9621 78.5367 11.8955C78.4883 11.8713 78.4581 11.8048 78.4157 11.7624C77.8834 11.1393 77.357 10.5222 76.8247 9.89912C76.7642 9.82653 76.6916 9.75998 76.5948 9.65109C76.4859 10.0443 76.3891 10.3771 76.2983 10.7158C76.2258 10.982 76.0624 11.0788 75.8023 11.0244C75.6329 10.9881 75.4695 10.9518 75.3001 10.9155C74.7073 10.7884 74.1084 10.6553 73.4671 10.5162C73.4973 10.6614 73.5155 10.7582 73.5397 10.855C73.7514 11.6656 73.9571 12.4763 74.1749 13.2809C74.2475 13.5531 74.1809 13.7225 73.9148 13.8314C73.6425 13.9464 73.3884 14.0916 73.0859 14.2368C73.2493 14.3759 73.3642 14.4788 73.4731 14.5755C74.6952 15.6161 75.9172 16.6506 77.1393 17.6851C77.3933 17.9029 77.478 18.1388 77.3752 18.4595C77.2602 18.8164 77.1695 19.1854 77.0546 19.5847C77.2845 19.5605 77.4659 19.5484 77.6414 19.5242C78.7727 19.3911 79.904 19.252 81.0353 19.1189C81.4103 19.0765 81.5132 19.1794 81.495 19.5484C81.4406 20.8975 81.3861 22.2466 81.3378 23.5957C81.3317 23.6925 81.3378 23.7893 81.3378 23.8861C81.5858 23.8861 81.7915 23.8861 82.0335 23.8861C82.0335 23.7711 82.0335 23.6743 82.0335 23.5775C82.0032 22.3373 81.979 21.0971 81.9488 19.8569C81.9306 19.0705 81.9548 19.0523 82.7292 19.1491C83.9512 19.3064 85.137 19.4456 86.4014 19.5968Z" fill="#F35C5C"/>
<path d="M86.4014 19.5965C85.137 19.4453 83.9452 19.3061 82.7595 19.1549C81.9851 19.0581 81.9609 19.0763 81.979 19.8627C82.0093 21.1029 82.0395 22.3431 82.0637 23.5833C82.0637 23.6801 82.0637 23.7769 82.0637 23.8918C81.8217 23.8918 81.6161 23.8918 81.368 23.8918C81.368 23.795 81.362 23.6982 81.368 23.6014C81.4225 22.2523 81.4769 20.9033 81.5253 19.5542C81.5374 19.1791 81.4406 19.0763 81.0655 19.1246C79.9342 19.2517 78.8029 19.3969 77.6716 19.53C77.4962 19.5542 77.3147 19.5663 77.0848 19.5905C77.1998 19.1912 77.2905 18.8222 77.4055 18.4652C77.5083 18.1446 77.4236 17.9026 77.1695 17.6909C75.9414 16.6564 74.7254 15.6158 73.5034 14.5813C73.3884 14.4845 73.2735 14.3877 73.1162 14.2425C73.4187 14.0913 73.6728 13.9461 73.945 13.8372C74.2112 13.7283 74.2778 13.5589 74.2052 13.2867C73.9874 12.4821 73.7817 11.6714 73.5699 10.8607C73.5457 10.7639 73.5276 10.6732 73.4973 10.522C74.1386 10.6611 74.7375 10.7881 75.3304 10.9212C75.4998 10.9575 75.6631 10.9938 75.8325 11.0301C76.0927 11.0846 76.2621 10.9878 76.3286 10.7216C76.4194 10.3828 76.5161 10.044 76.625 9.65685C76.7218 9.7597 76.7944 9.83229 76.8549 9.90489C77.3873 10.528 77.9136 11.1451 78.446 11.7682C78.4823 11.8166 78.5186 11.8771 78.567 11.9013C78.7122 11.9678 78.8634 12.0223 79.0147 12.0767C79.0752 11.9194 79.2022 11.7501 79.1841 11.5988C79.1296 11.1088 79.0207 10.6248 78.936 10.1408C78.7545 9.13053 78.5731 8.12023 78.3916 7.10387C78.3855 7.05548 78.3916 7.00708 78.3916 6.91028C78.7606 7.10992 79.1054 7.29747 79.4503 7.47896C79.9221 7.72699 80.0855 7.67255 80.3335 7.19462C80.7933 6.29926 81.2531 5.40391 81.7431 4.4541C81.8157 4.58115 81.8762 4.67189 81.9185 4.76264C82.3541 5.60355 82.7836 6.45051 83.2192 7.29142C83.4007 7.64835 83.6004 7.7149 83.9573 7.5334C84.3324 7.34586 84.6954 7.13412 85.1309 6.90423C85.0886 7.16437 85.0644 7.35796 85.0341 7.55155C84.8043 8.82804 84.5683 10.1106 84.3445 11.3871C84.3021 11.6291 84.1993 11.9315 84.4897 12.0646C84.768 12.1917 84.9192 11.9255 85.0704 11.744C85.6573 11.0664 86.238 10.3828 86.8733 9.6387C86.964 9.95934 87.0366 10.2255 87.1092 10.4917C87.2725 11.0785 87.3209 11.1088 87.9078 10.9817C88.5248 10.8426 89.1479 10.7095 89.7711 10.5764C89.8376 10.5643 89.9042 10.5583 90.0191 10.5401C89.9223 10.9091 89.8437 11.2479 89.7529 11.5807C89.6077 12.1251 89.4625 12.6696 89.3234 13.2201C89.2205 13.6194 89.2508 13.6799 89.6138 13.8554C89.8558 13.9763 90.0977 14.0973 90.3881 14.2365C90.2792 14.3333 90.2066 14.4059 90.128 14.4724C88.8818 15.5311 87.6416 16.5959 86.3893 17.6425C86.0807 17.8966 85.99 18.1688 86.1231 18.5439C86.2138 18.8645 86.2925 19.2093 86.4014 19.5965Z" fill="white"/>
<path d="M4.84781 31.1094C4.84781 30.8455 4.7869 30.6399 4.66507 30.4927C4.54831 30.3454 4.37826 30.2718 4.1549 30.2718C4.14475 30.2718 4.13967 30.2566 4.13967 30.2262C4.13967 30.1957 4.14475 30.1805 4.1549 30.1805L4.50516 30.1881C4.69806 30.1982 4.85035 30.2033 4.96203 30.2033C5.0534 30.2033 5.19046 30.1982 5.3732 30.1881L5.70824 30.1805C5.71839 30.1805 5.72346 30.1957 5.72346 30.2262C5.72346 30.2566 5.71839 30.2718 5.70824 30.2718C5.51026 30.2718 5.35544 30.3454 5.24376 30.4927C5.13716 30.6399 5.08386 30.8455 5.08386 31.1094V33.2414C5.08386 33.6069 5.00517 33.9267 4.84781 34.2009C4.69552 34.4699 4.47724 34.678 4.19297 34.8252C3.91378 34.9724 3.5889 35.0461 3.21833 35.0461C2.84777 35.0461 2.51781 34.975 2.22846 34.8329C1.93912 34.6856 1.71322 34.4775 1.55078 34.2085C1.39342 33.9344 1.31474 33.6146 1.31474 33.2491V30.7972C1.31474 30.6449 1.29951 30.5333 1.26905 30.4622C1.23859 30.3911 1.18276 30.3429 1.10154 30.3175C1.02539 30.2871 0.903562 30.2718 0.736046 30.2718C0.720817 30.2718 0.713203 30.2566 0.713203 30.2262C0.713203 30.1957 0.720817 30.1805 0.736046 30.1805L1.13199 30.1881C1.35535 30.1982 1.53556 30.2033 1.67261 30.2033C1.8249 30.2033 2.01272 30.1982 2.23608 30.1881L2.6168 30.1805C2.63203 30.1805 2.63964 30.1957 2.63964 30.2262C2.63964 30.2566 2.63203 30.2718 2.6168 30.2718C2.44928 30.2718 2.32491 30.2871 2.24369 30.3175C2.16247 30.348 2.10663 30.4013 2.07618 30.4774C2.0508 30.5485 2.0381 30.6602 2.0381 30.8125V32.9826C2.0381 33.5866 2.16247 34.0384 2.41121 34.3379C2.66502 34.6323 3.01782 34.7796 3.46961 34.7796C3.90109 34.7796 4.23866 34.6476 4.48232 34.3836C4.72598 34.1146 4.84781 33.7364 4.84781 33.2491V31.1094ZM9.45356 34.8481C9.46879 34.8481 9.4764 34.8633 9.4764 34.8938C9.4764 34.9242 9.46879 34.9395 9.45356 34.9395C9.32665 34.9395 9.22767 34.9369 9.1566 34.9318L8.71496 34.9242L8.28094 34.9318C8.2048 34.9369 8.10327 34.9395 7.97637 34.9395C7.96114 34.9395 7.95353 34.9242 7.95353 34.8938C7.95353 34.8633 7.96114 34.8481 7.97637 34.8481C8.14896 34.8481 8.26318 34.8125 8.31902 34.7415C8.37485 34.6704 8.40277 34.5308 8.40277 34.3227V33.1805C8.40277 32.8963 8.34947 32.6881 8.24287 32.5562C8.14135 32.4191 7.97891 32.3506 7.75555 32.3506C7.62357 32.3506 7.48905 32.381 7.35199 32.4419C7.21493 32.5029 7.09056 32.5841 6.97888 32.6856V34.3227C6.97888 34.5308 7.0068 34.6704 7.06264 34.7415C7.11848 34.8125 7.2327 34.8481 7.40529 34.8481C7.42052 34.8481 7.42813 34.8633 7.42813 34.8938C7.42813 34.9242 7.42052 34.9395 7.40529 34.9395C7.27838 34.9395 7.1794 34.9369 7.10833 34.9318L6.6667 34.9242L6.22506 34.9318C6.15399 34.9369 6.05501 34.9395 5.9281 34.9395C5.91287 34.9395 5.90526 34.9242 5.90526 34.8938C5.90526 34.8633 5.91287 34.8481 5.9281 34.8481C6.10069 34.8481 6.21491 34.8125 6.27075 34.7415C6.32659 34.6704 6.35451 34.5308 6.35451 34.3227V32.8683C6.35451 32.7059 6.3342 32.5866 6.29359 32.5105C6.25806 32.4343 6.19714 32.3963 6.11085 32.3963C6.0347 32.3963 5.9078 32.4343 5.73013 32.5105H5.72251C5.70221 32.5105 5.68698 32.4978 5.67683 32.4724C5.66667 32.447 5.66921 32.4318 5.68444 32.4267L6.68192 31.9394C6.71238 31.9292 6.73015 31.9242 6.73522 31.9242C6.78599 31.9242 6.83675 31.9825 6.88751 32.0993C6.94335 32.211 6.97381 32.3582 6.97888 32.5409C7.33422 32.1196 7.72002 31.9089 8.13627 31.9089C8.41546 31.9089 8.63374 31.9952 8.79111 32.1678C8.94847 32.3353 9.02715 32.5638 9.02715 32.8531V34.3227C9.02715 34.5308 9.05507 34.6704 9.11091 34.7415C9.16675 34.8125 9.28097 34.8481 9.45356 34.8481ZM10.6371 31.1246C10.5051 31.1246 10.4011 31.0891 10.3249 31.018C10.2539 30.947 10.2183 30.8455 10.2183 30.7135C10.2183 30.5866 10.2539 30.4901 10.3249 30.4241C10.4011 30.3531 10.5051 30.3175 10.6371 30.3175C10.764 30.3175 10.863 30.3531 10.9341 30.4241C11.0051 30.4901 11.0407 30.5866 11.0407 30.7135C11.0407 30.8455 11.0051 30.947 10.9341 31.018C10.8681 31.0891 10.7691 31.1246 10.6371 31.1246ZM9.9366 34.9395C9.92137 34.9395 9.91375 34.9242 9.91375 34.8938C9.91375 34.8633 9.92137 34.8481 9.9366 34.8481C10.1092 34.8481 10.2234 34.8125 10.2792 34.7415C10.3351 34.6704 10.363 34.5308 10.363 34.3227V32.9369C10.363 32.7643 10.3452 32.6399 10.3097 32.5638C10.2742 32.4825 10.2133 32.4419 10.127 32.4419C10.0508 32.4419 9.95182 32.4724 9.82999 32.5333H9.82238C9.80207 32.5333 9.78685 32.5206 9.77669 32.4952C9.76654 32.4699 9.76908 32.4521 9.78431 32.4419L10.8808 31.9318L10.9036 31.9242C10.9239 31.9242 10.9442 31.9368 10.9645 31.9622C10.9899 31.9825 11.0026 32.0003 11.0026 32.0155V32.1754C10.9925 32.3886 10.9874 32.6399 10.9874 32.9293V34.3227C10.9874 34.5308 11.0153 34.6704 11.0711 34.7415C11.1321 34.8125 11.2488 34.8481 11.4214 34.8481C11.4366 34.8481 11.4442 34.8633 11.4442 34.8938C11.4442 34.9242 11.4366 34.9395 11.4214 34.9395C11.2945 34.9395 11.193 34.9369 11.1168 34.9318L10.6752 34.9242L10.2336 34.9318C10.1625 34.9369 10.0635 34.9395 9.9366 34.9395ZM15.0201 32.0003C15.0303 32.0003 15.0354 32.0155 15.0354 32.046C15.0354 32.0764 15.0303 32.0917 15.0201 32.0917C14.878 32.0917 14.7536 32.1424 14.647 32.244C14.5455 32.3455 14.4465 32.5079 14.3501 32.7313L13.4059 34.9395C13.3957 34.9648 13.3704 34.9775 13.3298 34.9775C13.2841 34.9775 13.2536 34.9648 13.2384 34.9395L12.1115 32.6323C12.0049 32.4089 11.9135 32.2643 11.8373 32.1983C11.7612 32.1272 11.6673 32.0917 11.5556 32.0917C11.5404 32.0917 11.5328 32.0764 11.5328 32.046C11.5328 32.0155 11.5404 32.0003 11.5556 32.0003C11.647 32.0003 11.7206 32.0028 11.7764 32.0079L12.2181 32.0155L12.7815 32.0079C12.8627 32.0028 12.9744 32.0003 13.1166 32.0003C13.1318 32.0003 13.1394 32.0155 13.1394 32.046C13.1394 32.0764 13.1318 32.0917 13.1166 32.0917C12.8171 32.0917 12.6673 32.1501 12.6673 32.2668C12.6673 32.2973 12.68 32.3379 12.7054 32.3886L13.581 34.1171L14.1597 32.7161C14.1953 32.6298 14.213 32.546 14.213 32.4648C14.213 32.3429 14.1673 32.2516 14.076 32.1907C13.9897 32.1247 13.8602 32.0917 13.6876 32.0917C13.6775 32.0917 13.6724 32.0764 13.6724 32.046C13.6724 32.0155 13.6775 32.0003 13.6876 32.0003C13.8247 32.0003 13.9288 32.0028 13.9998 32.0079L14.4567 32.0155L14.7536 32.0079C14.8095 32.0028 14.8983 32.0003 15.0201 32.0003ZM17.8487 34.4597C17.8589 34.4597 17.869 34.4699 17.8792 34.4902C17.8944 34.5105 17.8969 34.5257 17.8868 34.5359C17.699 34.7085 17.5111 34.8354 17.3233 34.9166C17.1355 34.9928 16.9324 35.0308 16.7142 35.0308C16.4045 35.0308 16.1355 34.9623 15.907 34.8252C15.6837 34.6882 15.5111 34.508 15.3893 34.2846C15.2725 34.0613 15.2141 33.8201 15.2141 33.5613C15.2141 33.2618 15.2877 32.9876 15.435 32.7389C15.5822 32.4902 15.7827 32.2947 16.0365 32.1526C16.2954 32.0054 16.5822 31.9318 16.8969 31.9318C17.2015 31.9318 17.4375 32.0054 17.605 32.1526C17.7726 32.2998 17.8563 32.5181 17.8563 32.8074C17.8563 32.9546 17.8259 33.0282 17.765 33.0282L15.907 33.0359C15.902 33.0815 15.8994 33.1501 15.8994 33.2414C15.8994 33.6882 16.001 34.0435 16.204 34.3075C16.4121 34.5663 16.7066 34.6958 17.0873 34.6958C17.2294 34.6958 17.3487 34.6806 17.4451 34.6501C17.5416 34.6146 17.671 34.5537 17.8335 34.4674L17.8487 34.4597ZM16.6228 32.0841C16.435 32.0841 16.2801 32.1577 16.1583 32.3049C16.0416 32.447 15.9629 32.645 15.9223 32.8988L17.1406 32.876C17.1304 32.348 16.9578 32.0841 16.6228 32.0841ZM20.3389 31.9242C20.4557 31.9242 20.5673 31.9622 20.6739 32.0384C20.7805 32.1145 20.8338 32.2059 20.8338 32.3125C20.8338 32.4089 20.8034 32.4876 20.7425 32.5485C20.6866 32.6095 20.6079 32.6399 20.5064 32.6399C20.4404 32.6399 20.3846 32.6272 20.3389 32.6018C20.2983 32.5714 20.2551 32.5308 20.2095 32.48C20.1638 32.4343 20.1232 32.4013 20.0876 32.381C20.0521 32.3556 20.009 32.3429 19.9582 32.3429C19.9023 32.3429 19.8414 32.3658 19.7754 32.4115C19.7145 32.4521 19.6181 32.5409 19.4861 32.678V34.3227C19.4861 34.4648 19.5064 34.574 19.547 34.6501C19.5876 34.7212 19.6562 34.7719 19.7526 34.8024C19.849 34.8329 19.9912 34.8481 20.179 34.8481C20.1993 34.8481 20.2095 34.8633 20.2095 34.8938C20.2095 34.9242 20.1993 34.9395 20.179 34.9395C20.0115 34.9395 19.877 34.9369 19.7754 34.9318L19.1739 34.9242L18.7323 34.9318C18.6612 34.9369 18.5622 34.9395 18.4353 34.9395C18.4201 34.9395 18.4125 34.9242 18.4125 34.8938C18.4125 34.8633 18.4201 34.8481 18.4353 34.8481C18.6079 34.8481 18.7221 34.8125 18.778 34.7415C18.8338 34.6704 18.8617 34.5308 18.8617 34.3227V32.8683C18.8617 32.7059 18.8414 32.5866 18.8008 32.5105C18.7653 32.4343 18.7044 32.3963 18.6181 32.3963C18.5419 32.3963 18.415 32.4343 18.2373 32.5105H18.2297C18.2094 32.5105 18.1942 32.4978 18.184 32.4724C18.1739 32.447 18.1764 32.4318 18.1917 32.4267L19.1891 31.9394C19.2196 31.9292 19.2374 31.9242 19.2424 31.9242C19.2932 31.9242 19.344 31.98 19.3947 32.0917C19.4455 32.1983 19.4759 32.3404 19.4861 32.5181C19.6841 32.2947 19.849 32.1399 19.981 32.0536C20.113 31.9673 20.2323 31.9242 20.3389 31.9242ZM21.8239 32.3963C21.8239 32.5536 21.8772 32.6856 21.9838 32.7922C22.0955 32.8988 22.2554 33.0105 22.4635 33.1272C22.6462 33.2288 22.7858 33.3125 22.8823 33.3785C22.9838 33.4445 23.0701 33.5333 23.1412 33.645C23.2173 33.7567 23.2554 33.8912 23.2554 34.0486C23.2554 34.2212 23.2122 34.3811 23.126 34.5283C23.0397 34.6755 22.9102 34.7948 22.7376 34.8862C22.5701 34.9775 22.3696 35.0232 22.1361 35.0232C21.8569 35.0232 21.6005 34.9521 21.367 34.81C21.3366 34.7796 21.3213 34.7491 21.3213 34.7186L21.3061 34.0181C21.3061 34.0029 21.3188 33.9953 21.3442 33.9953C21.3746 33.9902 21.3924 33.9927 21.3975 34.0029C21.4838 34.2567 21.6132 34.4648 21.7858 34.6273C21.9635 34.7897 22.1513 34.8709 22.3493 34.8709C22.4762 34.8709 22.5752 34.8379 22.6462 34.7719C22.7173 34.7059 22.7528 34.607 22.7528 34.475C22.7528 34.2821 22.697 34.1298 22.5853 34.0181C22.4737 33.9014 22.3112 33.7871 22.098 33.6755C21.9254 33.5841 21.7909 33.5079 21.6944 33.447C21.598 33.381 21.5142 33.2947 21.4432 33.1881C21.3772 33.0765 21.3442 32.9394 21.3442 32.777C21.3442 32.4876 21.4482 32.2719 21.6564 32.1297C21.8696 31.9876 22.1259 31.9165 22.4254 31.9165C22.6234 31.9165 22.8265 31.9546 23.0346 32.0308C23.0803 32.0511 23.1031 32.079 23.1031 32.1145C23.1031 32.2313 23.1006 32.3226 23.0955 32.3886L23.0879 32.7541C23.0879 32.7694 23.0726 32.777 23.0422 32.777C23.0117 32.777 22.9965 32.7694 22.9965 32.7541C22.9965 32.6526 22.9559 32.5485 22.8747 32.4419C22.7935 32.3303 22.6894 32.2389 22.5625 32.1678C22.4356 32.0968 22.3061 32.0612 22.1742 32.0612C21.9406 32.0612 21.8239 32.1729 21.8239 32.3963ZM26.7193 34.5283C26.7396 34.5283 26.7523 34.541 26.7574 34.5663C26.7624 34.5867 26.7548 34.6019 26.7345 34.612L25.9502 34.9851C25.9299 34.9953 25.9071 35.0004 25.8817 35.0004C25.8056 35.0004 25.732 34.9572 25.6609 34.8709C25.5949 34.7796 25.5517 34.6603 25.5314 34.513L25.1812 34.7567C25.0593 34.843 24.9477 34.9039 24.8461 34.9395C24.7497 34.975 24.6406 34.9928 24.5187 34.9928C24.3106 34.9928 24.1507 34.9445 24.039 34.8481C23.9324 34.7466 23.8791 34.6146 23.8791 34.4521C23.8791 34.3151 23.9147 34.2034 23.9857 34.1171C24.0619 34.0308 24.1558 33.9623 24.2675 33.9115C24.3842 33.8557 24.5543 33.7871 24.7776 33.7059L25.5162 33.4318V32.9749C25.5162 32.6602 25.4832 32.4318 25.4172 32.2896C25.3563 32.1424 25.2573 32.0688 25.1203 32.0688C24.9527 32.0688 24.8309 32.1323 24.7548 32.2592C24.6837 32.381 24.6406 32.5181 24.6253 32.6704C24.5949 32.9293 24.4654 33.0587 24.237 33.0587C24.1253 33.0587 24.0416 33.0333 23.9857 32.9826C23.935 32.9318 23.9096 32.8683 23.9096 32.7922C23.9096 32.6501 23.9933 32.513 24.1609 32.381C24.3334 32.244 24.539 32.1348 24.7776 32.0536C25.0213 31.9673 25.2345 31.9242 25.4172 31.9242C25.6355 31.9242 25.8081 31.9927 25.935 32.1297C26.067 32.2668 26.133 32.4724 26.133 32.7465V34.1171C26.133 34.2745 26.1584 34.3938 26.2091 34.475C26.2599 34.5562 26.3335 34.5968 26.4299 34.5968C26.5061 34.5968 26.5975 34.574 26.7041 34.5283H26.7193ZM25.5162 34.3912V34.3151V33.5613L25.0593 33.7516C24.9274 33.8024 24.8182 33.8633 24.7319 33.9344C24.6507 34.0003 24.6101 34.0968 24.6101 34.2237C24.6101 34.3455 24.6482 34.4445 24.7243 34.5207C24.8055 34.5917 24.902 34.6273 25.0137 34.6273C25.105 34.6273 25.2015 34.5968 25.303 34.5359L25.5162 34.3912ZM27.0156 34.9395C27.0004 34.9395 26.9928 34.9242 26.9928 34.8938C26.9928 34.8633 27.0004 34.8481 27.0156 34.8481C27.1832 34.8481 27.2974 34.8125 27.3583 34.7415C27.4192 34.6653 27.4497 34.5257 27.4497 34.3227V30.4317C27.4497 30.2541 27.4319 30.1272 27.3964 30.051C27.3659 29.9698 27.3075 29.9292 27.2212 29.9292C27.1451 29.9292 27.0436 29.9596 26.9167 30.0206H26.909C26.8887 30.0206 26.8735 30.0079 26.8634 29.9825C26.8532 29.9571 26.8532 29.9393 26.8634 29.9292L27.937 29.4266L27.9674 29.419C27.9878 29.419 28.0106 29.4292 28.036 29.4495C28.0664 29.4698 28.0817 29.4876 28.0817 29.5028V34.3227C28.0817 34.5308 28.1096 34.6704 28.1654 34.7415C28.2213 34.8125 28.3355 34.8481 28.5081 34.8481C28.5233 34.8481 28.5309 34.8633 28.5309 34.8938C28.5309 34.9242 28.5233 34.9395 28.5081 34.9395C28.3862 34.9395 28.2873 34.9369 28.2111 34.9318L27.7619 34.9242L27.3202 34.9318C27.2441 34.9369 27.1426 34.9395 27.0156 34.9395ZM32.1936 34.3227C32.1936 34.4801 32.2063 34.5943 32.2317 34.6653C32.2571 34.7364 32.3078 34.7846 32.384 34.81C32.4652 34.8354 32.5921 34.8481 32.7647 34.8481C32.7799 34.8481 32.7875 34.8633 32.7875 34.8938C32.7875 34.9242 32.7799 34.9395 32.7647 34.9395C32.6022 34.9395 32.4728 34.9369 32.3764 34.9318L31.8129 34.9242L31.2647 34.9318C31.1682 34.9369 31.0362 34.9395 30.8687 34.9395C30.8535 34.9395 30.8459 34.9242 30.8459 34.8938C30.8459 34.8633 30.8535 34.8481 30.8687 34.8481C31.0413 34.8481 31.1657 34.8354 31.2418 34.81C31.323 34.7846 31.3789 34.7364 31.4093 34.6653C31.4398 34.5892 31.455 34.475 31.455 34.3227V30.7972C31.455 30.6449 31.4398 30.5333 31.4093 30.4622C31.3789 30.3911 31.323 30.3429 31.2418 30.3175C31.1657 30.2871 31.0413 30.2718 30.8687 30.2718C30.8535 30.2718 30.8459 30.2566 30.8459 30.2262C30.8459 30.1957 30.8535 30.1805 30.8687 30.1805L31.2647 30.1881C31.488 30.1982 31.6708 30.2033 31.8129 30.2033C31.9703 30.2033 32.1606 30.1982 32.384 30.1881L32.7647 30.1805C32.7799 30.1805 32.7875 30.1957 32.7875 30.2262C32.7875 30.2566 32.7799 30.2718 32.7647 30.2718C32.5972 30.2718 32.4728 30.2871 32.3916 30.3175C32.3154 30.348 32.2621 30.4013 32.2317 30.4774C32.2063 30.5485 32.1936 30.6602 32.1936 30.8125V34.3227ZM38.8476 34.8481C38.8679 34.8481 38.878 34.8633 38.878 34.8938C38.878 34.9242 38.8679 34.9395 38.8476 34.9395C38.7207 34.9395 38.6191 34.9369 38.543 34.9318L38.109 34.9242L37.6749 34.9318C37.5988 34.9369 37.4973 34.9395 37.3704 34.9395C37.3551 34.9395 37.3475 34.9242 37.3475 34.8938C37.3475 34.8633 37.3551 34.8481 37.3704 34.8481C37.5379 34.8481 37.6521 34.8125 37.713 34.7415C37.7739 34.6653 37.8044 34.5257 37.8044 34.3227V33.1881C37.8044 32.9039 37.7536 32.6932 37.6521 32.5562C37.5557 32.4191 37.4059 32.3506 37.2029 32.3506C37.0658 32.3506 36.9287 32.3836 36.7917 32.4496C36.6546 32.5155 36.5353 32.6044 36.4338 32.7161V32.7922V34.3227C36.4338 34.5308 36.4617 34.6704 36.5176 34.7415C36.5785 34.8125 36.6952 34.8481 36.8678 34.8481C36.8831 34.8481 36.8907 34.8633 36.8907 34.8938C36.8907 34.9242 36.8831 34.9395 36.8678 34.9395C36.7409 34.9395 36.6394 34.9369 36.5632 34.9318L36.1216 34.9242L35.6876 34.9318C35.6115 34.9369 35.5099 34.9395 35.383 34.9395C35.3678 34.9395 35.3602 34.9242 35.3602 34.8938C35.3602 34.8633 35.3678 34.8481 35.383 34.8481C35.5556 34.8481 35.6698 34.8125 35.7257 34.7415C35.7866 34.6704 35.817 34.5308 35.817 34.3227V33.1881C35.817 32.9039 35.7663 32.6932 35.6648 32.5562C35.5683 32.4191 35.4186 32.3506 35.2155 32.3506C35.0886 32.3506 34.9592 32.381 34.8272 32.4419C34.6952 32.5029 34.5784 32.5841 34.4769 32.6856V34.3227C34.4769 34.5308 34.5048 34.6704 34.5607 34.7415C34.6165 34.8125 34.7307 34.8481 34.9033 34.8481C34.9185 34.8481 34.9262 34.8633 34.9262 34.8938C34.9262 34.9242 34.9185 34.9395 34.9033 34.9395C34.7764 34.9395 34.6774 34.9369 34.6064 34.9318L34.1647 34.9242L33.7231 34.9318C33.652 34.9369 33.553 34.9395 33.4261 34.9395C33.4109 34.9395 33.4033 34.9242 33.4033 34.8938C33.4033 34.8633 33.4109 34.8481 33.4261 34.8481C33.5987 34.8481 33.7129 34.8125 33.7688 34.7415C33.8246 34.6704 33.8525 34.5308 33.8525 34.3227V32.8683C33.8525 32.7059 33.8322 32.5866 33.7916 32.5105C33.7561 32.4343 33.6952 32.3963 33.6089 32.3963C33.5327 32.3963 33.4058 32.4343 33.2281 32.5105H33.2205C33.2002 32.5105 33.185 32.4978 33.1748 32.4724C33.1647 32.447 33.1672 32.4318 33.1825 32.4267L34.1799 31.9394C34.2104 31.9292 34.2282 31.9242 34.2332 31.9242C34.284 31.9242 34.3348 31.9825 34.3855 32.0993C34.4414 32.211 34.4718 32.3582 34.4769 32.5409C34.817 32.1247 35.1876 31.9165 35.5886 31.9165C35.8221 31.9165 36.0099 31.9749 36.1521 32.0917C36.2942 32.2034 36.383 32.3683 36.4186 32.5866C36.779 32.1399 37.1648 31.9165 37.576 31.9165C37.845 31.9165 38.0506 31.9952 38.1927 32.1526C38.3399 32.3049 38.4135 32.5384 38.4135 32.8531V34.3227C38.4135 34.5308 38.4415 34.6704 38.4973 34.7415C38.5582 34.8125 38.675 34.8481 38.8476 34.8481ZM44.7294 34.8481C44.7497 34.8481 44.7598 34.8633 44.7598 34.8938C44.7598 34.9242 44.7497 34.9395 44.7294 34.9395C44.6025 34.9395 44.5009 34.9369 44.4248 34.9318L43.9908 34.9242L43.5568 34.9318C43.4806 34.9369 43.3791 34.9395 43.2522 34.9395C43.237 34.9395 43.2293 34.9242 43.2293 34.8938C43.2293 34.8633 43.237 34.8481 43.2522 34.8481C43.4197 34.8481 43.5339 34.8125 43.5948 34.7415C43.6557 34.6653 43.6862 34.5257 43.6862 34.3227V33.1881C43.6862 32.9039 43.6354 32.6932 43.5339 32.5562C43.4375 32.4191 43.2877 32.3506 43.0847 32.3506C42.9476 32.3506 42.8105 32.3836 42.6735 32.4496C42.5364 32.5155 42.4171 32.6044 42.3156 32.7161V32.7922V34.3227C42.3156 34.5308 42.3435 34.6704 42.3994 34.7415C42.4603 34.8125 42.577 34.8481 42.7496 34.8481C42.7649 34.8481 42.7725 34.8633 42.7725 34.8938C42.7725 34.9242 42.7649 34.9395 42.7496 34.9395C42.6227 34.9395 42.5212 34.9369 42.4451 34.9318L42.0034 34.9242L41.5694 34.9318C41.4933 34.9369 41.3917 34.9395 41.2648 34.9395C41.2496 34.9395 41.242 34.9242 41.242 34.8938C41.242 34.8633 41.2496 34.8481 41.2648 34.8481C41.4374 34.8481 41.5516 34.8125 41.6075 34.7415C41.6684 34.6704 41.6988 34.5308 41.6988 34.3227V33.1881C41.6988 32.9039 41.6481 32.6932 41.5466 32.5562C41.4501 32.4191 41.3004 32.3506 41.0973 32.3506C40.9704 32.3506 40.841 32.381 40.709 32.4419C40.577 32.5029 40.4602 32.5841 40.3587 32.6856V34.3227C40.3587 34.5308 40.3866 34.6704 40.4425 34.7415C40.4983 34.8125 40.6125 34.8481 40.7851 34.8481C40.8004 34.8481 40.808 34.8633 40.808 34.8938C40.808 34.9242 40.8004 34.9395 40.7851 34.9395C40.6582 34.9395 40.5592 34.9369 40.4882 34.9318L40.0465 34.9242L39.6049 34.9318C39.5338 34.9369 39.4348 34.9395 39.3079 34.9395C39.2927 34.9395 39.2851 34.9242 39.2851 34.8938C39.2851 34.8633 39.2927 34.8481 39.3079 34.8481C39.4805 34.8481 39.5947 34.8125 39.6506 34.7415C39.7064 34.6704 39.7343 34.5308 39.7343 34.3227V32.8683C39.7343 32.7059 39.714 32.5866 39.6734 32.5105C39.6379 32.4343 39.577 32.3963 39.4907 32.3963C39.4145 32.3963 39.2876 32.4343 39.11 32.5105H39.1023C39.082 32.5105 39.0668 32.4978 39.0567 32.4724C39.0465 32.447 39.049 32.4318 39.0643 32.4267L40.0618 31.9394C40.0922 31.9292 40.11 31.9242 40.1151 31.9242C40.1658 31.9242 40.2166 31.9825 40.2673 32.0993C40.3232 32.211 40.3536 32.3582 40.3587 32.5409C40.6988 32.1247 41.0694 31.9165 41.4704 31.9165C41.7039 31.9165 41.8917 31.9749 42.0339 32.0917C42.176 32.2034 42.2648 32.3683 42.3004 32.5866C42.6608 32.1399 43.0466 31.9165 43.4578 31.9165C43.7268 31.9165 43.9324 31.9952 44.0745 32.1526C44.2217 32.3049 44.2954 32.5384 44.2954 32.8531V34.3227C44.2954 34.5308 44.3233 34.6704 44.3791 34.7415C44.44 34.8125 44.5568 34.8481 44.7294 34.8481ZM45.9131 31.1246C45.7811 31.1246 45.6771 31.0891 45.6009 31.018C45.5299 30.947 45.4943 30.8455 45.4943 30.7135C45.4943 30.5866 45.5299 30.4901 45.6009 30.4241C45.6771 30.3531 45.7811 30.3175 45.9131 30.3175C46.04 30.3175 46.139 30.3531 46.2101 30.4241C46.2811 30.4901 46.3167 30.5866 46.3167 30.7135C46.3167 30.8455 46.2811 30.947 46.2101 31.018C46.1441 31.0891 46.0451 31.1246 45.9131 31.1246ZM45.2126 34.9395C45.1974 34.9395 45.1897 34.9242 45.1897 34.8938C45.1897 34.8633 45.1974 34.8481 45.2126 34.8481C45.3852 34.8481 45.4994 34.8125 45.5552 34.7415C45.6111 34.6704 45.639 34.5308 45.639 34.3227V32.9369C45.639 32.7643 45.6212 32.6399 45.5857 32.5638C45.5502 32.4825 45.4892 32.4419 45.4029 32.4419C45.3268 32.4419 45.2278 32.4724 45.106 32.5333H45.0984C45.0781 32.5333 45.0628 32.5206 45.0527 32.4952C45.0425 32.4699 45.0451 32.4521 45.0603 32.4419L46.1568 31.9318L46.1796 31.9242C46.1999 31.9242 46.2202 31.9368 46.2405 31.9622C46.2659 31.9825 46.2786 32.0003 46.2786 32.0155V32.1754C46.2684 32.3886 46.2634 32.6399 46.2634 32.9293V34.3227C46.2634 34.5308 46.2913 34.6704 46.3471 34.7415C46.408 34.8125 46.5248 34.8481 46.6974 34.8481C46.7126 34.8481 46.7202 34.8633 46.7202 34.8938C46.7202 34.9242 46.7126 34.9395 46.6974 34.9395C46.5705 34.9395 46.469 34.9369 46.3928 34.9318L45.9512 34.9242L45.5095 34.9318C45.4385 34.9369 45.3395 34.9395 45.2126 34.9395ZM48.8113 34.6729C49.1007 34.678 49.3367 34.6933 49.5195 34.7186C49.7022 34.744 49.8596 34.8151 49.9916 34.9318C50.1286 35.0486 50.1972 35.2313 50.1972 35.4801C50.1972 35.7593 50.1083 36.0207 49.9306 36.2644C49.753 36.5131 49.5169 36.7111 49.2225 36.8583C48.9281 37.0055 48.6134 37.0791 48.2783 37.0791C47.9281 37.0791 47.6438 37.0004 47.4255 36.843C47.2123 36.6857 47.1057 36.4801 47.1057 36.2263C47.1057 35.8659 47.3646 35.5131 47.8824 35.1679C47.5067 35.0968 47.3189 34.9166 47.3189 34.6273C47.3189 34.4699 47.3621 34.3252 47.4484 34.1932C47.5397 34.0613 47.6768 33.9318 47.8595 33.8049C47.6717 33.7186 47.5245 33.5942 47.4179 33.4318C47.3164 33.2694 47.2656 33.0968 47.2656 32.914C47.2656 32.7161 47.3265 32.5435 47.4484 32.3963C47.5702 32.249 47.7276 32.1374 47.9205 32.0612C48.1184 31.9851 48.3291 31.947 48.5524 31.947C48.8773 31.947 49.1464 32.0282 49.3596 32.1907C49.4966 32.1044 49.6311 32.0409 49.7631 32.0003C49.8951 31.9546 50.0372 31.9318 50.1895 31.9318C50.2251 31.9318 50.2428 31.9978 50.2428 32.1297C50.2428 32.2008 50.2327 32.2744 50.2124 32.3506C50.1972 32.4267 50.1794 32.4572 50.1591 32.4419C49.9459 32.3607 49.7631 32.3201 49.6108 32.3201C49.5652 32.3201 49.5322 32.3226 49.5119 32.3277C49.6591 32.4902 49.7327 32.6831 49.7327 32.9064C49.7327 33.0993 49.6718 33.2744 49.5499 33.4318C49.4281 33.5892 49.2682 33.711 49.0702 33.7973C48.8722 33.8836 48.6616 33.9267 48.4382 33.9267C48.2707 33.9267 48.1184 33.9039 47.9814 33.8582C47.8697 33.9648 47.8138 34.0917 47.8138 34.2389C47.8138 34.4217 47.8875 34.5384 48.0347 34.5892C48.187 34.64 48.4458 34.6679 48.8113 34.6729ZM48.324 32.0841C48.0499 32.0841 47.9128 32.2896 47.9128 32.7008C47.9128 32.914 47.9458 33.1044 48.0118 33.2719C48.0829 33.4394 48.1717 33.5689 48.2783 33.6602C48.39 33.7516 48.5042 33.7973 48.621 33.7973C48.753 33.7973 48.8621 33.7415 48.9484 33.6298C49.0347 33.513 49.0778 33.3379 49.0778 33.1044C49.0778 32.8912 49.0398 32.7084 48.9636 32.5562C48.8926 32.3988 48.7986 32.282 48.6819 32.2059C48.5702 32.1247 48.4509 32.0841 48.324 32.0841ZM48.6895 36.843C48.9788 36.843 49.2098 36.7568 49.3824 36.5842C49.5601 36.4166 49.6489 36.1882 49.6489 35.8989C49.6489 35.6857 49.6007 35.5308 49.5042 35.4344C49.4129 35.3379 49.2885 35.277 49.1311 35.2516C48.9788 35.2263 48.7606 35.2136 48.4763 35.2136C48.3342 35.2136 48.1971 35.206 48.0651 35.1907C47.8265 35.3633 47.7072 35.5918 47.7072 35.876C47.7072 36.1806 47.7986 36.4166 47.9814 36.5842C48.1692 36.7568 48.4052 36.843 48.6895 36.843ZM52.5364 31.9242C52.6532 31.9242 52.7649 31.9622 52.8715 32.0384C52.9781 32.1145 53.0314 32.2059 53.0314 32.3125C53.0314 32.4089 53.0009 32.4876 52.94 32.5485C52.8842 32.6095 52.8055 32.6399 52.7039 32.6399C52.638 32.6399 52.5821 32.6272 52.5364 32.6018C52.4958 32.5714 52.4527 32.5308 52.407 32.48C52.3613 32.4343 52.3207 32.4013 52.2852 32.381C52.2496 32.3556 52.2065 32.3429 52.1557 32.3429C52.0999 32.3429 52.039 32.3658 51.973 32.4115C51.9121 32.4521 51.8156 32.5409 51.6836 32.678V34.3227C51.6836 34.4648 51.7039 34.574 51.7445 34.6501C51.7851 34.7212 51.8537 34.7719 51.9501 34.8024C52.0466 34.8329 52.1887 34.8481 52.3765 34.8481C52.3968 34.8481 52.407 34.8633 52.407 34.8938C52.407 34.9242 52.3968 34.9395 52.3765 34.9395C52.209 34.9395 52.0745 34.9369 51.973 34.9318L51.3714 34.9242L50.9298 34.9318C50.8587 34.9369 50.7597 34.9395 50.6328 34.9395C50.6176 34.9395 50.61 34.9242 50.61 34.8938C50.61 34.8633 50.6176 34.8481 50.6328 34.8481C50.8054 34.8481 50.9196 34.8125 50.9755 34.7415C51.0313 34.6704 51.0592 34.5308 51.0592 34.3227V32.8683C51.0592 32.7059 51.0389 32.5866 50.9983 32.5105C50.9628 32.4343 50.9019 32.3963 50.8156 32.3963C50.7394 32.3963 50.6125 32.4343 50.4349 32.5105H50.4272C50.4069 32.5105 50.3917 32.4978 50.3816 32.4724C50.3714 32.447 50.3739 32.4318 50.3892 32.4267L51.3867 31.9394C51.4171 31.9292 51.4349 31.9242 51.44 31.9242C51.4907 31.9242 51.5415 31.98 51.5922 32.0917C51.643 32.1983 51.6735 32.3404 51.6836 32.5181C51.8816 32.2947 52.0466 32.1399 52.1786 32.0536C52.3105 31.9673 52.4298 31.9242 52.5364 31.9242ZM56.2547 34.5283C56.2751 34.5283 56.2877 34.541 56.2928 34.5663C56.2979 34.5867 56.2903 34.6019 56.27 34.612L55.4857 34.9851C55.4654 34.9953 55.4425 35.0004 55.4172 35.0004C55.341 35.0004 55.2674 34.9572 55.1963 34.8709C55.1304 34.7796 55.0872 34.6603 55.0669 34.513L54.7166 34.7567C54.5948 34.843 54.4831 34.9039 54.3816 34.9395C54.2852 34.975 54.176 34.9928 54.0542 34.9928C53.8461 34.9928 53.6862 34.9445 53.5745 34.8481C53.4679 34.7466 53.4146 34.6146 53.4146 34.4521C53.4146 34.3151 53.4501 34.2034 53.5212 34.1171C53.5973 34.0308 53.6912 33.9623 53.8029 33.9115C53.9197 33.8557 54.0897 33.7871 54.3131 33.7059L55.0517 33.4318V32.9749C55.0517 32.6602 55.0187 32.4318 54.9527 32.2896C54.8918 32.1424 54.7928 32.0688 54.6557 32.0688C54.4882 32.0688 54.3664 32.1323 54.2902 32.2592C54.2192 32.381 54.176 32.5181 54.1608 32.6704C54.1303 32.9293 54.0009 33.0587 53.7725 33.0587C53.6608 33.0587 53.577 33.0333 53.5212 32.9826C53.4704 32.9318 53.445 32.8683 53.445 32.7922C53.445 32.6501 53.5288 32.513 53.6963 32.381C53.8689 32.244 54.0745 32.1348 54.3131 32.0536C54.5567 31.9673 54.7699 31.9242 54.9527 31.9242C55.171 31.9242 55.3436 31.9927 55.4705 32.1297C55.6024 32.2668 55.6684 32.4724 55.6684 32.7465V34.1171C55.6684 34.2745 55.6938 34.3938 55.7446 34.475C55.7953 34.5562 55.869 34.5968 55.9654 34.5968C56.0415 34.5968 56.1329 34.574 56.2395 34.5283H56.2547ZM55.0517 34.3912V34.3151V33.5613L54.5948 33.7516C54.4628 33.8024 54.3537 33.8633 54.2674 33.9344C54.1862 34.0003 54.1456 34.0968 54.1456 34.2237C54.1456 34.3455 54.1836 34.4445 54.2598 34.5207C54.341 34.5917 54.4374 34.6273 54.5491 34.6273C54.6405 34.6273 54.7369 34.5968 54.8385 34.5359L55.0517 34.3912ZM58.706 34.4521C58.7212 34.4521 58.7339 34.4623 58.7441 34.4826C58.7593 34.5029 58.7593 34.5181 58.7441 34.5283C58.5562 34.7059 58.3786 34.8354 58.211 34.9166C58.0435 34.9928 57.8659 35.0308 57.678 35.0308C57.4598 35.0308 57.2745 34.9801 57.1222 34.8785C56.975 34.7719 56.9014 34.5968 56.9014 34.3531V32.6323C56.9014 32.4648 56.8735 32.3531 56.8176 32.2973C56.7669 32.2414 56.6653 32.2135 56.513 32.2135C56.508 32.2135 56.5003 32.2084 56.4902 32.1983C56.4851 32.183 56.4826 32.1678 56.4826 32.1526C56.4826 32.1374 56.4851 32.1247 56.4902 32.1145C56.5003 32.0993 56.508 32.0917 56.513 32.0917C56.9902 32.0714 57.2897 31.8658 57.4115 31.4749C57.4217 31.4546 57.442 31.4445 57.4725 31.4445C57.508 31.4445 57.5258 31.4546 57.5258 31.4749V32.0764C57.7643 32.0714 58.1019 32.046 58.5385 32.0003C58.5486 32.0003 58.5588 32.0206 58.5689 32.0612C58.5842 32.0968 58.5918 32.1374 58.5918 32.183C58.5918 32.2287 58.5816 32.2744 58.5613 32.3201C58.5461 32.3658 58.5283 32.3861 58.508 32.381C58.2237 32.315 57.8963 32.2744 57.5258 32.2592V34.1019C57.5258 34.2998 57.574 34.4471 57.6704 34.5435C57.7719 34.6349 57.9115 34.6806 58.0892 34.6806C58.3024 34.6806 58.5029 34.607 58.6908 34.4597L58.706 34.4521ZM59.8703 31.1246C59.7383 31.1246 59.6343 31.0891 59.5581 31.018C59.4871 30.947 59.4515 30.8455 59.4515 30.7135C59.4515 30.5866 59.4871 30.4901 59.5581 30.4241C59.6343 30.3531 59.7383 30.3175 59.8703 30.3175C59.9972 30.3175 60.0962 30.3531 60.1673 30.4241C60.2384 30.4901 60.2739 30.5866 60.2739 30.7135C60.2739 30.8455 60.2384 30.947 60.1673 31.018C60.1013 31.0891 60.0023 31.1246 59.8703 31.1246ZM59.1698 34.9395C59.1546 34.9395 59.147 34.9242 59.147 34.8938C59.147 34.8633 59.1546 34.8481 59.1698 34.8481C59.3424 34.8481 59.4566 34.8125 59.5124 34.7415C59.5683 34.6704 59.5962 34.5308 59.5962 34.3227V32.9369C59.5962 32.7643 59.5784 32.6399 59.5429 32.5638C59.5074 32.4825 59.4465 32.4419 59.3602 32.4419C59.284 32.4419 59.185 32.4724 59.0632 32.5333H59.0556C59.0353 32.5333 59.0201 32.5206 59.0099 32.4952C58.9997 32.4699 59.0023 32.4521 59.0175 32.4419L60.114 31.9318L60.1368 31.9242C60.1571 31.9242 60.1774 31.9368 60.1977 31.9622C60.2231 31.9825 60.2358 32.0003 60.2358 32.0155V32.1754C60.2257 32.3886 60.2206 32.6399 60.2206 32.9293V34.3227C60.2206 34.5308 60.2485 34.6704 60.3043 34.7415C60.3653 34.8125 60.482 34.8481 60.6546 34.8481C60.6698 34.8481 60.6775 34.8633 60.6775 34.8938C60.6775 34.9242 60.6698 34.9395 60.6546 34.9395C60.5277 34.9395 60.4262 34.9369 60.35 34.9318L59.9084 34.9242L59.4668 34.9318C59.3957 34.9369 59.2967 34.9395 59.1698 34.9395ZM62.6467 35.0384C62.3421 35.0384 62.0731 34.9674 61.8396 34.8252C61.6061 34.678 61.4259 34.4826 61.299 34.2389C61.1721 33.9902 61.1086 33.7212 61.1086 33.4318C61.1086 33.1018 61.1898 32.8227 61.3523 32.5942C61.5198 32.3607 61.7305 32.1881 61.9843 32.0764C62.2432 31.9597 62.5071 31.9013 62.7762 31.9013C63.0858 31.9013 63.3549 31.9749 63.5833 32.1221C63.8168 32.2693 63.9945 32.4648 64.1163 32.7084C64.2381 32.947 64.299 33.2034 64.299 33.4775C64.299 33.7821 64.2229 34.0536 64.0706 34.2922C63.9234 34.5308 63.7229 34.7161 63.4691 34.8481C63.2153 34.975 62.9411 35.0384 62.6467 35.0384ZM62.8752 34.8862C63.0985 34.8862 63.2686 34.7872 63.3853 34.5892C63.5071 34.3912 63.5681 34.1019 63.5681 33.7212C63.5681 33.381 63.5198 33.0841 63.4234 32.8303C63.332 32.5765 63.2051 32.3836 63.0427 32.2516C62.8853 32.1196 62.7127 32.0536 62.5249 32.0536C62.2965 32.0536 62.1239 32.1475 62.0071 32.3353C61.8904 32.5232 61.832 32.7998 61.832 33.1653C61.832 33.4953 61.8751 33.7922 61.9614 34.0562C62.0528 34.3151 62.1772 34.5181 62.3345 34.6653C62.497 34.8125 62.6772 34.8862 62.8752 34.8862ZM68.3981 34.8481C68.4133 34.8481 68.4209 34.8633 68.4209 34.8938C68.4209 34.9242 68.4133 34.9395 68.3981 34.9395C68.2712 34.9395 68.1722 34.9369 68.1011 34.9318L67.6595 34.9242L67.2255 34.9318C67.1493 34.9369 67.0478 34.9395 66.9209 34.9395C66.9057 34.9395 66.898 34.9242 66.898 34.8938C66.898 34.8633 66.9057 34.8481 66.9209 34.8481C67.0935 34.8481 67.2077 34.8125 67.2635 34.7415C67.3194 34.6704 67.3473 34.5308 67.3473 34.3227V33.1805C67.3473 32.8963 67.294 32.6881 67.1874 32.5562C67.0859 32.4191 66.9234 32.3506 66.7001 32.3506C66.5681 32.3506 66.4336 32.381 66.2965 32.4419C66.1594 32.5029 66.0351 32.5841 65.9234 32.6856V34.3227C65.9234 34.5308 65.9513 34.6704 66.0072 34.7415C66.063 34.8125 66.1772 34.8481 66.3498 34.8481C66.365 34.8481 66.3726 34.8633 66.3726 34.8938C66.3726 34.9242 66.365 34.9395 66.3498 34.9395C66.2229 34.9395 66.1239 34.9369 66.0528 34.9318L65.6112 34.9242L65.1696 34.9318C65.0985 34.9369 64.9995 34.9395 64.8726 34.9395C64.8574 34.9395 64.8498 34.9242 64.8498 34.8938C64.8498 34.8633 64.8574 34.8481 64.8726 34.8481C65.0452 34.8481 65.1594 34.8125 65.2153 34.7415C65.2711 34.6704 65.299 34.5308 65.299 34.3227V32.8683C65.299 32.7059 65.2787 32.5866 65.2381 32.5105C65.2026 32.4343 65.1417 32.3963 65.0554 32.3963C64.9792 32.3963 64.8523 32.4343 64.6746 32.5105H64.667C64.6467 32.5105 64.6315 32.4978 64.6213 32.4724C64.6112 32.447 64.6137 32.4318 64.629 32.4267L65.6264 31.9394C65.6569 31.9292 65.6747 31.9242 65.6797 31.9242C65.7305 31.9242 65.7813 31.9825 65.832 32.0993C65.8879 32.211 65.9183 32.3582 65.9234 32.5409C66.2787 32.1196 66.6645 31.9089 67.0808 31.9089C67.36 31.9089 67.5783 31.9952 67.7356 32.1678C67.893 32.3353 67.9717 32.5638 67.9717 32.8531V34.3227C67.9717 34.5308 67.9996 34.6704 68.0554 34.7415C68.1113 34.8125 68.2255 34.8481 68.3981 34.8481ZM71.5795 30.9876C71.5795 31.1754 71.6251 31.3429 71.7165 31.4901C71.813 31.6323 71.9297 31.7566 72.0668 31.8632C72.2089 31.9698 72.3993 32.0968 72.6379 32.244C72.8967 32.4064 73.0998 32.546 73.247 32.6628C73.3993 32.7795 73.5262 32.9242 73.6277 33.0968C73.7343 33.2643 73.7876 33.4623 73.7876 33.6907C73.7876 33.9496 73.7191 34.1806 73.582 34.3836C73.4501 34.5867 73.2597 34.7466 73.011 34.8633C72.7673 34.975 72.4881 35.0308 72.1734 35.0308C71.9602 35.0308 71.7394 35.0029 71.5109 34.9471C71.2876 34.8912 71.1175 34.8227 71.0008 34.7415C70.9551 34.711 70.9297 34.6628 70.9246 34.5968L70.8789 33.4394V33.4318C70.8789 33.4115 70.8916 33.4013 70.917 33.4013C70.9424 33.3963 70.9576 33.4039 70.9627 33.4242C71.1302 33.8455 71.3206 34.1907 71.5338 34.4597C71.7521 34.7288 72.0287 34.8633 72.3637 34.8633C72.582 34.8633 72.7648 34.8049 72.912 34.6882C73.0592 34.5663 73.1328 34.3658 73.1328 34.0866C73.1328 33.8633 73.082 33.6679 72.9805 33.5003C72.8841 33.3328 72.7622 33.1932 72.615 33.0815C72.4729 32.9699 72.2774 32.8328 72.0287 32.6704C71.7851 32.513 71.5947 32.381 71.4576 32.2744C71.3206 32.1627 71.2038 32.0282 71.1074 31.8709C71.0109 31.7084 70.9627 31.5206 70.9627 31.3074C70.9627 31.0434 71.0363 30.8201 71.1835 30.6373C71.3307 30.4546 71.5211 30.3201 71.7546 30.2338C71.9932 30.1424 72.2419 30.0967 72.5008 30.0967C72.6734 30.0967 72.846 30.1145 73.0186 30.15C73.1912 30.1805 73.3358 30.2211 73.4526 30.2718C73.5287 30.3023 73.5668 30.3505 73.5668 30.4165L73.5897 31.4521C73.5897 31.4673 73.5744 31.4774 73.544 31.4825C73.5186 31.4876 73.5034 31.4825 73.4983 31.4673C73.3968 31.1576 73.2597 30.8785 73.0871 30.6297C72.9196 30.3759 72.6658 30.249 72.3257 30.249C72.0972 30.249 71.9145 30.315 71.7774 30.447C71.6455 30.579 71.5795 30.7592 71.5795 30.9876ZM77.0758 34.4597C77.0859 34.4597 77.0961 34.4699 77.1062 34.4902C77.1215 34.5105 77.124 34.5257 77.1139 34.5359C76.926 34.7085 76.7382 34.8354 76.5504 34.9166C76.3626 34.9928 76.1595 35.0308 75.9412 35.0308C75.6316 35.0308 75.3626 34.9623 75.1341 34.8252C74.9108 34.6882 74.7382 34.508 74.6163 34.2846C74.4996 34.0613 74.4412 33.8201 74.4412 33.5613C74.4412 33.2618 74.5148 32.9876 74.662 32.7389C74.8092 32.4902 75.0098 32.2947 75.2636 32.1526C75.5225 32.0054 75.8093 31.9318 76.124 31.9318C76.4286 31.9318 76.6646 32.0054 76.8321 32.1526C76.9996 32.2998 77.0834 32.5181 77.0834 32.8074C77.0834 32.9546 77.0529 33.0282 76.992 33.0282L75.1341 33.0359C75.129 33.0815 75.1265 33.1501 75.1265 33.2414C75.1265 33.6882 75.228 34.0435 75.4311 34.3075C75.6392 34.5663 75.9336 34.6958 76.3144 34.6958C76.4565 34.6958 76.5758 34.6806 76.6722 34.6501C76.7687 34.6146 76.8981 34.5537 77.0606 34.4674L77.0758 34.4597ZM75.8499 32.0841C75.6621 32.0841 75.5072 32.1577 75.3854 32.3049C75.2686 32.447 75.19 32.645 75.1494 32.8988L76.3677 32.876C76.3575 32.348 76.1849 32.0841 75.8499 32.0841ZM79.566 31.9242C79.6827 31.9242 79.7944 31.9622 79.901 32.0384C80.0076 32.1145 80.0609 32.2059 80.0609 32.3125C80.0609 32.4089 80.0305 32.4876 79.9696 32.5485C79.9137 32.6095 79.835 32.6399 79.7335 32.6399C79.6675 32.6399 79.6117 32.6272 79.566 32.6018C79.5254 32.5714 79.4822 32.5308 79.4365 32.48C79.3909 32.4343 79.3502 32.4013 79.3147 32.381C79.2792 32.3556 79.236 32.3429 79.1853 32.3429C79.1294 32.3429 79.0685 32.3658 79.0025 32.4115C78.9416 32.4521 78.8452 32.5409 78.7132 32.678V34.3227C78.7132 34.4648 78.7335 34.574 78.7741 34.6501C78.8147 34.7212 78.8832 34.7719 78.9797 34.8024C79.0761 34.8329 79.2183 34.8481 79.4061 34.8481C79.4264 34.8481 79.4365 34.8633 79.4365 34.8938C79.4365 34.9242 79.4264 34.9395 79.4061 34.9395C79.2386 34.9395 79.104 34.9369 79.0025 34.9318L78.401 34.9242L77.9594 34.9318C77.8883 34.9369 77.7893 34.9395 77.6624 34.9395C77.6472 34.9395 77.6396 34.9242 77.6396 34.8938C77.6396 34.8633 77.6472 34.8481 77.6624 34.8481C77.835 34.8481 77.9492 34.8125 78.005 34.7415C78.0609 34.6704 78.0888 34.5308 78.0888 34.3227V32.8683C78.0888 32.7059 78.0685 32.5866 78.0279 32.5105C77.9924 32.4343 77.9314 32.3963 77.8451 32.3963C77.769 32.3963 77.6421 32.4343 77.4644 32.5105H77.4568C77.4365 32.5105 77.4213 32.4978 77.4111 32.4724C77.401 32.447 77.4035 32.4318 77.4187 32.4267L78.4162 31.9394C78.4467 31.9292 78.4644 31.9242 78.4695 31.9242C78.5203 31.9242 78.571 31.98 78.6218 32.0917C78.6726 32.1983 78.703 32.3404 78.7132 32.5181C78.9112 32.2947 79.0761 32.1399 79.2081 32.0536C79.3401 31.9673 79.4594 31.9242 79.566 31.9242ZM83.5942 32.0003C83.6043 32.0003 83.6094 32.0155 83.6094 32.046C83.6094 32.0764 83.6043 32.0917 83.5942 32.0917C83.452 32.0917 83.3277 32.1424 83.2211 32.244C83.1195 32.3455 83.0206 32.5079 82.9241 32.7313L81.9799 34.9395C81.9698 34.9648 81.9444 34.9775 81.9038 34.9775C81.8581 34.9775 81.8276 34.9648 81.8124 34.9395L80.6855 32.6323C80.5789 32.4089 80.4875 32.2643 80.4114 32.1983C80.3352 32.1272 80.2413 32.0917 80.1296 32.0917C80.1144 32.0917 80.1068 32.0764 80.1068 32.046C80.1068 32.0155 80.1144 32.0003 80.1296 32.0003C80.221 32.0003 80.2946 32.0028 80.3505 32.0079L80.7921 32.0155L81.3556 32.0079C81.4368 32.0028 81.5484 32.0003 81.6906 32.0003C81.7058 32.0003 81.7134 32.0155 81.7134 32.046C81.7134 32.0764 81.7058 32.0917 81.6906 32.0917C81.3911 32.0917 81.2413 32.1501 81.2413 32.2668C81.2413 32.2973 81.254 32.3379 81.2794 32.3886L82.1551 34.1171L82.7338 32.7161C82.7693 32.6298 82.7871 32.546 82.7871 32.4648C82.7871 32.3429 82.7414 32.2516 82.65 32.1907C82.5637 32.1247 82.4343 32.0917 82.2617 32.0917C82.2515 32.0917 82.2464 32.0764 82.2464 32.046C82.2464 32.0155 82.2515 32.0003 82.2617 32.0003C82.3987 32.0003 82.5028 32.0028 82.5739 32.0079L83.0307 32.0155L83.3277 32.0079C83.3835 32.0028 83.4723 32.0003 83.5942 32.0003ZM84.5724 31.1246C84.4405 31.1246 84.3364 31.0891 84.2603 31.018C84.1892 30.947 84.1537 30.8455 84.1537 30.7135C84.1537 30.5866 84.1892 30.4901 84.2603 30.4241C84.3364 30.3531 84.4405 30.3175 84.5724 30.3175C84.6994 30.3175 84.7983 30.3531 84.8694 30.4241C84.9405 30.4901 84.976 30.5866 84.976 30.7135C84.976 30.8455 84.9405 30.947 84.8694 31.018C84.8034 31.0891 84.7044 31.1246 84.5724 31.1246ZM83.8719 34.9395C83.8567 34.9395 83.8491 34.9242 83.8491 34.8938C83.8491 34.8633 83.8567 34.8481 83.8719 34.8481C84.0445 34.8481 84.1587 34.8125 84.2146 34.7415C84.2704 34.6704 84.2983 34.5308 84.2983 34.3227V32.9369C84.2983 32.7643 84.2806 32.6399 84.245 32.5638C84.2095 32.4825 84.1486 32.4419 84.0623 32.4419C83.9861 32.4419 83.8871 32.4724 83.7653 32.5333H83.7577C83.7374 32.5333 83.7222 32.5206 83.712 32.4952C83.7019 32.4699 83.7044 32.4521 83.7196 32.4419L84.8161 31.9318L84.8389 31.9242C84.8593 31.9242 84.8796 31.9368 84.8999 31.9622C84.9252 31.9825 84.9379 32.0003 84.9379 32.0155V32.1754C84.9278 32.3886 84.9227 32.6399 84.9227 32.9293V34.3227C84.9227 34.5308 84.9506 34.6704 85.0065 34.7415C85.0674 34.8125 85.1841 34.8481 85.3567 34.8481C85.372 34.8481 85.3796 34.8633 85.3796 34.8938C85.3796 34.9242 85.372 34.9395 85.3567 34.9395C85.2298 34.9395 85.1283 34.9369 85.0521 34.9318L84.6105 34.9242L84.1689 34.9318C84.0978 34.9369 83.9988 34.9395 83.8719 34.9395ZM87.3336 35.0308C87.0036 35.0308 86.7219 34.9598 86.4884 34.8176C86.26 34.6704 86.0899 34.4826 85.9782 34.2542C85.8666 34.0207 85.8107 33.777 85.8107 33.5232C85.8107 33.2034 85.897 32.9242 86.0696 32.6856C86.2422 32.4419 86.463 32.2567 86.7321 32.1297C87.0062 31.9978 87.2828 31.9318 87.562 31.9318C87.8006 31.9318 88.0164 31.98 88.2093 32.0764C88.4022 32.1729 88.4986 32.3023 88.4986 32.4648C88.4986 32.5511 88.4656 32.6272 88.3996 32.6932C88.3336 32.7541 88.2423 32.7846 88.1255 32.7846C87.9326 32.7846 87.793 32.6704 87.7067 32.4419C87.6559 32.315 87.6026 32.2262 87.5468 32.1754C87.491 32.1196 87.4021 32.0917 87.2803 32.0917C87.0417 32.0917 86.8514 32.2008 86.7092 32.4191C86.5722 32.6323 86.5036 32.9191 86.5036 33.2795C86.5036 33.7008 86.6001 34.0435 86.793 34.3075C86.991 34.5663 87.2981 34.6958 87.7143 34.6958C87.8565 34.6958 87.9834 34.678 88.095 34.6425C88.2067 34.607 88.3286 34.5511 88.4605 34.475H88.4681C88.4834 34.475 88.4961 34.4826 88.5062 34.4978C88.5214 34.513 88.524 34.5257 88.5138 34.5359C88.326 34.7034 88.1407 34.8278 87.958 34.909C87.7752 34.9902 87.5671 35.0308 87.3336 35.0308ZM91.5981 34.4597C91.6083 34.4597 91.6184 34.4699 91.6286 34.4902C91.6438 34.5105 91.6464 34.5257 91.6362 34.5359C91.4484 34.7085 91.2606 34.8354 91.0727 34.9166C90.8849 34.9928 90.6819 35.0308 90.4636 35.0308C90.1539 35.0308 89.8849 34.9623 89.6565 34.8252C89.4331 34.6882 89.2605 34.508 89.1387 34.2846C89.0219 34.0613 88.9636 33.8201 88.9636 33.5613C88.9636 33.2618 89.0372 32.9876 89.1844 32.7389C89.3316 32.4902 89.5321 32.2947 89.7859 32.1526C90.0448 32.0054 90.3316 31.9318 90.6463 31.9318C90.9509 31.9318 91.187 32.0054 91.3545 32.1526C91.522 32.2998 91.6058 32.5181 91.6058 32.8074C91.6058 32.9546 91.5753 33.0282 91.5144 33.0282L89.6565 33.0359C89.6514 33.0815 89.6489 33.1501 89.6489 33.2414C89.6489 33.6882 89.7504 34.0435 89.9534 34.3075C90.1616 34.5663 90.456 34.6958 90.8367 34.6958C90.9788 34.6958 91.0981 34.6806 91.1946 34.6501C91.291 34.6146 91.4205 34.5537 91.5829 34.4674L91.5981 34.4597ZM90.3722 32.0841C90.1844 32.0841 90.0296 32.1577 89.9077 32.3049C89.791 32.447 89.7123 32.645 89.6717 32.8988L90.89 32.876C90.8798 32.348 90.7073 32.0841 90.3722 32.0841ZM92.7254 32.3963C92.7254 32.5536 92.7787 32.6856 92.8853 32.7922C92.9969 32.8988 93.1568 33.0105 93.365 33.1272C93.5477 33.2288 93.6873 33.3125 93.7838 33.3785C93.8853 33.4445 93.9716 33.5333 94.0426 33.645C94.1188 33.7567 94.1569 33.8912 94.1569 34.0486C94.1569 34.2212 94.1137 34.3811 94.0274 34.5283C93.9411 34.6755 93.8117 34.7948 93.6391 34.8862C93.4716 34.9775 93.2711 35.0232 93.0376 35.0232C92.7584 35.0232 92.502 34.9521 92.2685 34.81C92.238 34.7796 92.2228 34.7491 92.2228 34.7186L92.2076 34.0181C92.2076 34.0029 92.2203 33.9953 92.2457 33.9953C92.2761 33.9902 92.2939 33.9927 92.299 34.0029C92.3853 34.2567 92.5147 34.4648 92.6873 34.6273C92.865 34.7897 93.0528 34.8709 93.2508 34.8709C93.3777 34.8709 93.4766 34.8379 93.5477 34.7719C93.6188 34.7059 93.6543 34.607 93.6543 34.475C93.6543 34.2821 93.5985 34.1298 93.4868 34.0181C93.3751 33.9014 93.2127 33.7871 92.9995 33.6755C92.8269 33.5841 92.6924 33.5079 92.5959 33.447C92.4995 33.381 92.4157 33.2947 92.3446 33.1881C92.2787 33.0765 92.2457 32.9394 92.2457 32.777C92.2457 32.4876 92.3497 32.2719 92.5578 32.1297C92.771 31.9876 93.0274 31.9165 93.3269 31.9165C93.5249 31.9165 93.7279 31.9546 93.936 32.0308C93.9817 32.0511 94.0046 32.079 94.0046 32.1145C94.0046 32.2313 94.002 32.3226 93.997 32.3886L93.9893 32.7541C93.9893 32.7694 93.9741 32.777 93.9437 32.777C93.9132 32.777 93.898 32.7694 93.898 32.7541C93.898 32.6526 93.8574 32.5485 93.7761 32.4419C93.6949 32.3303 93.5909 32.2389 93.464 32.1678C93.3371 32.0968 93.2076 32.0612 93.0756 32.0612C92.8421 32.0612 92.7254 32.1729 92.7254 32.3963Z" fill="white"/>
</svg>
