<svg width="124" height="48" viewBox="0 0 124 48" fill="none" xmlns="http://www.w3.org/2000/svg">
<path d="M29.6296 7.48392C29.6296 5.59228 29.1931 4.11898 28.32 3.06402C27.4834 2.00907 26.2647 1.48159 24.6641 1.48159C24.5913 1.48159 24.555 1.37246 24.555 1.1542C24.555 0.93593 24.5913 0.826797 24.6641 0.826797L27.1742 0.881363C28.5565 0.954117 29.6478 0.990494 30.4481 0.990494C31.1029 0.990494 32.0851 0.954117 33.3947 0.881363L35.7957 0.826797C35.8684 0.826797 35.9048 0.93593 35.9048 1.1542C35.9048 1.37246 35.8684 1.48159 35.7957 1.48159C34.3769 1.48159 33.2674 2.00907 32.4671 3.06402C31.7032 4.11898 31.3212 5.59228 31.3212 7.48392V22.7626C31.3212 25.3818 30.7574 27.6735 29.6296 29.6379C28.5383 31.566 26.9741 33.0574 24.9369 34.1124C22.9361 35.1674 20.608 35.6948 17.9524 35.6948C15.2968 35.6948 12.9323 35.1855 10.8587 34.167C8.78522 33.112 7.16641 31.6205 6.00232 29.6925C4.87461 27.7281 4.31076 25.4363 4.31076 22.8171V5.24669C4.31076 4.15536 4.20163 3.35505 3.98336 2.84576C3.76509 2.33647 3.36494 1.99088 2.78289 1.80899C2.23723 1.59073 1.36416 1.48159 0.1637 1.48159C0.0545666 1.48159 0 1.37246 0 1.1542C0 0.93593 0.0545666 0.826797 0.1637 0.826797L3.00116 0.881363C4.60178 0.954117 5.89319 0.990494 6.87539 0.990494C7.96672 0.990494 9.31269 0.954117 10.9133 0.881363L13.6416 0.826797C13.7508 0.826797 13.8053 0.93593 13.8053 1.1542C13.8053 1.37246 13.7508 1.48159 13.6416 1.48159C12.4412 1.48159 11.5499 1.59073 10.9679 1.80899C10.3858 2.02726 9.98568 2.40923 9.76742 2.95489C9.58553 3.46418 9.49458 4.26449 9.49458 5.35582V20.9073C9.49458 25.2362 10.3858 28.4739 12.1683 30.6201C13.9872 32.73 16.5155 33.785 19.7531 33.785C22.8452 33.785 25.2643 32.8392 27.0104 30.9475C28.7566 29.0195 29.6296 26.3094 29.6296 22.8171V7.48392Z" fill="white"/>
<path d="M48.6282 30.511C48.6282 31.6387 48.7191 32.4572 48.901 32.9665C49.0829 33.4758 49.4467 33.8214 49.9924 34.0033C50.5744 34.1852 51.4838 34.2761 52.7207 34.2761C52.8298 34.2761 52.8844 34.3852 52.8844 34.6035C52.8844 34.8218 52.8298 34.9309 52.7207 34.9309C51.5566 34.9309 50.629 34.9127 49.9378 34.8763L45.8999 34.8218L41.9711 34.8763C41.2799 34.9127 40.3341 34.9309 39.1336 34.9309C39.0245 34.9309 38.9699 34.8218 38.9699 34.6035C38.9699 34.3852 39.0245 34.2761 39.1336 34.2761C40.3704 34.2761 41.2617 34.1852 41.8074 34.0033C42.3894 33.8214 42.7896 33.4758 43.0078 32.9665C43.2261 32.4208 43.3352 31.6023 43.3352 30.511V5.24669C43.3352 4.15536 43.2261 3.35505 43.0078 2.84576C42.7896 2.33647 42.3894 1.99088 41.8074 1.80899C41.2617 1.59073 40.3704 1.48159 39.1336 1.48159C39.0245 1.48159 38.9699 1.37246 38.9699 1.1542C38.9699 0.93593 39.0245 0.826797 39.1336 0.826797L41.9711 0.881363C43.5717 0.954117 44.8813 0.990494 45.8999 0.990494C47.0276 0.990494 48.3917 0.954117 49.9924 0.881363L52.7207 0.826797C52.8298 0.826797 52.8844 0.93593 52.8844 1.1542C52.8844 1.37246 52.8298 1.48159 52.7207 1.48159C51.5202 1.48159 50.629 1.59073 50.0469 1.80899C49.5013 2.02726 49.1193 2.40923 48.901 2.95489C48.7191 3.46418 48.6282 4.26449 48.6282 5.35582V30.511Z" fill="white"/>
<path d="M64.1724 6.61085C64.1724 7.95683 64.4998 9.15729 65.1546 10.2122C65.8458 11.2308 66.6825 12.1221 67.6647 12.886C68.6833 13.6499 70.0474 14.5594 71.7572 15.6143C73.6124 16.7784 75.0675 17.7788 76.1225 18.6155C77.2138 19.4522 78.1233 20.4889 78.8508 21.7258C79.6148 22.9263 79.9967 24.345 79.9967 25.982C79.9967 27.8372 79.5056 29.4924 78.5234 30.9475C77.5776 32.4026 76.2134 33.5485 74.4309 34.3852C72.6848 35.1855 70.684 35.5857 68.4286 35.5857C66.9007 35.5857 65.3183 35.3856 63.6813 34.9855C62.0807 34.5853 60.862 34.0942 60.0254 33.5122C59.698 33.2939 59.5161 32.9483 59.4797 32.4754L59.1523 24.1813V24.1267C59.1523 23.9812 59.2432 23.9085 59.4251 23.9085C59.607 23.8721 59.7161 23.9266 59.7525 24.0722C60.953 27.0915 62.3171 29.5652 63.845 31.4932C65.4092 33.4212 67.3918 34.3852 69.7928 34.3852C71.357 34.3852 72.6666 33.9669 73.7216 33.1302C74.7765 32.2571 75.304 30.8202 75.304 28.8194C75.304 27.2188 74.9402 25.8183 74.2127 24.6178C73.5215 23.4174 72.6484 22.417 71.5935 21.6167C70.5749 20.8163 69.1743 19.8341 67.3918 18.6701C65.6457 17.5424 64.2815 16.5965 63.2993 15.8326C62.3171 15.0323 61.4805 14.0683 60.7893 12.9406C60.0981 11.7765 59.7525 10.4305 59.7525 8.90265C59.7525 7.011 60.28 5.41039 61.3349 4.10079C62.3899 2.79119 63.7541 1.82718 65.4274 1.20876C67.1372 0.553962 68.9197 0.226562 70.775 0.226562C72.0118 0.226562 73.2486 0.353885 74.4855 0.60853C75.7223 0.826796 76.7591 1.11782 77.5958 1.48159C78.1415 1.69986 78.4143 2.04545 78.4143 2.51836L78.578 9.93941C78.578 10.0485 78.4688 10.1213 78.2506 10.1577C78.0687 10.1941 77.9596 10.1577 77.9232 10.0485C77.1956 7.8295 76.2134 5.82873 74.9766 4.04622C73.7761 2.22734 71.9572 1.31789 69.5199 1.31789C67.8829 1.31789 66.5733 1.7908 65.5911 2.73662C64.6453 3.68245 64.1724 4.97385 64.1724 6.61085Z" fill="white"/>
<path d="M106.028 35.9211C96.1098 35.9053 88.0633 27.843 88.0791 17.9408C88.0949 7.99917 96.1572 -0.0236371 106.099 5.23269e-05C116.025 0.0316382 124.016 8.07024 124 18.0119C123.976 27.914 115.922 35.9369 106.028 35.9211ZM112.124 25.0318C111.982 24.5265 111.879 24.0764 111.721 23.65C111.547 23.1604 111.674 22.805 112.069 22.4734C113.703 21.1073 115.322 19.7175 116.949 18.3356C117.051 18.2488 117.154 18.154 117.288 18.0277C116.917 17.8461 116.601 17.6881 116.277 17.5302C115.804 17.3012 115.764 17.2222 115.898 16.7011C116.08 15.9904 116.277 15.2797 116.459 14.5611C116.57 14.1189 116.68 13.6846 116.806 13.2029C116.656 13.2266 116.57 13.2266 116.483 13.2503C115.669 13.424 114.864 13.5978 114.051 13.7794C113.285 13.9452 113.221 13.9136 113.008 13.1398C112.913 12.7923 112.819 12.4528 112.7 12.0264C111.871 12.9976 111.113 13.8899 110.347 14.7743C110.15 15.0033 109.952 15.3587 109.589 15.1928C109.21 15.0191 109.344 14.6164 109.4 14.3084C109.692 12.6344 110 10.9682 110.3 9.30209C110.347 9.0494 110.379 8.79671 110.426 8.45716C109.865 8.75723 109.384 9.03361 108.894 9.2784C108.428 9.51529 108.168 9.42843 107.931 8.96254C107.362 7.86493 106.802 6.75943 106.233 5.66182C106.17 5.54337 106.099 5.42492 106.004 5.2591C105.364 6.49884 104.764 7.66752 104.164 8.8362C103.84 9.46791 103.635 9.53898 103.011 9.20733C102.561 8.97043 102.119 8.72564 101.629 8.46506C101.629 8.5914 101.622 8.65458 101.629 8.71775C101.866 10.0365 102.103 11.3552 102.34 12.6818C102.451 13.3135 102.593 13.9452 102.664 14.5848C102.688 14.7822 102.522 14.9954 102.443 15.2086C102.245 15.1297 102.048 15.0665 101.858 14.9796C101.795 14.9481 101.756 14.8612 101.701 14.8059C101.006 13.9926 100.319 13.1871 99.6237 12.3738C99.5448 12.2791 99.45 12.1922 99.3237 12.0501C99.1815 12.5633 99.0552 12.9976 98.9368 13.4398C98.842 13.7873 98.6288 13.9136 98.2892 13.8426C98.0681 13.7952 97.8549 13.7478 97.6338 13.7004C96.86 13.5346 96.0782 13.3609 95.2412 13.1792C95.2807 13.3688 95.3044 13.4951 95.336 13.6215C95.6123 14.6796 95.8808 15.7377 96.1651 16.7879C96.2599 17.1433 96.173 17.3644 95.8256 17.5065C95.4702 17.6565 95.1386 17.8461 94.7437 18.0356C94.9569 18.2172 95.107 18.3514 95.2491 18.4778C96.8442 19.836 98.4393 21.1863 100.034 22.5366C100.366 22.8208 100.477 23.1288 100.342 23.5473C100.192 24.0132 100.074 24.4949 99.9238 25.016C100.224 24.9845 100.461 24.9687 100.69 24.9371C102.166 24.7634 103.643 24.5817 105.12 24.408C105.609 24.3527 105.744 24.487 105.72 24.9687C105.649 26.7296 105.578 28.4905 105.515 30.2514C105.507 30.3777 105.515 30.5041 105.515 30.6304C105.838 30.6304 106.107 30.6304 106.423 30.6304C106.423 30.4804 106.423 30.3541 106.423 30.2277C106.383 28.6089 106.352 26.9902 106.312 25.3714C106.288 24.3448 106.32 24.3212 107.331 24.4475C108.926 24.6528 110.473 24.8344 112.124 25.0318Z" fill="#F35C5C"/>
<path d="M112.124 25.0319C110.473 24.8345 108.918 24.6529 107.37 24.4555C106.359 24.3292 106.328 24.3528 106.352 25.3794C106.391 26.9982 106.43 28.6169 106.462 30.2357C106.462 30.3621 106.462 30.4884 106.462 30.6384C106.146 30.6384 105.878 30.6384 105.554 30.6384C105.554 30.5121 105.546 30.3857 105.554 30.2594C105.625 28.4985 105.696 26.7376 105.759 24.9767C105.775 24.4871 105.649 24.3528 105.159 24.416C103.683 24.5818 102.206 24.7714 100.729 24.9451C100.5 24.9767 100.263 24.9925 99.9633 25.024C100.113 24.5029 100.232 24.0212 100.382 23.5553C100.516 23.1368 100.405 22.8209 100.074 22.5446C98.4709 21.1943 96.8837 19.8361 95.2886 18.4858C95.1385 18.3594 94.9885 18.2331 94.7832 18.0436C95.178 17.8462 95.5097 17.6566 95.865 17.5145C96.2125 17.3724 96.2993 17.1513 96.2046 16.7959C95.9203 15.7457 95.6518 14.6876 95.3754 13.6294C95.3439 13.5031 95.3202 13.3847 95.2807 13.1872C96.1177 13.3689 96.8995 13.5347 97.6733 13.7084C97.8944 13.7558 98.1076 13.8032 98.3287 13.8505C98.6683 13.9216 98.8894 13.7953 98.9762 13.4478C99.0947 13.0056 99.221 12.5634 99.3632 12.058C99.4895 12.1923 99.5843 12.287 99.6632 12.3818C100.358 13.1951 101.045 14.0006 101.74 14.8139C101.787 14.8771 101.835 14.9561 101.898 14.9876C102.087 15.0745 102.285 15.1456 102.482 15.2166C102.561 15.0113 102.727 14.7902 102.703 14.5928C102.632 13.9532 102.49 13.3215 102.38 12.6898C102.143 11.3711 101.906 10.0523 101.669 8.72574C101.661 8.66257 101.669 8.5994 101.669 8.47305C102.151 8.73364 102.601 8.97843 103.051 9.21532C103.667 9.53908 103.88 9.46801 104.204 8.84419C104.804 7.67551 105.404 6.50683 106.044 5.26709C106.138 5.43292 106.217 5.55136 106.273 5.66981C106.841 6.76742 107.402 7.87292 107.97 8.97053C108.207 9.43642 108.468 9.52328 108.934 9.28639C109.423 9.0416 109.897 8.76522 110.466 8.46516C110.41 8.80471 110.379 9.05739 110.339 9.31008C110.039 10.9762 109.731 12.6503 109.439 14.3164C109.384 14.6323 109.25 15.0271 109.629 15.2008C109.992 15.3667 110.189 15.0192 110.387 14.7823C111.153 13.8979 111.911 13.0056 112.74 12.0344C112.858 12.4529 112.953 12.8003 113.048 13.1478C113.261 13.9137 113.324 13.9532 114.09 13.7874C114.895 13.6058 115.709 13.432 116.522 13.2583C116.609 13.2425 116.696 13.2346 116.846 13.2109C116.72 13.6926 116.617 14.1348 116.498 14.5691C116.309 15.2798 116.119 15.9905 115.938 16.7091C115.804 17.2302 115.843 17.3092 116.317 17.5382C116.633 17.6961 116.949 17.8541 117.328 18.0357C117.185 18.162 117.091 18.2568 116.988 18.3436C115.361 19.7255 113.743 21.1153 112.108 22.4814C111.705 22.813 111.587 23.1684 111.761 23.658C111.879 24.0765 111.982 24.5266 112.124 25.0319Z" fill="white"/>
<path d="M5.67504 39.9217C5.67504 39.5772 5.59553 39.3088 5.43651 39.1167C5.28411 38.9245 5.06215 38.8284 4.77061 38.8284C4.75736 38.8284 4.75073 38.8086 4.75073 38.7688C4.75073 38.729 4.75736 38.7092 4.77061 38.7092L5.22779 38.7191C5.47957 38.7324 5.67835 38.739 5.82412 38.739C5.94338 38.739 6.12228 38.7324 6.36081 38.7191L6.79812 38.7092C6.81137 38.7092 6.818 38.729 6.818 38.7688C6.818 38.8086 6.81137 38.8284 6.79812 38.8284C6.53971 38.8284 6.33762 38.9245 6.19185 39.1167C6.05271 39.3088 5.98314 39.5772 5.98314 39.9217V42.7046C5.98314 43.1816 5.88044 43.599 5.67504 43.9568C5.47626 44.308 5.19135 44.5797 4.8203 44.7718C4.45588 44.964 4.03183 45.06 3.54814 45.06C3.06445 45.06 2.63377 44.9673 2.2561 44.7818C1.87843 44.5896 1.58358 44.3179 1.37155 43.9668C1.16615 43.609 1.06345 43.1916 1.06345 42.7145V39.5142C1.06345 39.3154 1.04357 39.1697 1.00382 39.0769C0.964061 38.9841 0.891176 38.9212 0.785163 38.8881C0.685775 38.8483 0.526755 38.8284 0.308102 38.8284C0.288224 38.8284 0.278286 38.8086 0.278286 38.7688C0.278286 38.729 0.288224 38.7092 0.308102 38.7092L0.824918 38.7191C1.11646 38.7324 1.35167 38.739 1.53057 38.739C1.72935 38.739 1.9745 38.7324 2.26604 38.7191L2.76298 38.7092C2.78286 38.7092 2.79279 38.729 2.79279 38.7688C2.79279 38.8086 2.78286 38.8284 2.76298 38.8284C2.54433 38.8284 2.38199 38.8483 2.27598 38.8881C2.16996 38.9278 2.09708 38.9974 2.05733 39.0968C2.0242 39.1895 2.00763 39.3353 2.00763 39.5341V42.3666C2.00763 43.1551 2.16996 43.7448 2.49463 44.1357C2.82592 44.52 3.28642 44.7122 3.87612 44.7122C4.43932 44.7122 4.87994 44.5399 5.19798 44.1954C5.51602 43.8442 5.67504 43.3506 5.67504 42.7145V39.9217ZM11.6868 44.8016C11.7066 44.8016 11.7166 44.8215 11.7166 44.8613C11.7166 44.901 11.7066 44.9209 11.6868 44.9209C11.5211 44.9209 11.3919 44.9176 11.2991 44.911L10.7227 44.901L10.1562 44.911C10.0568 44.9176 9.92428 44.9209 9.75863 44.9209C9.73875 44.9209 9.72881 44.901 9.72881 44.8613C9.72881 44.8215 9.73875 44.8016 9.75863 44.8016C9.98391 44.8016 10.133 44.7553 10.2059 44.6625C10.2788 44.5697 10.3152 44.3875 10.3152 44.1159V42.625C10.3152 42.254 10.2456 41.9823 10.1065 41.8101C9.97397 41.6312 9.76194 41.5417 9.47041 41.5417C9.29813 41.5417 9.12255 41.5815 8.94365 41.661C8.76475 41.7405 8.60242 41.8465 8.45665 41.979V44.1159C8.45665 44.3875 8.49309 44.5697 8.56598 44.6625C8.63886 44.7553 8.78794 44.8016 9.01322 44.8016C9.0331 44.8016 9.04304 44.8215 9.04304 44.8613C9.04304 44.901 9.0331 44.9209 9.01322 44.9209C8.84758 44.9209 8.71837 44.9176 8.62561 44.911L8.04916 44.901L7.47271 44.911C7.37995 44.9176 7.25075 44.9209 7.0851 44.9209C7.06522 44.9209 7.05528 44.901 7.05528 44.8613C7.05528 44.8215 7.06522 44.8016 7.0851 44.8016C7.31038 44.8016 7.45946 44.7553 7.53235 44.6625C7.60523 44.5697 7.64167 44.3875 7.64167 44.1159V42.2176C7.64167 42.0055 7.61517 41.8498 7.56216 41.7504C7.51578 41.651 7.43627 41.6013 7.32363 41.6013C7.22424 41.6013 7.0586 41.651 6.82669 41.7504H6.81675C6.79025 41.7504 6.77037 41.7339 6.75712 41.7007C6.74387 41.6676 6.74718 41.6477 6.76706 41.6411L8.06904 41.005C8.10879 40.9918 8.13198 40.9851 8.13861 40.9851C8.20487 40.9851 8.27113 41.0613 8.33739 41.2137C8.41027 41.3595 8.45002 41.5517 8.45665 41.7902C8.92046 41.2402 9.42402 40.9653 9.96734 40.9653C10.3318 40.9653 10.6167 41.0779 10.8221 41.3032C11.0275 41.5218 11.1302 41.82 11.1302 42.1977V44.1159C11.1302 44.3875 11.1666 44.5697 11.2395 44.6625C11.3124 44.7553 11.4615 44.8016 11.6868 44.8016ZM13.2316 39.9416C13.0593 39.9416 12.9235 39.8952 12.8241 39.8024C12.7314 39.7097 12.685 39.5772 12.685 39.4049C12.685 39.2392 12.7314 39.1133 12.8241 39.0272C12.9235 38.9344 13.0593 38.8881 13.2316 38.8881C13.3973 38.8881 13.5265 38.9344 13.6192 39.0272C13.712 39.1133 13.7584 39.2392 13.7584 39.4049C13.7584 39.5772 13.712 39.7097 13.6192 39.8024C13.5331 39.8952 13.4039 39.9416 13.2316 39.9416ZM12.3172 44.9209C12.2974 44.9209 12.2874 44.901 12.2874 44.8613C12.2874 44.8215 12.2974 44.8016 12.3172 44.8016C12.5425 44.8016 12.6916 44.7553 12.7645 44.6625C12.8374 44.5697 12.8738 44.3875 12.8738 44.1159V42.307C12.8738 42.0817 12.8506 41.9194 12.8042 41.82C12.7579 41.714 12.6783 41.661 12.5657 41.661C12.4663 41.661 12.3371 41.7007 12.1781 41.7802H12.1682C12.1417 41.7802 12.1218 41.7637 12.1085 41.7306C12.0953 41.6974 12.0986 41.6742 12.1185 41.661L13.5496 40.9951L13.5795 40.9851C13.606 40.9851 13.6325 41.0017 13.659 41.0348C13.6921 41.0613 13.7087 41.0845 13.7087 41.1044V41.3131C13.6954 41.5914 13.6888 41.9194 13.6888 42.2971V44.1159C13.6888 44.3875 13.7252 44.5697 13.7981 44.6625C13.8776 44.7553 14.03 44.8016 14.2553 44.8016C14.2752 44.8016 14.2851 44.8215 14.2851 44.8613C14.2851 44.901 14.2752 44.9209 14.2553 44.9209C14.0897 44.9209 13.9571 44.9176 13.8578 44.911L13.2813 44.901L12.7049 44.911C12.6121 44.9176 12.4829 44.9209 12.3172 44.9209ZM18.9526 41.0845C18.9659 41.0845 18.9725 41.1044 18.9725 41.1442C18.9725 41.1839 18.9659 41.2038 18.9526 41.2038C18.7671 41.2038 18.6048 41.2701 18.4656 41.4026C18.3331 41.5351 18.2039 41.7471 18.078 42.0387L16.8456 44.9209C16.8323 44.954 16.7992 44.9706 16.7462 44.9706C16.6866 44.9706 16.6468 44.954 16.6269 44.9209L15.156 41.9095C15.0169 41.6179 14.8976 41.4291 14.7982 41.3429C14.6988 41.2502 14.5762 41.2038 14.4305 41.2038C14.4106 41.2038 14.4007 41.1839 14.4007 41.1442C14.4007 41.1044 14.4106 41.0845 14.4305 41.0845C14.5497 41.0845 14.6458 41.0878 14.7187 41.0945L15.2951 41.1044L16.0306 41.0945C16.1366 41.0878 16.2824 41.0845 16.4679 41.0845C16.4878 41.0845 16.4977 41.1044 16.4977 41.1442C16.4977 41.1839 16.4878 41.2038 16.4679 41.2038C16.077 41.2038 15.8815 41.28 15.8815 41.4324C15.8815 41.4721 15.8981 41.5252 15.9312 41.5914L17.0742 43.8475L17.8295 42.0188C17.8759 41.9061 17.8991 41.7968 17.8991 41.6908C17.8991 41.5318 17.8395 41.4125 17.7202 41.333C17.6076 41.2469 17.4386 41.2038 17.2133 41.2038C17.2001 41.2038 17.1934 41.1839 17.1934 41.1442C17.1934 41.1044 17.2001 41.0845 17.2133 41.0845C17.3922 41.0845 17.5281 41.0878 17.6208 41.0945L18.2171 41.1044L18.6048 41.0945C18.6776 41.0878 18.7936 41.0845 18.9526 41.0845ZM22.6446 44.2948C22.6579 44.2948 22.6711 44.308 22.6844 44.3345C22.7043 44.361 22.7076 44.3809 22.6943 44.3941C22.4492 44.6194 22.204 44.7851 21.9589 44.8911C21.7137 44.9905 21.4487 45.0402 21.1638 45.0402C20.7596 45.0402 20.4084 44.9507 20.1102 44.7718C19.8187 44.5929 19.5934 44.3577 19.4344 44.0662C19.282 43.7746 19.2058 43.4599 19.2058 43.122C19.2058 42.7311 19.3019 42.3733 19.494 42.0486C19.6862 41.7239 19.9479 41.4688 20.2792 41.2833C20.6171 41.0912 20.9915 40.9951 21.4023 40.9951C21.7998 40.9951 22.1079 41.0912 22.3266 41.2833C22.5452 41.4755 22.6546 41.7604 22.6546 42.138C22.6546 42.3302 22.6148 42.4263 22.5353 42.4263L20.1102 42.4362C20.1036 42.4958 20.1003 42.5853 20.1003 42.7046C20.1003 43.2876 20.2328 43.7514 20.4979 44.096C20.7695 44.4339 21.1538 44.6029 21.6508 44.6029C21.8363 44.6029 21.992 44.583 22.1179 44.5432C22.2438 44.4968 22.4127 44.4173 22.6248 44.3047L22.6446 44.2948ZM21.0445 41.1939C20.7993 41.1939 20.5972 41.2899 20.4382 41.4821C20.2858 41.6676 20.1831 41.926 20.1301 42.2573L21.7203 42.2275C21.7071 41.5384 21.4818 41.1939 21.0445 41.1939ZM25.895 40.9851C26.0474 40.9851 26.1932 41.0348 26.3323 41.1342C26.4714 41.2336 26.541 41.3529 26.541 41.492C26.541 41.6179 26.5013 41.7206 26.4218 41.8001C26.3489 41.8796 26.2462 41.9194 26.1137 41.9194C26.0275 41.9194 25.9546 41.9028 25.895 41.8697C25.842 41.8299 25.7857 41.7769 25.726 41.7107C25.6664 41.651 25.6134 41.608 25.567 41.5815C25.5206 41.5483 25.4643 41.5318 25.3981 41.5318C25.3252 41.5318 25.2457 41.5616 25.1595 41.6212C25.08 41.6742 24.9541 41.7902 24.7819 41.9691V44.1159C24.7819 44.3014 24.8084 44.4438 24.8614 44.5432C24.9144 44.636 25.0038 44.7022 25.1297 44.742C25.2556 44.7818 25.4411 44.8016 25.6863 44.8016C25.7128 44.8016 25.726 44.8215 25.726 44.8613C25.726 44.901 25.7128 44.9209 25.6863 44.9209C25.4676 44.9209 25.292 44.9176 25.1595 44.911L24.3744 44.901L23.7979 44.911C23.7052 44.9176 23.576 44.9209 23.4103 44.9209C23.3904 44.9209 23.3805 44.901 23.3805 44.8613C23.3805 44.8215 23.3904 44.8016 23.4103 44.8016C23.6356 44.8016 23.7847 44.7553 23.8575 44.6625C23.9304 44.5697 23.9669 44.3875 23.9669 44.1159V42.2176C23.9669 42.0055 23.9404 41.8498 23.8874 41.7504C23.841 41.651 23.7615 41.6013 23.6488 41.6013C23.5494 41.6013 23.3838 41.651 23.1519 41.7504H23.142C23.1155 41.7504 23.0956 41.7339 23.0823 41.7007C23.0691 41.6676 23.0724 41.6477 23.0923 41.6411L24.3942 41.005C24.434 40.9918 24.4572 40.9851 24.4638 40.9851C24.5301 40.9851 24.5963 41.058 24.6626 41.2038C24.7288 41.3429 24.7686 41.5285 24.7819 41.7604C25.0403 41.4688 25.2556 41.2667 25.4279 41.1541C25.6001 41.0415 25.7559 40.9851 25.895 40.9851ZM27.8333 41.6013C27.8333 41.8068 27.9029 41.979 28.042 42.1182C28.1878 42.2573 28.3965 42.4031 28.6681 42.5555C28.9067 42.688 29.0889 42.7973 29.2148 42.8835C29.3473 42.9696 29.4599 43.0855 29.5527 43.2313C29.6521 43.3771 29.7018 43.5527 29.7018 43.7581C29.7018 43.9833 29.6455 44.1921 29.5328 44.3842C29.4202 44.5764 29.2512 44.7321 29.0259 44.8513C28.8073 44.9706 28.5456 45.0302 28.2408 45.0302C27.8764 45.0302 27.5418 44.9375 27.237 44.7519C27.1972 44.7122 27.1773 44.6724 27.1773 44.6327L27.1575 43.7183C27.1575 43.6984 27.174 43.6885 27.2071 43.6885C27.2469 43.6819 27.2701 43.6852 27.2767 43.6984C27.3894 44.0297 27.5583 44.3014 27.7836 44.5134C28.0155 44.7254 28.2607 44.8314 28.5191 44.8314C28.6847 44.8314 28.8139 44.7884 28.9067 44.7022C28.9994 44.6161 29.0458 44.4869 29.0458 44.3146C29.0458 44.0629 28.9729 43.8641 28.8272 43.7183C28.6814 43.5659 28.4694 43.4168 28.1911 43.2711C27.9658 43.1518 27.7902 43.0524 27.6643 42.9729C27.5384 42.8868 27.4291 42.7741 27.3364 42.635C27.2502 42.4892 27.2071 42.3103 27.2071 42.0983C27.2071 41.7206 27.343 41.439 27.6146 41.2535C27.8929 41.068 28.2275 40.9752 28.6185 40.9752C28.8769 40.9752 29.1419 41.0249 29.4136 41.1243C29.4732 41.1508 29.503 41.1872 29.503 41.2336C29.503 41.386 29.4997 41.5053 29.4931 41.5914L29.4831 42.0685C29.4831 42.0883 29.4632 42.0983 29.4235 42.0983C29.3837 42.0983 29.3639 42.0883 29.3639 42.0685C29.3639 41.936 29.3109 41.8001 29.2048 41.661C29.0988 41.5152 28.963 41.3959 28.7974 41.3032C28.6317 41.2104 28.4627 41.164 28.2905 41.164C27.9857 41.164 27.8333 41.3098 27.8333 41.6013ZM34.2231 44.3842C34.2496 44.3842 34.2661 44.4008 34.2728 44.4339C34.2794 44.4604 34.2694 44.4803 34.2429 44.4935L33.2192 44.9805C33.1927 44.9938 33.1629 45.0004 33.1298 45.0004C33.0304 45.0004 32.9343 44.9441 32.8416 44.8314C32.7554 44.7122 32.6991 44.5565 32.6726 44.3643L32.2154 44.6824C32.0564 44.795 31.9106 44.8745 31.7781 44.9209C31.6522 44.9673 31.5098 44.9905 31.3508 44.9905C31.0791 44.9905 30.8704 44.9275 30.7246 44.8016C30.5855 44.6691 30.5159 44.4968 30.5159 44.2848C30.5159 44.1059 30.5623 43.9602 30.655 43.8475C30.7544 43.7349 30.877 43.6454 31.0228 43.5792C31.1752 43.5063 31.3971 43.4168 31.6887 43.3108L32.6527 42.953V42.3567C32.6527 41.9459 32.6097 41.6477 32.5235 41.4622C32.444 41.2701 32.3148 41.174 32.1359 41.174C31.9173 41.174 31.7582 41.2568 31.6589 41.4225C31.5661 41.5815 31.5098 41.7604 31.4899 41.9591C31.4501 42.2971 31.2812 42.466 30.983 42.466C30.8373 42.466 30.7279 42.4329 30.655 42.3666C30.5888 42.3004 30.5557 42.2176 30.5557 42.1182C30.5557 41.9326 30.665 41.7537 30.8836 41.5815C31.1089 41.4026 31.3773 41.2601 31.6887 41.1541C32.0067 41.0415 32.285 40.9851 32.5235 40.9851C32.8084 40.9851 33.0337 41.0746 33.1994 41.2535C33.3716 41.4324 33.4578 41.7007 33.4578 42.0585V43.8475C33.4578 44.0529 33.4909 44.2086 33.5572 44.3146C33.6234 44.4206 33.7195 44.4737 33.8454 44.4737C33.9448 44.4737 34.064 44.4438 34.2032 44.3842H34.2231ZM32.6527 44.2053V44.1059V43.122L32.0564 43.3705C31.8841 43.4367 31.7417 43.5162 31.629 43.609C31.523 43.6951 31.47 43.821 31.47 43.9867C31.47 44.1457 31.5197 44.2749 31.6191 44.3743C31.7251 44.467 31.851 44.5134 31.9968 44.5134C32.116 44.5134 32.2419 44.4737 32.3745 44.3941L32.6527 44.2053ZM34.6099 44.9209C34.59 44.9209 34.5801 44.901 34.5801 44.8613C34.5801 44.8215 34.59 44.8016 34.6099 44.8016C34.8286 44.8016 34.9776 44.7553 35.0571 44.6625C35.1367 44.5631 35.1764 44.3809 35.1764 44.1159V39.0371C35.1764 38.8052 35.1532 38.6396 35.1068 38.5402C35.0671 38.4342 34.9909 38.3812 34.8782 38.3812C34.7789 38.3812 34.6463 38.4209 34.4807 38.5005H34.4708C34.4443 38.5005 34.4244 38.4839 34.4111 38.4508C34.3979 38.4176 34.3979 38.3944 34.4111 38.3812L35.8125 37.7252L35.8522 37.7153C35.8787 37.7153 35.9086 37.7285 35.9417 37.755C35.9814 37.7815 36.0013 37.8047 36.0013 37.8246V44.1159C36.0013 44.3875 36.0378 44.5697 36.1107 44.6625C36.1835 44.7553 36.3326 44.8016 36.5579 44.8016C36.5778 44.8016 36.5877 44.8215 36.5877 44.8613C36.5877 44.901 36.5778 44.9209 36.5579 44.9209C36.3989 44.9209 36.2697 44.9176 36.1703 44.911L35.5839 44.901L35.0074 44.911C34.9081 44.9176 34.7755 44.9209 34.6099 44.9209ZM41.3685 44.1159C41.3685 44.3213 41.3851 44.4703 41.4182 44.5631C41.4513 44.6559 41.5176 44.7188 41.617 44.7519C41.723 44.7851 41.8886 44.8016 42.1139 44.8016C42.1338 44.8016 42.1437 44.8215 42.1437 44.8613C42.1437 44.901 42.1338 44.9209 42.1139 44.9209C41.9019 44.9209 41.7329 44.9176 41.607 44.911L40.8716 44.901L40.156 44.911C40.0301 44.9176 39.8578 44.9209 39.6391 44.9209C39.6193 44.9209 39.6093 44.901 39.6093 44.8613C39.6093 44.8215 39.6193 44.8016 39.6391 44.8016C39.8644 44.8016 40.0268 44.7851 40.1261 44.7519C40.2322 44.7188 40.305 44.6559 40.3448 44.5631C40.3846 44.4637 40.4044 44.3146 40.4044 44.1159V39.5142C40.4044 39.3154 40.3846 39.1697 40.3448 39.0769C40.305 38.9841 40.2322 38.9212 40.1261 38.8881C40.0268 38.8483 39.8644 38.8284 39.6391 38.8284C39.6193 38.8284 39.6093 38.8086 39.6093 38.7688C39.6093 38.729 39.6193 38.7092 39.6391 38.7092L40.156 38.7191C40.4475 38.7324 40.686 38.739 40.8716 38.739C41.077 38.739 41.3254 38.7324 41.617 38.7191L42.1139 38.7092C42.1338 38.7092 42.1437 38.729 42.1437 38.7688C42.1437 38.8086 42.1338 38.8284 42.1139 38.8284C41.8952 38.8284 41.7329 38.8483 41.6269 38.8881C41.5275 38.9278 41.4579 38.9974 41.4182 39.0968C41.3851 39.1895 41.3685 39.3353 41.3685 39.5341V44.1159ZM50.0537 44.8016C50.0802 44.8016 50.0934 44.8215 50.0934 44.8613C50.0934 44.901 50.0802 44.9209 50.0537 44.9209C49.888 44.9209 49.7555 44.9176 49.6561 44.911L49.0896 44.901L48.5231 44.911C48.4237 44.9176 48.2912 44.9209 48.1255 44.9209C48.1057 44.9209 48.0957 44.901 48.0957 44.8613C48.0957 44.8215 48.1057 44.8016 48.1255 44.8016C48.3442 44.8016 48.4933 44.7553 48.5728 44.6625C48.6523 44.5631 48.692 44.3809 48.692 44.1159V42.635C48.692 42.2639 48.6258 41.989 48.4933 41.8101C48.3674 41.6312 48.1719 41.5417 47.9069 41.5417C47.728 41.5417 47.5491 41.5848 47.3702 41.6709C47.1913 41.7571 47.0356 41.873 46.9031 42.0188V42.1182V44.1159C46.9031 44.3875 46.9395 44.5697 47.0124 44.6625C47.0919 44.7553 47.2443 44.8016 47.4696 44.8016C47.4895 44.8016 47.4994 44.8215 47.4994 44.8613C47.4994 44.901 47.4895 44.9209 47.4696 44.9209C47.3039 44.9209 47.1714 44.9176 47.072 44.911L46.4956 44.901L45.9291 44.911C45.8297 44.9176 45.6972 44.9209 45.5315 44.9209C45.5116 44.9209 45.5017 44.901 45.5017 44.8613C45.5017 44.8215 45.5116 44.8016 45.5315 44.8016C45.7568 44.8016 45.9059 44.7553 45.9788 44.6625C46.0583 44.5697 46.098 44.3875 46.098 44.1159V42.635C46.098 42.2639 46.0318 41.989 45.8993 41.8101C45.7734 41.6312 45.5779 41.5417 45.3129 41.5417C45.1472 41.5417 44.9783 41.5815 44.806 41.661C44.6337 41.7405 44.4813 41.8465 44.3488 41.979V44.1159C44.3488 44.3875 44.3852 44.5697 44.4581 44.6625C44.531 44.7553 44.6801 44.8016 44.9054 44.8016C44.9253 44.8016 44.9352 44.8215 44.9352 44.8613C44.9352 44.901 44.9253 44.9209 44.9054 44.9209C44.7397 44.9209 44.6105 44.9176 44.5178 44.911L43.9413 44.901L43.3649 44.911C43.2721 44.9176 43.1429 44.9209 42.9773 44.9209C42.9574 44.9209 42.9474 44.901 42.9474 44.8613C42.9474 44.8215 42.9574 44.8016 42.9773 44.8016C43.2025 44.8016 43.3516 44.7553 43.4245 44.6625C43.4974 44.5697 43.5338 44.3875 43.5338 44.1159V42.2176C43.5338 42.0055 43.5073 41.8498 43.4543 41.7504C43.4079 41.651 43.3284 41.6013 43.2158 41.6013C43.1164 41.6013 42.9508 41.651 42.7188 41.7504H42.7089C42.6824 41.7504 42.6625 41.7339 42.6493 41.7007C42.636 41.6676 42.6393 41.6477 42.6592 41.6411L43.9612 41.005C44.0009 40.9918 44.0241 40.9851 44.0308 40.9851C44.097 40.9851 44.1633 41.0613 44.2295 41.2137C44.3024 41.3595 44.3422 41.5517 44.3488 41.7902C44.7927 41.2469 45.2764 40.9752 45.7999 40.9752C46.1047 40.9752 46.3498 41.0514 46.5353 41.2038C46.7209 41.3496 46.8368 41.5649 46.8832 41.8498C47.3536 41.2667 47.8572 40.9752 48.3939 40.9752C48.7451 40.9752 49.0134 41.0779 49.1989 41.2833C49.3911 41.4821 49.4872 41.7869 49.4872 42.1977V44.1159C49.4872 44.3875 49.5236 44.5697 49.5965 44.6625C49.676 44.7553 49.8284 44.8016 50.0537 44.8016ZM57.731 44.8016C57.7575 44.8016 57.7707 44.8215 57.7707 44.8613C57.7707 44.901 57.7575 44.9209 57.731 44.9209C57.5653 44.9209 57.4328 44.9176 57.3334 44.911L56.7669 44.901L56.2004 44.911C56.101 44.9176 55.9685 44.9209 55.8029 44.9209C55.783 44.9209 55.773 44.901 55.773 44.8613C55.773 44.8215 55.783 44.8016 55.8029 44.8016C56.0215 44.8016 56.1706 44.7553 56.2501 44.6625C56.3296 44.5631 56.3694 44.3809 56.3694 44.1159V42.635C56.3694 42.2639 56.3031 41.989 56.1706 41.8101C56.0447 41.6312 55.8492 41.5417 55.5842 41.5417C55.4053 41.5417 55.2264 41.5848 55.0475 41.6709C54.8686 41.7571 54.7129 41.873 54.5804 42.0188V42.1182V44.1159C54.5804 44.3875 54.6168 44.5697 54.6897 44.6625C54.7692 44.7553 54.9216 44.8016 55.1469 44.8016C55.1668 44.8016 55.1767 44.8215 55.1767 44.8613C55.1767 44.901 55.1668 44.9209 55.1469 44.9209C54.9812 44.9209 54.8487 44.9176 54.7493 44.911L54.1729 44.901L53.6064 44.911C53.507 44.9176 53.3745 44.9209 53.2088 44.9209C53.189 44.9209 53.179 44.901 53.179 44.8613C53.179 44.8215 53.189 44.8016 53.2088 44.8016C53.4341 44.8016 53.5832 44.7553 53.6561 44.6625C53.7356 44.5697 53.7753 44.3875 53.7753 44.1159V42.635C53.7753 42.2639 53.7091 41.989 53.5766 41.8101C53.4507 41.6312 53.2552 41.5417 52.9902 41.5417C52.8245 41.5417 52.6556 41.5815 52.4833 41.661C52.311 41.7405 52.1586 41.8465 52.0261 41.979V44.1159C52.0261 44.3875 52.0626 44.5697 52.1354 44.6625C52.2083 44.7553 52.3574 44.8016 52.5827 44.8016C52.6026 44.8016 52.6125 44.8215 52.6125 44.8613C52.6125 44.901 52.6026 44.9209 52.5827 44.9209C52.417 44.9209 52.2878 44.9176 52.1951 44.911L51.6186 44.901L51.0422 44.911C50.9494 44.9176 50.8202 44.9209 50.6546 44.9209C50.6347 44.9209 50.6248 44.901 50.6248 44.8613C50.6248 44.8215 50.6347 44.8016 50.6546 44.8016C50.8798 44.8016 51.0289 44.7553 51.1018 44.6625C51.1747 44.5697 51.2111 44.3875 51.2111 44.1159V42.2176C51.2111 42.0055 51.1846 41.8498 51.1316 41.7504C51.0852 41.651 51.0057 41.6013 50.8931 41.6013C50.7937 41.6013 50.6281 41.651 50.3962 41.7504H50.3862C50.3597 41.7504 50.3398 41.7339 50.3266 41.7007C50.3133 41.6676 50.3166 41.6477 50.3365 41.6411L51.6385 41.005C51.6783 40.9918 51.7015 40.9851 51.7081 40.9851C51.7743 40.9851 51.8406 41.0613 51.9069 41.2137C51.9797 41.3595 52.0195 41.5517 52.0261 41.7902C52.47 41.2469 52.9537 40.9752 53.4772 40.9752C53.782 40.9752 54.0271 41.0514 54.2126 41.2038C54.3982 41.3496 54.5141 41.5649 54.5605 41.8498C55.0309 41.2667 55.5345 40.9752 56.0712 40.9752C56.4224 40.9752 56.6907 41.0779 56.8762 41.2833C57.0684 41.4821 57.1645 41.7869 57.1645 42.1977V44.1159C57.1645 44.3875 57.2009 44.5697 57.2738 44.6625C57.3533 44.7553 57.5057 44.8016 57.731 44.8016ZM59.2761 39.9416C59.1038 39.9416 58.968 39.8952 58.8686 39.8024C58.7758 39.7097 58.7294 39.5772 58.7294 39.4049C58.7294 39.2392 58.7758 39.1133 58.8686 39.0272C58.968 38.9344 59.1038 38.8881 59.2761 38.8881C59.4417 38.8881 59.5709 38.9344 59.6637 39.0272C59.7564 39.1133 59.8028 39.2392 59.8028 39.4049C59.8028 39.5772 59.7564 39.7097 59.6637 39.8024C59.5775 39.8952 59.4483 39.9416 59.2761 39.9416ZM58.3617 44.9209C58.3418 44.9209 58.3319 44.901 58.3319 44.8613C58.3319 44.8215 58.3418 44.8016 58.3617 44.8016C58.587 44.8016 58.7361 44.7553 58.8089 44.6625C58.8818 44.5697 58.9183 44.3875 58.9183 44.1159V42.307C58.9183 42.0817 58.8951 41.9194 58.8487 41.82C58.8023 41.714 58.7228 41.661 58.6102 41.661C58.5108 41.661 58.3816 41.7007 58.2226 41.7802H58.2126C58.1861 41.7802 58.1662 41.7637 58.153 41.7306C58.1397 41.6974 58.143 41.6742 58.1629 41.661L59.5941 40.9951L59.6239 40.9851C59.6504 40.9851 59.6769 41.0017 59.7034 41.0348C59.7366 41.0613 59.7531 41.0845 59.7531 41.1044V41.3131C59.7399 41.5914 59.7332 41.9194 59.7332 42.2971V44.1159C59.7332 44.3875 59.7697 44.5697 59.8426 44.6625C59.9221 44.7553 60.0745 44.8016 60.2998 44.8016C60.3196 44.8016 60.3296 44.8215 60.3296 44.8613C60.3296 44.901 60.3196 44.9209 60.2998 44.9209C60.1341 44.9209 60.0016 44.9176 59.9022 44.911L59.3258 44.901L58.7493 44.911C58.6565 44.9176 58.5273 44.9209 58.3617 44.9209ZM63.059 44.573C63.4367 44.5797 63.7448 44.5995 63.9833 44.6327C64.2218 44.6658 64.4272 44.7586 64.5995 44.911C64.7784 45.0634 64.8679 45.3019 64.8679 45.6266C64.8679 45.991 64.7519 46.3322 64.52 46.6502C64.2881 46.9749 63.98 47.2333 63.5957 47.4255C63.2114 47.6176 62.8006 47.7137 62.3633 47.7137C61.9061 47.7137 61.5351 47.611 61.2502 47.4056C60.9719 47.2002 60.8327 46.9318 60.8327 46.6006C60.8327 46.1301 61.1706 45.6696 61.8465 45.2191C61.3562 45.1263 61.111 44.8911 61.111 44.5134C61.111 44.308 61.1673 44.1192 61.28 43.9469C61.3992 43.7746 61.5781 43.6057 61.8167 43.44C61.5715 43.3274 61.3794 43.165 61.2402 42.953C61.1077 42.741 61.0414 42.5157 61.0414 42.2772C61.0414 42.0188 61.1209 41.7935 61.28 41.6013C61.439 41.4092 61.6444 41.2634 61.8962 41.164C62.1546 41.0647 62.4296 41.015 62.7211 41.015C63.1451 41.015 63.4963 41.121 63.7746 41.333C63.9535 41.2204 64.1291 41.1375 64.3014 41.0845C64.4736 41.0249 64.6591 40.9951 64.8579 40.9951C64.9043 40.9951 64.9275 41.0812 64.9275 41.2535C64.9275 41.3463 64.9142 41.4423 64.8877 41.5417C64.8679 41.6411 64.8447 41.6809 64.8182 41.661C64.5399 41.555 64.3014 41.502 64.1026 41.502C64.0429 41.502 63.9999 41.5053 63.9734 41.5119C64.1655 41.7239 64.2616 41.9757 64.2616 42.2672C64.2616 42.519 64.1821 42.7476 64.0231 42.953C63.864 43.1584 63.6553 43.3174 63.3969 43.4301C63.1385 43.5427 62.8635 43.599 62.572 43.599C62.3534 43.599 62.1546 43.5692 61.9757 43.5096C61.8299 43.6487 61.757 43.8144 61.757 44.0065C61.757 44.2451 61.8531 44.3975 62.0453 44.4637C62.244 44.53 62.5819 44.5664 63.059 44.573ZM62.4229 41.1939C62.0651 41.1939 61.8862 41.4622 61.8862 41.9989C61.8862 42.2772 61.9293 42.5257 62.0154 42.7443C62.1082 42.963 62.2242 43.1319 62.3633 43.2512C62.5091 43.3705 62.6581 43.4301 62.8105 43.4301C62.9828 43.4301 63.1253 43.3572 63.2379 43.2114C63.3505 43.059 63.4069 42.8304 63.4069 42.5257C63.4069 42.2474 63.3572 42.0088 63.2578 41.8101C63.165 41.6047 63.0424 41.4523 62.89 41.3529C62.7443 41.2469 62.5886 41.1939 62.4229 41.1939ZM62.9 47.4056C63.2777 47.4056 63.5791 47.293 63.8044 47.0677C64.0363 46.849 64.1523 46.5509 64.1523 46.1732C64.1523 45.8949 64.0893 45.6928 63.9634 45.5669C63.8442 45.441 63.6818 45.3615 63.4764 45.3284C63.2777 45.2953 62.9927 45.2787 62.6217 45.2787C62.4362 45.2787 62.2573 45.2688 62.085 45.2489C61.7736 45.4742 61.6179 45.7723 61.6179 46.1434C61.6179 46.5409 61.7372 46.849 61.9757 47.0677C62.2208 47.293 62.5289 47.4056 62.9 47.4056ZM67.9212 40.9851C68.0736 40.9851 68.2194 41.0348 68.3585 41.1342C68.4977 41.2336 68.5673 41.3529 68.5673 41.492C68.5673 41.6179 68.5275 41.7206 68.448 41.8001C68.3751 41.8796 68.2724 41.9194 68.1399 41.9194C68.0538 41.9194 67.9809 41.9028 67.9212 41.8697C67.8682 41.8299 67.8119 41.7769 67.7523 41.7107C67.6927 41.651 67.6396 41.608 67.5933 41.5815C67.5469 41.5483 67.4906 41.5318 67.4243 41.5318C67.3514 41.5318 67.2719 41.5616 67.1858 41.6212C67.1063 41.6742 66.9804 41.7902 66.8081 41.9691V44.1159C66.8081 44.3014 66.8346 44.4438 66.8876 44.5432C66.9406 44.636 67.0301 44.7022 67.156 44.742C67.2818 44.7818 67.4674 44.8016 67.7125 44.8016C67.739 44.8016 67.7523 44.8215 67.7523 44.8613C67.7523 44.901 67.739 44.9209 67.7125 44.9209C67.4939 44.9209 67.3183 44.9176 67.1858 44.911L66.4006 44.901L65.8242 44.911C65.7314 44.9176 65.6022 44.9209 65.4365 44.9209C65.4167 44.9209 65.4067 44.901 65.4067 44.8613C65.4067 44.8215 65.4167 44.8016 65.4365 44.8016C65.6618 44.8016 65.8109 44.7553 65.8838 44.6625C65.9567 44.5697 65.9931 44.3875 65.9931 44.1159V42.2176C65.9931 42.0055 65.9666 41.8498 65.9136 41.7504C65.8672 41.651 65.7877 41.6013 65.6751 41.6013C65.5757 41.6013 65.41 41.651 65.1781 41.7504H65.1682C65.1417 41.7504 65.1218 41.7339 65.1086 41.7007C65.0953 41.6676 65.0986 41.6477 65.1185 41.6411L66.4205 41.005C66.4602 40.9918 66.4834 40.9851 66.4901 40.9851C66.5563 40.9851 66.6226 41.058 66.6888 41.2038C66.7551 41.3429 66.7948 41.5285 66.8081 41.7604C67.0665 41.4688 67.2818 41.2667 67.4541 41.1541C67.6264 41.0415 67.7821 40.9851 67.9212 40.9851ZM72.7746 44.3842C72.8011 44.3842 72.8177 44.4008 72.8243 44.4339C72.8309 44.4604 72.821 44.4803 72.7945 44.4935L71.7708 44.9805C71.7443 44.9938 71.7145 45.0004 71.6814 45.0004C71.582 45.0004 71.4859 44.9441 71.3931 44.8314C71.307 44.7122 71.2507 44.5565 71.2242 44.3643L70.767 44.6824C70.608 44.795 70.4622 44.8745 70.3297 44.9209C70.2038 44.9673 70.0613 44.9905 69.9023 44.9905C69.6307 44.9905 69.4219 44.9275 69.2762 44.8016C69.137 44.6691 69.0675 44.4968 69.0675 44.2848C69.0675 44.1059 69.1138 43.9602 69.2066 43.8475C69.306 43.7349 69.4286 43.6454 69.5743 43.5792C69.7267 43.5063 69.9487 43.4168 70.2402 43.3108L71.2043 42.953V42.3567C71.2043 41.9459 71.1612 41.6477 71.0751 41.4622C70.9956 41.2701 70.8664 41.174 70.6875 41.174C70.4688 41.174 70.3098 41.2568 70.2104 41.4225C70.1177 41.5815 70.0613 41.7604 70.0415 41.9591C70.0017 42.2971 69.8327 42.466 69.5346 42.466C69.3888 42.466 69.2795 42.4329 69.2066 42.3666C69.1403 42.3004 69.1072 42.2176 69.1072 42.1182C69.1072 41.9326 69.2165 41.7537 69.4352 41.5815C69.6605 41.4026 69.9288 41.2601 70.2402 41.1541C70.5583 41.0415 70.8366 40.9851 71.0751 40.9851C71.36 40.9851 71.5853 41.0746 71.7509 41.2535C71.9232 41.4324 72.0093 41.7007 72.0093 42.0585V43.8475C72.0093 44.0529 72.0425 44.2086 72.1087 44.3146C72.175 44.4206 72.2711 44.4737 72.3969 44.4737C72.4963 44.4737 72.6156 44.4438 72.7547 44.3842H72.7746ZM71.2043 44.2053V44.1059V43.122L70.608 43.3705C70.4357 43.4367 70.2932 43.5162 70.1806 43.609C70.0746 43.6951 70.0216 43.821 70.0216 43.9867C70.0216 44.1457 70.0713 44.2749 70.1707 44.3743C70.2767 44.467 70.4026 44.5134 70.5483 44.5134C70.6676 44.5134 70.7935 44.4737 70.926 44.3941L71.2043 44.2053ZM75.9741 44.2848C75.994 44.2848 76.0106 44.2981 76.0238 44.3246C76.0437 44.3511 76.0437 44.371 76.0238 44.3842C75.7787 44.6161 75.5468 44.7851 75.3281 44.8911C75.1095 44.9905 74.8776 45.0402 74.6324 45.0402C74.3475 45.0402 74.1056 44.9739 73.9069 44.8414C73.7147 44.7022 73.6186 44.4737 73.6186 44.1556V41.9095C73.6186 41.6908 73.5822 41.545 73.5093 41.4721C73.4431 41.3993 73.3105 41.3628 73.1118 41.3628C73.1051 41.3628 73.0952 41.3562 73.0819 41.3429C73.0753 41.3231 73.072 41.3032 73.072 41.2833C73.072 41.2634 73.0753 41.2469 73.0819 41.2336C73.0952 41.2137 73.1051 41.2038 73.1118 41.2038C73.7346 41.1773 74.1255 40.9089 74.2845 40.3988C74.2978 40.3723 74.3243 40.359 74.364 40.359C74.4104 40.359 74.4336 40.3723 74.4336 40.3988V41.1839C74.745 41.1773 75.1857 41.1442 75.7555 41.0845C75.7687 41.0845 75.782 41.111 75.7952 41.164C75.8151 41.2104 75.825 41.2634 75.825 41.3231C75.825 41.3827 75.8118 41.4423 75.7853 41.502C75.7654 41.5616 75.7422 41.5881 75.7157 41.5815C75.3447 41.4953 74.9173 41.4423 74.4336 41.4225V43.8276C74.4336 44.086 74.4966 44.2782 74.6225 44.4041C74.755 44.5233 74.9372 44.583 75.1691 44.583C75.4474 44.583 75.7091 44.4869 75.9543 44.2948L75.9741 44.2848ZM77.4939 39.9416C77.3216 39.9416 77.1858 39.8952 77.0864 39.8024C76.9937 39.7097 76.9473 39.5772 76.9473 39.4049C76.9473 39.2392 76.9937 39.1133 77.0864 39.0272C77.1858 38.9344 77.3216 38.8881 77.4939 38.8881C77.6596 38.8881 77.7888 38.9344 77.8815 39.0272C77.9743 39.1133 78.0207 39.2392 78.0207 39.4049C78.0207 39.5772 77.9743 39.7097 77.8815 39.8024C77.7954 39.8952 77.6662 39.9416 77.4939 39.9416ZM76.5795 44.9209C76.5597 44.9209 76.5497 44.901 76.5497 44.8613C76.5497 44.8215 76.5597 44.8016 76.5795 44.8016C76.8048 44.8016 76.9539 44.7553 77.0268 44.6625C77.0997 44.5697 77.1361 44.3875 77.1361 44.1159V42.307C77.1361 42.0817 77.1129 41.9194 77.0665 41.82C77.0202 41.714 76.9406 41.661 76.828 41.661C76.7286 41.661 76.5994 41.7007 76.4404 41.7802H76.4305C76.404 41.7802 76.3841 41.7637 76.3708 41.7306C76.3576 41.6974 76.3609 41.6742 76.3808 41.661L77.8119 40.9951L77.8418 40.9851C77.8683 40.9851 77.8948 41.0017 77.9213 41.0348C77.9544 41.0613 77.971 41.0845 77.971 41.1044V41.3131C77.9577 41.5914 77.9511 41.9194 77.9511 42.2971V44.1159C77.9511 44.3875 77.9875 44.5697 78.0604 44.6625C78.1399 44.7553 78.2923 44.8016 78.5176 44.8016C78.5375 44.8016 78.5474 44.8215 78.5474 44.8613C78.5474 44.901 78.5375 44.9209 78.5176 44.9209C78.352 44.9209 78.2194 44.9176 78.1201 44.911L77.5436 44.901L76.9672 44.911C76.8744 44.9176 76.7452 44.9209 76.5795 44.9209ZM81.1178 45.0501C80.7203 45.0501 80.3691 44.9573 80.0643 44.7718C79.7595 44.5797 79.5243 44.3246 79.3587 44.0065C79.193 43.6819 79.1102 43.3307 79.1102 42.953C79.1102 42.5223 79.2162 42.1579 79.4282 41.8598C79.6469 41.555 79.9219 41.3297 80.2532 41.1839C80.5911 41.0315 80.9356 40.9553 81.2868 40.9553C81.691 40.9553 82.0421 41.0514 82.3403 41.2436C82.6451 41.4357 82.877 41.6908 83.036 42.0088C83.195 42.3203 83.2745 42.6549 83.2745 43.0127C83.2745 43.4102 83.1752 43.7647 82.9764 44.0761C82.7842 44.3875 82.5225 44.6294 82.1912 44.8016C81.8599 44.9673 81.5021 45.0501 81.1178 45.0501ZM81.416 44.8513C81.7075 44.8513 81.9295 44.7221 82.0819 44.4637C82.2409 44.2053 82.3204 43.8276 82.3204 43.3307C82.3204 42.8868 82.2575 42.4992 82.1316 42.1679C82.0123 41.8366 81.8467 41.5848 81.6346 41.4125C81.4292 41.2402 81.204 41.1541 80.9588 41.1541C80.6606 41.1541 80.4354 41.2767 80.283 41.5218C80.1306 41.767 80.0544 42.1281 80.0544 42.6052C80.0544 43.0358 80.1107 43.4235 80.2233 43.768C80.3426 44.1059 80.5049 44.371 80.7103 44.5631C80.9224 44.7553 81.1576 44.8513 81.416 44.8513ZM88.6249 44.8016C88.6447 44.8016 88.6547 44.8215 88.6547 44.8613C88.6547 44.901 88.6447 44.9209 88.6249 44.9209C88.4592 44.9209 88.33 44.9176 88.2373 44.911L87.6608 44.901L87.0943 44.911C86.9949 44.9176 86.8624 44.9209 86.6967 44.9209C86.6769 44.9209 86.6669 44.901 86.6669 44.8613C86.6669 44.8215 86.6769 44.8016 86.6967 44.8016C86.922 44.8016 87.0711 44.7553 87.144 44.6625C87.2169 44.5697 87.2533 44.3875 87.2533 44.1159V42.625C87.2533 42.254 87.1837 41.9823 87.0446 41.8101C86.9121 41.6312 86.7001 41.5417 86.4085 41.5417C86.2362 41.5417 86.0607 41.5815 85.8818 41.661C85.7029 41.7405 85.5405 41.8465 85.3948 41.979V44.1159C85.3948 44.3875 85.4312 44.5697 85.5041 44.6625C85.577 44.7553 85.7261 44.8016 85.9513 44.8016C85.9712 44.8016 85.9811 44.8215 85.9811 44.8613C85.9811 44.901 85.9712 44.9209 85.9513 44.9209C85.7857 44.9209 85.6565 44.9176 85.5637 44.911L84.9873 44.901L84.4108 44.911C84.3181 44.9176 84.1889 44.9209 84.0232 44.9209C84.0033 44.9209 83.9934 44.901 83.9934 44.8613C83.9934 44.8215 84.0033 44.8016 84.0232 44.8016C84.2485 44.8016 84.3976 44.7553 84.4705 44.6625C84.5433 44.5697 84.5798 44.3875 84.5798 44.1159V42.2176C84.5798 42.0055 84.5533 41.8498 84.5003 41.7504C84.4539 41.651 84.3744 41.6013 84.2617 41.6013C84.1624 41.6013 83.9967 41.651 83.7648 41.7504H83.7549C83.7284 41.7504 83.7085 41.7339 83.6952 41.7007C83.682 41.6676 83.6853 41.6477 83.7052 41.6411L85.0072 41.005C85.0469 40.9918 85.0701 40.9851 85.0767 40.9851C85.143 40.9851 85.2092 41.0613 85.2755 41.2137C85.3484 41.3595 85.3881 41.5517 85.3948 41.7902C85.8586 41.2402 86.3621 40.9653 86.9055 40.9653C87.2699 40.9653 87.5548 41.0779 87.7602 41.3032C87.9656 41.5218 88.0683 41.82 88.0683 42.1977V44.1159C88.0683 44.3875 88.1047 44.5697 88.1776 44.6625C88.2505 44.7553 88.3996 44.8016 88.6249 44.8016ZM92.7774 39.7627C92.7774 40.0078 92.837 40.2265 92.9563 40.4186C93.0822 40.6042 93.2346 40.7665 93.4135 40.9056C93.599 41.0448 93.8475 41.2104 94.1589 41.4026C94.4968 41.6146 94.7618 41.7968 94.954 41.9492C95.1528 42.1016 95.3184 42.2904 95.4509 42.5157C95.5901 42.7344 95.6596 42.9928 95.6596 43.2909C95.6596 43.6289 95.5702 43.9303 95.3913 44.1954C95.219 44.4604 94.9706 44.6691 94.6459 44.8215C94.3279 44.9673 93.9634 45.0402 93.5526 45.0402C93.2743 45.0402 92.9861 45.0037 92.688 44.9308C92.3964 44.858 92.1745 44.7685 92.0221 44.6625C91.9624 44.6227 91.9293 44.5598 91.9227 44.4737L91.863 42.963V42.953C91.863 42.9265 91.8796 42.9133 91.9127 42.9133C91.9459 42.9066 91.9657 42.9166 91.9724 42.9431C92.191 43.493 92.4395 43.9436 92.7178 44.2948C93.0027 44.6459 93.3638 44.8215 93.8011 44.8215C94.086 44.8215 94.3245 44.7453 94.5167 44.5929C94.7088 44.4339 94.8049 44.1722 94.8049 43.8078C94.8049 43.5162 94.7387 43.2611 94.6061 43.0425C94.4802 42.8238 94.3212 42.6416 94.1291 42.4958C93.9436 42.3501 93.6885 42.1712 93.3638 41.9591C93.0458 41.7537 92.7973 41.5815 92.6184 41.4423C92.4395 41.2966 92.2871 41.121 92.1612 40.9156C92.0353 40.7035 91.9724 40.4584 91.9724 40.1801C91.9724 39.8356 92.0684 39.544 92.2606 39.3055C92.4527 39.067 92.7012 38.8914 93.006 38.7787C93.3174 38.6595 93.6421 38.5998 93.98 38.5998C94.2053 38.5998 94.4306 38.623 94.6558 38.6694C94.8811 38.7092 95.0699 38.7622 95.2223 38.8284C95.3217 38.8682 95.3714 38.9311 95.3714 39.0173L95.4012 40.3689C95.4012 40.3888 95.3814 40.4021 95.3416 40.4087C95.3085 40.4153 95.2886 40.4087 95.282 40.3888C95.1495 39.9846 94.9706 39.6202 94.7453 39.2956C94.5266 38.9643 94.1953 38.7986 93.7514 38.7986C93.4532 38.7986 93.2147 38.8848 93.0358 39.057C92.8635 39.2293 92.7774 39.4645 92.7774 39.7627ZM99.9516 44.2948C99.9648 44.2948 99.9781 44.308 99.9913 44.3345C100.011 44.361 100.015 44.3809 100.001 44.3941C99.7561 44.6194 99.5109 44.7851 99.2658 44.8911C99.0206 44.9905 98.7556 45.0402 98.4707 45.0402C98.0665 45.0402 97.7153 44.9507 97.4172 44.7718C97.1256 44.5929 96.9004 44.3577 96.7413 44.0662C96.5889 43.7746 96.5127 43.4599 96.5127 43.122C96.5127 42.7311 96.6088 42.3733 96.801 42.0486C96.9931 41.7239 97.2548 41.4688 97.5861 41.2833C97.9241 41.0912 98.2984 40.9951 98.7092 40.9951C99.1068 40.9951 99.4149 41.0912 99.6335 41.2833C99.8522 41.4755 99.9615 41.7604 99.9615 42.138C99.9615 42.3302 99.9217 42.4263 99.8422 42.4263L97.4172 42.4362C97.4106 42.4958 97.4072 42.5853 97.4072 42.7046C97.4072 43.2876 97.5398 43.7514 97.8048 44.096C98.0764 44.4339 98.4607 44.6029 98.9577 44.6029C99.1432 44.6029 99.2989 44.583 99.4248 44.5432C99.5507 44.4968 99.7197 44.4173 99.9317 44.3047L99.9516 44.2948ZM98.3514 41.1939C98.1063 41.1939 97.9042 41.2899 97.7452 41.4821C97.5928 41.6676 97.4901 41.926 97.4371 42.2573L99.0273 42.2275C99.014 41.5384 98.7887 41.1939 98.3514 41.1939ZM103.202 40.9851C103.354 40.9851 103.5 41.0348 103.639 41.1342C103.778 41.2336 103.848 41.3529 103.848 41.492C103.848 41.6179 103.808 41.7206 103.729 41.8001C103.656 41.8796 103.553 41.9194 103.421 41.9194C103.334 41.9194 103.262 41.9028 103.202 41.8697C103.149 41.8299 103.093 41.7769 103.033 41.7107C102.973 41.651 102.92 41.608 102.874 41.5815C102.828 41.5483 102.771 41.5318 102.705 41.5318C102.632 41.5318 102.553 41.5616 102.466 41.6212C102.387 41.6742 102.261 41.7902 102.089 41.9691V44.1159C102.089 44.3014 102.115 44.4438 102.168 44.5432C102.221 44.636 102.311 44.7022 102.437 44.742C102.563 44.7818 102.748 44.8016 102.993 44.8016C103.02 44.8016 103.033 44.8215 103.033 44.8613C103.033 44.901 103.02 44.9209 102.993 44.9209C102.775 44.9209 102.599 44.9176 102.466 44.911L101.681 44.901L101.105 44.911C101.012 44.9176 100.883 44.9209 100.717 44.9209C100.697 44.9209 100.687 44.901 100.687 44.8613C100.687 44.8215 100.697 44.8016 100.717 44.8016C100.943 44.8016 101.092 44.7553 101.164 44.6625C101.237 44.5697 101.274 44.3875 101.274 44.1159V42.2176C101.274 42.0055 101.247 41.8498 101.194 41.7504C101.148 41.651 101.068 41.6013 100.956 41.6013C100.856 41.6013 100.691 41.651 100.459 41.7504H100.449C100.422 41.7504 100.403 41.7339 100.389 41.7007C100.376 41.6676 100.379 41.6477 100.399 41.6411L101.701 41.005C101.741 40.9918 101.764 40.9851 101.771 40.9851C101.837 40.9851 101.903 41.058 101.97 41.2038C102.036 41.3429 102.076 41.5285 102.089 41.7604C102.347 41.4688 102.563 41.2667 102.735 41.1541C102.907 41.0415 103.063 40.9851 103.202 40.9851ZM108.46 41.0845C108.473 41.0845 108.48 41.1044 108.48 41.1442C108.48 41.1839 108.473 41.2038 108.46 41.2038C108.274 41.2038 108.112 41.2701 107.973 41.4026C107.84 41.5351 107.711 41.7471 107.585 42.0387L106.353 44.9209C106.339 44.954 106.306 44.9706 106.253 44.9706C106.194 44.9706 106.154 44.954 106.134 44.9209L104.663 41.9095C104.524 41.6179 104.405 41.4291 104.305 41.3429C104.206 41.2502 104.083 41.2038 103.938 41.2038C103.918 41.2038 103.908 41.1839 103.908 41.1442C103.908 41.1044 103.918 41.0845 103.938 41.0845C104.057 41.0845 104.153 41.0878 104.226 41.0945L104.802 41.1044L105.538 41.0945C105.644 41.0878 105.79 41.0845 105.975 41.0845C105.995 41.0845 106.005 41.1044 106.005 41.1442C106.005 41.1839 105.995 41.2038 105.975 41.2038C105.584 41.2038 105.389 41.28 105.389 41.4324C105.389 41.4721 105.405 41.5252 105.438 41.5914L106.581 43.8475L107.337 42.0188C107.383 41.9061 107.406 41.7968 107.406 41.6908C107.406 41.5318 107.347 41.4125 107.227 41.333C107.115 41.2469 106.946 41.2038 106.72 41.2038C106.707 41.2038 106.701 41.1839 106.701 41.1442C106.701 41.1044 106.707 41.0845 106.72 41.0845C106.899 41.0845 107.035 41.0878 107.128 41.0945L107.724 41.1044L108.112 41.0945C108.185 41.0878 108.301 41.0845 108.46 41.0845ZM109.737 39.9416C109.564 39.9416 109.429 39.8952 109.329 39.8024C109.236 39.7097 109.19 39.5772 109.19 39.4049C109.19 39.2392 109.236 39.1133 109.329 39.0272C109.429 38.9344 109.564 38.8881 109.737 38.8881C109.902 38.8881 110.032 38.9344 110.124 39.0272C110.217 39.1133 110.263 39.2392 110.263 39.4049C110.263 39.5772 110.217 39.7097 110.124 39.8024C110.038 39.8952 109.909 39.9416 109.737 39.9416ZM108.822 44.9209C108.802 44.9209 108.792 44.901 108.792 44.8613C108.792 44.8215 108.802 44.8016 108.822 44.8016C109.048 44.8016 109.197 44.7553 109.27 44.6625C109.342 44.5697 109.379 44.3875 109.379 44.1159V42.307C109.379 42.0817 109.356 41.9194 109.309 41.82C109.263 41.714 109.183 41.661 109.071 41.661C108.971 41.661 108.842 41.7007 108.683 41.7802H108.673C108.647 41.7802 108.627 41.7637 108.614 41.7306C108.6 41.6974 108.604 41.6742 108.624 41.661L110.055 40.9951L110.085 40.9851C110.111 40.9851 110.138 41.0017 110.164 41.0348C110.197 41.0613 110.214 41.0845 110.214 41.1044V41.3131C110.2 41.5914 110.194 41.9194 110.194 42.2971V44.1159C110.194 44.3875 110.23 44.5697 110.303 44.6625C110.383 44.7553 110.535 44.8016 110.76 44.8016C110.78 44.8016 110.79 44.8215 110.79 44.8613C110.79 44.901 110.78 44.9209 110.76 44.9209C110.595 44.9209 110.462 44.9176 110.363 44.911L109.786 44.901L109.21 44.911C109.117 44.9176 108.988 44.9209 108.822 44.9209ZM113.341 45.0402C112.91 45.0402 112.542 44.9474 112.238 44.7619C111.939 44.5697 111.717 44.3246 111.572 44.0264C111.426 43.7216 111.353 43.4036 111.353 43.0723C111.353 42.6549 111.466 42.2904 111.691 41.979C111.916 41.661 112.204 41.4191 112.556 41.2535C112.913 41.0812 113.274 40.9951 113.639 40.9951C113.95 40.9951 114.232 41.058 114.484 41.1839C114.735 41.3098 114.861 41.4788 114.861 41.6908C114.861 41.8034 114.818 41.9028 114.732 41.989C114.646 42.0685 114.527 42.1082 114.374 42.1082C114.123 42.1082 113.94 41.9591 113.828 41.661C113.761 41.4953 113.692 41.3794 113.619 41.3131C113.546 41.2402 113.43 41.2038 113.271 41.2038C112.96 41.2038 112.711 41.3463 112.526 41.6312C112.347 41.9095 112.257 42.2838 112.257 42.7542C112.257 43.3042 112.383 43.7514 112.635 44.096C112.893 44.4339 113.294 44.6029 113.838 44.6029C114.023 44.6029 114.189 44.5797 114.335 44.5333C114.48 44.4869 114.639 44.414 114.812 44.3146H114.822C114.841 44.3146 114.858 44.3246 114.871 44.3444C114.891 44.3643 114.894 44.3809 114.881 44.3941C114.636 44.6128 114.394 44.7751 114.156 44.8811C113.917 44.9872 113.646 45.0402 113.341 45.0402ZM118.907 44.2948C118.92 44.2948 118.934 44.308 118.947 44.3345C118.967 44.361 118.97 44.3809 118.957 44.3941C118.712 44.6194 118.466 44.7851 118.221 44.8911C117.976 44.9905 117.711 45.0402 117.426 45.0402C117.022 45.0402 116.671 44.9507 116.373 44.7718C116.081 44.5929 115.856 44.3577 115.697 44.0662C115.544 43.7746 115.468 43.4599 115.468 43.122C115.468 42.7311 115.564 42.3733 115.756 42.0486C115.949 41.7239 116.21 41.4688 116.542 41.2833C116.88 41.0912 117.254 40.9951 117.665 40.9951C118.062 40.9951 118.37 41.0912 118.589 41.2833C118.808 41.4755 118.917 41.7604 118.917 42.138C118.917 42.3302 118.877 42.4263 118.798 42.4263L116.373 42.4362C116.366 42.4958 116.363 42.5853 116.363 42.7046C116.363 43.2876 116.495 43.7514 116.76 44.096C117.032 44.4339 117.416 44.6029 117.913 44.6029C118.099 44.6029 118.254 44.583 118.38 44.5432C118.506 44.4968 118.675 44.4173 118.887 44.3047L118.907 44.2948ZM117.307 41.1939C117.062 41.1939 116.86 41.2899 116.701 41.4821C116.548 41.6676 116.446 41.926 116.393 42.2573L117.983 42.2275C117.969 41.5384 117.744 41.1939 117.307 41.1939ZM120.378 41.6013C120.378 41.8068 120.448 41.979 120.587 42.1182C120.733 42.2573 120.942 42.4031 121.213 42.5555C121.452 42.688 121.634 42.7973 121.76 42.8835C121.892 42.9696 122.005 43.0855 122.098 43.2313C122.197 43.3771 122.247 43.5527 122.247 43.7581C122.247 43.9833 122.191 44.1921 122.078 44.3842C121.965 44.5764 121.796 44.7321 121.571 44.8513C121.352 44.9706 121.091 45.0302 120.786 45.0302C120.421 45.0302 120.087 44.9375 119.782 44.7519C119.742 44.7122 119.722 44.6724 119.722 44.6327L119.703 43.7183C119.703 43.6984 119.719 43.6885 119.752 43.6885C119.792 43.6819 119.815 43.6852 119.822 43.6984C119.934 44.0297 120.103 44.3014 120.329 44.5134C120.561 44.7254 120.806 44.8314 121.064 44.8314C121.23 44.8314 121.359 44.7884 121.452 44.7022C121.545 44.6161 121.591 44.4869 121.591 44.3146C121.591 44.0629 121.518 43.8641 121.372 43.7183C121.226 43.5659 121.014 43.4168 120.736 43.2711C120.511 43.1518 120.335 43.0524 120.209 42.9729C120.084 42.8868 119.974 42.7741 119.881 42.635C119.795 42.4892 119.752 42.3103 119.752 42.0983C119.752 41.7206 119.888 41.439 120.16 41.2535C120.438 41.068 120.773 40.9752 121.164 40.9752C121.422 40.9752 121.687 41.0249 121.959 41.1243C122.018 41.1508 122.048 41.1872 122.048 41.2336C122.048 41.386 122.045 41.5053 122.038 41.5914L122.028 42.0685C122.028 42.0883 122.008 42.0983 121.969 42.0983C121.929 42.0983 121.909 42.0883 121.909 42.0685C121.909 41.936 121.856 41.8001 121.75 41.661C121.644 41.5152 121.508 41.3959 121.342 41.3032C121.177 41.2104 121.008 41.164 120.836 41.164C120.531 41.164 120.378 41.3098 120.378 41.6013Z" fill="white"/>
</svg>
