<svg width="15" height="16" viewBox="0 0 15 16" fill="none" xmlns="http://www.w3.org/2000/svg">
<g clip-path="url(#clip0_162_3776)">
<path d="M13.2698 15.8711H13.1718C1.83943 15.2192 0.23041 5.65379 0.00549307 2.73456C-0.0126299 2.50758 0.0141949 2.27926 0.0844303 2.06268C0.154666 1.84609 0.266931 1.6455 0.414795 1.47239C0.562658 1.29929 0.743213 1.15707 0.946114 1.05389C1.14902 0.950704 1.37027 0.888587 1.59721 0.871094H4.77489C5.0059 0.870871 5.23165 0.940042 5.4229 1.06965C5.61416 1.19926 5.7621 1.38333 5.84757 1.59802L6.72417 3.75571C6.80858 3.96545 6.82952 4.19537 6.78441 4.41692C6.73929 4.63846 6.63011 4.84187 6.47042 5.00186L5.24203 6.24225C5.43391 7.33306 5.9561 8.33859 6.73795 9.1228C7.51981 9.90701 8.52359 10.432 9.61349 10.6269L10.865 9.38648C11.0273 9.22849 11.2325 9.12181 11.4551 9.07975C11.6776 9.03769 11.9076 9.0621 12.1164 9.14994L14.2906 10.0211C14.502 10.1093 14.6823 10.2585 14.8087 10.4496C14.935 10.6407 15.0016 10.8651 15 11.0942V14.1403C15 14.5994 14.8177 15.0396 14.4932 15.3642C14.1688 15.6887 13.7287 15.8711 13.2698 15.8711ZM1.73563 2.02494C1.58267 2.02494 1.43598 2.08572 1.32783 2.19392C1.21967 2.30211 1.15891 2.44885 1.15891 2.60186V2.64802C1.4242 6.0634 3.1255 14.1403 13.2352 14.7172C13.311 14.7219 13.3869 14.7116 13.4587 14.6869C13.5305 14.6621 13.5967 14.6235 13.6535 14.5731C13.7102 14.5227 13.7565 14.4616 13.7897 14.3933C13.8228 14.3249 13.8421 14.2507 13.8465 14.1749V11.0942L11.6724 10.223L10.0172 11.8672L9.74037 11.8326C4.72299 11.2038 4.04247 6.18456 4.04247 6.13263L4.00786 5.85571L5.64572 4.19994L4.78066 2.02494H1.73563Z" fill="#6E6F6F"/>
</g>
<defs>
<clipPath id="clip0_162_3776">
<rect width="15" height="15" fill="white" transform="translate(0 0.871094)"/>
</clipPath>
</defs>
</svg>
