<svg width="150" height="56" viewBox="0 0 150 56" fill="none" xmlns="http://www.w3.org/2000/svg">
<path d="M51.4417 50.284H50.0905V52.6107H47.6138V43.8538H51.6169C52.4093 43.8538 53.0974 43.9872 53.6811 44.254C54.2648 44.5125 54.7153 44.8878 55.0322 45.3799C55.3491 45.8637 55.5074 46.4349 55.5074 47.0939C55.5074 47.7277 55.3574 48.2824 55.0571 48.7576C54.7652 49.2248 54.3442 49.5918 53.7937 49.8586L55.6826 52.6107H53.0307L51.4417 50.284ZM53.0055 47.0939C53.0055 46.6851 52.8762 46.3682 52.6177 46.1429C52.3592 45.9179 51.9756 45.8053 51.4666 45.8053H50.0905V48.3698H51.4666C51.9756 48.3698 52.3592 48.2613 52.6177 48.0446C52.8762 47.8193 53.0055 47.5024 53.0055 47.0939ZM65.1558 50.6966V52.6107H58.125V43.8538H64.993V45.7677H60.5769V47.2439H64.4677V49.0955H60.5769V50.6966H65.1558ZM76.5412 43.8538L72.7883 52.6107H70.3488L66.6083 43.8538H69.2855L71.6624 49.5583L74.0894 43.8538H76.5412ZM78.3048 43.8538H80.7818V52.6107H78.3048V43.8538ZM90.8256 50.6966V52.6107H83.7952V43.8538H90.6632V45.7677H86.2471V47.2439H90.1376V49.0955H86.2471V50.6966H90.8256ZM107.065 43.8538L104.225 52.6107H101.573L99.8968 47.2816L98.1454 52.6107H95.4934L92.6535 43.8538H95.2056L96.9697 49.4456L98.821 43.8538H101.098L102.862 49.4957L104.701 43.8538H107.065ZM109.786 52.7234C109.386 52.7234 109.049 52.59 108.773 52.3229C108.498 52.0561 108.361 51.7184 108.361 51.3096C108.361 50.8925 108.494 50.5549 108.761 50.2964C109.036 50.0379 109.378 49.9087 109.786 49.9087C110.203 49.9087 110.546 50.0379 110.812 50.2964C111.079 50.5549 111.213 50.8925 111.213 51.3096C111.213 51.7184 111.075 52.0561 110.8 52.3229C110.533 52.59 110.195 52.7234 109.786 52.7234ZM117.814 52.7859C116.897 52.7859 116.071 52.5941 115.337 52.2105C114.611 51.8183 114.04 51.2764 113.623 50.5843C113.206 49.8918 112.997 49.108 112.997 48.2323C112.997 47.3566 113.206 46.5725 113.623 45.8803C114.04 45.1881 114.611 44.6501 115.337 44.2665C116.071 43.8746 116.897 43.6786 117.814 43.6786C118.614 43.6786 119.336 43.8203 119.978 44.104C120.62 44.3874 121.154 44.7962 121.579 45.3298L120.003 46.756C119.436 46.0721 118.748 45.7303 117.939 45.7303C117.464 45.7303 117.038 45.8344 116.663 46.043C116.296 46.2514 116.008 46.5476 115.8 46.9312C115.6 47.3065 115.499 47.7402 115.499 48.2323C115.499 48.7244 115.6 49.1622 115.8 49.5458C116.008 49.9211 116.296 50.2131 116.663 50.4215C117.038 50.6299 117.464 50.7343 117.939 50.7343C118.748 50.7343 119.436 50.3922 120.003 49.7083L121.579 51.1344C121.154 51.6683 120.62 52.0768 119.978 52.3605C119.336 52.6442 118.614 52.7859 117.814 52.7859ZM128.168 52.7859C127.242 52.7859 126.408 52.59 125.666 52.1978C124.932 51.8059 124.352 51.2637 123.927 50.5715C123.51 49.8793 123.301 49.0997 123.301 48.2323C123.301 47.3649 123.51 46.5849 123.927 45.8927C124.352 45.2006 124.932 44.6584 125.666 44.2665C126.408 43.8746 127.242 43.6786 128.168 43.6786C129.093 43.6786 129.923 43.8746 130.657 44.2665C131.399 44.6584 131.979 45.2006 132.396 45.8927C132.821 46.5849 133.034 47.3649 133.034 48.2323C133.034 49.0997 132.821 49.8793 132.396 50.5715C131.979 51.2637 131.399 51.8059 130.657 52.1978C129.923 52.59 129.093 52.7859 128.168 52.7859ZM128.168 50.7343C128.61 50.7343 129.01 50.6299 129.369 50.4215C129.727 50.2131 130.011 49.9211 130.219 49.5458C130.428 49.1622 130.532 48.7244 130.532 48.2323C130.532 47.7402 130.428 47.3065 130.219 46.9312C130.011 46.5476 129.727 46.2514 129.369 46.043C129.01 45.8344 128.61 45.7303 128.168 45.7303C127.726 45.7303 127.325 45.8344 126.967 46.043C126.608 46.2514 126.324 46.5476 126.116 46.9312C125.908 47.3065 125.803 47.7402 125.803 48.2323C125.803 48.7244 125.908 49.1622 126.116 49.5458C126.324 49.9211 126.608 50.2131 126.967 50.4215C127.325 50.6299 127.726 50.7343 128.168 50.7343ZM143.489 52.6107L143.464 47.9696L141.212 51.7475H140.111L137.872 48.0947V52.6107H135.582V43.8538H137.621L140.699 48.9079L143.702 43.8538H145.74L145.766 52.6107H143.489Z" fill="black"/>
<path d="M59.9339 32.6275H57.3024V39.8637H47.5992V11.0831H61.4553C64.1138 11.0831 66.4302 11.5216 68.4036 12.3988C70.377 13.2759 71.8984 14.5368 72.9673 16.1814C74.0363 17.826 74.5708 19.7447 74.5708 21.9375C74.5708 23.9933 74.1048 25.7886 73.1731 27.3236C72.241 28.8585 70.8979 30.0784 69.1438 30.9829L75.1877 39.8637H64.8267L59.9339 32.6275ZM64.7855 21.9375C64.7855 20.8685 64.4565 20.0462 63.7987 19.4706C63.1408 18.8676 62.154 18.566 60.8384 18.566H57.3024V25.3089H60.8384C62.154 25.3089 63.1408 25.0211 63.7987 24.4455C64.4565 23.8425 64.7855 23.0065 64.7855 21.9375ZM91.8851 40.5215C88.8427 40.5215 86.1015 39.891 83.6621 38.6302C81.2227 37.3419 79.3038 35.5602 77.9061 33.2853C76.5356 30.9829 75.8502 28.3789 75.8502 25.4734C75.8502 22.5679 76.5356 19.9777 77.9061 17.7026C79.3038 15.4002 81.2227 13.6185 83.6621 12.3576C86.1015 11.0694 88.8427 10.4252 91.8851 10.4252C94.6809 10.4252 97.1754 10.9186 99.3682 11.9054C101.561 12.8921 103.37 14.3175 104.795 16.1814L98.6692 21.6497C96.8876 19.402 94.7905 18.2782 92.3787 18.2782C90.3501 18.2782 88.7194 18.9361 87.4859 20.2518C86.2524 21.54 85.6358 23.2806 85.6358 25.4734C85.6358 27.6662 86.2524 29.4204 87.4859 30.7362C88.7194 32.0243 90.3501 32.6684 92.3787 32.6684C94.7905 32.6684 96.8876 31.5446 98.6692 29.2971L104.795 34.7655C103.37 36.6292 101.561 38.0545 99.3682 39.0414C97.1754 40.0282 94.6809 40.5215 91.8851 40.5215ZM106.363 11.0831H116.067V39.8637H106.363V11.0831Z" fill="#009EF8"/>
<path d="M133.926 40.5215C130.883 40.5215 128.142 39.891 125.703 38.6302C123.263 37.3419 121.344 35.5602 119.947 33.2853C118.576 30.9829 117.891 28.3789 117.891 25.4734C117.891 22.5679 118.576 19.9777 119.947 17.7026C121.344 15.4002 123.263 13.6185 125.703 12.3576C128.142 11.0694 130.883 10.4252 133.926 10.4252C136.722 10.4252 139.216 10.9186 141.409 11.9054C143.601 12.8921 145.411 14.3175 146.836 16.1814L140.71 21.6497C138.928 19.402 136.831 18.2782 134.419 18.2782C132.391 18.2782 130.76 18.9361 129.526 20.2518C128.293 21.54 127.676 23.2806 127.676 25.4734C127.676 27.6662 128.293 29.4204 129.526 30.7362C130.76 32.0243 132.391 32.6684 134.419 32.6684C136.831 32.6684 138.928 31.5446 140.71 29.2971L146.836 34.7655C145.411 36.6292 143.601 38.0545 141.409 39.0414C139.216 40.0282 136.722 40.5215 133.926 40.5215Z" fill="#009EF8"/>
<path fill-rule="evenodd" clip-rule="evenodd" d="M33.3285 40.536C35.5633 37.4842 36.9 33.7353 36.9 29.6715C36.9 19.4984 28.623 11.2213 18.45 11.2213C8.27698 11.2213 0 19.4984 0 29.6715C0 39.8444 8.27707 48.1217 18.4501 48.1217C22.5139 48.1217 26.263 46.7847 29.3149 44.5499L37.6918 52.6205L41.4018 48.6043L33.3285 40.536ZM21.5642 21.0836L23.8791 17.3482L26.0824 21.6422L28.5178 20.7788L27.4819 29.0975L30.0886 30.6669L24.7164 34.5357L28.7477 38.5004L27.6641 39.6022L23.6236 35.6287L19.7546 41.0009L18.1852 38.3942L9.86653 39.43L10.7299 36.9947L6.43595 34.7913L10.1712 32.4766L8.4279 30.4119L13.0689 30.1934L7.96968 26.502L10.7781 25.1536L9.83081 20.7431L14.2413 21.6904L15.5897 18.882L19.2813 23.9812L19.4997 19.3402L21.5642 21.0836Z" fill="#009EF8"/>
</svg>
