<svg width="150" height="24" viewBox="0 0 150 24" fill="none" xmlns="http://www.w3.org/2000/svg">
<path d="M38.722 18.15L34.8312 13.1415C37.3293 12.5566 39.0758 10.9258 39.0758 8.22283V8.17666C39.0758 6.82084 38.5801 5.61462 37.7426 4.77633C36.6725 3.7062 34.9967 3.06589 32.9058 3.06589H26.7334C26.1269 3.06589 25.6044 3.58321 25.6044 4.21828V18.9434C25.6044 19.5786 26.1269 20.096 26.7334 20.096C27.366 20.096 27.885 19.5772 27.885 18.9434V13.5697H32.3068L36.8854 19.5177C37.1368 19.853 37.4763 20.096 37.9235 20.096C38.5009 20.096 39.0758 19.5734 39.0758 18.9659C39.0758 18.6579 38.9446 18.401 38.722 18.15ZM36.7717 8.24722L36.7719 8.2942H36.7717C36.7717 10.2992 35.08 11.4772 32.7403 11.4772H27.885V5.20536H32.7639C35.2788 5.20536 36.7717 6.33295 36.7717 8.24722Z" fill="black"/>
<path d="M42.4015 18.8258C42.4015 19.4601 42.9241 19.9776 43.5305 19.9776H53.8966C54.4845 19.9776 54.9542 19.5071 54.9542 18.9192C54.9542 18.3321 54.4847 17.8615 53.8966 17.8615H44.6823V12.5088H52.7188C53.3069 12.5088 53.7772 12.0391 53.7772 11.4512C53.7772 10.8925 53.3069 10.3927 52.7188 10.3927H44.6823V5.18278H53.7791C54.3659 5.18278 54.8375 4.71222 54.8375 4.12433C54.8375 3.53644 54.3659 3.06589 53.7791 3.06589H43.5305C42.9243 3.06589 42.4015 3.58321 42.4015 4.21848V18.8258Z" fill="black"/>
<path d="M64.5325 20.1545L64.6561 20.1541C65.2732 20.1435 65.6577 19.7959 65.9016 19.2525L72.2902 4.49602C72.3471 4.35408 72.3759 4.21215 72.3759 4.04179C72.3759 3.46136 71.8852 2.93617 71.2469 2.93617C70.741 2.93617 70.3378 3.31802 70.1402 3.71136C70.138 3.71579 70.136 3.72023 70.134 3.72486L64.6039 16.9715L59.0955 3.77184C58.8992 3.29403 58.4988 2.93617 57.9365 2.93617C57.3002 2.93617 56.7831 3.48797 56.7831 4.06437C56.7831 4.26578 56.8137 4.40892 56.899 4.58029L63.2553 19.2481C63.4769 19.8005 63.8964 20.1545 64.5325 20.1545Z" fill="black"/>
<path d="M75.4005 4.08857V18.9312C75.4005 19.5665 75.9231 20.0838 76.5295 20.0838C77.1622 20.0838 77.6811 19.565 77.6811 18.9312V4.08857C77.6811 3.45471 77.1622 2.93617 76.5295 2.93617C75.9231 2.93617 75.4005 3.4533 75.4005 4.08857Z" fill="black"/>
<path d="M93.2533 3.06629L93.2259 3.06589H82.9767C82.3713 3.06589 81.8485 3.58321 81.8485 4.21848V18.8258C81.8485 19.4601 82.3711 19.9776 82.9767 19.9776C82.9765 19.9776 93.3434 19.9776 93.3434 19.9776C93.9305 19.9776 94.4011 19.5071 94.4011 18.9192C94.4011 18.3321 93.9305 17.8615 93.3434 17.8615H84.1291V12.5088H92.1648C92.7539 12.5088 93.2233 12.0391 93.2233 11.4512C93.2233 10.8925 92.7539 10.3927 92.1648 10.3927H84.1291V5.18278H93.2259C93.8128 5.18278 94.2843 4.71222 94.2843 4.12433C94.2843 3.54572 93.8273 3.08061 93.2533 3.06629Z" fill="black"/>
<path d="M113.469 20.1769H113.662C114.212 20.1652 114.607 19.7886 114.8 19.235C114.799 19.2368 120.078 4.58331 120.078 4.58331C120.078 4.5813 120.079 4.57948 120.08 4.57747C120.132 4.41618 120.208 4.22566 120.208 4.06437C120.208 3.48677 119.661 2.93617 119.055 2.93617C118.512 2.93617 118.132 3.29544 117.96 3.80954C117.961 3.80732 113.595 16.3665 113.595 16.3665L109.477 3.80994C109.306 3.29705 108.929 2.93617 108.36 2.93617V2.93799L108.241 2.93617C107.643 2.93617 107.294 3.29705 107.123 3.80994L103.006 16.3661L98.6625 3.85349C98.4942 3.34886 98.0626 2.93617 97.4981 2.93617C96.8656 2.93617 96.3229 3.48414 96.3229 4.08796C96.3229 4.25187 96.3725 4.41558 96.4269 4.57848L101.706 19.2354C101.9 19.8156 102.295 20.166 102.844 20.1769H103.037C103.586 20.1652 103.982 19.7884 104.175 19.2346L108.242 7.14818L112.331 19.235C112.525 19.7886 112.921 20.1652 113.469 20.1769Z" fill="black"/>
<path d="M132.104 15.4738V15.5208C132.104 17.0427 130.712 18.1149 128.639 18.1149C126.601 18.1149 125.088 17.4974 123.577 16.2171L123.573 16.2133C123.424 16.0673 123.16 15.9466 122.867 15.9466C122.257 15.9466 121.76 16.4375 121.76 17.0756C121.76 17.4538 121.938 17.7732 122.199 17.9516C124.073 19.4392 126.117 20.2074 128.568 20.2074C131.975 20.2074 134.408 18.2735 134.408 15.3327V15.2847C134.408 12.6719 132.681 11.2463 128.871 10.4157C128.871 10.4157 128.871 10.4155 128.871 10.4155C125.41 9.67354 124.56 8.89996 124.56 7.41613V7.36915C124.56 5.9837 125.86 4.91699 127.861 4.91699C129.348 4.91699 130.652 5.33029 132.002 6.31393C132.002 6.31434 132.003 6.31454 132.003 6.31494C132.204 6.45929 132.406 6.51897 132.667 6.51897C133.277 6.51897 133.772 6.02543 133.772 5.41355C133.772 4.98312 133.518 4.66518 133.287 4.492C133.286 4.49119 133.285 4.49018 133.284 4.48938C131.741 3.38033 130.127 2.82449 127.908 2.82449C124.643 2.82449 122.279 4.83413 122.279 7.53447L122.489 7.74455C122.488 7.74455 122.279 7.53588 122.279 7.53588V7.57963L122.489 7.79071L122.279 7.58084C122.279 10.387 124.053 11.6922 127.981 12.5457C127.982 12.5457 127.982 12.5459 127.983 12.5459C131.279 13.2416 132.104 14.016 132.104 15.4738Z" fill="black"/>
<path d="M137.013 17.7818L136.994 17.7816C136.551 17.7816 136.235 18.0989 136.235 18.5267L136.361 18.6527L136.235 18.5267V18.7904C136.235 19.2176 136.551 19.5491 136.994 19.5491C137.42 19.5491 137.739 19.2184 137.739 18.7904C137.739 18.8602 137.682 18.9164 137.613 18.9164C137.613 18.9164 137.739 18.9023 137.739 18.7846V18.5267C137.739 18.1047 137.431 17.7914 137.013 17.7818ZM136.372 18.9146C136.365 18.916 136.361 18.9164 136.361 18.9164C136.365 18.9164 136.369 18.9164 136.372 18.916L136.372 18.9146Z" fill="black"/>
<path d="M139.709 12.9855V18.9019C139.709 19.2628 139.989 19.5421 140.348 19.5421C140.711 19.5421 140.976 19.2636 140.976 18.9019V12.9855C140.976 12.6237 140.697 12.3454 140.336 12.3454C139.991 12.3454 139.709 12.6406 139.709 12.9855ZM139.617 10.5739H139.617C139.617 10.9608 139.934 11.24 140.336 11.24C140.754 11.24 141.068 10.96 141.068 10.5739V10.4033C141.068 10.0007 140.754 9.73622 140.336 9.73622C139.934 9.73622 139.617 9.99993 139.617 10.4033L139.617 10.5739Z" fill="black"/>
<path fill-rule="evenodd" clip-rule="evenodd" d="M150 15.9505L150 15.9219C150 13.9288 148.445 12.2635 146.33 12.2635C144.202 12.2635 142.646 13.9562 142.646 15.9479L142.672 15.9741L142.646 15.9487V15.9741C142.646 17.9664 144.188 19.6315 146.303 19.6315C148.431 19.6315 149.999 17.941 150 15.9505ZM148.707 15.9741V15.9479C148.707 14.5564 147.67 13.411 146.303 13.411C144.9 13.411 143.938 14.556 143.938 15.9219V15.9479C143.938 17.3392 144.964 18.4698 146.33 18.4698C147.733 18.4698 148.707 17.3398 148.707 15.9741Z" fill="black"/>
<path fill-rule="evenodd" clip-rule="evenodd" d="M18.7433 4.36656L17.7305 4.87462C19.705 6.46914 20.6703 8.52877 20.8498 11.0211C20.6998 15.8316 18.43 18.9235 14.5311 20.2495C10.0266 21.6067 7.17223 20.5085 4.41019 17.6943L4.23621 18.7761L5.35917 19.9463C9.26533 24.0169 15.7416 24.1506 19.8123 20.2444C23.883 16.3381 24.0166 9.86201 20.1103 5.79113L18.7433 4.36656Z" fill="#FEEF7C"/>
<path fill-rule="evenodd" clip-rule="evenodd" d="M3.68784 18.1765L4.36646 17.5838C1.54696 13.5883 1.42882 7.73884 5.2874 4.51855C8.14762 2.1315 13.8229 0.894231 18.3633 4.89193L18.7022 4.29577L17.5958 3.14257C13.6894 -0.928108 7.21337 -1.06177 3.14249 2.84459C-0.928185 6.75076 -1.06165 13.227 2.84451 17.2977L3.68784 18.1765Z" fill="#5CD3CB"/>
<path d="M1.24524 11.5812C1.24524 17.2371 5.83103 21.8229 11.4869 21.8229C17.1439 21.8229 21.7295 17.2371 21.7295 11.5812C21.7295 5.92427 17.1439 1.33849 11.4869 1.33849C5.83103 1.33849 1.24524 5.92427 1.24524 11.5812ZM8.37391 13.4336C8.48157 13.0929 8.36182 12.7215 8.07553 12.5076C7.31748 11.9415 5.82296 10.8254 4.81875 10.0754C4.67379 9.96713 4.61452 9.77822 4.67157 9.60645C4.72863 9.43468 4.88911 9.31895 5.07016 9.31895H8.96241C9.3247 9.31895 9.64606 9.0867 9.75997 8.74296C10.0668 7.81617 10.6767 5.97427 11.0811 4.75333C11.138 4.58176 11.2982 4.46563 11.4791 4.46543C11.6599 4.46523 11.8208 4.58075 11.8781 4.75212C12.2867 5.97407 12.9039 7.81899 13.2137 8.74538C13.3284 9.08791 13.6492 9.31895 14.0105 9.31895C14.9312 9.31895 16.705 9.31895 17.9126 9.31895C18.0931 9.31895 18.2535 9.43428 18.3108 9.60564C18.368 9.77701 18.3096 9.96572 18.1652 10.0744C17.164 10.8286 15.6687 11.9548 14.9123 12.5245C14.6276 12.7388 14.5093 13.1096 14.6167 13.4491C14.9093 14.3729 15.4959 16.2255 15.8923 17.4768C15.9475 17.6516 15.883 17.8424 15.7328 17.9476C15.5826 18.0528 15.3816 18.0486 15.2361 17.9369C14.2302 17.1648 12.7607 16.0368 11.9912 15.4462C11.6886 15.214 11.2676 15.2146 10.9658 15.4481C10.2037 16.0372 8.75415 17.1581 7.75679 17.9292C7.61163 18.0415 7.41022 18.0466 7.25962 17.9413C7.10902 17.8363 7.0441 17.6456 7.09934 17.4706C7.49571 16.2156 8.08158 14.3598 8.37391 13.4336Z" fill="black"/>
</svg>
