<svg width="131" height="21" viewBox="0 0 131 21" fill="none" xmlns="http://www.w3.org/2000/svg">
<path d="M33.9573 16.2187L30.5888 11.8825C32.7516 11.3761 34.2636 9.96421 34.2636 7.62409V7.58412C34.2636 6.41031 33.8344 5.36601 33.1094 4.64026C32.1829 3.71378 30.7321 3.15942 28.9219 3.15942H23.578C23.053 3.15942 22.6006 3.6073 22.6006 4.15712V16.9055C22.6006 17.4555 23.053 17.9034 23.578 17.9034C24.1258 17.9034 24.575 17.4543 24.575 16.9055V12.2532H28.4033L32.3672 17.4028C32.5849 17.693 32.8788 17.9034 33.2659 17.9034C33.7658 17.9034 34.2636 17.4509 34.2636 16.925C34.2636 16.6583 34.15 16.436 33.9573 16.2187ZM32.2688 7.64521L32.2689 7.68588H32.2688C32.2688 9.42172 30.8042 10.4416 28.7786 10.4416H24.575V5.01169H28.799C30.9763 5.01169 32.2688 5.98791 32.2688 7.64521Z" fill="black"/>
<path d="M37.1426 16.8037C37.1426 17.3528 37.595 17.8009 38.12 17.8009H47.0946C47.6035 17.8009 48.0102 17.3935 48.0102 16.8845C48.0102 16.3763 47.6037 15.9689 47.0946 15.9689H39.1172V11.3347H46.0749C46.584 11.3347 46.9912 10.928 46.9912 10.4191C46.9912 9.93541 46.584 9.50271 46.0749 9.50271H39.1172V4.99214H46.9928C47.5009 4.99214 47.9092 4.58475 47.9092 4.07578C47.9092 3.56681 47.5009 3.15942 46.9928 3.15942H38.12C37.5952 3.15942 37.1426 3.6073 37.1426 4.15729V16.8037Z" fill="black"/>
<path d="M56.3029 17.9538L56.4099 17.9535C56.9442 17.9442 57.277 17.6433 57.4882 17.1729L63.0192 4.39732C63.0684 4.27445 63.0934 4.15157 63.0934 4.00408C63.0934 3.50156 62.6685 3.04688 62.1159 3.04688C61.678 3.04688 61.3289 3.37746 61.1578 3.718C61.1559 3.72184 61.1542 3.72568 61.1524 3.72969L56.3647 15.1981L51.5958 3.77036C51.4258 3.35669 51.0791 3.04688 50.5923 3.04688C50.0415 3.04688 49.5938 3.5246 49.5938 4.02362C49.5938 4.19799 49.6203 4.32192 49.6941 4.47028L55.1971 17.1691C55.389 17.6473 55.7522 17.9538 56.3029 17.9538Z" fill="black"/>
<path d="M65.7119 4.04457V16.8947C65.7119 17.4447 66.1643 17.8926 66.6894 17.8926C67.2371 17.8926 67.6864 17.4435 67.6864 16.8947V4.04457C67.6864 3.4958 67.2371 3.04688 66.6894 3.04688C66.1643 3.04688 65.7119 3.49458 65.7119 4.04457Z" fill="black"/>
<path d="M81.1682 3.15977L81.1445 3.15942H72.2712C71.747 3.15942 71.2944 3.6073 71.2944 4.15729V16.8037C71.2944 17.3528 71.7468 17.8009 72.2712 17.8009C72.271 17.8009 81.2463 17.8009 81.2463 17.8009C81.7545 17.8009 82.1619 17.3935 82.1619 16.8845C82.1619 16.3763 81.7545 15.9689 81.2463 15.9689H73.2689V11.3347H80.2259C80.7359 11.3347 81.1422 10.928 81.1422 10.4191C81.1422 9.93541 80.7359 9.50271 80.2259 9.50271H73.2689V4.99214H81.1445C81.6526 4.99214 82.0608 4.58475 82.0608 4.07578C82.0608 3.57484 81.6652 3.17217 81.1682 3.15977Z" fill="black"/>
<path d="M98.6698 17.9732H98.8374C99.3132 17.9631 99.6553 17.637 99.8227 17.1577C99.822 17.1593 104.392 4.4729 104.392 4.4729C104.392 4.47116 104.393 4.46959 104.393 4.46784C104.439 4.3282 104.504 4.16326 104.504 4.02362C104.504 3.52356 104.031 3.04688 103.506 3.04688C103.036 3.04688 102.708 3.35791 102.558 3.803C102.559 3.80108 98.7789 14.6743 98.7789 14.6743L95.214 3.80335C95.0663 3.35931 94.7392 3.04688 94.2467 3.04688V3.04845L94.144 3.04688C93.6262 3.04688 93.3237 3.35931 93.176 3.80335L89.6113 14.674L85.8513 3.84105C85.7055 3.40417 85.3318 3.04688 84.8431 3.04688C84.2956 3.04688 83.8257 3.52129 83.8257 4.04405C83.8257 4.18595 83.8686 4.32768 83.9158 4.46871L88.486 17.1581C88.6541 17.6604 88.9964 17.9638 89.4713 17.9732H89.6389C90.114 17.9631 90.457 17.6369 90.6235 17.1574L94.1446 6.69345L97.6852 17.1577C97.8526 17.637 98.1956 17.9631 98.6698 17.9732Z" fill="black"/>
<path d="M114.803 13.9017V13.9424C114.803 15.26 113.598 16.1882 111.803 16.1882C110.039 16.1882 108.73 15.6536 107.421 14.5452L107.418 14.5419C107.288 14.4156 107.06 14.311 106.806 14.311C106.279 14.311 105.848 14.736 105.848 15.2885C105.848 15.6159 106.002 15.8924 106.228 16.0468C107.851 17.3348 109.62 17.9998 111.742 17.9998C114.691 17.9998 116.798 16.3256 116.798 13.7795V13.738C116.798 11.4759 115.303 10.2417 112.005 9.52256C112.005 9.52256 112.004 9.52238 112.004 9.52238C109.008 8.88006 108.272 8.21033 108.272 6.92569V6.88502C108.272 5.68555 109.398 4.76203 111.13 4.76203C112.417 4.76203 113.546 5.11985 114.715 5.97145C114.715 5.9718 114.716 5.97198 114.716 5.97232C114.89 6.0973 115.065 6.14896 115.291 6.14896C115.819 6.14896 116.247 5.72168 116.247 5.19194C116.247 4.81929 116.027 4.54403 115.828 4.3941C115.827 4.3934 115.826 4.39252 115.825 4.39183C114.489 3.43166 113.091 2.95044 111.17 2.95044C108.344 2.95044 106.297 4.6903 106.297 7.02814L106.479 7.21002C106.479 7.21002 106.297 7.02937 106.297 7.02937V7.06724L106.479 7.24999L106.297 7.06829C106.297 9.49777 107.833 10.6278 111.234 11.3666C111.235 11.3666 111.235 11.3668 111.235 11.3668C114.089 11.9691 114.803 12.6396 114.803 13.9017Z" fill="black"/>
<path d="M119.053 15.9003L119.036 15.9001C118.653 15.9001 118.379 16.1749 118.379 16.5453L118.488 16.6544L118.379 16.5453V16.7736C118.379 17.1434 118.653 17.4304 119.036 17.4304C119.406 17.4304 119.681 17.1441 119.681 16.7736C119.681 16.834 119.632 16.8827 119.572 16.8827C119.572 16.8827 119.681 16.8704 119.681 16.7685V16.5453C119.681 16.1799 119.415 15.9087 119.053 15.9003ZM118.498 16.8811C118.492 16.8823 118.488 16.8827 118.488 16.8827C118.492 16.8827 118.495 16.8827 118.498 16.8823L118.498 16.8811Z" fill="black"/>
<path d="M121.388 11.7477V16.8699C121.388 17.1823 121.63 17.4241 121.941 17.4241C122.255 17.4241 122.484 17.183 122.484 16.8699V11.7477C122.484 11.4344 122.243 11.1935 121.93 11.1935C121.632 11.1935 121.388 11.4491 121.388 11.7477ZM121.308 9.6598H121.308C121.308 9.99475 121.582 10.2365 121.93 10.2365C122.292 10.2365 122.564 9.99405 122.564 9.6598V9.51214C122.564 9.16357 122.292 8.93457 121.93 8.93457C121.582 8.93457 121.308 9.16287 121.308 9.51214L121.308 9.6598Z" fill="black"/>
<path fill-rule="evenodd" clip-rule="evenodd" d="M130.297 14.3146L130.297 14.2898C130.297 12.5643 128.95 11.1226 127.119 11.1226C125.277 11.1226 123.93 12.588 123.93 14.3124L123.952 14.335L123.93 14.3131V14.335C123.93 16.0599 125.265 17.5015 127.096 17.5015C128.939 17.5015 130.296 16.0379 130.297 14.3146ZM129.178 14.335V14.3124C129.178 13.1077 128.28 12.1161 127.096 12.1161C125.881 12.1161 125.049 13.1073 125.049 14.2898V14.3124C125.049 15.5169 125.936 16.4957 127.119 16.4957C128.334 16.4957 129.178 15.5174 129.178 14.335Z" fill="black"/>
<path fill-rule="evenodd" clip-rule="evenodd" d="M16.6603 4.2854L15.7834 4.72525C17.4928 6.10572 18.3286 7.88887 18.4839 10.0466C18.354 14.2114 16.389 16.8882 13.0135 18.0362C9.11367 19.2112 6.64247 18.2605 4.25122 15.824L4.10059 16.7606L5.0728 17.7737C8.45459 21.2979 14.0615 21.4136 17.5857 18.0318C21.1099 14.6498 21.2257 9.04313 17.8437 5.51873L16.6603 4.2854Z" fill="#FEEF7C"/>
<path fill-rule="evenodd" clip-rule="evenodd" d="M3.62589 16.2416L4.2134 15.7284C1.7724 12.2693 1.67012 7.2051 5.01072 4.4171C7.48698 2.35049 12.4004 1.27932 16.3313 4.74036L16.6247 4.22423L15.6668 3.22583C12.2849 -0.29839 6.67814 -0.414113 3.15375 2.96786C-0.370479 6.34965 -0.486028 11.9565 2.89577 15.4808L3.62589 16.2416Z" fill="#5CD3CB"/>
<path d="M1.51123 10.5313C1.51123 15.428 5.48142 19.3981 10.3781 19.3981C15.2756 19.3981 19.2456 15.428 19.2456 10.5313C19.2456 5.63376 15.2756 1.66357 10.3781 1.66357C5.48142 1.66357 1.51123 5.63376 1.51123 10.5313ZM7.68294 12.135C7.77615 11.84 7.67247 11.5185 7.42462 11.3333C6.76833 10.8432 5.47443 9.87693 4.60503 9.22763C4.47953 9.1339 4.42822 8.97035 4.47761 8.82164C4.52701 8.67292 4.66594 8.57274 4.82269 8.57274H8.19244C8.50609 8.57274 8.78432 8.37166 8.88294 8.07406C9.14859 7.27168 9.67659 5.67705 10.0267 4.62001C10.0759 4.47147 10.2147 4.37093 10.3713 4.37076C10.5278 4.37058 10.6671 4.4706 10.7167 4.61896C11.0705 5.67687 11.6048 7.27413 11.8731 8.07616C11.9724 8.37271 12.2501 8.57274 12.5629 8.57274C13.36 8.57274 14.8956 8.57274 15.9412 8.57274C16.0974 8.57274 16.2363 8.67258 16.2859 8.82094C16.3355 8.9693 16.2848 9.13267 16.1599 9.22675C15.2931 9.87972 13.9985 10.8547 13.3436 11.348C13.0971 11.5335 12.9947 11.8545 13.0877 12.1485C13.341 12.9482 13.8489 14.5521 14.192 15.6355C14.2399 15.7868 14.184 15.9519 14.054 16.0431C13.924 16.1342 13.7499 16.1305 13.6239 16.0338C12.7531 15.3653 11.4809 14.3887 10.8146 13.8775C10.5526 13.6764 10.1882 13.6769 9.92688 13.8791C9.26711 14.3891 8.01213 15.3595 7.14866 16.0272C7.02299 16.1244 6.84862 16.1288 6.71824 16.0376C6.58785 15.9467 6.53165 15.7816 6.57947 15.6301C6.92263 14.5435 7.42985 12.9369 7.68294 12.135Z" fill="black"/>
</svg>
