<svg width="197" height="77" viewBox="0 0 197 77" fill="none" xmlns="http://www.w3.org/2000/svg">
<path d="M47.0729 11.8894C47.0729 8.88412 46.3794 6.54348 44.9923 4.86746C43.6631 3.19144 41.727 2.35344 39.1841 2.35344C39.0685 2.35344 39.0107 2.18006 39.0107 1.8333C39.0107 1.48654 39.0685 1.31316 39.1841 1.31316L43.1718 1.39985C45.368 1.51543 47.1018 1.57322 48.3733 1.57322C49.4135 1.57322 50.974 1.51543 53.0545 1.39985L56.8689 1.31316C56.9845 1.31316 57.0423 1.48654 57.0423 1.8333C57.0423 2.18006 56.9845 2.35344 56.8689 2.35344C54.615 2.35344 52.8523 3.19144 51.5808 4.86746C50.3671 6.54348 49.7603 8.88412 49.7603 11.8894V36.1627C49.7603 40.3238 48.8645 43.9648 47.0729 47.0857C45.3391 50.1488 42.854 52.5183 39.6175 54.1943C36.4389 55.8703 32.7401 56.7083 28.5212 56.7083C24.3022 56.7083 20.5456 55.8992 17.2514 54.281C13.9572 52.605 11.3853 50.2354 9.53595 47.1724C7.74435 44.0515 6.84854 40.4105 6.84854 36.2494V8.33508C6.84854 6.60127 6.67516 5.32981 6.3284 4.5207C5.98164 3.71159 5.34591 3.16255 4.42121 2.87358C3.55431 2.52682 2.16726 2.35344 0.260071 2.35344C0.0866904 2.35344 0 2.18006 0 1.8333C0 1.48654 0.0866904 1.31316 0.260071 1.31316L4.76797 1.39985C7.31089 1.51543 9.36257 1.57322 10.923 1.57322C12.6568 1.57322 14.7952 1.51543 17.3381 1.39985L21.6726 1.31316C21.846 1.31316 21.9327 1.48654 21.9327 1.8333C21.9327 2.18006 21.846 2.35344 21.6726 2.35344C19.7654 2.35344 18.3495 2.52682 17.4248 2.87358C16.5001 3.22034 15.8643 3.82718 15.5176 4.69408C15.2286 5.50319 15.0841 6.77465 15.0841 8.50846V33.2152C15.0841 40.0927 16.5001 45.2363 19.332 48.6461C22.2216 51.9982 26.2383 53.6742 31.3819 53.6742C36.2944 53.6742 40.1377 52.1715 42.9118 49.1663C45.6859 46.1032 47.0729 41.7976 47.0729 36.2494V11.8894Z" fill="white"/>
<path d="M77.2561 48.4727C77.2561 50.2643 77.4006 51.5647 77.6895 52.3738C77.9785 53.1829 78.5564 53.732 79.4233 54.0209C80.348 54.3099 81.7929 54.4544 83.7579 54.4544C83.9312 54.4544 84.0179 54.6278 84.0179 54.9745C84.0179 55.3213 83.9312 55.4947 83.7579 55.4947C81.9085 55.4947 80.4347 55.4658 79.3366 55.408L72.9215 55.3213L66.6798 55.408C65.5818 55.4658 64.0791 55.4947 62.1719 55.4947C61.9986 55.4947 61.9119 55.3213 61.9119 54.9745C61.9119 54.6278 61.9986 54.4544 62.1719 54.4544C64.1369 54.4544 65.5529 54.3099 66.4198 54.0209C67.3445 53.732 67.9802 53.1829 68.327 52.3738C68.6737 51.5069 68.8471 50.2066 68.8471 48.4727V8.33508C68.8471 6.60127 68.6737 5.32981 68.327 4.5207C67.9802 3.71159 67.3445 3.16255 66.4198 2.87358C65.5529 2.52682 64.1369 2.35344 62.1719 2.35344C61.9986 2.35344 61.9119 2.18006 61.9119 1.8333C61.9119 1.48654 61.9986 1.31316 62.1719 1.31316L66.6798 1.39985C69.2227 1.51543 71.3033 1.57322 72.9215 1.57322C74.7132 1.57322 76.8804 1.51543 79.4233 1.39985L83.7579 1.31316C83.9312 1.31316 84.0179 1.48654 84.0179 1.8333C84.0179 2.18006 83.9312 2.35344 83.7579 2.35344C81.8507 2.35344 80.4347 2.52682 79.51 2.87358C78.6431 3.22034 78.0363 3.82718 77.6895 4.69408C77.4006 5.50319 77.2561 6.77465 77.2561 8.50846V48.4727Z" fill="white"/>
<path d="M101.951 10.5023C101.951 12.6407 102.471 14.5479 103.512 16.2239C104.61 17.8421 105.939 19.2581 107.5 20.4717C109.118 21.6854 111.285 23.1302 114.001 24.8063C116.949 26.6557 119.261 28.245 120.937 29.5742C122.67 30.9035 124.115 32.5506 125.271 34.5156C126.485 36.4228 127.092 38.6767 127.092 41.2774C127.092 44.2249 126.311 46.8545 124.751 49.1663C123.248 51.478 121.081 53.2985 118.249 54.6278C115.475 55.8992 112.296 56.535 108.713 56.535C106.286 56.535 103.772 56.2171 101.171 55.5814C98.6282 54.9456 96.6921 54.1654 95.3629 53.2407C94.8427 52.894 94.5537 52.3449 94.4959 51.5936L93.9758 38.4167V38.33C93.9758 38.0988 94.1203 37.9832 94.4093 37.9832C94.6982 37.9254 94.8716 38.0121 94.9294 38.2433C96.8366 43.0401 99.0038 46.9701 101.431 50.0332C103.916 53.0962 107.066 54.6278 110.88 54.6278C113.366 54.6278 115.446 53.9631 117.122 52.6339C118.798 51.2468 119.636 48.964 119.636 45.7853C119.636 43.2424 119.058 41.0174 117.902 39.1102C116.804 37.203 115.417 35.6137 113.741 34.3422C112.123 33.0707 109.898 31.5103 107.066 29.6609C104.292 27.8693 102.125 26.3667 100.564 25.153C99.0039 23.8816 97.6746 22.35 96.5765 20.5584C95.4784 18.709 94.9294 16.5707 94.9294 14.1433C94.9294 11.1381 95.7674 8.59515 97.4434 6.51458C99.1194 4.43401 101.287 2.90248 103.945 1.91999C106.662 0.879701 109.493 0.359558 112.441 0.359558C114.406 0.359558 116.371 0.561837 118.336 0.966394C120.301 1.31315 121.948 1.7755 123.277 2.35344C124.144 2.7002 124.578 3.24924 124.578 4.00056L124.838 15.7905C124.838 15.9638 124.664 16.0794 124.317 16.1372C124.028 16.195 123.855 16.1372 123.797 15.9638C122.641 12.4384 121.081 9.25978 119.116 6.42789C117.209 3.53821 114.319 2.09336 110.447 2.09336C107.846 2.09336 105.766 2.84468 104.205 4.34732C102.703 5.84995 101.951 7.90163 101.951 10.5023Z" fill="white"/>
<path d="M168.447 57.0681C152.691 57.0431 139.907 44.2344 139.932 28.5028C139.957 12.7084 152.766 -0.0375524 168.56 8.31322e-05C184.329 0.0502639 197.025 12.8213 197 28.6157C196.962 44.3473 184.166 57.0932 168.447 57.0681ZM178.132 39.7683C177.906 38.9654 177.743 38.2504 177.492 37.5729C177.216 36.7951 177.417 36.2306 178.044 35.7037C180.641 33.5334 183.213 31.3254 185.797 29.13C185.96 28.992 186.123 28.8415 186.337 28.6407C185.747 28.3522 185.245 28.1013 184.731 27.8504C183.978 27.4866 183.915 27.3611 184.129 26.5332C184.417 25.4041 184.731 24.275 185.019 23.1334C185.195 22.4309 185.371 21.7409 185.571 20.9756C185.333 21.0133 185.195 21.0133 185.057 21.0509C183.765 21.3269 182.485 21.6029 181.193 21.8914C179.976 22.1549 179.876 22.1047 179.537 20.8753C179.387 20.3233 179.236 19.7838 179.048 19.1064C177.731 20.6495 176.526 22.0671 175.31 23.4721C174.996 23.8359 174.682 24.4005 174.105 24.137C173.503 23.861 173.716 23.2212 173.804 22.732C174.268 20.0724 174.757 17.4254 175.234 14.7783C175.309 14.3769 175.36 13.9754 175.435 13.436C174.544 13.9127 173.779 14.3518 173.001 14.7407C172.261 15.117 171.847 14.979 171.471 14.2389C170.567 12.4951 169.677 10.7388 168.773 8.99498C168.673 8.80681 168.56 8.61863 168.41 8.35518C167.393 10.3248 166.44 12.1815 165.487 14.0382C164.972 15.0418 164.646 15.1547 163.655 14.6278C162.94 14.2514 162.237 13.8625 161.46 13.4485C161.46 13.6492 161.447 13.7496 161.46 13.85C161.836 15.945 162.212 18.0401 162.589 20.1477C162.764 21.1513 162.99 22.1549 163.103 23.171C163.141 23.4847 162.877 23.8234 162.752 24.1621C162.438 24.0367 162.125 23.9363 161.823 23.7983C161.723 23.7481 161.66 23.6101 161.573 23.5223C160.469 22.2302 159.377 20.9505 158.273 19.6584C158.148 19.5079 157.997 19.3699 157.796 19.144C157.571 19.9595 157.37 20.6495 157.182 21.352C157.031 21.904 156.692 22.1047 156.153 21.9918C155.802 21.9165 155.463 21.8413 155.112 21.766C153.882 21.5025 152.64 21.2265 151.311 20.938C151.373 21.2391 151.411 21.4398 151.461 21.6405C151.9 23.3216 152.327 25.0026 152.778 26.6712C152.929 27.2357 152.791 27.587 152.239 27.8128C151.674 28.0511 151.147 28.3522 150.52 28.6533C150.859 28.9418 151.097 29.1551 151.323 29.3558C153.857 31.5136 156.391 33.6588 158.925 35.8041C159.452 36.2557 159.628 36.7449 159.415 37.4098C159.176 38.15 158.988 38.9153 158.75 39.7432C159.227 39.6931 159.603 39.668 159.967 39.6178C162.313 39.3418 164.659 39.0533 167.005 38.7773C167.782 38.6894 167.996 38.9027 167.958 39.668C167.845 42.4655 167.732 45.2631 167.632 48.0607C167.619 48.2614 167.632 48.4622 167.632 48.6629C168.146 48.6629 168.573 48.6629 169.075 48.6629C169.075 48.4245 169.075 48.2238 169.075 48.0231C169.012 45.4513 168.962 42.8795 168.899 40.3078C168.861 38.6769 168.911 38.6393 170.517 38.84C173.051 39.1662 175.51 39.4547 178.132 39.7683Z" fill="#F35C5C"/>
<path d="M178.132 39.7683C175.51 39.4547 173.039 39.1661 170.58 38.8525C168.974 38.6518 168.924 38.6894 168.962 40.3203C169.024 42.892 169.087 45.4638 169.137 48.0356C169.137 48.2363 169.137 48.437 169.137 48.6754C168.636 48.6754 168.209 48.6754 167.695 48.6754C167.695 48.4746 167.682 48.2739 167.695 48.0732C167.808 45.2756 167.92 42.478 168.021 39.6805C168.046 38.9027 167.845 38.6894 167.067 38.7898C164.721 39.0532 162.375 39.3543 160.03 39.6303C159.666 39.6805 159.289 39.7056 158.813 39.7557C159.051 38.9278 159.239 38.1625 159.478 37.4223C159.691 36.7574 159.515 36.2556 158.988 35.8165C156.442 33.6713 153.92 31.5135 151.386 29.3683C151.148 29.1676 150.909 28.9669 150.583 28.6658C151.21 28.3522 151.737 28.0511 152.302 27.8253C152.854 27.5995 152.992 27.2482 152.841 26.6837C152.39 25.0151 151.963 23.3341 151.524 21.653C151.474 21.4523 151.436 21.2641 151.373 20.9505C152.703 21.239 153.945 21.5025 155.175 21.7785C155.526 21.8538 155.865 21.929 156.216 22.0043C156.755 22.1172 157.107 21.9165 157.245 21.3645C157.433 20.662 157.633 19.9594 157.859 19.1565C158.06 19.3698 158.21 19.5203 158.336 19.6709C159.44 20.963 160.531 22.2427 161.635 23.5348C161.711 23.6352 161.786 23.7606 161.886 23.8108C162.187 23.9488 162.501 24.0617 162.815 24.1746C162.94 23.8484 163.203 23.4972 163.166 23.1835C163.053 22.1674 162.827 21.1638 162.651 20.1602C162.275 18.0651 161.899 15.9701 161.522 13.8625C161.51 13.7621 161.522 13.6617 161.522 13.461C162.288 13.875 163.003 14.2639 163.718 14.6403C164.696 15.1546 165.035 15.0417 165.549 14.0506C166.503 12.194 167.456 10.3373 168.472 8.36768C168.623 8.63112 168.748 8.8193 168.836 9.00748C169.74 10.7513 170.63 12.5076 171.533 14.2514C171.91 14.9915 172.324 15.1295 173.064 14.7532C173.842 14.3643 174.595 13.9252 175.498 13.4485C175.41 13.9879 175.36 14.3894 175.297 14.7908C174.82 17.4378 174.331 20.0974 173.867 22.7445C173.779 23.2463 173.566 23.8735 174.168 24.1495C174.745 24.413 175.059 23.861 175.372 23.4846C176.589 22.0796 177.794 20.662 179.111 19.1189C179.299 19.7838 179.449 20.3358 179.6 20.8878C179.939 22.1047 180.039 22.1674 181.256 21.9039C182.536 21.6154 183.828 21.3394 185.12 21.0634C185.258 21.0383 185.396 21.0258 185.634 20.9881C185.434 21.7534 185.27 22.4559 185.082 23.1459C184.781 24.275 184.48 25.404 184.192 26.5457C183.978 27.3736 184.041 27.4991 184.794 27.8629C185.296 28.1138 185.797 28.3647 186.4 28.6532C186.174 28.854 186.023 29.0045 185.86 29.1425C183.276 31.3379 180.704 33.5459 178.107 35.7162C177.467 36.2431 177.279 36.8076 177.555 37.5854C177.743 38.2503 177.906 38.9654 178.132 39.7683Z" fill="white"/>
<path d="M9.01599 64.1261C9.01599 63.5787 8.88967 63.1524 8.63703 62.8471C8.39492 62.5418 8.04228 62.3892 7.57911 62.3892C7.55806 62.3892 7.54753 62.3576 7.54753 62.2945C7.54753 62.2313 7.55806 62.1997 7.57911 62.1997L8.30545 62.2155C8.70545 62.2366 9.02125 62.2471 9.25283 62.2471C9.44231 62.2471 9.72653 62.2366 10.1055 62.2155L10.8002 62.1997C10.8213 62.1997 10.8318 62.2313 10.8318 62.2945C10.8318 62.3576 10.8213 62.3892 10.8002 62.3892C10.3897 62.3892 10.0686 62.5418 9.83706 62.8471C9.616 63.1524 9.50547 63.5787 9.50547 64.1261V68.5472C9.50547 69.3051 9.34231 69.9683 9.01599 70.5367C8.70019 71.0947 8.24755 71.5262 7.65806 71.8315C7.0791 72.1368 6.4054 72.2894 5.63697 72.2894C4.86853 72.2894 4.1843 72.142 3.58429 71.8473C2.98428 71.542 2.51584 71.1104 2.179 70.5525C1.85267 69.9841 1.68951 69.3209 1.68951 68.563V63.4787C1.68951 63.1629 1.65793 62.9313 1.59477 62.7839C1.53161 62.6366 1.41582 62.5366 1.2474 62.4839C1.0895 62.4208 0.83686 62.3892 0.489484 62.3892C0.457905 62.3892 0.442115 62.3576 0.442115 62.2945C0.442115 62.2313 0.457905 62.1997 0.489484 62.1997L1.31056 62.2155C1.77372 62.2366 2.14742 62.2471 2.43163 62.2471C2.74743 62.2471 3.13691 62.2366 3.60008 62.2155L4.38957 62.1997C4.42115 62.1997 4.43694 62.2313 4.43694 62.2945C4.43694 62.3576 4.42115 62.3892 4.38957 62.3892C4.04219 62.3892 3.78429 62.4208 3.61587 62.4839C3.44744 62.5471 3.33165 62.6576 3.26849 62.8155C3.21586 62.9629 3.18954 63.1945 3.18954 63.5103V68.0104C3.18954 69.263 3.44744 70.1999 3.96324 70.821C4.48957 71.4315 5.22117 71.7368 6.15803 71.7368C7.05279 71.7368 7.7528 71.4631 8.25808 70.9157C8.76335 70.3578 9.01599 69.5736 9.01599 68.563V64.1261ZM18.5669 71.8789C18.5984 71.8789 18.6142 71.9105 18.6142 71.9736C18.6142 72.0368 18.5984 72.0684 18.5669 72.0684C18.3037 72.0684 18.0984 72.0631 17.9511 72.0526L17.0352 72.0368L16.1352 72.0526C15.9773 72.0631 15.7668 72.0684 15.5036 72.0684C15.472 72.0684 15.4563 72.0368 15.4563 71.9736C15.4563 71.9105 15.472 71.8789 15.5036 71.8789C15.8615 71.8789 16.0984 71.8052 16.2142 71.6578C16.33 71.5105 16.3879 71.221 16.3879 70.7894V68.4209C16.3879 67.8314 16.2773 67.3998 16.0563 67.1261C15.8457 66.8419 15.5089 66.6998 15.0457 66.6998C14.772 66.6998 14.4931 66.763 14.2089 66.8893C13.9246 67.0156 13.6667 67.184 13.4352 67.3946V70.7894C13.4352 71.221 13.4931 71.5105 13.6089 71.6578C13.7246 71.8052 13.9615 71.8789 14.3194 71.8789C14.351 71.8789 14.3668 71.9105 14.3668 71.9736C14.3668 72.0368 14.351 72.0684 14.3194 72.0684C14.0562 72.0684 13.851 72.0631 13.7036 72.0526L12.7878 72.0368L11.872 72.0526C11.7246 72.0631 11.5193 72.0684 11.2562 72.0684C11.2246 72.0684 11.2088 72.0368 11.2088 71.9736C11.2088 71.9105 11.2246 71.8789 11.2562 71.8789C11.6141 71.8789 11.8509 71.8052 11.9667 71.6578C12.0825 71.5105 12.1404 71.221 12.1404 70.7894V67.7735C12.1404 67.4367 12.0983 67.1893 12.0141 67.0314C11.9404 66.8735 11.8141 66.7946 11.6351 66.7946C11.4772 66.7946 11.2141 66.8735 10.8456 67.0314H10.8298C10.7877 67.0314 10.7562 67.0051 10.7351 66.9525C10.7141 66.8998 10.7193 66.8682 10.7509 66.8577L12.8194 65.8472C12.8825 65.8261 12.9194 65.8156 12.9299 65.8156C13.0352 65.8156 13.1404 65.9366 13.2457 66.1788C13.3615 66.4103 13.4246 66.7156 13.4352 67.0946C14.172 66.2209 14.972 65.784 15.8352 65.784C16.4142 65.784 16.8668 65.963 17.1931 66.3209C17.5195 66.6682 17.6826 67.1419 17.6826 67.7419V70.7894C17.6826 71.221 17.7405 71.5105 17.8563 71.6578C17.9721 71.8052 18.209 71.8789 18.5669 71.8789ZM21.0212 64.1577C20.7475 64.1577 20.5317 64.084 20.3738 63.9366C20.2264 63.7892 20.1527 63.5787 20.1527 63.305C20.1527 63.0418 20.2264 62.8418 20.3738 62.705C20.5317 62.5576 20.7475 62.4839 21.0212 62.4839C21.2843 62.4839 21.4896 62.5576 21.637 62.705C21.7844 62.8418 21.858 63.0418 21.858 63.305C21.858 63.5787 21.7844 63.7892 21.637 63.9366C21.5001 64.084 21.2949 64.1577 21.0212 64.1577ZM19.5685 72.0684C19.5369 72.0684 19.5212 72.0368 19.5212 71.9736C19.5212 71.9105 19.5369 71.8789 19.5685 71.8789C19.9264 71.8789 20.1633 71.8052 20.2791 71.6578C20.3949 71.5105 20.4527 71.221 20.4527 70.7894V67.9156C20.4527 67.5577 20.4159 67.2998 20.3422 67.1419C20.2685 66.9735 20.1422 66.8893 19.9633 66.8893C19.8054 66.8893 19.6001 66.9525 19.3475 67.0788H19.3317C19.2896 67.0788 19.258 67.0525 19.2369 66.9998C19.2159 66.9472 19.2211 66.9104 19.2527 66.8893L21.5265 65.8314L21.5738 65.8156C21.6159 65.8156 21.658 65.8419 21.7001 65.8945C21.7528 65.9366 21.7791 65.9735 21.7791 66.0051V66.3367C21.758 66.7788 21.7475 67.2998 21.7475 67.8998V70.7894C21.7475 71.221 21.8054 71.5105 21.9212 71.6578C22.0475 71.8052 22.2896 71.8789 22.6475 71.8789C22.6791 71.8789 22.6949 71.9105 22.6949 71.9736C22.6949 72.0368 22.6791 72.0684 22.6475 72.0684C22.3844 72.0684 22.1738 72.0631 22.0159 72.0526L21.1001 72.0368L20.1843 72.0526C20.037 72.0631 19.8317 72.0684 19.5685 72.0684ZM30.1102 65.9735C30.1313 65.9735 30.1418 66.0051 30.1418 66.0682C30.1418 66.1314 30.1313 66.163 30.1102 66.163C29.8155 66.163 29.5576 66.2682 29.3365 66.4788C29.126 66.6893 28.9207 67.0261 28.7207 67.4893L26.7628 72.0684C26.7417 72.121 26.6891 72.1473 26.6049 72.1473C26.5101 72.1473 26.447 72.121 26.4154 72.0684L24.0785 67.284C23.8574 66.8209 23.668 66.5209 23.5101 66.384C23.3522 66.2367 23.1574 66.163 22.9258 66.163C22.8942 66.163 22.8785 66.1314 22.8785 66.0682C22.8785 66.0051 22.8942 65.9735 22.9258 65.9735C23.1153 65.9735 23.2679 65.9788 23.3837 65.9893L24.2995 66.0051L25.468 65.9893C25.6364 65.9788 25.868 65.9735 26.1627 65.9735C26.1943 65.9735 26.2101 66.0051 26.2101 66.0682C26.2101 66.1314 26.1943 66.163 26.1627 66.163C25.5417 66.163 25.2311 66.284 25.2311 66.5261C25.2311 66.5893 25.2575 66.6735 25.3101 66.7788L27.1259 70.3631L28.3259 67.4577C28.3996 67.2788 28.4365 67.1051 28.4365 66.9367C28.4365 66.684 28.3417 66.4946 28.1523 66.3682C27.9733 66.2314 27.7049 66.163 27.347 66.163C27.3259 66.163 27.3154 66.1314 27.3154 66.0682C27.3154 66.0051 27.3259 65.9735 27.347 65.9735C27.6312 65.9735 27.847 65.9788 27.9944 65.9893L28.9418 66.0051L29.5576 65.9893C29.6733 65.9788 29.8576 65.9735 30.1102 65.9735ZM35.9757 71.0736C35.9968 71.0736 36.0179 71.0947 36.0389 71.1368C36.0705 71.1789 36.0757 71.2104 36.0547 71.2315C35.6652 71.5894 35.2757 71.8526 34.8862 72.021C34.4968 72.1789 34.0757 72.2578 33.6231 72.2578C32.9809 72.2578 32.423 72.1157 31.9493 71.8315C31.4862 71.5473 31.1283 71.1736 30.8756 70.7104C30.6335 70.2473 30.5125 69.7473 30.5125 69.2104C30.5125 68.5893 30.6651 68.0209 30.9704 67.5051C31.2756 66.9893 31.6914 66.584 32.2178 66.2893C32.7546 65.984 33.3494 65.8314 34.002 65.8314C34.6336 65.8314 35.1231 65.984 35.4705 66.2893C35.8178 66.5946 35.9915 67.0472 35.9915 67.6472C35.9915 67.9525 35.9284 68.1051 35.8021 68.1051L31.9493 68.1209C31.9388 68.2156 31.9336 68.3578 31.9336 68.5472C31.9336 69.4736 32.1441 70.2104 32.5651 70.7578C32.9967 71.2947 33.6073 71.5631 34.3968 71.5631C34.6915 71.5631 34.9389 71.5315 35.1389 71.4683C35.3389 71.3947 35.6073 71.2683 35.9442 71.0894L35.9757 71.0736ZM33.4336 66.1472C33.0441 66.1472 32.723 66.2998 32.4704 66.6051C32.2283 66.8998 32.0651 67.3104 31.9809 67.8367L34.5073 67.7893C34.4862 66.6946 34.1283 66.1472 33.4336 66.1472ZM41.1396 65.8156C41.3817 65.8156 41.6133 65.8945 41.8344 66.0524C42.0554 66.2103 42.166 66.3998 42.166 66.6209C42.166 66.8209 42.1028 66.984 41.9765 67.1104C41.8607 67.2367 41.6975 67.2998 41.487 67.2998C41.3502 67.2998 41.2344 67.2735 41.1396 67.2209C41.0554 67.1577 40.9659 67.0735 40.8712 66.9682C40.7765 66.8735 40.6923 66.8051 40.6186 66.763C40.5449 66.7103 40.4554 66.684 40.3501 66.684C40.2344 66.684 40.108 66.7314 39.9712 66.8261C39.8449 66.9104 39.6449 67.0946 39.3712 67.3788V70.7894C39.3712 71.0841 39.4133 71.3104 39.4975 71.4683C39.5817 71.6157 39.7238 71.721 39.9238 71.7841C40.1238 71.8473 40.4186 71.8789 40.808 71.8789C40.8502 71.8789 40.8712 71.9105 40.8712 71.9736C40.8712 72.0368 40.8502 72.0684 40.808 72.0684C40.4607 72.0684 40.1817 72.0631 39.9712 72.0526L38.7238 72.0368L37.808 72.0526C37.6606 72.0631 37.4553 72.0684 37.1922 72.0684C37.1606 72.0684 37.1448 72.0368 37.1448 71.9736C37.1448 71.9105 37.1606 71.8789 37.1922 71.8789C37.5501 71.8789 37.7869 71.8052 37.9027 71.6578C38.0185 71.5105 38.0764 71.221 38.0764 70.7894V67.7735C38.0764 67.4367 38.0343 67.1893 37.9501 67.0314C37.8764 66.8735 37.7501 66.7946 37.5711 66.7946C37.4132 66.7946 37.1501 66.8735 36.7816 67.0314H36.7659C36.7237 67.0314 36.6922 67.0051 36.6711 66.9525C36.6501 66.8998 36.6553 66.8682 36.6869 66.8577L38.7554 65.8472C38.8185 65.8261 38.8554 65.8156 38.8659 65.8156C38.9712 65.8156 39.0764 65.9314 39.1817 66.163C39.287 66.384 39.3501 66.6788 39.3712 67.0472C39.7817 66.584 40.1238 66.263 40.3975 66.084C40.6712 65.9051 40.9186 65.8156 41.1396 65.8156ZM44.219 66.7946C44.219 67.1209 44.3295 67.3946 44.5506 67.6156C44.7822 67.8367 45.1138 68.0683 45.5454 68.3104C45.9243 68.5209 46.2138 68.6946 46.4138 68.8314C46.6243 68.9683 46.8033 69.1525 46.9507 69.3841C47.1086 69.6157 47.1875 69.8946 47.1875 70.221C47.1875 70.5789 47.098 70.9104 46.9191 71.2157C46.7401 71.521 46.4717 71.7684 46.1138 71.9578C45.7664 72.1473 45.3506 72.242 44.8664 72.242C44.2874 72.242 43.7558 72.0947 43.2716 71.7999C43.2085 71.7368 43.1769 71.6736 43.1769 71.6105L43.1453 70.1578C43.1453 70.1262 43.1716 70.1104 43.2243 70.1104C43.2874 70.0999 43.3243 70.1052 43.3348 70.1262C43.5137 70.6525 43.7822 71.0841 44.1401 71.421C44.5085 71.7578 44.898 71.9263 45.3085 71.9263C45.5717 71.9263 45.7769 71.8578 45.9243 71.721C46.0717 71.5841 46.1454 71.3789 46.1454 71.1052C46.1454 70.7052 46.0296 70.3894 45.798 70.1578C45.5664 69.9157 45.2296 69.6788 44.7875 69.4472C44.4295 69.2578 44.1506 69.0999 43.9506 68.9736C43.7506 68.8367 43.5769 68.6578 43.4295 68.4367C43.2927 68.2051 43.2243 67.9209 43.2243 67.5841C43.2243 66.984 43.4401 66.5367 43.8716 66.2419C44.3138 65.9472 44.8453 65.7998 45.4664 65.7998C45.8769 65.7998 46.298 65.8788 46.7296 66.0366C46.8243 66.0788 46.8717 66.1367 46.8717 66.2103C46.8717 66.4524 46.8664 66.6419 46.8559 66.7788L46.8401 67.5367C46.8401 67.5683 46.8085 67.5841 46.7454 67.5841C46.6822 67.5841 46.6506 67.5683 46.6506 67.5367C46.6506 67.3262 46.5664 67.1104 46.398 66.8893C46.2296 66.6577 46.0138 66.4682 45.7506 66.3209C45.4875 66.1735 45.219 66.0998 44.9453 66.0998C44.4611 66.0998 44.219 66.3314 44.219 66.7946ZM54.3705 71.2157C54.4126 71.2157 54.4389 71.242 54.4495 71.2947C54.46 71.3368 54.4442 71.3683 54.4021 71.3894L52.7757 72.1631C52.7336 72.1842 52.6863 72.1947 52.6336 72.1947C52.4757 72.1947 52.3231 72.1052 52.1757 71.9263C52.0389 71.7368 51.9494 71.4894 51.9073 71.1841L51.181 71.6894C50.9283 71.8684 50.6968 71.9947 50.4862 72.0684C50.2862 72.142 50.0599 72.1789 49.8073 72.1789C49.3757 72.1789 49.0441 72.0789 48.8125 71.8789C48.5914 71.6684 48.4809 71.3947 48.4809 71.0578C48.4809 70.7736 48.5546 70.542 48.702 70.3631C48.8599 70.1841 49.0546 70.042 49.2862 69.9367C49.5283 69.8209 49.8809 69.6788 50.3441 69.5104L51.8757 68.942V67.9946C51.8757 67.3419 51.8073 66.8682 51.6705 66.5735C51.5441 66.2682 51.3389 66.1156 51.0547 66.1156C50.7073 66.1156 50.4546 66.2472 50.2967 66.5103C50.1494 66.763 50.0599 67.0472 50.0283 67.363C49.9652 67.8998 49.6967 68.1683 49.223 68.1683C48.9914 68.1683 48.8178 68.1156 48.702 68.0104C48.5967 67.9051 48.5441 67.7735 48.5441 67.6156C48.5441 67.3209 48.7178 67.0367 49.0651 66.763C49.423 66.4788 49.8494 66.2524 50.3441 66.084C50.8494 65.9051 51.2915 65.8156 51.6705 65.8156C52.1231 65.8156 52.481 65.9577 52.7442 66.2419C53.0179 66.5261 53.1547 66.9525 53.1547 67.5209V70.3631C53.1547 70.6894 53.2073 70.9368 53.3126 71.1052C53.4179 71.2736 53.5705 71.3578 53.7705 71.3578C53.9284 71.3578 54.1179 71.3104 54.3389 71.2157H54.3705ZM51.8757 70.9315V70.7736V69.2104L50.9283 69.6051C50.6546 69.7104 50.4283 69.8367 50.2494 69.9841C50.0809 70.1209 49.9967 70.321 49.9967 70.5841C49.9967 70.8368 50.0757 71.042 50.2336 71.1999C50.402 71.3473 50.602 71.421 50.8336 71.421C51.0231 71.421 51.2231 71.3578 51.4336 71.2315L51.8757 70.9315ZM54.9851 72.0684C54.9535 72.0684 54.9377 72.0368 54.9377 71.9736C54.9377 71.9105 54.9535 71.8789 54.9851 71.8789C55.3325 71.8789 55.5693 71.8052 55.6956 71.6578C55.8219 71.4999 55.8851 71.2104 55.8851 70.7894V62.7208C55.8851 62.3524 55.8483 62.0892 55.7746 61.9313C55.7114 61.7629 55.5904 61.6787 55.4114 61.6787C55.2535 61.6787 55.043 61.7418 54.7798 61.8681H54.764C54.7219 61.8681 54.6903 61.8418 54.6693 61.7892C54.6482 61.7366 54.6482 61.6997 54.6693 61.6787L56.8957 60.6365L56.9588 60.6207C57.0009 60.6207 57.0483 60.6418 57.1009 60.6839C57.1641 60.726 57.1957 60.7628 57.1957 60.7944V70.7894C57.1957 71.221 57.2536 71.5105 57.3693 71.6578C57.4851 71.8052 57.722 71.8789 58.0799 71.8789C58.1115 71.8789 58.1273 71.9105 58.1273 71.9736C58.1273 72.0368 58.1115 72.0684 58.0799 72.0684C57.8273 72.0684 57.622 72.0631 57.4641 72.0526L56.5325 72.0368L55.6167 72.0526C55.4588 72.0631 55.2482 72.0684 54.9851 72.0684ZM65.7225 70.7894C65.7225 71.1157 65.7488 71.3526 65.8015 71.4999C65.8541 71.6473 65.9594 71.7473 66.1173 71.7999C66.2857 71.8526 66.5489 71.8789 66.9068 71.8789C66.9383 71.8789 66.9541 71.9105 66.9541 71.9736C66.9541 72.0368 66.9383 72.0684 66.9068 72.0684C66.5699 72.0684 66.3015 72.0631 66.1015 72.0526L64.933 72.0368L63.7962 72.0526C63.5962 72.0631 63.3225 72.0684 62.9751 72.0684C62.9435 72.0684 62.9277 72.0368 62.9277 71.9736C62.9277 71.9105 62.9435 71.8789 62.9751 71.8789C63.333 71.8789 63.5909 71.8526 63.7488 71.7999C63.9172 71.7473 64.033 71.6473 64.0962 71.4999C64.1593 71.342 64.1909 71.1052 64.1909 70.7894V63.4787C64.1909 63.1629 64.1593 62.9313 64.0962 62.7839C64.033 62.6366 63.9172 62.5366 63.7488 62.4839C63.5909 62.4208 63.333 62.3892 62.9751 62.3892C62.9435 62.3892 62.9277 62.3576 62.9277 62.2945C62.9277 62.2313 62.9435 62.1997 62.9751 62.1997L63.7962 62.2155C64.2593 62.2366 64.6383 62.2471 64.933 62.2471C65.2594 62.2471 65.6541 62.2366 66.1173 62.2155L66.9068 62.1997C66.9383 62.1997 66.9541 62.2313 66.9541 62.2945C66.9541 62.3576 66.9383 62.3892 66.9068 62.3892C66.5594 62.3892 66.3015 62.4208 66.1331 62.4839C65.9752 62.5471 65.8646 62.6576 65.8015 62.8155C65.7488 62.9629 65.7225 63.1945 65.7225 63.5103V70.7894ZM79.5207 71.8789C79.5628 71.8789 79.5839 71.9105 79.5839 71.9736C79.5839 72.0368 79.5628 72.0684 79.5207 72.0684C79.2576 72.0684 79.047 72.0631 78.8891 72.0526L77.9891 72.0368L77.0891 72.0526C76.9312 72.0631 76.7207 72.0684 76.4575 72.0684C76.4259 72.0684 76.4101 72.0368 76.4101 71.9736C76.4101 71.9105 76.4259 71.8789 76.4575 71.8789C76.8049 71.8789 77.0417 71.8052 77.168 71.6578C77.2944 71.4999 77.3575 71.2104 77.3575 70.7894V68.4367C77.3575 67.8472 77.2523 67.4104 77.0417 67.1261C76.8417 66.8419 76.5312 66.6998 76.1101 66.6998C75.8259 66.6998 75.5417 66.7682 75.2575 66.9051C74.9733 67.0419 74.7259 67.2261 74.5154 67.4577V67.6156V70.7894C74.5154 71.221 74.5733 71.5105 74.689 71.6578C74.8154 71.8052 75.0575 71.8789 75.4154 71.8789C75.447 71.8789 75.4627 71.9105 75.4627 71.9736C75.4627 72.0368 75.447 72.0684 75.4154 72.0684C75.1522 72.0684 74.9417 72.0631 74.7838 72.0526L73.868 72.0368L72.968 72.0526C72.8101 72.0631 72.5995 72.0684 72.3364 72.0684C72.3048 72.0684 72.289 72.0368 72.289 71.9736C72.289 71.9105 72.3048 71.8789 72.3364 71.8789C72.6943 71.8789 72.9311 71.8052 73.0469 71.6578C73.1732 71.5105 73.2364 71.221 73.2364 70.7894V68.4367C73.2364 67.8472 73.1311 67.4104 72.9206 67.1261C72.7206 66.8419 72.41 66.6998 71.989 66.6998C71.7258 66.6998 71.4574 66.763 71.1837 66.8893C70.91 67.0156 70.6679 67.184 70.4574 67.3946V70.7894C70.4574 71.221 70.5153 71.5105 70.6311 71.6578C70.7469 71.8052 70.9837 71.8789 71.3416 71.8789C71.3732 71.8789 71.389 71.9105 71.389 71.9736C71.389 72.0368 71.3732 72.0684 71.3416 72.0684C71.0784 72.0684 70.8732 72.0631 70.7258 72.0526L69.81 72.0368L68.8942 72.0526C68.7468 72.0631 68.5415 72.0684 68.2784 72.0684C68.2468 72.0684 68.231 72.0368 68.231 71.9736C68.231 71.9105 68.2468 71.8789 68.2784 71.8789C68.6363 71.8789 68.8731 71.8052 68.9889 71.6578C69.1047 71.5105 69.1626 71.221 69.1626 70.7894V67.7735C69.1626 67.4367 69.1205 67.1893 69.0363 67.0314C68.9626 66.8735 68.8363 66.7946 68.6573 66.7946C68.4994 66.7946 68.2363 66.8735 67.8678 67.0314H67.8521C67.8099 67.0314 67.7784 67.0051 67.7573 66.9525C67.7363 66.8998 67.7415 66.8682 67.7731 66.8577L69.8416 65.8472C69.9047 65.8261 69.9416 65.8156 69.9521 65.8156C70.0574 65.8156 70.1626 65.9366 70.2679 66.1788C70.3837 66.4103 70.4468 66.7156 70.4574 67.0946C71.1627 66.2314 71.9311 65.7998 72.7627 65.7998C73.2469 65.7998 73.6364 65.9209 73.9311 66.163C74.2259 66.3946 74.4101 66.7367 74.4838 67.1893C75.2312 66.263 76.0312 65.7998 76.8838 65.7998C77.4417 65.7998 77.8681 65.963 78.1628 66.2893C78.4681 66.6051 78.6207 67.0893 78.6207 67.7419V70.7894C78.6207 71.221 78.6786 71.5105 78.7944 71.6578C78.9207 71.8052 79.1628 71.8789 79.5207 71.8789ZM91.7178 71.8789C91.7599 71.8789 91.7809 71.9105 91.7809 71.9736C91.7809 72.0368 91.7599 72.0684 91.7178 72.0684C91.4546 72.0684 91.2441 72.0631 91.0862 72.0526L90.1861 72.0368L89.2861 72.0526C89.1282 72.0631 88.9177 72.0684 88.6545 72.0684C88.6229 72.0684 88.6072 72.0368 88.6072 71.9736C88.6072 71.9105 88.6229 71.8789 88.6545 71.8789C89.0019 71.8789 89.2388 71.8052 89.3651 71.6578C89.4914 71.4999 89.5545 71.2104 89.5545 70.7894V68.4367C89.5545 67.8472 89.4493 67.4104 89.2388 67.1261C89.0387 66.8419 88.7282 66.6998 88.3072 66.6998C88.0229 66.6998 87.7387 66.7682 87.4545 66.9051C87.1703 67.0419 86.9229 67.2261 86.7124 67.4577V67.6156V70.7894C86.7124 71.221 86.7703 71.5105 86.8861 71.6578C87.0124 71.8052 87.2545 71.8789 87.6124 71.8789C87.644 71.8789 87.6598 71.9105 87.6598 71.9736C87.6598 72.0368 87.644 72.0684 87.6124 72.0684C87.3492 72.0684 87.1387 72.0631 86.9808 72.0526L86.065 72.0368L85.165 72.0526C85.0071 72.0631 84.7965 72.0684 84.5334 72.0684C84.5018 72.0684 84.486 72.0368 84.486 71.9736C84.486 71.9105 84.5018 71.8789 84.5334 71.8789C84.8913 71.8789 85.1281 71.8052 85.2439 71.6578C85.3702 71.5105 85.4334 71.221 85.4334 70.7894V68.4367C85.4334 67.8472 85.3281 67.4104 85.1176 67.1261C84.9176 66.8419 84.6071 66.6998 84.186 66.6998C83.9228 66.6998 83.6544 66.763 83.3807 66.8893C83.107 67.0156 82.8649 67.184 82.6544 67.3946V70.7894C82.6544 71.221 82.7123 71.5105 82.8281 71.6578C82.9439 71.8052 83.1807 71.8789 83.5386 71.8789C83.5702 71.8789 83.586 71.9105 83.586 71.9736C83.586 72.0368 83.5702 72.0684 83.5386 72.0684C83.2755 72.0684 83.0702 72.0631 82.9228 72.0526L82.007 72.0368L81.0912 72.0526C80.9438 72.0631 80.7386 72.0684 80.4754 72.0684C80.4438 72.0684 80.428 72.0368 80.428 71.9736C80.428 71.9105 80.4438 71.8789 80.4754 71.8789C80.8333 71.8789 81.0702 71.8052 81.1859 71.6578C81.3017 71.5105 81.3596 71.221 81.3596 70.7894V67.7735C81.3596 67.4367 81.3175 67.1893 81.2333 67.0314C81.1596 66.8735 81.0333 66.7946 80.8544 66.7946C80.6965 66.7946 80.4333 66.8735 80.0649 67.0314H80.0491C80.007 67.0314 79.9754 67.0051 79.9543 66.9525C79.9333 66.8998 79.9385 66.8682 79.9701 66.8577L82.0386 65.8472C82.1018 65.8261 82.1386 65.8156 82.1491 65.8156C82.2544 65.8156 82.3597 65.9366 82.4649 66.1788C82.5807 66.4103 82.6439 66.7156 82.6544 67.0946C83.3597 66.2314 84.1281 65.7998 84.9597 65.7998C85.4439 65.7998 85.8334 65.9209 86.1282 66.163C86.4229 66.3946 86.6071 66.7367 86.6808 67.1893C87.4282 66.263 88.2282 65.7998 89.0809 65.7998C89.6388 65.7998 90.0651 65.963 90.3598 66.2893C90.6651 66.6051 90.8177 67.0893 90.8177 67.7419V70.7894C90.8177 71.221 90.8756 71.5105 90.9914 71.6578C91.1177 71.8052 91.3598 71.8789 91.7178 71.8789ZM94.1725 64.1577C93.8988 64.1577 93.683 64.084 93.5251 63.9366C93.3777 63.7892 93.304 63.5787 93.304 63.305C93.304 63.0418 93.3777 62.8418 93.5251 62.705C93.683 62.5576 93.8988 62.4839 94.1725 62.4839C94.4356 62.4839 94.6409 62.5576 94.7883 62.705C94.9356 62.8418 95.0093 63.0418 95.0093 63.305C95.0093 63.5787 94.9356 63.7892 94.7883 63.9366C94.6514 64.084 94.4461 64.1577 94.1725 64.1577ZM92.7198 72.0684C92.6882 72.0684 92.6724 72.0368 92.6724 71.9736C92.6724 71.9105 92.6882 71.8789 92.7198 71.8789C93.0777 71.8789 93.3145 71.8052 93.4303 71.6578C93.5461 71.5105 93.604 71.221 93.604 70.7894V67.9156C93.604 67.5577 93.5672 67.2998 93.4935 67.1419C93.4198 66.9735 93.2935 66.8893 93.1145 66.8893C92.9566 66.8893 92.7514 66.9525 92.4987 67.0788H92.4829C92.4408 67.0788 92.4093 67.0525 92.3882 66.9998C92.3672 66.9472 92.3724 66.9104 92.404 66.8893L94.6777 65.8314L94.7251 65.8156C94.7672 65.8156 94.8093 65.8419 94.8514 65.8945C94.9041 65.9366 94.9304 65.9735 94.9304 66.0051V66.3367C94.9093 66.7788 94.8988 67.2998 94.8988 67.8998V70.7894C94.8988 71.221 94.9567 71.5105 95.0725 71.6578C95.1988 71.8052 95.4409 71.8789 95.7988 71.8789C95.8304 71.8789 95.8462 71.9105 95.8462 71.9736C95.8462 72.0368 95.8304 72.0684 95.7988 72.0684C95.5356 72.0684 95.3251 72.0631 95.1672 72.0526L94.2514 72.0368L93.3356 72.0526C93.1882 72.0631 92.983 72.0684 92.7198 72.0684ZM100.182 71.5157C100.782 71.5262 101.272 71.5578 101.651 71.6105C102.03 71.6631 102.356 71.8105 102.63 72.0526C102.914 72.2947 103.056 72.6736 103.056 73.1894C103.056 73.7684 102.872 74.3105 102.504 74.8158C102.135 75.3316 101.646 75.7421 101.035 76.0474C100.425 76.3527 99.7719 76.5053 99.0772 76.5053C98.3508 76.5053 97.7613 76.3421 97.3087 76.0158C96.8666 75.6895 96.6455 75.2632 96.6455 74.7368C96.6455 73.9895 97.1824 73.2579 98.2561 72.5421C97.4771 72.3947 97.0876 72.021 97.0876 71.421C97.0876 71.0947 97.1771 70.7946 97.3561 70.521C97.5456 70.2473 97.8298 69.9788 98.2087 69.7157C97.8192 69.5367 97.514 69.2788 97.2929 68.942C97.0824 68.6051 96.9771 68.2472 96.9771 67.8683C96.9771 67.4577 97.1034 67.0998 97.3561 66.7946C97.6087 66.4893 97.935 66.2577 98.335 66.0998C98.7456 65.9419 99.1824 65.863 99.6456 65.863C100.319 65.863 100.877 66.0314 101.319 66.3682C101.604 66.1893 101.882 66.0577 102.156 65.9735C102.43 65.8788 102.725 65.8314 103.04 65.8314C103.114 65.8314 103.151 65.9682 103.151 66.2419C103.151 66.3893 103.13 66.5419 103.088 66.6998C103.056 66.8577 103.019 66.9209 102.977 66.8893C102.535 66.7209 102.156 66.6367 101.84 66.6367C101.746 66.6367 101.677 66.6419 101.635 66.6525C101.94 66.9893 102.093 67.3893 102.093 67.8525C102.093 68.2525 101.967 68.6157 101.714 68.942C101.461 69.2683 101.13 69.5209 100.719 69.6999C100.309 69.8788 99.8719 69.9683 99.4088 69.9683C99.0614 69.9683 98.7456 69.9209 98.4614 69.8262C98.2298 70.0473 98.114 70.3104 98.114 70.6157C98.114 70.9947 98.2666 71.2368 98.5719 71.342C98.8877 71.4473 99.4245 71.5052 100.182 71.5157ZM99.1719 66.1472C98.6035 66.1472 98.3193 66.5735 98.3193 67.4262C98.3193 67.8683 98.3877 68.263 98.5245 68.6104C98.6719 68.9578 98.8561 69.2262 99.0772 69.4157C99.3087 69.6051 99.5456 69.6999 99.7877 69.6999C100.061 69.6999 100.288 69.5841 100.467 69.3525C100.646 69.1104 100.735 68.7472 100.735 68.263C100.735 67.8209 100.656 67.4419 100.498 67.1261C100.351 66.7998 100.156 66.5577 99.914 66.3998C99.6824 66.2314 99.4351 66.1472 99.1719 66.1472ZM99.9298 76.0158C100.53 76.0158 101.009 75.8369 101.367 75.479C101.735 75.1316 101.919 74.6579 101.919 74.0579C101.919 73.6158 101.819 73.2947 101.619 73.0947C101.43 72.8947 101.172 72.7684 100.846 72.7157C100.53 72.6631 100.077 72.6368 99.4877 72.6368C99.193 72.6368 98.9087 72.621 98.6351 72.5894C98.1403 72.9473 97.8929 73.421 97.8929 74.0105C97.8929 74.6421 98.0824 75.1316 98.4614 75.479C98.8508 75.8369 99.3403 76.0158 99.9298 76.0158ZM107.907 65.8156C108.149 65.8156 108.381 65.8945 108.602 66.0524C108.823 66.2103 108.933 66.3998 108.933 66.6209C108.933 66.8209 108.87 66.984 108.744 67.1104C108.628 67.2367 108.465 67.2998 108.255 67.2998C108.118 67.2998 108.002 67.2735 107.907 67.2209C107.823 67.1577 107.733 67.0735 107.639 66.9682C107.544 66.8735 107.46 66.8051 107.386 66.763C107.312 66.7103 107.223 66.684 107.118 66.684C107.002 66.684 106.876 66.7314 106.739 66.8261C106.612 66.9104 106.412 67.0946 106.139 67.3788V70.7894C106.139 71.0841 106.181 71.3104 106.265 71.4683C106.349 71.6157 106.491 71.721 106.691 71.7841C106.891 71.8473 107.186 71.8789 107.576 71.8789C107.618 71.8789 107.639 71.9105 107.639 71.9736C107.639 72.0368 107.618 72.0684 107.576 72.0684C107.228 72.0684 106.949 72.0631 106.739 72.0526L105.491 72.0368L104.575 72.0526C104.428 72.0631 104.223 72.0684 103.96 72.0684C103.928 72.0684 103.912 72.0368 103.912 71.9736C103.912 71.9105 103.928 71.8789 103.96 71.8789C104.318 71.8789 104.554 71.8052 104.67 71.6578C104.786 71.5105 104.844 71.221 104.844 70.7894V67.7735C104.844 67.4367 104.802 67.1893 104.718 67.0314C104.644 66.8735 104.518 66.7946 104.339 66.7946C104.181 66.7946 103.918 66.8735 103.549 67.0314H103.533C103.491 67.0314 103.46 67.0051 103.439 66.9525C103.418 66.8998 103.423 66.8682 103.454 66.8577L105.523 65.8472C105.586 65.8261 105.623 65.8156 105.633 65.8156C105.739 65.8156 105.844 65.9314 105.949 66.163C106.054 66.384 106.118 66.6788 106.139 67.0472C106.549 66.584 106.891 66.263 107.165 66.084C107.439 65.9051 107.686 65.8156 107.907 65.8156ZM115.618 71.2157C115.66 71.2157 115.686 71.242 115.697 71.2947C115.707 71.3368 115.691 71.3683 115.649 71.3894L114.023 72.1631C113.981 72.1842 113.933 72.1947 113.881 72.1947C113.723 72.1947 113.57 72.1052 113.423 71.9263C113.286 71.7368 113.197 71.4894 113.155 71.1841L112.428 71.6894C112.176 71.8684 111.944 71.9947 111.733 72.0684C111.533 72.142 111.307 72.1789 111.054 72.1789C110.623 72.1789 110.291 72.0789 110.06 71.8789C109.839 71.6684 109.728 71.3947 109.728 71.0578C109.728 70.7736 109.802 70.542 109.949 70.3631C110.107 70.1841 110.302 70.042 110.533 69.9367C110.776 69.8209 111.128 69.6788 111.591 69.5104L113.123 68.942V67.9946C113.123 67.3419 113.055 66.8682 112.918 66.5735C112.791 66.2682 112.586 66.1156 112.302 66.1156C111.954 66.1156 111.702 66.2472 111.544 66.5103C111.397 66.763 111.307 67.0472 111.276 67.363C111.212 67.8998 110.944 68.1683 110.47 68.1683C110.239 68.1683 110.065 68.1156 109.949 68.0104C109.844 67.9051 109.791 67.7735 109.791 67.6156C109.791 67.3209 109.965 67.0367 110.312 66.763C110.67 66.4788 111.097 66.2524 111.591 66.084C112.097 65.9051 112.539 65.8156 112.918 65.8156C113.37 65.8156 113.728 65.9577 113.991 66.2419C114.265 66.5261 114.402 66.9525 114.402 67.5209V70.3631C114.402 70.6894 114.455 70.9368 114.56 71.1052C114.665 71.2736 114.818 71.3578 115.018 71.3578C115.176 71.3578 115.365 71.3104 115.586 71.2157H115.618ZM113.123 70.9315V70.7736V69.2104L112.176 69.6051C111.902 69.7104 111.676 69.8367 111.497 69.9841C111.328 70.1209 111.244 70.321 111.244 70.5841C111.244 70.8368 111.323 71.042 111.481 71.1999C111.649 71.3473 111.849 71.421 112.081 71.421C112.27 71.421 112.47 71.3578 112.681 71.2315L113.123 70.9315ZM120.701 71.0578C120.732 71.0578 120.759 71.0789 120.78 71.121C120.811 71.1631 120.811 71.1947 120.78 71.2157C120.39 71.5841 120.022 71.8526 119.674 72.021C119.327 72.1789 118.959 72.2578 118.569 72.2578C118.117 72.2578 117.732 72.1526 117.417 71.942C117.111 71.721 116.959 71.3578 116.959 70.8525V67.284C116.959 66.9367 116.901 66.7051 116.785 66.5893C116.68 66.4735 116.469 66.4156 116.153 66.4156C116.143 66.4156 116.127 66.4051 116.106 66.384C116.095 66.3524 116.09 66.3209 116.09 66.2893C116.09 66.2577 116.095 66.2314 116.106 66.2103C116.127 66.1788 116.143 66.163 116.153 66.163C117.143 66.1209 117.764 65.6945 118.017 64.884C118.038 64.8419 118.08 64.8208 118.143 64.8208C118.217 64.8208 118.253 64.8419 118.253 64.884V66.1314C118.748 66.1209 119.448 66.0682 120.353 65.9735C120.375 65.9735 120.396 66.0156 120.417 66.0998C120.448 66.1735 120.464 66.2577 120.464 66.3524C120.464 66.4472 120.443 66.5419 120.401 66.6367C120.369 66.7314 120.332 66.7735 120.29 66.763C119.701 66.6261 119.022 66.5419 118.253 66.5103V70.3315C118.253 70.742 118.353 71.0473 118.553 71.2473C118.764 71.4368 119.053 71.5315 119.422 71.5315C119.864 71.5315 120.28 71.3789 120.669 71.0736L120.701 71.0578ZM123.115 64.1577C122.842 64.1577 122.626 64.084 122.468 63.9366C122.321 63.7892 122.247 63.5787 122.247 63.305C122.247 63.0418 122.321 62.8418 122.468 62.705C122.626 62.5576 122.842 62.4839 123.115 62.4839C123.378 62.4839 123.584 62.5576 123.731 62.705C123.878 62.8418 123.952 63.0418 123.952 63.305C123.952 63.5787 123.878 63.7892 123.731 63.9366C123.594 64.084 123.389 64.1577 123.115 64.1577ZM121.663 72.0684C121.631 72.0684 121.615 72.0368 121.615 71.9736C121.615 71.9105 121.631 71.8789 121.663 71.8789C122.021 71.8789 122.257 71.8052 122.373 71.6578C122.489 71.5105 122.547 71.221 122.547 70.7894V67.9156C122.547 67.5577 122.51 67.2998 122.436 67.1419C122.363 66.9735 122.236 66.8893 122.057 66.8893C121.899 66.8893 121.694 66.9525 121.442 67.0788H121.426C121.384 67.0788 121.352 67.0525 121.331 66.9998C121.31 66.9472 121.315 66.9104 121.347 66.8893L123.621 65.8314L123.668 65.8156C123.71 65.8156 123.752 65.8419 123.794 65.8945C123.847 65.9366 123.873 65.9735 123.873 66.0051V66.3367C123.852 66.7788 123.842 67.2998 123.842 67.8998V70.7894C123.842 71.221 123.9 71.5105 124.015 71.6578C124.142 71.8052 124.384 71.8789 124.742 71.8789C124.773 71.8789 124.789 71.9105 124.789 71.9736C124.789 72.0368 124.773 72.0684 124.742 72.0684C124.478 72.0684 124.268 72.0631 124.11 72.0526L123.194 72.0368L122.278 72.0526C122.131 72.0631 121.926 72.0684 121.663 72.0684ZM128.873 72.2736C128.241 72.2736 127.683 72.1263 127.199 71.8315C126.715 71.5262 126.341 71.121 126.078 70.6157C125.815 70.0999 125.683 69.542 125.683 68.942C125.683 68.2577 125.852 67.6788 126.188 67.2051C126.536 66.7209 126.973 66.363 127.499 66.1314C128.036 65.8893 128.583 65.7682 129.141 65.7682C129.783 65.7682 130.341 65.9209 130.815 66.2261C131.299 66.5314 131.667 66.9367 131.92 67.4419C132.173 67.9367 132.299 68.4683 132.299 69.0367C132.299 69.6683 132.141 70.2315 131.825 70.7262C131.52 71.221 131.104 71.6052 130.578 71.8789C130.052 72.142 129.483 72.2736 128.873 72.2736ZM129.346 71.9578C129.81 71.9578 130.162 71.7526 130.404 71.342C130.657 70.9315 130.783 70.3315 130.783 69.542C130.783 68.8367 130.683 68.2209 130.483 67.6946C130.294 67.1683 130.031 66.7682 129.694 66.4946C129.367 66.2209 129.01 66.084 128.62 66.084C128.146 66.084 127.788 66.2788 127.546 66.6682C127.304 67.0577 127.183 67.6314 127.183 68.3893C127.183 69.0736 127.273 69.6894 127.452 70.2367C127.641 70.7736 127.899 71.1947 128.225 71.4999C128.562 71.8052 128.936 71.9578 129.346 71.9578ZM140.799 71.8789C140.831 71.8789 140.847 71.9105 140.847 71.9736C140.847 72.0368 140.831 72.0684 140.799 72.0684C140.536 72.0684 140.331 72.0631 140.183 72.0526L139.268 72.0368L138.368 72.0526C138.21 72.0631 137.999 72.0684 137.736 72.0684C137.704 72.0684 137.689 72.0368 137.689 71.9736C137.689 71.9105 137.704 71.8789 137.736 71.8789C138.094 71.8789 138.331 71.8052 138.446 71.6578C138.562 71.5105 138.62 71.221 138.62 70.7894V68.4209C138.62 67.8314 138.51 67.3998 138.289 67.1261C138.078 66.8419 137.741 66.6998 137.278 66.6998C137.004 66.6998 136.725 66.763 136.441 66.8893C136.157 67.0156 135.899 67.184 135.667 67.3946V70.7894C135.667 71.221 135.725 71.5105 135.841 71.6578C135.957 71.8052 136.194 71.8789 136.552 71.8789C136.583 71.8789 136.599 71.9105 136.599 71.9736C136.599 72.0368 136.583 72.0684 136.552 72.0684C136.289 72.0684 136.083 72.0631 135.936 72.0526L135.02 72.0368L134.104 72.0526C133.957 72.0631 133.752 72.0684 133.488 72.0684C133.457 72.0684 133.441 72.0368 133.441 71.9736C133.441 71.9105 133.457 71.8789 133.488 71.8789C133.846 71.8789 134.083 71.8052 134.199 71.6578C134.315 71.5105 134.373 71.221 134.373 70.7894V67.7735C134.373 67.4367 134.331 67.1893 134.246 67.0314C134.173 66.8735 134.046 66.7946 133.867 66.7946C133.71 66.7946 133.446 66.8735 133.078 67.0314H133.062C133.02 67.0314 132.988 67.0051 132.967 66.9525C132.946 66.8998 132.952 66.8682 132.983 66.8577L135.052 65.8472C135.115 65.8261 135.152 65.8156 135.162 65.8156C135.267 65.8156 135.373 65.9366 135.478 66.1788C135.594 66.4103 135.657 66.7156 135.667 67.0946C136.404 66.2209 137.204 65.784 138.068 65.784C138.646 65.784 139.099 65.963 139.425 66.3209C139.752 66.6682 139.915 67.1419 139.915 67.7419V70.7894C139.915 71.221 139.973 71.5105 140.089 71.6578C140.204 71.8052 140.441 71.8789 140.799 71.8789ZM147.396 63.8734C147.396 64.2629 147.491 64.6103 147.681 64.9156C147.881 65.2103 148.123 65.4682 148.407 65.6893C148.702 65.9103 149.096 66.1735 149.591 66.4788C150.128 66.8156 150.549 67.1051 150.854 67.3472C151.17 67.5893 151.433 67.8893 151.644 68.2472C151.865 68.5946 151.975 69.0051 151.975 69.4788C151.975 70.0157 151.833 70.4946 151.549 70.9157C151.275 71.3368 150.881 71.6684 150.365 71.9105C149.86 72.142 149.281 72.2578 148.628 72.2578C148.186 72.2578 147.728 72.1999 147.254 72.0841C146.791 71.9684 146.438 71.8262 146.196 71.6578C146.102 71.5947 146.049 71.4947 146.038 71.3578L145.944 68.9578V68.942C145.944 68.8999 145.97 68.8788 146.023 68.8788C146.075 68.8683 146.107 68.8841 146.117 68.9262C146.465 69.7999 146.86 70.5157 147.302 71.0736C147.754 71.6315 148.328 71.9105 149.023 71.9105C149.475 71.9105 149.854 71.7894 150.16 71.5473C150.465 71.2947 150.617 70.8789 150.617 70.2999C150.617 69.8367 150.512 69.4315 150.302 69.0841C150.102 68.7367 149.849 68.4472 149.544 68.2156C149.249 67.9841 148.844 67.6998 148.328 67.363C147.823 67.0367 147.428 66.763 147.144 66.5419C146.86 66.3103 146.617 66.0314 146.417 65.7051C146.217 65.3682 146.117 64.9787 146.117 64.5366C146.117 63.9892 146.27 63.5261 146.575 63.1471C146.881 62.7682 147.275 62.4892 147.76 62.3103C148.254 62.1208 148.77 62.026 149.307 62.026C149.665 62.026 150.023 62.0629 150.381 62.1366C150.739 62.1997 151.039 62.2839 151.281 62.3892C151.439 62.4524 151.517 62.5524 151.517 62.6892L151.565 64.8366C151.565 64.8682 151.533 64.8893 151.47 64.8998C151.417 64.9103 151.386 64.8998 151.375 64.8682C151.165 64.2261 150.881 63.6471 150.523 63.1313C150.175 62.605 149.649 62.3418 148.944 62.3418C148.47 62.3418 148.091 62.4787 147.807 62.7524C147.533 63.0261 147.396 63.3997 147.396 63.8734ZM158.794 71.0736C158.815 71.0736 158.836 71.0947 158.857 71.1368C158.889 71.1789 158.894 71.2104 158.873 71.2315C158.483 71.5894 158.094 71.8526 157.705 72.021C157.315 72.1789 156.894 72.2578 156.441 72.2578C155.799 72.2578 155.241 72.1157 154.768 71.8315C154.304 71.5473 153.947 71.1736 153.694 70.7104C153.452 70.2473 153.331 69.7473 153.331 69.2104C153.331 68.5893 153.483 68.0209 153.789 67.5051C154.094 66.9893 154.51 66.584 155.036 66.2893C155.573 65.984 156.168 65.8314 156.82 65.8314C157.452 65.8314 157.941 65.984 158.289 66.2893C158.636 66.5946 158.81 67.0472 158.81 67.6472C158.81 67.9525 158.747 68.1051 158.62 68.1051L154.768 68.1209C154.757 68.2156 154.752 68.3578 154.752 68.5472C154.752 69.4736 154.962 70.2104 155.383 70.7578C155.815 71.2947 156.426 71.5631 157.215 71.5631C157.51 71.5631 157.757 71.5315 157.957 71.4683C158.157 71.3947 158.426 71.2683 158.762 71.0894L158.794 71.0736ZM156.252 66.1472C155.862 66.1472 155.541 66.2998 155.289 66.6051C155.047 66.8998 154.883 67.3104 154.799 67.8367L157.326 67.7893C157.305 66.6946 156.947 66.1472 156.252 66.1472ZM163.958 65.8156C164.2 65.8156 164.432 65.8945 164.653 66.0524C164.874 66.2103 164.984 66.3998 164.984 66.6209C164.984 66.8209 164.921 66.984 164.795 67.1104C164.679 67.2367 164.516 67.2998 164.305 67.2998C164.168 67.2998 164.053 67.2735 163.958 67.2209C163.874 67.1577 163.784 67.0735 163.689 66.9682C163.595 66.8735 163.511 66.8051 163.437 66.763C163.363 66.7103 163.274 66.684 163.168 66.684C163.053 66.684 162.926 66.7314 162.789 66.8261C162.663 66.9104 162.463 67.0946 162.189 67.3788V70.7894C162.189 71.0841 162.232 71.3104 162.316 71.4683C162.4 71.6157 162.542 71.721 162.742 71.7841C162.942 71.8473 163.237 71.8789 163.626 71.8789C163.668 71.8789 163.689 71.9105 163.689 71.9736C163.689 72.0368 163.668 72.0684 163.626 72.0684C163.279 72.0684 163 72.0631 162.789 72.0526L161.542 72.0368L160.626 72.0526C160.479 72.0631 160.274 72.0684 160.01 72.0684C159.979 72.0684 159.963 72.0368 159.963 71.9736C159.963 71.9105 159.979 71.8789 160.01 71.8789C160.368 71.8789 160.605 71.8052 160.721 71.6578C160.837 71.5105 160.895 71.221 160.895 70.7894V67.7735C160.895 67.4367 160.853 67.1893 160.768 67.0314C160.695 66.8735 160.568 66.7946 160.389 66.7946C160.232 66.7946 159.968 66.8735 159.6 67.0314H159.584C159.542 67.0314 159.51 67.0051 159.489 66.9525C159.468 66.8998 159.474 66.8682 159.505 66.8577L161.574 65.8472C161.637 65.8261 161.674 65.8156 161.684 65.8156C161.789 65.8156 161.895 65.9314 162 66.163C162.105 66.384 162.168 66.6788 162.189 67.0472C162.6 66.584 162.942 66.263 163.216 66.084C163.489 65.9051 163.737 65.8156 163.958 65.8156ZM172.311 65.9735C172.332 65.9735 172.343 66.0051 172.343 66.0682C172.343 66.1314 172.332 66.163 172.311 66.163C172.016 66.163 171.758 66.2682 171.537 66.4788C171.327 66.6893 171.122 67.0261 170.922 67.4893L168.964 72.0684C168.943 72.121 168.89 72.1473 168.806 72.1473C168.711 72.1473 168.648 72.121 168.616 72.0684L166.279 67.284C166.058 66.8209 165.869 66.5209 165.711 66.384C165.553 66.2367 165.358 66.163 165.127 66.163C165.095 66.163 165.079 66.1314 165.079 66.0682C165.079 66.0051 165.095 65.9735 165.127 65.9735C165.316 65.9735 165.469 65.9788 165.585 65.9893L166.5 66.0051L167.669 65.9893C167.837 65.9788 168.069 65.9735 168.364 65.9735C168.395 65.9735 168.411 66.0051 168.411 66.0682C168.411 66.1314 168.395 66.163 168.364 66.163C167.743 66.163 167.432 66.284 167.432 66.5261C167.432 66.5893 167.458 66.6735 167.511 66.7788L169.327 70.3631L170.527 67.4577C170.601 67.2788 170.637 67.1051 170.637 66.9367C170.637 66.684 170.543 66.4946 170.353 66.3682C170.174 66.2314 169.906 66.163 169.548 66.163C169.527 66.163 169.516 66.1314 169.516 66.0682C169.516 66.0051 169.527 65.9735 169.548 65.9735C169.832 65.9735 170.048 65.9788 170.195 65.9893L171.143 66.0051L171.758 65.9893C171.874 65.9788 172.058 65.9735 172.311 65.9735ZM174.34 64.1577C174.066 64.1577 173.85 64.084 173.692 63.9366C173.545 63.7892 173.471 63.5787 173.471 63.305C173.471 63.0418 173.545 62.8418 173.692 62.705C173.85 62.5576 174.066 62.4839 174.34 62.4839C174.603 62.4839 174.808 62.5576 174.956 62.705C175.103 62.8418 175.177 63.0418 175.177 63.305C175.177 63.5787 175.103 63.7892 174.956 63.9366C174.819 64.084 174.613 64.1577 174.34 64.1577ZM172.887 72.0684C172.855 72.0684 172.84 72.0368 172.84 71.9736C172.84 71.9105 172.855 71.8789 172.887 71.8789C173.245 71.8789 173.482 71.8052 173.598 71.6578C173.713 71.5105 173.771 71.221 173.771 70.7894V67.9156C173.771 67.5577 173.734 67.2998 173.661 67.1419C173.587 66.9735 173.461 66.8893 173.282 66.8893C173.124 66.8893 172.919 66.9525 172.666 67.0788H172.65C172.608 67.0788 172.577 67.0525 172.555 66.9998C172.534 66.9472 172.54 66.9104 172.571 66.8893L174.845 65.8314L174.892 65.8156C174.934 65.8156 174.977 65.8419 175.019 65.8945C175.071 65.9366 175.098 65.9735 175.098 66.0051V66.3367C175.077 66.7788 175.066 67.2998 175.066 67.8998V70.7894C175.066 71.221 175.124 71.5105 175.24 71.6578C175.366 71.8052 175.608 71.8789 175.966 71.8789C175.998 71.8789 176.013 71.9105 176.013 71.9736C176.013 72.0368 175.998 72.0684 175.966 72.0684C175.703 72.0684 175.492 72.0631 175.334 72.0526L174.419 72.0368L173.503 72.0526C173.355 72.0631 173.15 72.0684 172.887 72.0684ZM180.065 72.2578C179.381 72.2578 178.797 72.1105 178.313 71.8157C177.839 71.5105 177.486 71.121 177.255 70.6473C177.023 70.1631 176.908 69.6578 176.908 69.1315C176.908 68.4683 177.086 67.8893 177.444 67.3946C177.802 66.8893 178.26 66.5051 178.818 66.2419C179.387 65.9682 179.96 65.8314 180.539 65.8314C181.034 65.8314 181.481 65.9314 181.881 66.1314C182.281 66.3314 182.481 66.5998 182.481 66.9367C182.481 67.1156 182.413 67.2735 182.276 67.4104C182.139 67.5367 181.95 67.5998 181.708 67.5998C181.308 67.5998 181.018 67.363 180.839 66.8893C180.734 66.6261 180.623 66.4419 180.508 66.3367C180.392 66.2209 180.208 66.163 179.955 66.163C179.46 66.163 179.065 66.3893 178.771 66.8419C178.487 67.284 178.344 67.8788 178.344 68.6262C178.344 69.4999 178.544 70.2104 178.944 70.7578C179.355 71.2947 179.992 71.5631 180.855 71.5631C181.15 71.5631 181.413 71.5262 181.644 71.4526C181.876 71.3789 182.129 71.2631 182.402 71.1052H182.418C182.45 71.1052 182.476 71.121 182.497 71.1525C182.529 71.1841 182.534 71.2104 182.513 71.2315C182.123 71.5789 181.739 71.8368 181.36 72.0052C180.981 72.1736 180.55 72.2578 180.065 72.2578ZM188.909 71.0736C188.93 71.0736 188.951 71.0947 188.972 71.1368C189.004 71.1789 189.009 71.2104 188.988 71.2315C188.598 71.5894 188.209 71.8526 187.819 72.021C187.43 72.1789 187.009 72.2578 186.556 72.2578C185.914 72.2578 185.356 72.1157 184.882 71.8315C184.419 71.5473 184.061 71.1736 183.809 70.7104C183.567 70.2473 183.446 69.7473 183.446 69.2104C183.446 68.5893 183.598 68.0209 183.903 67.5051C184.209 66.9893 184.624 66.584 185.151 66.2893C185.688 65.984 186.282 65.8314 186.935 65.8314C187.567 65.8314 188.056 65.984 188.404 66.2893C188.751 66.5946 188.925 67.0472 188.925 67.6472C188.925 67.9525 188.861 68.1051 188.735 68.1051L184.882 68.1209C184.872 68.2156 184.867 68.3578 184.867 68.5472C184.867 69.4736 185.077 70.2104 185.498 70.7578C185.93 71.2947 186.54 71.5631 187.33 71.5631C187.625 71.5631 187.872 71.5315 188.072 71.4683C188.272 71.3947 188.54 71.2683 188.877 71.0894L188.909 71.0736ZM186.367 66.1472C185.977 66.1472 185.656 66.2998 185.403 66.6051C185.161 66.8998 184.998 67.3104 184.914 67.8367L187.44 67.7893C187.419 66.6946 187.061 66.1472 186.367 66.1472ZM191.246 66.7946C191.246 67.1209 191.357 67.3946 191.578 67.6156C191.809 67.8367 192.141 68.0683 192.573 68.3104C192.952 68.5209 193.241 68.6946 193.441 68.8314C193.652 68.9683 193.831 69.1525 193.978 69.3841C194.136 69.6157 194.215 69.8946 194.215 70.221C194.215 70.5789 194.125 70.9104 193.946 71.2157C193.767 71.521 193.499 71.7684 193.141 71.9578C192.794 72.1473 192.378 72.242 191.894 72.242C191.315 72.242 190.783 72.0947 190.299 71.7999C190.236 71.7368 190.204 71.6736 190.204 71.6105L190.173 70.1578C190.173 70.1262 190.199 70.1104 190.252 70.1104C190.315 70.0999 190.352 70.1052 190.362 70.1262C190.541 70.6525 190.809 71.0841 191.167 71.421C191.536 71.7578 191.925 71.9263 192.336 71.9263C192.599 71.9263 192.804 71.8578 192.952 71.721C193.099 71.5841 193.173 71.3789 193.173 71.1052C193.173 70.7052 193.057 70.3894 192.825 70.1578C192.594 69.9157 192.257 69.6788 191.815 69.4472C191.457 69.2578 191.178 69.0999 190.978 68.9736C190.778 68.8367 190.604 68.6578 190.457 68.4367C190.32 68.2051 190.252 67.9209 190.252 67.5841C190.252 66.984 190.467 66.5367 190.899 66.2419C191.341 65.9472 191.873 65.7998 192.494 65.7998C192.904 65.7998 193.325 65.8788 193.757 66.0366C193.852 66.0788 193.899 66.1367 193.899 66.2103C193.899 66.4524 193.894 66.6419 193.883 66.7788L193.867 67.5367C193.867 67.5683 193.836 67.5841 193.773 67.5841C193.71 67.5841 193.678 67.5683 193.678 67.5367C193.678 67.3262 193.594 67.1104 193.425 66.8893C193.257 66.6577 193.041 66.4682 192.778 66.3209C192.515 66.1735 192.246 66.0998 191.973 66.0998C191.488 66.0998 191.246 66.3314 191.246 66.7946Z" fill="white"/>
</svg>
