<svg width="600" height="113" viewBox="0 0 600 113" fill="none" xmlns="http://www.w3.org/2000/svg">
<path d="M113.1 45.2C113.1 36.4 122.4 28.9 133.3 28.9C143.6 28.9 154.2 33.6 154.7 46.2H141C140.8 42.1 136.7 40.6 133.6 40.6C130 40.6 126.6 41.9 126.6 46C126.6 48.2 129.2 49.8 132.4 50.6L141.6 52.8C154.3 56.1 156 64.8999 156 69.2C156 80.2999 144.9 86.1 133.6 86.1C122.8 86.1 111.7 79.5 111.5 67.6H124.9C125.2 71.5 129.7 74.8 135 74.6C139 74.5 142.2 72.2 142.2 69.1C142.3 66.3 140.2 64.8 136.2 63.9L128.7 62C114.4 58.1 113.1 51.6 113.1 45.2ZM169.4 0.0999756C174.4 0.0999756 178.5 3.89995 178.5 8.69995C178.5 13.7 174.4 17.4 169.4 17.4C164.3 17.4 160.1 13.6 160.1 8.69995C160.1 3.79995 164.4 0.0999756 169.4 0.0999756ZM176.4 84.9H162.2V30H176.4V84.9ZM206.2 30H217.8V41.5H206.2V84.9H192V41.5H182V30H192V9.09998H206.2V30ZM274.2 62.2H232.3C233.2 69.5 239.3 74 247.5 74C253 74 258.6 71.6 261.2 67C264.6 68.9 268.6 71 272.1 72.8C267.1 82.2 256.5 86.1 246.4 86.1C230.8 86.1 218 74.6 218 57.3C218 40 230.8 28.9 246.4 28.9C262 28.9 274.3 40 274.3 57.3C274.5 58.7 274.3 61 274.2 62.2ZM260.5 52.4C259.5 44.9 253.8 40.8 246.8 40.8C239.3 40.8 233.4 45.1 232.3 52.4H260.5ZM266.8 99.2H273.8C280.8 99.2 282 93.6 281.9 88.9V30.1H296.4V88.7C296.4 102.9 291.2 112.5 275.9 112.5H266.8V99.2ZM289.1 0.0999756C294.3 0.0999756 298.3 3.89995 298.3 8.69995C298.3 13.7 294.3 17.4 289.1 17.4C284.1 17.4 279.9 13.6 279.9 8.69995C279.8 3.89995 284.1 0.0999756 289.1 0.0999756ZM347.8 77.9C344.2 83.5 336.2 86 330.7 86C316.2 86 302.7 74.9 302.7 57.4C302.7 39.8 316.2 28.8 330.7 28.8C335.7 28.8 343.7 30.7 347.8 36.8V30H362.2V84.9H347.8V77.9ZM332.7 72.3C340.4 72.3 347.8 66.9 347.8 57.5C347.8 47.9 340.3 42.7 332.7 42.7C324.8 42.7 317.5 48.5 317.5 57.5C317.5 66.3 324.8 72.3 332.7 72.3ZM369.5 84.9V0.199951H383.9V37.3C386.8 31.8 393.8 28.8 401 28.8C415.5 28.8 427.9 39.9 427.9 57.5C427.9 74.9 415.3 86.1 401 86.1C393.8 86.1 386.8 83 383.9 77.5V84.9H369.5ZM398.6 72.3C406.6 72.3 413.1 66.2999 413.1 57.2C413.1 48.2999 406.6 42.4 398.6 42.4C391.2 42.4 384 47.7999 384 57.2C384.1 66.5 390.9 72.3 398.6 72.3ZM433.9 84.9V0.199951H448.3V37.3C451.2 31.8 458.2 28.8 465.4 28.8C479.9 28.8 492.3 39.9 492.3 57.5C492.3 74.9 479.7 86.1 465.4 86.1C458.2 86.1 451.2 83 448.3 77.5V84.9H433.9ZM463 72.3C471 72.3 477.5 66.2999 477.5 57.2C477.5 48.2999 471 42.4 463 42.4C455.6 42.4 448.4 47.7999 448.4 57.2C448.4 66.5 455.3 72.3 463 72.3ZM553.9 62.2H512C512.9 69.5 519 74 527.2 74C532.7 74 538.3 71.6 540.9 67C544.3 68.9 548.3 71 551.8 72.8C546.8 82.2 536.2 86.1 526.1 86.1C510.5 86.1 497.7 74.6 497.7 57.3C497.7 40 510.5 28.9 526.1 28.9C541.7 28.9 554 40 554 57.3C554.2 58.7 554.1 61 553.9 62.2ZM540.2 52.4C539.2 44.9 533.5 40.8 526.5 40.8C519 40.8 513.1 45.1 512 52.4H540.2ZM575.3 84.9H560.9V30H575.3V43C578.1 33 584.6 28.9 590.9 28.9C594.8 28.9 597.7 29.7 600 30.9L597.6 43.9C594.2 42.4 590.6 42.4 589.2 42.4C579.4 42.4 575.5 51.1 575.5 65.7L575.3 84.9Z" fill="#2A5E9A"/>
<path d="M77.5 68.6C82.9 61.5 86 52.6 86 43C86 19.3 66.8 0 43 0C19.3 0 0 19.2 0 43C0 66.7 19.2 85.9 43 85.9H43.1H94.8L77.5 68.6Z" fill="#EF6A23"/>
<path d="M67.7999 37.0001L65.1999 39.5001C62.3999 42.3001 59.5999 44.9001 56.6999 47.7001C56.7999 48.0001 56.7999 48.3001 56.8999 48.6001L59.2999 63.1001C59.2999 63.8001 58.9999 64.4001 58.3999 64.8001C57.7999 65.1001 57.1999 65.1001 56.6999 64.9001C55.9999 64.5001 55.1999 64.1001 54.4999 63.7001L47.3999 59.9001C45.8999 59.1001 44.4999 58.3001 42.9999 57.5001C41.5999 58.3001 40.0999 59.1001 38.6999 59.8001L31.5999 63.6001C30.8999 64.0001 30.0999 64.4001 29.3999 64.8001C29.1999 65.0001 28.7999 65.0001 28.5999 65.0001C28.2999 65.0001 27.9999 64.9001 27.6999 64.8001C27.0999 64.5001 26.7999 63.9001 26.7999 63.1001V62.9001L29.1999 48.5001C29.2999 48.2001 29.2999 47.9001 29.3999 47.6001C26.5999 44.8001 23.7999 42.2001 20.8999 39.4001L18.2999 36.9001C17.6999 36.3001 17.5999 35.7001 17.7999 35.0001C17.9999 34.4001 18.5999 33.9001 19.2999 33.8001C20.3999 33.6001 21.3999 33.5001 22.4999 33.3001L33.1999 31.7001C33.6999 31.6001 34.0999 31.5001 34.4999 31.5001C34.6999 31.2001 34.7999 30.9001 34.9999 30.6001C35.1999 30.2001 35.3999 29.9001 35.5999 29.5001L37.0999 26.4001C37.6999 25.3001 38.1999 24.2001 38.6999 23.1001C39.5999 21.3001 40.4999 19.5001 41.3999 17.7001C41.6999 17.1001 42.2999 16.7001 43.0999 16.7001C43.6999 16.7001 44.3999 17.1001 44.6999 17.7001C45.5999 19.5001 46.4999 21.3001 47.3999 23.1001C47.9999 24.2001 48.4999 25.3001 48.9999 26.4001L50.4999 29.5001C50.6999 29.9001 50.8999 30.2001 51.0999 30.6001C51.2999 30.9001 51.3999 31.2001 51.5999 31.5001C52.0999 31.6001 52.4999 31.7001 52.8999 31.7001L63.5999 33.3001C64.6999 33.5001 65.6999 33.6001 66.7999 33.8001C67.4999 33.9001 68.0999 34.4001 68.2999 35.0001C68.4999 35.8001 68.2999 36.4001 67.7999 37.0001Z" fill="white"/>
</svg>
