<svg width="21" height="21" viewBox="0 0 21 21" fill="none" xmlns="http://www.w3.org/2000/svg">
<path d="M13.6198 12.513L13.531 12.6025L13.5502 12.7272L14.3457 17.8838L14.3459 17.8851C14.3485 17.9013 14.3465 17.9179 14.3403 17.933C14.334 17.9481 14.3237 17.9612 14.3104 17.9709C14.2972 17.9805 14.2815 17.9863 14.2652 17.9875C14.2489 17.9888 14.2325 17.9855 14.2179 17.9781L14.2167 17.9775L9.55834 15.6274L9.44573 15.5706L9.33313 15.6274L4.67469 17.9776L4.67351 17.9782C4.65892 17.9856 4.64256 17.9889 4.62624 17.9876C4.6099 17.9863 4.59424 17.9806 4.58099 17.9709C4.56774 17.9613 4.55742 17.9482 4.55116 17.9331C4.5449 17.9179 4.54295 17.9014 4.54554 17.8852L4.54574 17.8839L5.34125 12.7272L5.36048 12.6025L5.27166 12.513L1.59728 8.80888C1.59727 8.80888 1.59727 8.80887 1.59726 8.80886C1.58567 8.79714 1.57752 8.78247 1.57372 8.76643C1.56991 8.75039 1.57059 8.7336 1.57569 8.71792C1.58078 8.70224 1.59009 8.68826 1.60261 8.67751C1.61507 8.66682 1.63022 8.65974 1.64641 8.65705C1.64648 8.65704 1.64655 8.65703 1.64662 8.65702L6.79638 7.82011L6.92086 7.79988L6.97857 7.68774L9.36603 3.0484L9.36605 3.04837C9.37358 3.03373 9.385 3.02145 9.39906 3.01287C9.41312 3.00429 9.42927 2.99976 9.44573 2.99976C9.4622 2.99976 9.47835 3.00429 9.4924 3.01287C9.50646 3.02145 9.51788 3.03373 9.52542 3.04837L9.52543 3.0484L11.9129 7.68774L11.9706 7.79988L12.0951 7.82011L17.2448 8.65702C17.2449 8.65702 17.2449 8.65702 17.2449 8.65702C17.2611 8.65969 17.2764 8.66678 17.2889 8.67751C17.3014 8.68825 17.3107 8.70223 17.3158 8.71792C17.3209 8.7336 17.3216 8.75039 17.3177 8.76643C17.3139 8.78258 17.3058 8.79723 17.2943 8.80883C17.2943 8.80886 17.2943 8.80889 17.2942 8.80892L13.6198 12.513Z" stroke="#F4C431" stroke-width="0.5"/>
<path fill-rule="evenodd" clip-rule="evenodd" d="M11.0713 5.50598L9.74772 2.93401C9.71918 2.87852 9.67589 2.83196 9.62261 2.79946C9.56934 2.76695 9.50814 2.74976 9.44573 2.74976C9.38333 2.74976 9.32212 2.76695 9.26885 2.79946C9.21558 2.83196 9.17229 2.87852 9.14374 2.93401L6.75628 7.57335L1.60624 8.4103C1.54468 8.42037 1.48708 8.4472 1.43975 8.48783C1.39243 8.52847 1.3572 8.58134 1.33792 8.64067C1.31865 8.69999 1.31607 8.76348 1.33048 8.82417C1.34488 8.88486 1.37572 8.94042 1.4196 8.98475L5.09417 12.6891L4.29866 17.8458C4.2888 17.9075 4.29623 17.9708 4.32013 18.0286C4.34403 18.0864 4.38346 18.1364 4.43405 18.1732C4.48465 18.21 4.54443 18.232 4.60678 18.2369C4.66913 18.2417 4.73161 18.2292 4.7873 18.2008L9.44573 15.8506L11.0713 16.6707V5.50598Z" fill="#F4C431"/>
</svg>
