<svg width="17" height="17" viewBox="0 0 17 17" fill="none" xmlns="http://www.w3.org/2000/svg">
<path d="M16.5261 6.99117L12.8515 10.6954L13.647 15.8521C13.6568 15.9138 13.6494 15.9771 13.6255 16.0349C13.6016 16.0927 13.5622 16.1427 13.5116 16.1795C13.461 16.2163 13.4012 16.2383 13.3388 16.2432C13.2765 16.248 13.214 16.2355 13.1583 16.2071L8.49993 13.857L3.84149 16.2071C3.7858 16.2356 3.72333 16.2481 3.66098 16.2432C3.59863 16.2384 3.53884 16.2163 3.48825 16.1796C3.43765 16.1428 3.39822 16.0928 3.37432 16.035C3.35043 15.9772 3.343 15.9139 3.35286 15.8521L4.14837 10.6954L0.473795 6.99113C0.429914 6.9468 0.39908 6.89124 0.384673 6.83055C0.370266 6.76986 0.372841 6.70637 0.392116 6.64705C0.411391 6.58772 0.446622 6.53484 0.49395 6.49421C0.541278 6.45358 0.598877 6.42675 0.660436 6.41668L5.81047 5.57972L8.19794 0.940388C8.22648 0.884893 8.26977 0.838338 8.32305 0.805834C8.37632 0.77333 8.43752 0.756133 8.49993 0.756133C8.56234 0.756133 8.62354 0.77333 8.67681 0.805834C8.73008 0.838338 8.77337 0.884893 8.80192 0.940388L11.1894 5.57972L16.3394 6.41668C16.401 6.42675 16.4586 6.45358 16.5059 6.49421C16.5532 6.53484 16.5885 6.58772 16.6077 6.64705C16.627 6.70637 16.6296 6.76986 16.6152 6.83055C16.6008 6.89124 16.57 6.94684 16.5261 6.99117Z" fill="#F4C431"/>
</svg>
