<svg width="18" height="17" viewBox="0 0 18 17" fill="none" xmlns="http://www.w3.org/2000/svg">
<path d="M13.1199 10.4321L13.0311 10.5216L13.0503 10.6462L13.8458 15.8029L13.846 15.8042C13.8486 15.8203 13.8466 15.8369 13.8404 15.8521C13.8341 15.8672 13.8238 15.8803 13.8106 15.8899C13.7973 15.8996 13.7816 15.9053 13.7653 15.9066C13.749 15.9079 13.7326 15.9046 13.718 15.8972L13.7169 15.8966L9.05846 13.5465L8.94585 13.4897L8.83325 13.5465L4.17481 15.8966L4.17363 15.8972C4.15905 15.9047 4.14268 15.908 4.12636 15.9067C4.11003 15.9054 4.09437 15.8996 4.08112 15.89C4.06787 15.8804 4.05754 15.8673 4.05128 15.8521C4.04502 15.837 4.04307 15.8204 4.04566 15.8043L4.04586 15.803L4.84137 10.6462L4.8606 10.5216L4.77178 10.4321L1.0974 6.72795C1.09739 6.72794 1.09739 6.72794 1.09738 6.72793C1.08579 6.71621 1.07765 6.70153 1.07384 6.6855C1.07003 6.66945 1.07071 6.65267 1.07581 6.63699C1.0809 6.6213 1.09022 6.60732 1.10273 6.59658C1.11519 6.58589 1.13034 6.57881 1.14653 6.57612C1.1466 6.57611 1.14667 6.5761 1.14674 6.57608L6.2965 5.73918L6.42099 5.71895L6.47869 5.60681L8.86615 0.967472L8.86617 0.96744C8.8737 0.952797 8.88513 0.940513 8.89918 0.931937C8.91324 0.923361 8.92939 0.918823 8.94586 0.918823C8.96232 0.918823 8.97847 0.92336 8.99253 0.931937C9.00658 0.940514 9.01801 0.952799 9.02554 0.96744L9.02555 0.967472L11.413 5.60681L11.4707 5.71895L11.5952 5.73918L16.745 6.57608C16.745 6.57609 16.745 6.57609 16.745 6.57609C16.7613 6.57876 16.7765 6.58585 16.789 6.59658C16.8015 6.60732 16.8108 6.6213 16.8159 6.63699C16.821 6.65267 16.8217 6.66945 16.8179 6.6855C16.814 6.70165 16.8059 6.71629 16.7944 6.72789C16.7944 6.72793 16.7944 6.72796 16.7943 6.72799L13.1199 10.4321Z" stroke="#F4C431" stroke-width="0.5"/>
</svg>
