<svg width="600" height="148" viewBox="0 0 600 148" fill="none" xmlns="http://www.w3.org/2000/svg">
<path d="M157.7 52.2H218.4V63.4999H194.5V127.2H181.4V63.4999H157.6L157.7 52.2ZM215.8 72.8999H227V83.3999H227.2C227.6 81.8999 228.3 80.4999 229.3 79.0999C230.3 77.6999 231.5 76.3999 233 75.2999C234.4 74.0999 236 73.1999 237.8 72.4999C239.5 71.7999 241.3 71.3999 243.1 71.3999C244.5 71.3999 245.5 71.4999 246 71.4999C246.5 71.5999 247.1 71.7 247.6 71.7V83.2C246.8 83 245.9 82.8999 245 82.7999C244.1 82.6999 243.3 82.5999 242.4 82.5999C240.4 82.5999 238.5 82.9999 236.7 83.7999C234.9 84.5999 233.4 85.7999 232 87.2999C230.7 88.8999 229.6 90.7999 228.8 93.0999C228 95.3999 227.6 98.0999 227.6 101.1V126.9H215.6L215.8 72.8999ZM302.6 127.2H290.8V119.6H290.6C289.1 122.4 286.9 124.5 284 126.2C281.1 127.9 278.1 128.7 275.1 128.7C268 128.7 262.8 127 259.6 123.4C256.4 119.9 254.8 114.5 254.8 107.4V72.8999H266.8V106.2C266.8 111 267.7 114.4 269.6 116.3C271.4 118.3 274 119.3 277.3 119.3C279.8 119.3 281.9 118.9 283.6 118.1C285.3 117.3 286.7 116.3 287.7 115C288.8 113.7 289.5 112.1 290 110.3C290.5 108.5 290.7 106.5 290.7 104.4V72.8999H302.7V127.2H302.6ZM323 109.8C323.4 113.3 324.7 115.7 327 117.2C329.3 118.6 332.1 119.3 335.3 119.3C336.4 119.3 337.7 119.2 339.1 119C340.5 118.8 341.9 118.5 343.1 118C344.4 117.5 345.4 116.8 346.2 115.8C347 114.8 347.4 113.6 347.3 112.1C347.2 110.6 346.7 109.3 345.6 108.3C344.5 107.3 343.2 106.6 341.6 105.9C340 105.3 338.1 104.8 336 104.4C333.9 104 331.8 103.5 329.6 103C327.4 102.5 325.2 101.9 323.1 101.2C321 100.5 319.2 99.5999 317.5 98.2999C315.9 97.0999 314.5 95.6 313.6 93.7C312.6 91.7999 312.1 89.5999 312.1 86.7999C312.1 83.7999 312.8 81.3999 314.3 79.3999C315.7 77.3999 317.6 75.7999 319.8 74.5999C322 73.3999 324.5 72.4999 327.2 71.9999C329.9 71.4999 332.5 71.2999 334.9 71.2999C337.7 71.2999 340.4 71.6 342.9 72.2C345.4 72.8 347.8 73.6999 349.8 75.0999C351.9 76.3999 353.6 78.1999 354.9 80.2999C356.3 82.3999 357.1 84.9999 357.5 87.9999H345C344.4 85.0999 343.1 83.2 341.1 82.2C339 81.2 336.7 80.7 334 80.7C333.2 80.7 332.1 80.7999 331 80.8999C329.8 81.0999 328.8 81.3 327.7 81.7C326.7 82.1 325.8 82.6999 325.1 83.3999C324.4 84.0999 324 85.0999 324 86.2999C324 87.7999 324.5 88.8999 325.5 89.7999C326.5 90.6999 327.8 91.3999 329.5 92.0999C331.1 92.6999 333 93.1999 335.1 93.5999C337.2 93.9999 339.4 94.4999 341.6 94.9999C343.8 95.4999 345.9 96.0999 348 96.7999C350.1 97.4999 352 98.4 353.6 99.7C355.2 100.9 356.6 102.4 357.6 104.2C358.6 106 359.1 108.3 359.1 110.9C359.1 114.1 358.4 116.8 356.9 119.1C355.4 121.3 353.5 123.2 351.2 124.6C348.9 126 346.2 127 343.4 127.7C340.5 128.3 337.7 128.7 334.9 128.7C331.5 128.7 328.3 128.3 325.4 127.5C322.5 126.7 319.9 125.5 317.8 124C315.7 122.4 314 120.5 312.8 118.1C311.6 115.8 310.9 113 310.8 109.7H322.9V109.8H323ZM362.5 72.8999H371.6V56.4999H383.6V72.7999H394.4V81.7H383.6V110.7C383.6 112 383.7 113 383.8 114C383.9 114.9 384.2 115.7 384.5 116.3C384.9 116.9 385.5 117.4 386.2 117.7C387 118 388 118.2 389.4 118.2C390.2 118.2 391.1 118.2 391.9 118.1C392.7 118 393.6 117.9 394.4 117.7V127C393.1 127.2 391.8 127.3 390.5 127.4C389.2 127.6 388 127.6 386.6 127.6C383.4 127.6 380.9 127.3 379 126.7C377.1 126.1 375.6 125.2 374.5 124.1C373.4 122.9 372.7 121.5 372.3 119.8C371.9 118.1 371.7 116 371.6 113.8V81.7999H362.5V72.7V72.8999ZM402.8 72.8999H414.1V80.2999H414.3C416 77.0999 418.3 74.8999 421.3 73.4999C424.3 72.0999 427.5 71.3999 431.1 71.3999C435.4 71.3999 439.1 72.1 442.3 73.7C445.5 75.2 448.1 77.1999 450.2 79.8999C452.3 82.4999 453.9 85.5999 454.9 89.0999C455.9 92.5999 456.5 96.3999 456.5 100.3C456.5 104 456 107.5 455.1 110.9C454.1 114.3 452.7 117.4 450.8 120C448.9 122.6 446.5 124.7 443.5 126.3C440.5 127.9 437.1 128.7 433.1 128.7C431.4 128.7 429.6 128.5 427.9 128.2C426.2 127.9 424.5 127.4 422.9 126.7C421.3 126 419.8 125.1 418.5 124C417.1 122.9 416 121.6 415.1 120.2H414.9V147.3H402.9V72.8999H402.8ZM444.7 100.1C444.7 97.6999 444.4 95.2999 443.7 92.9999C443.1 90.6999 442.1 88.6999 440.8 86.8999C439.5 85.0999 437.9 83.6999 436.1 82.5999C434.2 81.4999 432 80.9999 429.6 80.9999C424.6 80.9999 420.8 82.7 418.2 86.2C415.7 89.7 414.4 94.4 414.4 100.2C414.4 103 414.7 105.5 415.4 107.8C416.1 110.1 417 112.1 418.4 113.8C419.7 115.5 421.3 116.8 423.2 117.8C425.1 118.8 427.2 119.3 429.7 119.3C432.5 119.3 434.7 118.7 436.6 117.6C438.5 116.5 440 115 441.3 113.3C442.5 111.5 443.4 109.5 443.9 107.2C444.4 104.8 444.7 102.5 444.7 100.1ZM465.8 52.2H477.8V63.4999H465.8V52.2ZM465.8 72.8999H477.8V127.2H465.8V72.8999ZM488.5 52.2H500.5V127.2H488.5V52.2ZM537.1 128.7C532.8 128.7 528.9 128 525.5 126.5C522.1 125 519.3 123.1 516.9 120.6C514.6 118.1 512.8 115 511.6 111.5C510.4 108 509.7 104.1 509.7 99.9999C509.7 95.8999 510.3 92.0999 511.6 88.5999C512.8 85.0999 514.6 82.0999 516.9 79.4999C519.2 76.9999 522.1 74.9999 525.5 73.5999C528.9 72.1999 532.8 71.3999 537.1 71.3999C541.4 71.3999 545.3 72.0999 548.7 73.5999C552.1 74.9999 554.9 76.9999 557.3 79.4999C559.6 81.9999 561.4 85.0999 562.6 88.5999C563.8 92.0999 564.5 95.8999 564.5 99.9999C564.5 104.2 563.9 108 562.6 111.5C561.3 115 559.6 118 557.3 120.6C555 123.1 552.1 125.1 548.7 126.5C545.3 127.9 541.5 128.7 537.1 128.7ZM537.1 119.2C539.7 119.2 542.1 118.6 544 117.5C546 116.4 547.5 114.9 548.8 113.1C550.1 111.3 551 109.2 551.6 107C552.2 104.7 552.5 102.4 552.5 99.9999C552.5 97.6999 552.2 95.3999 551.6 93.0999C551 90.7999 550.1 88.7999 548.8 86.9999C547.5 85.1999 545.9 83.8 544 82.7C542 81.6 539.7 80.9999 537.1 80.9999C534.5 80.9999 532.1 81.6 530.2 82.7C528.2 83.8 526.7 85.2999 525.4 86.9999C524.1 88.7999 523.2 90.7999 522.6 93.0999C522 95.3999 521.7 97.6999 521.7 99.9999C521.7 102.4 522 104.7 522.6 107C523.2 109.3 524.1 111.3 525.4 113.1C526.7 114.9 528.3 116.4 530.2 117.5C532.2 118.7 534.5 119.2 537.1 119.2ZM568.1 72.8999H577.2V56.4999H589.2V72.7999H600V81.7H589.2V110.7C589.2 112 589.3 113 589.4 114C589.5 114.9 589.8 115.7 590.1 116.3C590.5 116.9 591.1 117.4 591.8 117.7C592.6 118 593.6 118.2 595 118.2C595.8 118.2 596.7 118.2 597.5 118.1C598.3 118 599.2 117.9 600 117.7V127C598.7 127.2 597.4 127.3 596.1 127.4C594.8 127.6 593.6 127.6 592.2 127.6C589 127.6 586.5 127.3 584.6 126.7C582.7 126.1 581.2 125.2 580.1 124.1C579 122.9 578.3 121.5 577.9 119.8C577.5 118.1 577.3 116 577.2 113.8V81.7999H568.1V72.7V72.8999Z" fill="black"/>
<path d="M143.7 52.2H88.8L71.9 0L54.9 52.2L0 52.1L44.4 84.4L27.4 136.6L71.8 104.3L116.2 136.6L99.3 84.4L143.7 52.2Z" fill="#00B67A"/>
<path d="M103.1 96.1999L99.2999 84.3999L71.8999 104.3L103.1 96.1999Z" fill="#005128"/>
</svg>
