<svg width="29" height="29" viewBox="0 0 29 29" fill="none" xmlns="http://www.w3.org/2000/svg">
<path d="M14.5 0.500015C6.76791 0.500015 0.499992 6.76793 0.499992 14.5C0.499992 22.2321 6.76791 28.5 14.5 28.5C22.2321 28.5 28.5 22.2321 28.5 14.5C28.5 6.76793 22.2321 0.500015 14.5 0.500015ZM20.1948 11.9683C20.2006 12.0879 20.2021 12.2075 20.2021 12.3242C20.2021 15.97 17.4298 20.1715 12.3577 20.1715C10.859 20.174 9.3914 19.7435 8.13145 18.9319C8.34583 18.9581 8.56603 18.9683 8.78916 18.9683C10.0812 18.9683 11.2698 18.5294 12.2133 17.7886C11.6383 17.7773 11.0812 17.5869 10.6195 17.2439C10.1579 16.9009 9.81473 16.4225 9.63791 15.8752C10.0508 15.9537 10.4762 15.9373 10.8819 15.8271C10.2578 15.7009 9.69653 15.3627 9.29332 14.8699C8.8901 14.3772 8.66973 13.7601 8.66958 13.1233V13.0898C9.04145 13.2954 9.46728 13.4208 9.91937 13.4354C9.33428 13.046 8.9201 12.4477 8.76152 11.7629C8.60294 11.0782 8.71194 10.3587 9.06624 9.75168C9.75889 10.6033 10.6227 11.3001 11.6017 11.7967C12.5806 12.2934 13.653 12.5789 14.7494 12.6348C14.61 12.0432 14.67 11.4221 14.92 10.868C15.17 10.314 15.5961 9.85813 16.132 9.57123C16.6678 9.28434 17.2835 9.18253 17.8832 9.28162C18.4829 9.38071 19.033 9.67516 19.4481 10.1192C20.0652 9.99708 20.657 9.77072 21.1981 9.44981C20.9924 10.0888 20.5618 10.6313 19.9862 10.9767C20.5329 10.9108 21.0667 10.7639 21.57 10.5406C21.2003 11.0947 20.7346 11.5782 20.1948 11.9683Z" fill="white"/>
</svg>
