<svg width="25" height="25" viewBox="0 0 25 25" fill="none" xmlns="http://www.w3.org/2000/svg">
<path d="M12.7906 0.166016C6.05006 0.166016 0.585938 5.63014 0.585938 12.3707C0.585938 19.1112 6.05006 24.5753 12.7906 24.5753C19.5311 24.5753 24.9952 19.1112 24.9952 12.3707C24.9952 5.63014 19.5311 0.166016 12.7906 0.166016ZM17.7551 10.1637C17.7602 10.2679 17.7614 10.3722 17.7614 10.4739C17.7614 13.6522 15.3447 17.3148 10.923 17.3148C9.61648 17.317 8.33712 16.9417 7.23874 16.2342C7.42563 16.2571 7.6176 16.266 7.81211 16.266C8.9385 16.266 9.97462 15.8833 10.7972 15.2375C10.2959 15.2276 9.8102 15.0617 9.40775 14.7627C9.00531 14.4637 8.70616 14.0466 8.55201 13.5695C8.912 13.638 9.28283 13.6236 9.63645 13.5276C9.09239 13.4175 8.60312 13.1227 8.25161 12.6932C7.90011 12.2636 7.708 11.7256 7.70786 11.1705V11.1413C8.03205 11.3206 8.40327 11.4299 8.79738 11.4426C8.28733 11.1031 7.92625 10.5815 7.78801 9.98457C7.64977 9.38764 7.74479 8.76045 8.05366 8.23126C8.65748 8.97371 9.41049 9.58107 10.2639 10.014C11.1174 10.447 12.0522 10.6959 13.008 10.7447C12.8865 10.2289 12.9388 9.68743 13.1567 9.20446C13.3747 8.72148 13.7461 8.32405 14.2133 8.07395C14.6804 7.82385 15.2171 7.73509 15.7399 7.82147C16.2627 7.90786 16.7423 8.16455 17.1042 8.55163C17.6422 8.44519 18.1581 8.24785 18.6298 7.96809C18.4504 8.5251 18.075 8.99808 17.5733 9.29916C18.0498 9.24177 18.5152 9.11365 18.9539 8.91904C18.6316 9.40201 18.2256 9.8235 17.7551 10.1637Z" fill="#6E6F6F"/>
</svg>
